<?xml version="1.0" encoding="utf-8"?>
<!-- Generator: Adobe Illustrator 25.4.1, SVG Export Plug-In . SVG Version: 6.00 Build 0)  -->
<svg version="1.1" id="Texto3" xmlns="http://www.w3.org/2000/svg" xmlns:xlink="http://www.w3.org/1999/xlink" x="0px" y="0px"
	 viewBox="0 0 1242 1866" style="enable-background:new 0 0 1242 1866;" xml:space="preserve">
<style type="text/css">
	.st0{fill:#4D4D4D;}
</style>
<g>
	
		<text transform="matrix(1 0 0 1 1918.4238 1781.5288)" class="st0" style="font-family:'Baskerville-SemiBold'; font-size:51.0146px; letter-spacing:7;">Te esperamos</text>
</g>
<g>
	<path class="st0" d="M349.5,1750.1c14.8,11.9,36.3-9.7,37.5-22.5c0.2-0.1,0.7,15.3-10.8,23c-24.1,16.5-43.1-6.6-30.1-26.2
		c4.9-7.4,24.9-22.9,62.7-18.1c35.6,4.6,45.1,2.5,53.5,0.1c15.6-4.6,21.2-13.2,21.2-13.2c-12.4,22.1-51.3,20.7-71.3,17.2
		C348.7,1699.1,334.4,1737.8,349.5,1750.1z M394.7,1769.5c-8.7,22.8-19.8,37.5-27.3,42.3c-7.6,4.8-12.4,1.7-12.4,1.7
		s12.4-2.4,23.7-23.3c13-24,26.9-65.2,31.3-73.2c3.7-6.6,4.8-3.4,4.8-3.4C418.7,1716,405.7,1740.8,394.7,1769.5z"/>
	<path class="st0" d="M416,1775.1c-1.8,8.8,3,12.2,8,10.2c8.5-3.3,16.5-21.9,22.4-21.7c-5.8,5.4-6.3,7.1-10.3,12.2
		c-5.3,6.8-10.8,12.6-17.3,11.9c-8.6-0.9-9.6-11.7-7.4-16.7c2.3-5.3,6.9-11.2,14.1-11.7c5.9-0.3,8.2,5.3,2.5,10.1
		c-3.4,2.9-8.5,4.2-11.8,4.8C416.2,1774.5,416,1774.9,416,1775.1z M420.9,1771.8c9.3-3.1,10.9-10.1,6.1-8.9c0,0-7.6,0.9-10.4,10.1
		C417.7,1772.7,419.3,1772.4,420.9,1771.8z"/>
	<path class="st0" d="M482.2,1775.1c-1.8,8.8,3,12.2,8,10.2c8.5-3.3,16.5-21.9,22.4-21.7c-5.8,5.4-6.3,7.1-10.3,12.2
		c-5.3,6.8-10.8,12.6-17.3,11.9c-8.6-0.9-9.6-11.7-7.4-16.7c2.3-5.3,6.9-11.2,14.1-11.7c5.9-0.3,8.2,5.3,2.5,10.1
		c-3.4,2.9-8.5,4.2-11.8,4.8C482.5,1774.5,482.2,1774.9,482.2,1775.1z M487.2,1771.8c9.3-3.1,10.9-10.1,6.1-8.9
		c0,0-7.6,0.9-10.4,10.1C484,1772.7,485.6,1772.4,487.2,1771.8z"/>
	<path class="st0" d="M513.8,1764.5c-0.5,1.6-0.5,4,1,6.5c2.1,3.5,4.2,6.5,5.1,9.3c11.4-5.6,14.2-8.9,20-16.6
		c-2.5,7.8-10.5,13.4-19.7,17.7c1.7,5.4,1.5,9.7-1.9,15.1c-5.8,9.3-18.3,12.2-22.3,7.3c-5.5-6.9,3.2-14.3,15.9-20
		c1.8-0.8,3.3-1.6,4.8-2.3c-0.3-2.2-1.3-4.3-2.7-6.8c-5.5-8.6-4.6-9.6-4.5-11.6c0.2-3.7,4.6-7.4,4.6-7.4c2.5-1.8,3.2,1.8,2.6,4
		C515.5,1761.3,514.3,1763,513.8,1764.5z M515.3,1783.4c-10.6,4.6-20,10.6-19.2,16.5c0.6,4,4,5.3,8.2,2.9c4.3-2.4,13.6-10,12.7-19.9
		C516.4,1783,515.9,1783.1,515.3,1783.4z"/>
	<path class="st0" d="M494,1835.7c-1-15.1,26.7-39.9,31.1-43.9c1.7-1.6,3.2-2.9,4.2-3.5c1.9-6.5,3.3-11.4,3.9-12.9
		c3.7-10.6,5.9-12.1,7.3-11.6c1.9,0.9,1.8,3.2,0.7,6.8c3.7-4.5,8.5-8.8,14.9-8.9c7.9-0.2,10.2,7.4,7.6,16.2
		c6.1-2.1,12-5.5,17.4-13.8c-2.9,9-10,12.5-17.7,15c-0.9,2.6-2.4,5.6-4.3,8.2c-8.4,11.9-19.1,10.4-20.5,6.5
		c-1.1-3.3,1.1-6.3,4.6-8.6c4.9-3.2,10-4.3,15-5.7c2.7-7.1,3.3-15.6-1.7-16c-6.6-0.7-12.4,5.3-16.4,10.6c-1.8,4.7-4.6,10.9-6.8,18.1
		c-4,13.4-9.5,29.5-16.5,40.3C507.6,1846.4,494.7,1846.1,494,1835.7z M521.7,1797.2c-9.5,8.8-16,16.2-21.7,25.7
		c-6.2,10.3-5.1,18.9,0.6,18.4c11.8-1.1,22.4-31.8,28.3-51.1C527.3,1791.8,525.1,1794.1,521.7,1797.2z M544.2,1785.9
		c-4.1,2.6-5,6.1-4.1,7.6c2.4,3.9,9.7-0.8,14.6-7.9c1-1.4,1.9-3,2.7-4.8C552.7,1782.1,548.1,1783.5,544.2,1785.9z"/>
	<path class="st0" d="M577.3,1775.1c-1.8,8.8,3,12.2,8,10.2c8.5-3.3,16.5-21.9,22.4-21.7c-5.8,5.4-6.3,7.1-10.3,12.2
		c-5.3,6.8-10.8,12.6-17.3,11.9c-8.6-0.9-9.6-11.7-7.4-16.7c2.3-5.3,6.9-11.2,14.1-11.7c6-0.3,8.2,5.3,2.5,10.1
		c-3.4,2.9-8.5,4.2-11.8,4.8C577.5,1774.5,577.3,1774.9,577.3,1775.1z M582.2,1771.8c9.3-3.1,10.9-10.1,6.1-8.9
		c0,0-7.6,0.9-10.4,10.1C579,1772.7,580.6,1772.4,582.2,1771.8z"/>
	<path class="st0" d="M610.5,1764.6c7.4,4.7,10,9.8,3.5,19.2c-6.8,9.8-7.8,25.6,1.6,18.1c5.5-4.5,9.6-12.1,16.5-23.7
		c6.6-11.2,8.2-13,11.2-14.6c-0.9,1.7-6.1,8.7-9.5,14.9c-7.7,14-15.7,27.3-22.7,26.8c-7-0.6-9.8-10.3-5.3-19.5
		c4.9-10.1,10.5-14.1,1.6-19.8c-11.3-7.3-5.4-13.2-2.6-14.8c3.3-1.9,8.2-1.1,8.2,3.8c0,3.7-2.5,6.8-4.5,8.5
		C609.2,1763.8,609.8,1764.2,610.5,1764.6z M607.2,1752.4c-3.2,1.4-4.9,5.8,0.8,10.5c1.9-2.3,3.3-4.7,3.7-6.1
		C612.4,1753.7,609.8,1751.2,607.2,1752.4z"/>
	<path class="st0" d="M658.1,1790.7c6.5-9.6,14.5-26,20.1-27.2c-5.7,6.5-7.2,9.5-10.5,14.8c-6.3,10.2-9.7,17-13.4,16.5
		c-4.1-0.7-7.9-6.1-3.7-17.6c0.1-0.5,0.3-0.9,0.5-1.4c-4.7,5.7-9.2,11.2-13.5,6.3c-4.5-5-0.1-14.1,4-17.8c3-2.7,8.6-5.1,14.5-3.7
		c6.6,1.7,1.6,1.7,1.6,1.7s-8.5-1.8-14.5,7.9c-4.5,7.2-1.9,13.7,1.6,10.4c1.9-1.8,6.2-7.2,9.5-11.4c1.7-2.7,3.5-6.1,5.3-6.1
		c1.7-0.1,5.9,0.5,2.2,5.3C651.3,1781.8,651.1,1800.9,658.1,1790.7z"/>
	<path class="st0" d="M681.4,1768.6c0.1,2.4-2.6,7.9-3.1,8.9c0.3,0,1.3-1.6,3.8-4.7c3.2-4,6.5-6.6,9-6.3c3.7,1.3,3.9,4.2,2.4,7.8
		c-1.5,3.5-3.1,10.1,0.3,5.8c2.7-3.3,14.4-18.6,19.2-20.9c3.9-1.8,8.4,1,5.9,8.5c-0.8,2.7-3.4,7.7-7.9,14.3
		c-6.6,9.8-6.6,19.8,0.6,14c11.1-8.8,15.7-32.7,26.2-32.4c-8.6,3.9-11.9,15-15.7,21.4c-7.1,12.2-13,16.1-17.3,13.2
		c-4.3-3-5.4-8.1-0.2-16.5c7.1-11.4,12.9-25.3,7.7-20.8c-7.4,6.3-15.9,18.5-18.1,20.8c-1.9,2.1-4.1,2.1-5.6,0.6
		c-1.3-1.4-1.9-4.2,0.8-11.1c2.5-6.2-0.8-3.2-3.5-0.8c-4.9,4.5-11.3,17-12.8,19.5c-2.5,4-6.1-1-4.6-5.1c0.2-0.7,8.4-18.6,7.4-20.7
		C677.2,1763.2,681.2,1763,681.4,1768.6z"/>
	<path class="st0" d="M737.6,1757.3c5.1-0.1,9.3,3,9.3,11.1c0,2.4-0.6,5.7-1.5,8.9c1.6-0.7,3.3-1.7,5-3.1c6.9-5.5,8.5-11,12-10.6
		c-3.8,2.9-7,9.5-13.4,13.4c-1.3,0.8-2.6,1.4-4.1,1.8c-2.5,7.7-7.4,15.3-13,15.1c-8-0.2-8.6-10.8-4.8-18.2c0.5-0.9,0.9-1.8,1.4-2.6
		C723.8,1764.3,731.3,1757.4,737.6,1757.3z M732.2,1777.4c-1.1,2.1-2.1,4.1-2.6,6.2c-1.5,5.6,1.4,11.7,6.3,7.3
		c2.4-2.2,5.1-6.6,7.1-11.7C739.2,1779.9,735.3,1779.6,732.2,1777.4z M735.9,1763.6c3.1-0.5,3.4,2.5,3.2,4.2c0,0.1-3.3,3.7-6.1,8.2
		c2.6,2.1,6.4,2.9,10.5,1.8c2.4-6.9,3.1-14.3-0.9-17.6c-5.4-4.6-11.8,0.7-12.9,4.6c-0.6,2.2-0.6,4.3,0,6.2
		C732.6,1766.3,735,1763.7,735.9,1763.6z"/>
	<path class="st0" d="M763,1764.5c-0.5,1.6-0.5,4,1,6.5c2.1,3.5,4.2,6.5,5.1,9.3c11.4-5.6,14.2-8.9,20-16.6
		c-2.5,7.8-10.5,13.4-19.7,17.7c1.7,5.4,1.5,9.7-1.9,15.1c-5.8,9.3-18.3,12.2-22.3,7.3c-5.5-6.9,3.2-14.3,15.9-20
		c1.8-0.8,3.3-1.6,4.8-2.3c-0.3-2.2-1.3-4.3-2.7-6.8c-5.5-8.6-4.6-9.6-4.5-11.6c0.2-3.7,4.6-7.4,4.6-7.4c2.5-1.8,3.2,1.8,2.6,4
		C764.7,1761.3,763.5,1763,763,1764.5z M764.5,1783.4c-10.6,4.6-20,10.6-19.2,16.5c0.6,4,4,5.3,8.2,2.9c4.3-2.4,13.6-10,12.7-19.9
		C765.6,1783,765.1,1783.1,764.5,1783.4z"/>
	<path class="st0" d="M825.6,1775.1c-1.8,8.8,3,12.2,8,10.2c8.5-3.3,16.5-21.9,22.4-21.7c-5.8,5.4-6.3,7.1-10.3,12.2
		c-5.3,6.8-10.8,12.6-17.3,11.9c-8.6-0.9-9.6-11.7-7.4-16.7c2.3-5.3,6.9-11.2,14.1-11.7c6-0.3,8.2,5.3,2.5,10.1
		c-3.4,2.9-8.5,4.2-11.8,4.8C825.8,1774.5,825.6,1774.9,825.6,1775.1z M830.5,1771.8c9.3-3.1,10.9-10.1,6.1-8.9
		c0,0-7.6,0.9-10.4,10.1C827.3,1772.7,828.9,1772.4,830.5,1771.8z"/>
	<path class="st0" d="M860.6,1767.2c0.1,3.8-1.1,5.6-3.2,10c4.8-6.9,15.9-17.8,23.5-19.9c4.3-1.1,6.3,2.9,5.9,5.8
		c-0.6,4.5-13.3,21.9-14.9,28.3c-2.3,9.5,3.7,6.4,5.5,5c5.5-4.1,15.8-22.7,20.5-28c5.7-6.6,7.9-4.5,7.9-4.5
		c-9,2.2-20,31.3-30.1,35.4c-3,1.3-7.6,0.5-8.9-4.3c-2.6-9.6,14.8-31.8,15.3-35.1c0.6-3.8-10.5,3-18.3,11.9
		c-5.3,6.1-8,10.6-10.3,14.2c-0.5,0.8-3.1,0.8-4.2-1.1c-0.5-0.8-1.8-2.6,2.4-11.3c4.7-9.5,2.7-9.2,2.7-9.2
		C855.4,1762.8,860.5,1763.6,860.6,1767.2z"/>
</g>
</svg>
