<?xml version="1.0" encoding="utf-8"?>
<!-- Generator: Adobe Illustrator 25.4.1, SVG Export Plug-In . SVG Version: 6.00 Build 0)  -->
<svg version="1.1" id="Capa_1" xmlns="http://www.w3.org/2000/svg" xmlns:xlink="http://www.w3.org/1999/xlink" x="0px" y="0px"
	 viewBox="0 0 1242 2208" style="enable-background:new 0 0 1242 2208;" xml:space="preserve">
<style type="text/css">
	.st0{display:none;}
	.st1{display:inline;opacity:0.3;fill:#FCF8F0;enable-background:new    ;}
	.st2{fill:#4D4D4D;}
	.st3{fill:none;}
	.st4{fill:none;stroke:#4D4D4D;stroke-width:2;stroke-miterlimit:10;}
</style>
<g id="fondo" class="st0">
	<rect x="-16.9" y="-29.6" class="st1" width="1275.5" height="2267.5"/>
</g>
<g id="Capa_2_00000086679546629099905610000014225892356357704576_" class="st0">
</g>
<g id="Capa_4" class="st0">
</g>
<g>
	<g>
		<path class="st2" d="M374.4,1413.3c3.2-18.3,22.6-27.2,38.4-29.1c1.4-0.2,3-0.4,4.6-0.4c9-10.9,20.9-14.6,26.4-15.5
			c13.9-2.1,21.3,5.8,13.7,11.3c-5.5,3.8-22.5,4.3-35.5,5c-7.1,8.9-10.1,18.2-8.9,24.3c1.7,8.2,7.1,10.5,20.8,5
			c10.5-4.2,20.5-19,23.9-25c0.5-1.1,0.8-1.7,0.8-1.7c1.5-1,2.9,0.4,2.4,5.4c0,0-8.2,22.2-16.9,40.6c4.5,0.7,9,1.5,16.2,2.1
			c14.3,1.2,21.7-1.1,30.1-4.3c-8.3,3.8-17.2,7.9-45.1,3.1c-0.5-0.1-1.1-0.2-1.7-0.4c-3.7,7.9-7.6,14.9-10.9,19.2
			c-7.7,9.6-17.2,12-24.4,11.4c-12.3-1-12.6-11.9-9-17.8c5.2-9,18.9-14,31.4-14.4c3.4-0.1,6.4,0,9,0.4c1.3-3,2.4-6.1,3.7-9.3
			c4.4-11.4,8.3-20.3,10.9-26.3c-5,7.7-13.2,16.1-23.2,19.4c-23.3,7.7-25.5-13.2-17.8-26.5c1-1.7,2-3.2,3.2-4.8
			C394.1,1386.8,379.7,1396.9,374.4,1413.3z M407.3,1440.2c-12,7.7-11.2,22,0.5,23.2c15.1,1.4,23.6-11.5,31.4-30
			C424.8,1432.1,414.9,1435.4,407.3,1440.2z M426.6,1379.6c-1.3,1.2-2.4,2.5-3.6,3.8c11.1-0.7,24.5-1.2,29.6-2.9
			c11.8-3.7,5.4-10.9-1.7-11.2C441.1,1368.9,432.8,1373.6,426.6,1379.6z"/>
		<path class="st2" d="M469.8,1401.6c3.8-0.1,7,2.3,7,8.4c0,1.8-0.4,4.4-1.1,6.8c1.2-0.5,2.5-1.3,3.8-2.4c5.1-4.2,6.4-8.4,9-8.1
			c-2.9,2.1-5.2,7.3-10.2,10.2c-1,0.6-2,1-3.1,1.4c-1.9,5.7-5.6,11.7-9.9,11.4c-6.1-0.2-6.5-8.2-3.7-13.8c0.4-0.7,0.7-1.4,1-2
			C459.3,1407,465,1401.8,469.8,1401.6z M465.7,1416.9c-1,1.5-1.5,3.1-2,4.6c-1.1,4.3,1,8.9,4.8,5.6c1.8-1.7,3.8-5,5.4-8.9
			C471.1,1418.9,468.1,1418.5,465.7,1416.9z M468.5,1406.5c2.4-0.4,2.6,1.9,2.4,3.2c0,0.1-2.5,2.7-4.5,6.3c2,1.5,4.9,2.1,8,1.4
			c1.8-5.1,2.4-10.9-0.7-13.3c-4-3.5-9,0.5-9.8,3.4c-0.4,1.7-0.4,3.2,0,4.6C466,1408.5,467.8,1406.5,468.5,1406.5z"/>
		<path class="st2" d="M488.7,1401.6c3.8-0.1,7,2.3,7,8.4c0,1.8-0.4,4.4-1.1,6.8c1.2-0.5,2.5-1.3,3.8-2.4c5.1-4.2,6.4-8.4,9-8.1
			c-2.9,2.1-5.2,7.3-10.2,10.2c-1,0.6-2,1-3.1,1.4c-1.9,5.7-5.6,11.7-9.9,11.4c-6.1-0.2-6.5-8.2-3.7-13.8c0.4-0.7,0.7-1.4,1-2
			C478.2,1407,483.9,1401.8,488.7,1401.6z M484.6,1416.9c-1,1.5-1.5,3.1-2,4.6c-1.1,4.3,1,8.9,4.8,5.6c1.8-1.7,3.8-5,5.4-8.9
			C489.9,1418.9,486.9,1418.5,484.6,1416.9z M487.4,1406.5c2.4-0.4,2.6,1.9,2.4,3.2c0,0.1-2.5,2.7-4.5,6.3c2,1.5,4.9,2.1,8,1.4
			c1.8-5.1,2.4-10.9-0.7-13.3c-4-3.5-9,0.5-9.8,3.4c-0.4,1.7-0.4,3.2,0,4.6C484.9,1408.5,486.7,1406.5,487.4,1406.5z"/>
		<path class="st2" d="M508.8,1422c3.3-1,6.1-0.8,8.1,0.2c8.3-5.2,13.1-8.9,16.9-15.8c-0.8,5.6-7.5,11.1-15.8,16.4
			c3.7,2.5,4.5,8.1,3.7,12.5c-1.7,8.2-6.5,15.1-15.5,20.8c-6.8,4.3-15.8,5.2-19.4,2.9c-9-6.3,3.8-20.2,13.6-26.4
			c5.9-3.8,10.9-7,15-9.5c-1.5-0.6-3.3-0.8-5.8-0.4c-4,1-6.9,2.1-6.9,2.1S505.1,1422.9,508.8,1422z M501.1,1433.5
			c-20.8,13.8-20.5,30.7-3.4,23c19.3-9,21.9-22.5,21.1-28.3c-0.4-1.5-1-3.2-2.4-4.3C511.5,1427,506.2,1430.1,501.1,1433.5z
			 M517.1,1405.2c0.4,0.4,1,0.7,1.2,1.4c1.5,4.4-3.7,11.2-9.9,14.5c-5.6,3.1-9.4,1.8-10.2-3c-1.4-7.7,7.7-13.8,11.8-14.9
			c1.8-0.5,3.2-0.6,4.4-0.6C517.1,1403.1,517.8,1404.5,517.1,1405.2z M505.2,1410.8c-4.4,4.8-5.5,10.6-1.9,10.3
			c3.7-0.4,7.6-3,11.1-7.3c2.7-3.5,2.6-7,1.8-8.4C514.6,1405.4,509.7,1406.4,505.2,1410.8z"/>
		<path class="st2" d="M528.7,1430.7c-0.4,2.5,0.1,4.4,2.4,1.3c6.8-9.5,15-22.5,22-25.5c-4.8,4.4-10.9,11.4-15.8,18.7
			c-6.8,10-7.7,10.6-9.6,9.6c-3.6-1.8-1.8-12.1,0.4-19.2c2.6-8.4,9.5-25.2,17.1-36.4c3.7-5.4,7-9.6,10.3-11.8
			c2.6-1.8,5.8-2.5,7.7,0.1c3.8,5.7-17.6,30.2-24,36c-1.2,1.1-2,1.9-2.7,2.4C530.6,1418.8,529.1,1426,528.7,1430.7z M539.8,1397.7
			c-1,2.1-2,4.3-2.9,6.2c3.3-3.4,9.6-10.1,13.2-14.8c8.4-10.7,10.9-16.1,11.5-18.4c1.5-6.1-4.6,0.4-6.4,2.1
			C552.6,1376.1,547,1383.1,539.8,1397.7z"/>
		<path class="st2" d="M548.8,1415.2c-1.4,6.8,2.3,9.3,6.1,7.7c6.4-2.5,12.5-16.5,17-16.4c-4.4,4-4.8,5.4-7.9,9.3
			c-3.9,5-8.2,9.6-13.1,9c-6.5-0.7-7.3-8.9-5.6-12.6c1.7-3.9,5.1-8.4,10.7-8.9c4.4-0.4,6.3,3.9,1.9,7.7c-2.6,2.1-6.4,3.2-9,3.7
			C548.9,1414.6,548.8,1415,548.8,1415.2z M552.5,1412.6c7-2.4,8.3-7.7,4.5-6.8c0,0-5.7,0.7-7.9,7.7
			C550.1,1413.3,551.3,1413.1,552.5,1412.6z"/>
		<path class="st2" d="M605.4,1410.2c0.1,1.8-2,5.9-2.4,6.8c0.4,0,1-1.2,2.9-3.6c2.4-3,5-5,6.9-4.8c2.7,1,3,3.2,1.8,5.8
			c-1.1,2.6-2.4,7.7,0.4,4.4c2-2.5,10.9-14.2,14.5-15.8c3-1.4,6.4,0.8,4.4,6.4c-0.6,2.1-2.6,5.7-5.9,10.9c-5,7.5-5,15,0.4,10.6
			c8.4-6.8,11.9-24.9,19.9-24.5c-6.5,3-9,11.4-11.9,16.2c-5.4,9.3-9.9,12.3-13.1,10c-3.2-2.3-4-6.2-0.2-12.5
			c5.4-8.7,9.8-19.2,5.7-15.8c-5.6,4.8-12,14-13.8,15.8c-1.5,1.5-3.1,1.5-4.3,0.4c-1-1-1.5-3.2,0.6-8.4c1.9-4.6-0.6-2.4-2.6-0.6
			c-3.7,3.3-8.6,13-9.8,14.8c-1.9,3-4.5-0.8-3.5-3.8c0.2-0.5,6.4-14.2,5.6-15.7C602.2,1406,605.3,1405.9,605.4,1410.2z"/>
		<path class="st2" d="M658.3,1427c5-7.3,11.1-19.7,15.2-20.7c-4.4,5-5.5,7.3-8,11.2c-4.8,7.7-7.4,13-10.2,12.5
			c-3.1-0.5-5.9-4.5-2.7-13.3c0.1-0.4,0.4-0.7,0.4-1c-3.6,4.4-7,8.4-10.3,4.8c-3.3-3.8-0.1-10.7,3-13.6c2.3-2.1,6.5-3.8,11.1-2.7
			c5,1.3,1.2,1.3,1.2,1.3s-6.4-1.4-11.1,5.9c-3.3,5.5-1.5,10.5,1.2,7.9c1.5-1.4,4.6-5.5,7.3-8.7c1.3-2.1,2.6-4.5,3.9-4.5
			c1.3-0.1,4.4,0.4,1.7,3.9C653.1,1420.2,653,1434.7,658.3,1427z"/>
		<path class="st2" d="M637.7,1461.1c-0.8-11.4,20.2-30.2,23.7-33.3c1.3-1.2,2.4-2.1,3.2-2.6c1.5-5,2.5-8.7,3-9.8
			c2.7-8.1,4.4-9.2,5.6-8.8c1.5,0.7,1.4,2.4,0.5,5c2.7-3.3,6.4-6.8,11.3-6.8c5.9-0.2,7.7,5.6,5.7,12.4c4.5-1.5,9-4.2,13.1-10.5
			c-2.1,6.9-7.6,9.5-13.4,11.4c-0.7,2-1.8,4.3-3.2,6.3c-6.4,9-14.5,7.9-15.5,5c-0.8-2.5,0.8-4.8,3.5-6.5c3.7-2.4,7.6-3.2,11.4-4.4
			c2-5.4,2.5-11.8-1.3-12.1c-5-0.5-9.4,3.9-12.5,8.1c-1.4,3.6-3.4,8.3-5,13.8c-3,10.2-7.3,22.5-12.5,30.6
			C648.2,1469.3,638.3,1469.1,637.7,1461.1z M658.9,1432c-7.3,6.8-12.1,12.4-16.4,19.6c-4.6,7.9-3.8,14.4,0.4,13.9
			c9-0.8,17-24.1,21.4-38.8C663.1,1427.8,661.4,1429.5,658.9,1432z M675.8,1423.3c-3.1,2-3.8,4.5-3.1,5.7c1.8,3,7.4-0.6,11.1-5.9
			c0.8-1,1.5-2.3,2-3.7C682.5,1420.6,678.9,1421.5,675.8,1423.3z"/>
		<path class="st2" d="M705.6,1407.2c-0.4,1.2-0.4,3,0.8,5c1.5,2.6,3.2,5,3.8,7c8.7-4.3,10.8-6.8,15.1-12.5c-1.9,5.8-8,10.2-15,13.4
			c1.3,4,1.1,7.4-1.5,11.4c-4.4,7-13.8,9.3-16.9,5.6c-4.2-5.1,2.4-10.9,12-15.1c1.4-0.6,2.5-1.2,3.7-1.7c-0.4-1.7-1-3.2-2-5
			c-4.2-6.5-3.4-7.3-3.3-8.8c0.2-2.7,3.5-5.6,3.5-5.6c1.9-1.4,2.4,1.4,2,3C706.9,1404.6,705.9,1405.9,705.6,1407.2z M706.7,1421.4
			c-8.1,3.4-15.1,8.1-14.5,12.5c0.4,3,3,3.9,6.3,2.1c3.2-1.8,10.3-7.6,9.6-15.1C707.6,1421.3,707.1,1421.3,706.7,1421.4z"/>
		<path class="st2" d="M751.1,1430.7c-0.4,2.5,0.1,4.4,2.4,1.3c6.8-9.5,15-22.5,22-25.5c-4.8,4.4-10.9,11.4-15.8,18.7
			c-6.8,10-7.7,10.6-9.6,9.6c-3.6-1.8-1.8-12.1,0.4-19.2c2.6-8.4,9.5-25.2,17.1-36.4c3.7-5.4,7-9.6,10.3-11.8
			c2.6-1.8,5.8-2.5,7.7,0.1c3.8,5.7-17.6,30.2-24,36c-1.2,1.1-2,1.9-2.7,2.4C753.3,1418.8,751.7,1426,751.1,1430.7z M762.5,1397.7
			c-1,2.1-2,4.3-2.9,6.2c3.3-3.4,9.6-10.1,13.2-14.8c8.4-10.7,10.9-16.1,11.5-18.4c1.5-6.1-4.6,0.4-6.4,2.1
			C775.2,1376.1,769.7,1383.1,762.5,1397.7z"/>
		<path class="st2" d="M781.3,1416.6c-3.9,5.2-7.1,8.6-10.5,7.6c-5.4-1.7-0.8-15.1,3-17.7c1.7-0.8,2.6,0.1,2.4,1.4
			c-0.4,2.1-2.6,5.4-3.7,9.2c-0.7,2.9-1.5,6.2,0.6,5.8c2.6-0.4,7.7-7.9,11.1-12.1c2.9-3.6,3.7-4.5,5.6-4.5
			C787,1407.8,784.9,1411.9,781.3,1416.6z M777.1,1402.9c-1-0.4-1.1-1-0.4-2.4c0.8-1.7,0.4-2,1.7-2.7c1-0.5,4-0.2,3,2
			C780.4,1402,778.2,1403.2,777.1,1402.9z"/>
		<path class="st2" d="M792.6,1409.2c0.1,2.9-0.8,4.3-2.4,7.6c3.7-5.1,12-13.6,17.8-15.1c3.2-0.8,4.8,2.1,4.4,4.4
			c-0.4,3.3-10.1,16.5-11.3,21.4c-1.7,7.3,2.7,4.9,4.2,3.8c4.2-3.1,12-17.1,15.5-21.3c4.4-5,5.9-3.3,5.9-3.3
			c-6.9,1.7-15.1,23.8-22.8,26.8c-2.3,1-5.7,0.4-6.8-3.2c-2-7.3,11.2-24.1,11.7-26.6c0.4-2.9-8,2.3-13.8,9
			c-3.9,4.5-6.1,8.1-7.9,10.8c-0.4,0.6-2.4,0.6-3.2-0.8c-0.4-0.6-1.4-2,1.8-8.6c3.6-7.3,2-7,2-7
			C788.7,1405.8,792.6,1406.5,792.6,1409.2z"/>
		<path class="st2" d="M858.4,1369.8c-0.8,10.3-23.2,31.5-30.6,37.4c-1.8,3.2-2,5-3.3,8.6c1.3-2.4,9.3-12.1,15.7-10.9
			c5.9,1.2,3.7,7.9-1,10.5c-3.2,1.8-9.2,3.9-9.4,4.6c6.5,2.9,1.5,10.7,4.4,13.8c5,3.2,13.1-21.8,23.2-27.2c-1.1,1-2,2.6-3.6,4.4
			c-7.3,8.1-10.9,18.2-15.1,22.5c-2,2-4.4,1.8-5.5,1.1c-6.8-3.8-0.5-12.8-5-13.8c-1-0.2-1.8-1.8-0.7-3c1.7-1.8,7.5-3.4,11.4-6.4
			c6.5-4.6,1.4-7.9-5-3.3c-8.2,5.7-9.6,10.9-12.4,19.2c-3.7,0-3.6-3.1-3-6.4c0.2-0.8,8.4-25.9,16.4-37.8
			c7.7-12.5,14.6-16.1,16.2-16.7C855.5,1364.8,858.7,1366.8,858.4,1369.8z M852.7,1369.3c-10.5,6.8-19.9,24.7-24.4,35.8
			c11.2-9.3,27.6-28,28.6-34.1C857.5,1368.2,855.3,1367.6,852.7,1369.3z"/>
	</g>
</g>
<g>
	<g>
		<g>
			<path class="st2" d="M587.3,1682.1v0.7c-1.8-0.9-3.3-1.9-4.4-3.2c-1.7-1.7-3-3.7-3.9-6.1s-1.4-4.7-1.4-7.2c0-3.6,0.9-7,2.7-10
				s4.2-5.2,7-6.4v0.8c-1.5,0.8-2.6,1.9-3.5,3.3s-1.7,3.2-2,5.3c-0.5,2.1-0.7,4.3-0.7,6.6c0,2.6,0.2,4.8,0.6,6.9
				c0.3,1.7,0.7,2.9,1.1,3.9c0.3,1,1,1.9,1.8,2.8C585.2,1680.4,586.2,1681.3,587.3,1682.1z"/>
			<path class="st2" d="M603.4,1668.9c-0.3,2.1-1.2,3.8-2.6,4.8c-1.2,1.1-2.6,1.8-4.2,1.8c-1.9,0-3.4-0.8-4.8-2.4
				c-1.4-1.6-2-3.6-2-6.3c0-2.6,0.8-4.6,2.3-6.2s3.4-2.4,5.5-2.4c1.6,0,2.9,0.3,3.9,1.2c1,0.9,1.6,1.8,1.6,2.6
				c0,0.5-0.1,0.8-0.3,1.1c-0.3,0.3-0.7,0.3-1.1,0.3c-0.7,0-1.1-0.2-1.6-0.7c-0.2-0.3-0.3-0.7-0.3-1.4c-0.1-0.7-0.3-1.2-0.7-1.6
				c-0.3-0.3-1-0.5-1.7-0.5c-1.1,0-2.1,0.3-2.8,1.2c-1,1.1-1.5,2.6-1.5,4.6c0,1.9,0.5,3.6,1.4,5.1c1,1.5,2.3,2.3,3.8,2.3
				c1.1,0,2.1-0.3,3.2-1.1c0.7-0.6,1.2-1.6,1.9-2.9L603.4,1668.9z"/>
			<path class="st2" d="M611.7,1650v21.4c0,1,0.1,1.7,0.2,2c0.1,0.3,0.3,0.6,0.7,0.8s0.9,0.3,1.7,0.3v0.6h-7.9v-0.6
				c0.8,0,1.2-0.1,1.6-0.2c0.3-0.2,0.5-0.3,0.6-0.8s0.2-1.1,0.2-2v-14.6c0-1.9,0-2.9-0.1-3.3c-0.1-0.3-0.2-0.7-0.3-0.9
				c-0.2-0.2-0.3-0.2-0.7-0.2s-0.7,0.1-1.1,0.3l-0.3-0.6l4.8-1.9h0.9L611.7,1650L611.7,1650z"/>
			<path class="st2" d="M622.2,1658.4v13.1c0,1,0.1,1.7,0.2,2c0.1,0.3,0.3,0.6,0.7,0.8s0.8,0.3,1.6,0.3v0.6h-7.9v-0.6
				c0.8,0,1.2-0.1,1.6-0.2c0.3-0.2,0.5-0.3,0.6-0.8c0.2-0.3,0.2-1.1,0.2-2v-6.3c0-1.8-0.1-2.8-0.2-3.4c-0.1-0.3-0.2-0.7-0.3-0.8
				c-0.2-0.1-0.3-0.2-0.7-0.2s-0.7,0.1-1.1,0.3l-0.3-0.6l4.8-1.9h0.9L622.2,1658.4L622.2,1658.4z M620.7,1650c0.5,0,0.9,0.2,1.2,0.5
				s0.5,0.8,0.5,1.2s-0.2,0.9-0.5,1.2c-0.3,0.3-0.8,0.5-1.2,0.5s-0.9-0.2-1.2-0.5s-0.5-0.8-0.5-1.2s0.2-0.9,0.5-1.2
				C619.7,1650.2,620.3,1650,620.7,1650z"/>
			<path class="st2" d="M640.8,1668.9c-0.3,2.1-1.2,3.8-2.6,4.8c-1.2,1.1-2.6,1.8-4.2,1.8c-1.9,0-3.4-0.8-4.8-2.4
				c-1.4-1.6-2-3.6-2-6.3c0-2.6,0.8-4.6,2.3-6.2s3.4-2.4,5.5-2.4c1.6,0,2.9,0.3,3.9,1.2c1,0.9,1.6,1.8,1.6,2.6
				c0,0.5-0.1,0.8-0.3,1.1c-0.3,0.3-0.7,0.3-1.1,0.3c-0.7,0-1.1-0.2-1.6-0.7c-0.2-0.3-0.3-0.7-0.3-1.4c-0.1-0.7-0.3-1.2-0.7-1.6
				c-0.3-0.3-1-0.5-1.7-0.5c-1.1,0-2.1,0.3-2.8,1.2c-1,1.1-1.5,2.6-1.5,4.6c0,1.9,0.5,3.6,1.4,5.1c1,1.5,2.3,2.3,3.8,2.3
				c1.1,0,2.1-0.3,3.2-1.1c0.7-0.6,1.2-1.6,1.9-2.9L640.8,1668.9z"/>
			<path class="st2" d="M643.7,1650.7v-0.8c1.8,0.9,3.3,1.9,4.5,3.2c1.7,1.7,2.9,3.7,3.9,6.1c0.9,2.4,1.4,4.7,1.4,7.2
				c0,3.6-0.9,7-2.6,10c-1.8,3-4.2,5.2-7,6.4v-0.7c1.5-0.8,2.6-1.9,3.5-3.3c1-1.4,1.7-3.2,2-5.3c0.5-2.1,0.7-4.4,0.7-6.6
				c0-2.6-0.2-4.8-0.6-6.9c-0.3-1.7-0.7-2.9-1.1-3.9c-0.3-1-1-1.9-1.8-2.8C645.8,1652.5,644.9,1651.6,643.7,1650.7z"/>
		</g>
	</g>
	<a xlink:href="https://goo.gl/maps/JhobESTnD7hHzmNx7"  pointer-events="all" target="_blank">
		<rect x="535" y="1489.8" class="st3" width="163" height="202.5"/>
		<path class="st2" d="M684.9,1523.5c-10.2-23.2-41.2-29-59.2-11.3c-0.8,0.7-1.5,1-2.5,1c-18,0-36,0-54,0c-9.8,0-17.3,7.5-17.3,17.3
			c0,30.2,0,60.1,0,90.2c0,1.1,0.1,2.5,0.3,3.6c1.9,8.4,8.6,13.7,17.2,13.7c15,0,29.8,0,44.8,0s29.8,0,44.8,0c1.9,0,4.1-0.3,5.9-0.9
			c7.3-2.5,11.8-8.8,11.8-16.5c0-17.3,0-34.7,0-51.9c0-0.8,0.3-1.6,0.7-2.3c1.8-2.8,3.6-5.5,5.3-8.6
			C689.1,1546.9,690.1,1535.3,684.9,1523.5z M628.3,1567.6c8.4,11.5,15.6,23.9,19,38.3c-9.7-9.7-19.2-19.2-28.7-28.6
			C621.7,1574.2,625,1570.9,628.3,1567.6z M561,1625.6c-0.3,0.3-0.6,0.7-1.1,1c-0.1-0.7-0.1-0.9-0.1-1.4c0-32.5,0-65,0-97.8
			c0-4.1,2.6-6.6,6.5-6.6c17.7,0,35.6,0,53.2,0c0.3,0,0.6,0,0.7,0c-0.8,3.2-1.8,6.2-2.3,9.3c-1.7,9.7,0.5,18.9,5.1,27.3
			c0.5,0.8,0.7,1.7,1.4,2.3c1,1.2,0.6,2-0.5,3.2C602.7,1583.8,581.9,1604.8,561,1625.6z M565.5,1631.3
			c16.1-16.1,32.3-32.3,48.5-48.4c15.9,15.9,32.1,32.1,48.4,48.4C629.8,1631.3,597.4,1631.3,565.5,1631.3z M669.3,1622.7
			c0,1.4-0.5,2.7-0.8,3.9c-6.6-6.6-13.1-13.1-19.5-19.5c0.7-0.1,1.4-0.1,2.1-0.2c5-0.9,7.4-4.2,8.4-8.8c1.8-7.9,4.6-15.4,8.3-22.6
			c0.2-0.6,0.6-1.1,1-1.8c0.1,0.7,0.2,1,0.2,1.4C669.4,1590.8,669.4,1606.8,669.3,1622.7z M675.5,1550.1c-2.5,4.5-5.3,8.7-8.1,12.9
			c-6.2,9-11.5,18.5-15.5,28.6c-0.1,0.3-0.3,0.6-0.5,1c-1.4-3-2.6-5.9-3.8-8.7c-4.2-9.1-9.7-17.3-15.3-25.5c-3-4.4-5.7-9-7.3-14.2
			c-4.6-15.3,5.6-32.1,21.5-34.8c14.6-2.6,28,6,31.8,20.4C680,1536.9,679,1543.7,675.5,1550.1z"/>
		<path class="st2" d="M598,1535.1c-1.4,1.4-2.6,2.6-4.1,3.9c-6-3.9-10.6-4.2-14.9-0.8c-3.9,3-5.4,8.1-3.7,12.8
			c1.6,4.5,6.1,7.5,10.8,7.4c3.9-0.1,8.4-2.6,9.2-5.6c-3.2,0-6.2,0-9.3,0c0-1.9,0-3.7,0-5.6c5.6,0,11.1,0,16.8,0
			c1.5,4.7-3.8,12.9-10,15.5c-8,3.5-17.4,0.3-21.7-7.3c-4.3-7.7-2-17.2,5.2-22.3C583.7,1528.3,593.2,1530.1,598,1535.1z"/>
		<path class="st2" d="M642.9,1538.7c0-4.7,3.8-8.6,8.6-8.4c4.7,0,8.4,3.8,8.4,8.6s-3.8,8.6-8.6,8.6
			C646.6,1547.3,642.8,1543.4,642.9,1538.7z"/>
	</a>
</g>
<g>
	<g>
		<path class="st4" d="M568.3,846.3l-12.9,43.8c-5.5,18.8,0.2,30.9,10.7,34s21.9-3.9,27.5-22.8l12.9-43.8L568.3,846.3z"/>
		<path class="st4" d="M564.1,923.5c0,0-5.6,18.4-10.3,34.4c-4.7,16.1-10.2,29.2-32.3,22.7l-0.8,2.7l51.3,15.1l0.8-2.7
			c-22.2-6.5-19.6-20.5-14.9-36.6c4.7-16.1,10.3-34.4,10.3-34.4"/>
		<line class="st4" x1="557.5" y1="883" x2="599" y2="883"/>
		<path class="st4" d="M581.4,814.7c0,6.9-5.6,12.4-12.4,12.4c6.9,0,12.4,5.6,12.4,12.4c0-6.9,5.6-12.4,12.4-12.4
			C587,827.1,581.4,821.5,581.4,814.7z"/>
		<circle class="st4" cx="533.8" cy="858.7" r="12.4"/>
		<path class="st4" d="M555.2,839.6c0,1-0.8,1.9-1.9,1.9s-1.9-0.8-1.9-1.9c0-1,0.8-1.9,1.9-1.9S555.2,838.5,555.2,839.6z"/>
		<path class="st4" d="M539.2,825.2c0,1-0.8,1.9-1.9,1.9s-1.9-0.8-1.9-1.9s0.8-1.9,1.9-1.9S539.2,824.2,539.2,825.2z"/>
		<path class="st4" d="M527.1,887.5c0,1-0.8,1.9-1.9,1.9s-1.9-0.8-1.9-1.9s0.8-1.9,1.9-1.9S527.1,886.4,527.1,887.5z"/>
		<path class="st4" d="M624.3,870.2c0,1-0.8,1.9-1.9,1.9c-1,0-1.9-0.8-1.9-1.9s0.8-1.9,1.9-1.9C623.4,868.3,624.3,869.1,624.3,870.2
			z"/>
		<path class="st4" d="M632.9,885.6c0,1-0.8,1.9-1.9,1.9c-1,0-1.9-0.8-1.9-1.9s0.8-1.9,1.9-1.9C632.1,883.7,632.9,884.5,632.9,885.6
			z"/>
		<path class="st4" d="M567.6,911.7c0,1-0.8,1.9-1.9,1.9c-1,0-1.9-0.8-1.9-1.9s0.8-1.9,1.9-1.9S567.6,910.7,567.6,911.7z"/>
		<path class="st4" d="M580.1,913.6c0,1-0.8,1.9-1.9,1.9s-1.9-0.8-1.9-1.9s0.8-1.9,1.9-1.9S580.1,912.6,580.1,913.6z"/>
		<path class="st4" d="M634.8,876.6c0,1-0.8,1.9-1.9,1.9s-1.9-0.8-1.9-1.9s0.8-1.9,1.9-1.9S634.8,875.5,634.8,876.6z"/>
		<path class="st4" d="M578.2,900.7c0,1-0.8,1.9-1.9,1.9s-1.9-0.8-1.9-1.9s0.8-1.9,1.9-1.9S578.2,899.7,578.2,900.7z"/>
		<g>
			<path class="st4" d="M598.4,834.3l17,42.3c7.3,18.2,19.3,24.1,29.5,20s14.8-16.7,7.4-34.9l-17-42.3L598.4,834.3z"/>
			<path class="st4" d="M643,897.5c0,0,7,17.9,13.3,33.4c6.2,15.5,10.2,29.2-11.3,37.9l1,2.6l49.6-20l-1-2.6
				c-21.4,8.6-28.1-4-34.4-19.5c-6.2-15.5-13.3-33.4-13.3-33.4"/>
			<line class="st4" x1="609.7" y1="862.2" x2="652.4" y2="862.2"/>
		</g>
	</g>
</g>
<g>
	<g>
		<g>
			<g>
				<g>
					<g>
						<path class="st2" d="M488.5,732.7c10.8,15,31.8,11.6,48,8.5c13-2.6,26.1-4.2,39.4-3.8c6.5,0.2,13.5,0.4,19.8,2
							c3.1,0.8,6.2,1.7,8.4,4.1c3.4,4.1,3.4,8.2-0.1,12.1c-5.4,4.5-7.6,4-6.3-1.6c0.2,0.7,1.4,0.6,1.4-0.2
							c-0.4-8.6-14.7-0.6-5.5,5.3c10.1,6.5,19.3-8.7,12.8-16.4c-4.6-5.4-13-6-19.7-6.7c-11.5-1.1-23.3-0.8-34.8,0.6
							c-20.3,2.6-46.3,13.1-62.4-4.6C488.9,731.6,488.1,732.2,488.5,732.7L488.5,732.7z"/>
					</g>
					<g>
						<path class="st2" d="M577.3,745.4c1-5.2-6.7-3.8-5.4,1c2.4,8.7,14.8,1.4,16.2-4c2.8-9.9-8.8-16.3-17.6-16.4
							c-7.8-0.1-14.8,3-21.9,5.2c-4.3,1.3-8.7,2.6-13.3,2.6c-3,0-6.1-0.4-8.9-1.7c-0.9-0.6-1.8-1.1-2.8-1.7c-3.5-2.4-3.5-4.5,0-6.2
							c-0.7-0.9-2-0.2-1.6,0.9c2.4,5.4,10.7,1.5,8-3.9c-3.3-6.3-11.9-1.4-11.6,4.3c0.4,10.1,14.9,11.6,22.8,10.2
							c8.2-1.4,15.4-5.5,23.6-6.9c5.7-1,11.7-0.8,16.5,2.4c2.1,1.4,4.8,4,5.1,6.7c-0.4,2.1-0.7,4.2-1.1,6.3c-3,4.8-5.8,5.2-8.4,1.1
							C576.7,745.6,577.2,745.7,577.3,745.4L577.3,745.4z"/>
					</g>
				</g>
			</g>
		</g>
		<g>
			<g>
				<g>
					<g>
						<path class="st2" d="M736.3,732.3c-10.8,15-31.8,11.6-47.9,8.5c-13-2.6-26.1-4.2-39.4-3.8c-6.5,0.2-13.5,0.4-19.8,2
							c-3.1,0.8-6.2,1.7-8.4,4.1c-3.4,4.1-3.4,8.2,0.1,12.1c5.4,4.5,7.6,4,6.3-1.6c-0.2,0.7-1.4,0.6-1.3-0.2
							c0.4-8.6,14.7-0.6,5.5,5.3c-10.1,6.5-19.3-8.7-12.8-16.4c4.6-5.4,13-6,19.7-6.7c11.5-1.1,23.3-0.8,34.8,0.6
							c20.3,2.6,46.3,13.1,62.4-4.6C735.8,731.2,736.7,731.8,736.3,732.3L736.3,732.3z"/>
					</g>
					<g>
						<path class="st2" d="M647.5,745c-1-5.2,6.7-3.8,5.4,1c-2.4,8.7-14.8,1.4-16.2-4c-2.8-9.9,8.8-16.3,17.6-16.4
							c7.8-0.1,14.8,3,21.9,5.2c4.3,1.3,8.7,2.6,13.3,2.6c3,0,6.1-0.4,8.9-1.7c0.9-0.6,1.8-1.1,2.9-1.7c3.5-2.4,3.5-4.5,0-6.2
							c0.7-0.9,2-0.2,1.6,0.9c-2.4,5.4-10.7,1.5-8-3.9c3.3-6.3,11.9-1.4,11.7,4.3c-0.4,10.1-14.9,11.6-22.8,10.2
							c-8.1-1.4-15.4-5.5-23.6-6.9c-5.7-1-11.7-0.8-16.5,2.4c-2.1,1.5-4.8,4-5.1,6.7c0.4,2.1,0.7,4.2,1.1,6.3c3,4.8,5.8,5.2,8.4,1.1
							C648.1,745.2,647.6,745.3,647.5,745L647.5,745z"/>
					</g>
				</g>
			</g>
		</g>
	</g>
</g>
<g>
	<path class="st2" d="M538.8,633.3c-0.5,1.4-1.1,2.9-1.6,4.2c16.2,0.3,29.5-0.7,43.1-11.3c-10.4,12.3-24.4,13.2-43.9,13.1
		c-10,23.7-22,39.2-30.3,44.5c-9,5.7-14.7,2-14.7,2s14.9-2.9,28.4-27.8c3-5.6,6.1-12.1,9.1-18.8c-6.1,0-12.7-0.1-19.8,0
		c-34.1,0.7-44.5,22.6-46.9,31.7c1.4-9,7.5-32.3,49.3-33.6c6.5-0.1,12.7,0,18.4,0.1c12.1-27.3,23.2-59.2,27.3-66.7
		c4.4-7.9,5.7-4.1,5.7-4.1C567.5,569.5,551.9,599.1,538.8,633.3z M484.8,610.1c17.6,14.2,43.3-11.6,44.8-26.9
		c0.3-0.1,1,18.3-12.7,27.4c-28.8,19.6-51.4-7.9-35.9-31.2c5.9-8.9,29.6-27.3,74.6-21.6c42.4,5.5,53.9,3,64,0.1
		c18.6-5.5,25.2-15.7,25.2-15.7c-14.7,26.3-61.3,24.7-85.1,20.5C483.8,549.3,466.8,595.5,484.8,610.1z"/>
	<path class="st2" d="M590.5,642.4c-6.3,8.3-11.2,13.5-16.5,11.9c-8.5-2.7-1.4-23.9,4.6-27.8c2.7-1.4,4.1,0.1,3.7,2.3
		c-0.5,3.4-4.2,8.5-5.7,14.5c-1.1,4.5-2.5,9.7,1,9.3c4.2-0.4,12-12.4,17.5-19.1c4.5-5.6,5.9-7.2,8.7-7.2
		C599.7,628.3,596.2,634.9,590.5,642.4z M584,620.8c-1.6-0.5-1.8-1.5-0.5-3.8c1.4-2.6,0.5-3.1,2.7-4.4c1.5-0.8,6.4-0.3,4.8,3.1
		C589.2,619.4,585.9,621.3,584,620.8z"/>
	<path class="st2" d="M597.2,640c-2.2,10.5,3.5,14.6,9.6,12.1c10.1-4,19.6-26.1,26.7-25.9c-7,6.4-7.5,8.5-12.3,14.6
		c-6.3,8-12.8,15-20.6,14.2c-10.2-1.1-11.5-13.9-8.9-19.9c2.7-6.3,8.2-13.4,16.8-13.9c7.1-0.4,9.8,6.3,3,12
		c-4.1,3.4-10.1,5-14.1,5.7C597.5,639.2,597.2,639.7,597.2,640z M603.1,636c11.1-3.7,13-12,7.2-10.6c0,0-9,1.1-12.4,12
		C599.2,637.1,601.2,636.7,603.1,636z"/>
	<path class="st2" d="M634.9,627.3c-0.5,1.9-0.5,4.8,1.2,7.8c2.5,4.2,5,7.8,6.1,11.1c13.6-6.7,16.9-10.6,23.9-19.8
		c-3,9.3-12.6,16-23.5,21.1c2,6.4,1.8,11.6-2.3,18c-7,11.1-21.8,14.6-26.6,8.7c-6.5-8.2,3.8-17.1,19-23.9c2.2-1,4-1.9,5.7-2.7
		c-0.4-2.6-1.5-5.2-3.3-8c-6.5-10.2-5.5-11.5-5.3-13.8c0.3-4.4,5.5-8.9,5.5-8.9c3-2.2,3.8,2.2,3.1,4.8
		C636.9,623.5,635.4,625.5,634.9,627.3z M636.6,649.8c-12.7,5.5-23.9,12.7-22.9,19.6c0.7,4.8,4.8,6.3,9.8,3.4
		c5.2-2.9,16.2-11.9,15.1-23.7C638,649.4,637.3,649.5,636.6,649.8z"/>
	<path class="st2" d="M633.6,573.4c-3.4,2.3-6.3,6.8-2.6,10.5c6.5,6.5,25.4,5.9,47.8,3.5c5.7-10.6,8.9-13.5,8.9-13.5
		c1.4-2.2,5.9,2.7,4.5,5c-1.5,2.5-3,4.9-4.5,7.5c31.1-3.7,66.3-9.4,83.8-4.1c6.5,2,9,4.4,8.3,7.6c-0.3,1.8-2.2,2.9-3,1.1
		c-0.7-1.5,2.9-5-6.1-7.6c-18-5-52.9,0.8-83.9,4.5c-9,15.4-18.4,34.9-26.2,62.5c-5.6,19.8-0.5,28.8,8.5,17.5
		c10.1-12.7,19.8-40,30.6-41.8c-8.6,7.6-11.6,13.4-19.6,28.4c-11.3,21.3-17.7,22.5-22.2,18.8c-5.7-4.6-8.7-16.5,6.1-53.3
		c5.7-14.1,10.5-24.2,14.2-31.1c-22.5,2.3-41.5,2.7-48.3-4.5c-3.4-3.7-2-10.1,2.5-13.1C633.5,570.4,637.2,571.1,633.6,573.4z"/>
	<path class="st2" d="M715.6,658.5c7.8-11.5,17.3-31,24-32.5c-6.8,7.8-8.6,11.3-12.6,17.6c-7.5,12.1-11.6,20.3-16,19.6
		c-4.9-0.8-9.4-7.2-4.4-21c0.1-0.5,0.4-1.1,0.5-1.6c-5.6,6.8-10.9,13.4-16.1,7.5c-5.3-6-0.1-16.8,4.8-21.3
		c3.5-3.3,10.2-6.1,17.3-4.4c7.9,2,1.9,2,1.9,2s-10.1-2.2-17.3,9.4c-5.3,8.6-2.3,16.4,1.9,12.4c2.3-2.2,7.4-8.6,11.3-13.6
		c2-3.3,4.2-7.2,6.3-7.2c2-0.1,7.1,0.5,2.6,6.3C707.6,647.9,707.3,670.7,715.6,658.5z"/>
</g>
<g>
	<path class="st2" d="M169.7,1066.2h17.8l-0.4,1.2c-2.3,0-3.9,0.4-4.8,1.3c-0.9,0.8-1.9,3-2.9,6.5l-5.7,19.8
		c-1.1,3.7-2.2,6.6-3.3,8.6c-1.5,2.7-3.5,4.8-6,6.4c-2.5,1.6-5.3,2.4-8.4,2.4c-2.6,0-4.6-0.6-5.9-1.8c-1.4-1.2-2-2.6-2-4.3
		c0-1.3,0.4-2.5,1.2-3.3c0.8-0.9,1.8-1.3,3-1.3c1,0,1.8,0.3,2.4,0.9c0.6,0.6,0.9,1.3,0.9,2.2c0,0.7-0.3,1.4-0.9,2.1
		c-0.7,0.8-1.1,1.4-1.1,1.7c0,0.4,0.2,0.9,0.6,1.2c0.4,0.4,1,0.6,1.7,0.6c1,0,2.1-0.2,3.2-0.7c1.1-0.5,2.1-1.2,3.1-2.2
		c1-1,1.8-2.2,2.5-3.6c0.7-1.4,1.4-3.3,2.2-5.7l1.7-5.7l5-17.1c0.7-2.5,1.1-4.1,1.1-4.7c0-0.8-0.3-1.5-1-2c-0.7-0.5-2.1-0.9-4.2-1
		L169.7,1066.2z"/>
	<path class="st2" d="M212.4,1081.2l-6.5,22.6l-0.7,3.1c-0.1,0.3-0.1,0.5-0.1,0.7c0,0.4,0.1,0.7,0.3,0.9c0.2,0.2,0.4,0.3,0.7,0.3
		c0.3,0,0.6-0.2,1.1-0.5c0.9-0.6,2-2,3.5-4l1.1,0.8c-1.5,2.3-3.1,4.1-4.7,5.3c-1.6,1.2-3.1,1.8-4.5,1.8c-0.9,0-1.6-0.2-2.1-0.7
		c-0.5-0.5-0.7-1.2-0.7-2.1c0-1.1,0.2-2.5,0.7-4.3l0.7-2.5c-2.9,3.8-5.6,6.5-8,8c-1.8,1.1-3.5,1.6-5.2,1.6c-1.6,0-3-0.7-4.2-2
		c-1.2-1.3-1.8-3.2-1.8-5.5c0-3.5,1.1-7.2,3.2-11.2c2.1-3.9,4.8-7.1,8.1-9.4c2.5-1.9,4.9-2.8,7.2-2.8c1.4,0,2.5,0.4,3.4,1.1
		c0.9,0.7,1.6,1.9,2,3.6l1.2-3.8L212.4,1081.2z M200.5,1082.9c-1.4,0-2.9,0.7-4.5,2c-2.3,1.9-4.3,4.7-6.1,8.4
		c-1.8,3.7-2.6,7.1-2.6,10.1c0,1.5,0.4,2.7,1.1,3.6c0.8,0.9,1.6,1.3,2.6,1.3c2.4,0,5-1.8,7.8-5.4c3.8-4.7,5.7-9.6,5.7-14.6
		c0-1.9-0.4-3.2-1.1-4.1C202.8,1083.3,201.8,1082.9,200.5,1082.9z"/>
	<path class="st2" d="M218,1083.1l11.5-1.9l-4.8,16.2c3.9-6.6,7.4-11.3,10.6-13.9c1.8-1.5,3.2-2.3,4.4-2.3c0.7,0,1.3,0.2,1.7,0.7
		c0.4,0.4,0.6,1.1,0.6,1.9c0,1.5-0.4,2.9-1.1,4.2c-0.5,1-1.3,1.5-2.3,1.5c-0.5,0-0.9-0.2-1.3-0.5c-0.4-0.3-0.6-0.8-0.7-1.5
		c0-0.4-0.1-0.7-0.3-0.8c-0.2-0.2-0.4-0.2-0.6-0.2c-0.4,0-0.7,0.1-1.1,0.2c-0.6,0.3-1.5,1.2-2.6,2.6c-1.8,2.2-3.8,5-6,8.4
		c-0.9,1.5-1.7,3.1-2.4,5c-0.9,2.5-1.4,4.1-1.6,4.6l-1.1,4.2h-5.1l6.2-20.7c0.7-2.4,1-4.1,1-5.1c0-0.4-0.2-0.7-0.5-1
		c-0.4-0.4-1-0.5-1.7-0.5c-0.5,0-1.3,0.1-2.6,0.3L218,1083.1z"/>
	<path class="st2" d="M277.8,1064l-11.4,39.2c-0.6,2.1-1,3.5-1,4.2c0,0.2,0.1,0.4,0.3,0.6c0.2,0.2,0.4,0.3,0.6,0.3
		c0.3,0,0.6-0.1,1-0.4c0.8-0.6,2-1.9,3.8-4l1.2,0.7c-1.6,2.2-3.2,4-4.9,5.4c-1.6,1.4-3.2,2.1-4.6,2.1c-0.8,0-1.4-0.3-1.9-0.8
		c-0.5-0.5-0.7-1.3-0.7-2.3c0-1.3,0.3-3,1-5.1l1.3-4.1c-3.2,5-6.1,8.4-8.8,10.3c-1.8,1.3-3.6,1.9-5.2,1.9c-1.7,0-3.2-0.7-4.4-2.2
		c-1.3-1.5-1.9-3.5-1.9-6.1c0-3.3,1.1-6.8,3.2-10.6c2.1-3.7,4.9-6.8,8.4-9.1c2.7-1.9,5.2-2.8,7.5-2.8c1.2,0,2.2,0.2,3.1,0.7
		c0.9,0.5,1.7,1.3,2.6,2.4l3.3-11.6c0.2-0.8,0.4-1.5,0.6-2c0.3-0.9,0.4-1.6,0.4-2.2c0-0.5-0.2-0.9-0.5-1.2c-0.5-0.4-1.1-0.6-1.8-0.6
		c-0.5,0-1.3,0.1-2.5,0.2v-1.2L277.8,1064z M265.4,1087.6c0-1.4-0.4-2.6-1.2-3.4c-0.8-0.9-1.9-1.3-3.1-1.3c-2.8,0-5.7,2.3-8.7,6.9
		c-3,4.6-4.5,9-4.5,13.2c0,1.7,0.4,3,1.1,3.8c0.7,0.9,1.6,1.3,2.6,1.3c2.3,0,5.2-2.5,8.7-7.5
		C263.7,1095.7,265.4,1091.3,265.4,1087.6z"/>
	<path class="st2" d="M290.6,1081.2l-6.6,23.3c-0.4,1.6-0.7,2.5-0.7,2.8c0,0.4,0.1,0.6,0.3,0.9c0.2,0.2,0.4,0.3,0.7,0.3
		c0.4,0,0.8-0.2,1.2-0.5c1.3-1,2.5-2.4,3.8-4.3l1.2,0.8c-1.5,2.3-3.3,4.2-5.3,5.8c-1.5,1.2-2.9,1.7-4.3,1.7c-0.9,0-1.7-0.3-2.2-0.8
		c-0.6-0.5-0.9-1.2-0.9-2c0-0.8,0.3-2.2,0.8-4.1l4.3-14.9c0.7-2.4,1-4,1-4.6c0-0.5-0.2-0.9-0.5-1.2c-0.3-0.3-0.8-0.5-1.4-0.5
		c-0.5,0-1.5,0.1-3.1,0.4v-1.3L290.6,1081.2z M290.2,1068c0.9,0,1.7,0.3,2.4,1c0.6,0.6,1,1.4,1,2.3s-0.3,1.7-1,2.4
		c-0.6,0.7-1.4,1-2.3,1c-0.9,0-1.7-0.3-2.4-1s-1-1.4-1-2.4s0.3-1.7,1-2.3C288.5,1068.3,289.3,1068,290.2,1068z"/>
	<path class="st2" d="M308.9,1081.2l-4.4,15.2c4.1-6.2,7.3-10.3,9.5-12.2c2.2-2,4.3-2.9,6.4-2.9c1.1,0,2,0.4,2.7,1.1
		c0.7,0.7,1.1,1.7,1.1,2.8c0,1.3-0.3,3.1-0.9,5.3l-4,14c-0.5,1.6-0.7,2.6-0.7,3c0,0.3,0.1,0.6,0.3,0.8c0.2,0.2,0.4,0.3,0.6,0.3
		c0.2,0,0.6-0.1,1-0.4c1.2-0.9,2.5-2.4,3.9-4.3l1,0.6c-2.1,2.9-4,5.1-5.9,6.3c-1.3,0.9-2.5,1.3-3.5,1.3c-0.8,0-1.5-0.2-2-0.7
		c-0.5-0.5-0.7-1.2-0.7-2c0-1.1,0.4-2.9,1.1-5.5l3.9-13.4c0.5-1.7,0.7-2.9,0.7-3.9c0-0.4-0.1-0.8-0.4-1.1c-0.3-0.3-0.6-0.4-1.1-0.4
		c-0.6,0-1.3,0.3-2.2,0.8c-1.6,1-3.3,2.6-5.1,4.9c-1.8,2.3-3.7,5.2-5.6,8.8c-1,1.9-1.9,4-2.6,6.2l-1.7,5.5h-5l6.1-20.8
		c0.7-2.5,1.1-4,1.1-4.5c0-0.5-0.2-0.9-0.6-1.3c-0.4-0.4-0.9-0.6-1.4-0.6c-0.3,0-0.7,0.1-1.4,0.2l-1.3,0.2l-0.2-1.2L308.9,1081.2z"
		/>
	<path class="st2" d="M336,1098.8c-0.1,1.1-0.2,2-0.2,2.7c0,2,0.7,3.7,2.1,5.1c1.4,1.4,3.1,2.1,5.1,2.1c1.6,0,3.1-0.3,4.6-1
		c1.5-0.7,3.7-2.1,6.5-4.3l0.7,1c-5.3,5.2-10.3,7.8-15,7.8c-3.2,0-5.7-1-7.3-3.1c-1.6-2-2.5-4.3-2.5-6.7c0-3.3,1-6.7,3.1-10.1
		c2-3.5,4.6-6.1,7.7-8.1c3.1-1.9,6.2-2.9,9.5-2.9c2.3,0,4.1,0.5,5.2,1.4c1.1,1,1.7,2.1,1.7,3.4c0,1.8-0.7,3.6-2.2,5.3
		c-1.9,2.2-4.8,4-8.5,5.3C344.1,1097.5,340.6,1098.3,336,1098.8z M336.3,1097.1c3.3-0.4,5.9-1,8-1.9c2.7-1.2,4.8-2.7,6.1-4.4
		c1.4-1.7,2-3.3,2-4.9c0-0.9-0.3-1.7-0.9-2.2c-0.6-0.6-1.4-0.9-2.5-0.9c-2.3,0-4.7,1.2-7.2,3.6
		C339.4,1088.9,337.5,1092.4,336.3,1097.1z"/>
	<path class="st2" d="M382.9,1081.2l-2,10.2h-1.2c-0.1-3-0.7-5.1-1.9-6.5c-1.2-1.3-2.6-2-4.3-2c-1.3,0-2.4,0.4-3.2,1.1
		c-0.8,0.7-1.2,1.7-1.2,2.7c0,0.7,0.2,1.4,0.5,2.1c0.3,0.7,1,1.6,2.1,2.8c2.9,3.2,4.7,5.5,5.6,7.1c0.8,1.6,1.3,3.1,1.3,4.5
		c0,2.3-1,4.4-2.9,6.1c-1.9,1.8-4.3,2.7-7.2,2.7c-1.6,0-3.4-0.4-5.5-1.1c-0.7-0.3-1.3-0.4-1.7-0.4c-1,0-1.7,0.5-2.3,1.5h-1.2l2-10.8
		h1.2c0.1,3.4,0.8,5.8,2.1,7.2c1.3,1.4,3,2.1,5.2,2.1c1.7,0,3-0.5,4-1.4c1-0.9,1.5-2.1,1.5-3.5c0-0.9-0.2-1.7-0.5-2.5
		c-0.6-1.3-1.9-3.2-3.9-5.5s-3.3-4.1-3.8-5.3c-0.6-1.2-0.8-2.3-0.8-3.5c0-2.1,0.8-4,2.4-5.5c1.6-1.5,3.6-2.2,6-2.2
		c0.7,0,1.4,0.1,1.9,0.2c0.3,0.1,1,0.3,2.2,0.8c1.1,0.4,1.9,0.6,2.3,0.6c0.9,0,1.7-0.5,2.4-1.6H382.9z"/>
	<path class="st2" d="M423.8,1068.6l-5.2,17.8h4.2c3,0,5.2-0.5,6.6-1.4c1.3-0.9,2.5-2.6,3.5-5.1h1.2l-4.6,16.4h-1.3
		c0.4-1.4,0.6-2.6,0.6-3.6c0-0.9-0.2-1.7-0.6-2.3c-0.4-0.6-0.9-1-1.6-1.3c-0.7-0.3-2.1-0.4-4.3-0.4H418l-4.3,14.9
		c-0.4,1.5-0.6,2.6-0.6,3.3c0,0.6,0.3,1.1,0.8,1.5c0.4,0.3,1.3,0.5,2.8,0.5h4c4.3,0,7.8-0.8,10.4-2.3c2.6-1.5,4.9-4.2,7-8h1.2
		l-4.3,12.5h-34.9l0.4-1.2c1.7,0,2.9-0.2,3.5-0.5c0.9-0.4,1.5-0.9,1.9-1.5c0.6-0.9,1.3-2.8,2.1-5.7l7.9-27.2c0.6-2.2,0.9-3.9,0.9-5
		c0-0.8-0.3-1.5-0.9-2c-0.6-0.5-1.7-0.7-3.4-0.7H412l0.4-1.2h32.4l-2.8,10.9h-1.2c0.2-1,0.2-1.9,0.2-2.6c0-1.2-0.3-2.2-0.9-3
		c-0.8-1-1.9-1.8-3.3-2.3c-1.1-0.4-3.5-0.6-7.4-0.6H423.8z"/>
	<path class="st2" d="M469.6,1104.1c-2.3,2.8-4.6,4.8-7,6.1c-2.4,1.3-4.8,1.9-7.5,1.9c-3.1,0-5.6-0.9-7.4-2.6
		c-1.8-1.8-2.6-4.1-2.6-7.1c0-3.4,1-6.7,2.9-10c1.9-3.3,4.4-6,7.6-8c3.2-2.1,6.3-3.1,9.4-3.1c2.4,0,4.2,0.5,5.4,1.5
		c1.2,1,1.8,2.3,1.8,3.7c0,1.4-0.4,2.5-1.3,3.5c-0.6,0.8-1.4,1.2-2.3,1.2c-0.7,0-1.3-0.2-1.7-0.7s-0.7-1-0.7-1.7
		c0-0.4,0.1-0.8,0.2-1.2c0.2-0.4,0.5-0.8,1-1.3c0.5-0.5,0.8-0.9,1-1.1c0.1-0.2,0.2-0.5,0.2-0.7c0-0.5-0.2-0.9-0.6-1.2
		c-0.7-0.4-1.6-0.7-2.7-0.7c-2.2,0-4.3,0.8-6.5,2.3c-2.1,1.5-4,3.7-5.5,6.5c-1.8,3.4-2.7,6.8-2.7,10.2c0,2.3,0.6,4,1.9,5.4
		c1.3,1.3,3,2,5.2,2c1.7,0,3.4-0.4,5.1-1.3c1.7-0.9,3.6-2.4,5.6-4.6L469.6,1104.1z"/>
	<path class="st2" d="M505,1091.6c0,3.3-0.9,6.6-2.6,9.9c-1.8,3.3-4.2,5.8-7.4,7.7c-3.1,1.9-6.2,2.8-9.2,2.8c-3,0-5.5-1-7.4-2.9
		c-1.9-1.9-2.9-4.4-2.9-7.5c0-3.3,0.9-6.6,2.8-9.8c1.9-3.3,4.4-5.9,7.5-7.8c3.1-1.9,6.2-2.9,9.1-2.9c2.9,0,5.4,1,7.2,2.9
		C504.1,1086,505,1088.5,505,1091.6z M499.5,1089.3c0-2.1-0.5-3.6-1.5-4.8c-1-1.1-2.3-1.7-3.9-1.7c-3.2,0-6.2,2.3-9,7
		c-2.7,4.7-4.1,9.3-4.1,13.9c0,2.1,0.5,3.7,1.6,4.9c1.1,1.1,2.4,1.7,4,1.7c3.1,0,6.1-2.3,8.8-7
		C498.2,1098.8,499.5,1094.1,499.5,1089.3z"/>
	<path class="st2" d="M527.8,1064l-11.4,39.6c-0.6,2-0.8,3.2-0.8,3.6c0,0.3,0.1,0.6,0.3,0.8c0.2,0.2,0.5,0.3,0.8,0.3
		c0.4,0,0.9-0.2,1.4-0.6c1.2-0.9,2.4-2.3,3.6-4.2l1,1c-2.1,3-4,5.1-5.8,6.2c-1.3,0.8-2.5,1.2-3.7,1.2c-0.8,0-1.5-0.3-2.1-0.9
		c-0.6-0.6-0.8-1.2-0.8-2c0-0.8,0.3-2.4,1-4.9l9-31.2c0.7-2.6,1.1-4,1.1-4.4c0-0.6-0.2-1-0.6-1.3c-0.4-0.3-1.1-0.5-2-0.5
		c-0.5,0-1.3,0.1-2.3,0.2v-1.2L527.8,1064z"/>
	<path class="st2" d="M558,1091.6c0,3.3-0.9,6.6-2.6,9.9c-1.8,3.3-4.2,5.8-7.4,7.7c-3.1,1.9-6.2,2.8-9.2,2.8c-3,0-5.5-1-7.4-2.9
		c-1.9-1.9-2.9-4.4-2.9-7.5c0-3.3,0.9-6.6,2.8-9.8c1.9-3.3,4.4-5.9,7.5-7.8c3.1-1.9,6.2-2.9,9.1-2.9c2.9,0,5.4,1,7.2,2.9
		C557,1086,558,1088.5,558,1091.6z M552.5,1089.3c0-2.1-0.5-3.6-1.5-4.8c-1-1.1-2.3-1.7-3.9-1.7c-3.3,0-6.2,2.3-9,7
		c-2.7,4.7-4.1,9.3-4.1,13.9c0,2.1,0.5,3.7,1.6,4.9c1.1,1.1,2.4,1.7,4,1.7c3.1,0,6.1-2.3,8.8-7
		C551.1,1098.8,552.5,1094.1,552.5,1089.3z M556.7,1064.7l-9.7,11.4h-1.2l3.4-11.4H556.7z"/>
	<path class="st2" d="M596,1083.3l-1,3.5h-5.6c0.4,1.2,0.6,2.3,0.6,3.3c0,2.9-1.2,5.6-3.7,7.8c-2.5,2.3-5.9,3.5-10.3,3.8
		c-2.4,0.7-4.1,1.6-5.3,2.6c-0.4,0.3-0.7,0.7-0.7,1.1c0,0.4,0.2,0.8,0.6,1.2c0.4,0.4,1.4,0.7,3,1.1l6.5,1.5c3.6,0.8,5.9,1.8,7.1,3
		c1.1,1.2,1.7,2.5,1.7,4c0,1.8-0.7,3.5-2,5c-1.3,1.5-3.3,2.7-5.9,3.6c-2.6,0.9-5.4,1.3-8.6,1.3c-2.8,0-5.3-0.3-7.5-1
		c-2.3-0.7-3.9-1.5-4.9-2.6c-1-1.1-1.5-2.2-1.5-3.4c0-0.9,0.3-1.9,0.9-3c0.6-1,1.4-1.9,2.4-2.5c0.6-0.4,2.3-1.4,5.1-3
		c-1-0.8-1.5-1.7-1.5-2.6c0-0.9,0.5-1.8,1.4-2.8c0.9-1,2.8-2.1,5.7-3.3c-2.5-0.5-4.4-1.5-5.8-3.1c-1.4-1.6-2.1-3.3-2.1-5.2
		c0-3.1,1.4-6,4.1-8.4c2.8-2.5,6.4-3.7,11-3.7c1.7,0,3,0.2,4.1,0.5c1.1,0.3,2.1,0.9,3.1,1.5H596z M568.6,1111.3
		c-1.8,0.8-3.1,1.9-4.1,3.2c-0.9,1.3-1.4,2.5-1.4,3.8c0,1.5,0.7,2.7,2,3.6c1.9,1.4,4.7,2.1,8.4,2.1c3.2,0,5.9-0.5,8.1-1.6
		c2.3-1.1,3.4-2.5,3.4-4.2c0-0.9-0.4-1.7-1.3-2.5c-0.8-0.8-2.5-1.4-4.9-1.9C577.6,1113.5,574.1,1112.7,568.6,1111.3z M584.5,1088.5
		c0-1.8-0.5-3.2-1.5-4.2c-1-1-2.3-1.5-3.9-1.5c-2.5,0-4.6,1.3-6.2,3.8c-1.6,2.5-2.4,5.1-2.4,7.9c0,1.7,0.5,3.1,1.5,4.2
		c1,1.1,2.3,1.6,3.8,1.6c1.2,0,2.3-0.3,3.4-1c1.1-0.6,2-1.5,2.8-2.7c0.7-1.1,1.3-2.6,1.8-4.3
		C584.3,1090.5,584.5,1089.3,584.5,1088.5z"/>
	<path class="st2" d="M610.2,1081.2l-6.6,23.3c-0.4,1.6-0.7,2.5-0.7,2.8c0,0.4,0.1,0.6,0.3,0.9c0.2,0.2,0.4,0.3,0.7,0.3
		c0.4,0,0.8-0.2,1.2-0.5c1.3-1,2.5-2.4,3.8-4.3l1.2,0.8c-1.5,2.3-3.3,4.2-5.3,5.8c-1.5,1.2-2.9,1.7-4.3,1.7c-0.9,0-1.7-0.3-2.2-0.8
		c-0.6-0.5-0.9-1.2-0.9-2c0-0.8,0.3-2.2,0.8-4.1l4.3-14.9c0.7-2.4,1-4,1-4.6c0-0.5-0.2-0.9-0.5-1.2c-0.3-0.3-0.8-0.5-1.4-0.5
		c-0.5,0-1.5,0.1-3.1,0.4v-1.3L610.2,1081.2z M609.8,1068c0.9,0,1.7,0.3,2.4,1c0.6,0.6,0.9,1.4,0.9,2.3s-0.3,1.7-1,2.4
		c-0.6,0.7-1.4,1-2.3,1c-0.9,0-1.7-0.3-2.4-1s-1-1.4-1-2.4s0.3-1.7,1-2.3C608.1,1068.3,608.9,1068,609.8,1068z"/>
	<path class="st2" d="M639.8,1104.1c-2.3,2.8-4.6,4.8-7,6.1c-2.4,1.3-4.8,1.9-7.5,1.9c-3.1,0-5.6-0.9-7.4-2.6
		c-1.8-1.8-2.6-4.1-2.6-7.1c0-3.4,0.9-6.7,2.9-10c1.9-3.3,4.4-6,7.6-8c3.2-2.1,6.3-3.1,9.4-3.1c2.4,0,4.2,0.5,5.4,1.5
		c1.2,1,1.8,2.3,1.8,3.7c0,1.4-0.4,2.5-1.3,3.5c-0.6,0.8-1.4,1.2-2.3,1.2c-0.7,0-1.3-0.2-1.7-0.7c-0.5-0.5-0.7-1-0.7-1.7
		c0-0.4,0.1-0.8,0.2-1.2c0.2-0.4,0.5-0.8,1-1.3c0.5-0.5,0.8-0.9,0.9-1.1c0.1-0.2,0.2-0.5,0.2-0.7c0-0.5-0.2-0.9-0.6-1.2
		c-0.7-0.4-1.6-0.7-2.7-0.7c-2.2,0-4.3,0.8-6.5,2.3c-2.1,1.5-4,3.7-5.5,6.5c-1.8,3.4-2.7,6.8-2.7,10.2c0,2.3,0.6,4,1.9,5.4
		c1.3,1.3,3,2,5.2,2c1.7,0,3.4-0.4,5.1-1.3c1.7-0.9,3.6-2.4,5.6-4.6L639.8,1104.1z"/>
	<path class="st2" d="M675.2,1091.6c0,3.3-0.9,6.6-2.6,9.9c-1.8,3.3-4.2,5.8-7.4,7.7c-3.1,1.9-6.2,2.8-9.2,2.8c-3,0-5.5-1-7.4-2.9
		c-1.9-1.9-2.9-4.4-2.9-7.5c0-3.3,0.9-6.6,2.8-9.8c1.9-3.3,4.4-5.9,7.5-7.8c3.1-1.9,6.2-2.9,9.1-2.9c2.9,0,5.4,1,7.2,2.9
		C674.3,1086,675.2,1088.5,675.2,1091.6z M669.7,1089.3c0-2.1-0.5-3.6-1.5-4.8c-1-1.1-2.3-1.7-3.9-1.7c-3.2,0-6.2,2.3-9,7
		c-2.7,4.7-4.1,9.3-4.1,13.9c0,2.1,0.5,3.7,1.6,4.9c1.1,1.1,2.4,1.7,4,1.7c3.1,0,6.1-2.3,8.8-7
		C668.3,1098.8,669.7,1094.1,669.7,1089.3z"/>
	<path class="st2" d="M702.5,1081.2l-2,10.2h-1.2c-0.1-3-0.7-5.1-1.9-6.5c-1.2-1.3-2.6-2-4.3-2c-1.3,0-2.4,0.4-3.2,1.1
		c-0.8,0.7-1.2,1.7-1.2,2.7c0,0.7,0.2,1.4,0.5,2.1c0.3,0.7,1,1.6,2.1,2.8c2.9,3.2,4.7,5.5,5.6,7.1c0.8,1.6,1.3,3.1,1.3,4.5
		c0,2.3-1,4.4-2.9,6.1c-1.9,1.8-4.3,2.7-7.2,2.7c-1.6,0-3.4-0.4-5.5-1.1c-0.7-0.3-1.3-0.4-1.7-0.4c-1,0-1.7,0.5-2.3,1.5h-1.2l2-10.8
		h1.2c0.1,3.4,0.8,5.8,2.1,7.2c1.3,1.4,3,2.1,5.2,2.1c1.7,0,3-0.5,4-1.4c1-0.9,1.5-2.1,1.5-3.5c0-0.9-0.2-1.7-0.5-2.5
		c-0.6-1.3-1.9-3.2-3.9-5.5s-3.3-4.1-3.8-5.3c-0.6-1.2-0.8-2.3-0.8-3.5c0-2.1,0.8-4,2.4-5.5c1.6-1.5,3.6-2.2,6-2.2
		c0.7,0,1.4,0.1,1.9,0.2c0.3,0.1,1,0.3,2.2,0.8c1.1,0.4,1.9,0.6,2.3,0.6c0.9,0,1.7-0.5,2.4-1.6H702.5z"/>
	<path class="st2" d="M758.1,1064l-11.4,39.2c-0.6,2.1-0.9,3.5-0.9,4.2c0,0.2,0.1,0.4,0.3,0.6c0.2,0.2,0.4,0.3,0.6,0.3
		c0.3,0,0.6-0.1,1-0.4c0.8-0.6,2-1.9,3.8-4l1.2,0.7c-1.6,2.2-3.2,4-4.9,5.4c-1.6,1.4-3.2,2.1-4.6,2.1c-0.8,0-1.4-0.3-1.9-0.8
		c-0.5-0.5-0.7-1.3-0.7-2.3c0-1.3,0.3-3,1-5.1l1.3-4.1c-3.2,5-6.1,8.4-8.8,10.3c-1.8,1.3-3.6,1.9-5.2,1.9c-1.7,0-3.2-0.7-4.4-2.2
		c-1.3-1.5-1.9-3.5-1.9-6.1c0-3.3,1.1-6.8,3.2-10.6c2.1-3.7,4.9-6.8,8.4-9.1c2.7-1.9,5.2-2.8,7.5-2.8c1.2,0,2.2,0.2,3.1,0.7
		c0.9,0.5,1.7,1.3,2.6,2.4l3.3-11.6c0.2-0.8,0.4-1.5,0.6-2c0.3-0.9,0.4-1.6,0.4-2.2c0-0.5-0.2-0.9-0.5-1.2c-0.5-0.4-1.1-0.6-1.8-0.6
		c-0.5,0-1.3,0.1-2.5,0.2v-1.2L758.1,1064z M745.8,1087.6c0-1.4-0.4-2.6-1.2-3.4c-0.8-0.9-1.9-1.3-3.1-1.3c-2.8,0-5.7,2.3-8.7,6.9
		c-3,4.6-4.5,9-4.5,13.2c0,1.7,0.4,3,1.1,3.8s1.6,1.3,2.6,1.3c2.3,0,5.2-2.5,8.7-7.5C744.1,1095.7,745.8,1091.3,745.8,1087.6z"/>
	<path class="st2" d="M763.4,1098.8c-0.1,1.1-0.2,2-0.2,2.7c0,2,0.7,3.7,2.1,5.1c1.4,1.4,3.1,2.1,5.1,2.1c1.6,0,3.1-0.3,4.6-1
		c1.5-0.7,3.7-2.1,6.5-4.3l0.7,1c-5.3,5.2-10.3,7.8-15,7.8c-3.2,0-5.7-1-7.3-3.1c-1.6-2-2.5-4.3-2.5-6.7c0-3.3,1-6.7,3.1-10.1
		c2-3.5,4.6-6.1,7.7-8.1c3.1-1.9,6.2-2.9,9.5-2.9c2.3,0,4.1,0.5,5.2,1.4c1.1,1,1.7,2.1,1.7,3.4c0,1.8-0.7,3.6-2.2,5.3
		c-1.9,2.2-4.8,4-8.5,5.3C771.4,1097.5,767.9,1098.3,763.4,1098.8z M763.7,1097.1c3.3-0.4,5.9-1,8-1.9c2.7-1.2,4.8-2.7,6.1-4.4
		c1.4-1.7,2-3.3,2-4.9c0-0.9-0.3-1.7-0.9-2.2s-1.4-0.9-2.5-0.9c-2.3,0-4.7,1.2-7.2,3.6C766.8,1088.9,764.9,1092.4,763.7,1097.1z"/>
	<path class="st2" d="M812.6,1066.2h34.2l-3.7,12h-1.2c0.4-1.7,0.6-3.3,0.6-4.7c0-1.6-0.5-2.8-1.5-3.7c-0.8-0.6-2.7-0.9-5.8-0.9
		h-3.6l-8.9,31c-1.1,3.9-1.7,6.3-1.7,7.2c0,0.9,0.4,1.5,1.1,2.1c0.7,0.5,2,0.8,3.8,0.8h1.5l-0.4,1.2h-19.6l0.4-1.2h0.9
		c1.7,0,3.1-0.3,4-0.8c0.6-0.4,1.2-1.1,1.7-2c0.5-1,1.2-3.1,2.1-6.3l9.4-32h-2.7c-2.6,0-4.7,0.3-6.3,1c-1.6,0.7-2.9,1.6-3.8,2.9
		c-1,1.3-1.8,3.1-2.4,5.4h-1.2L812.6,1066.2z"/>
	<path class="st2" d="M871.9,1091.6c0,3.3-0.9,6.6-2.6,9.9c-1.8,3.3-4.2,5.8-7.4,7.7c-3.1,1.9-6.2,2.8-9.2,2.8c-3,0-5.5-1-7.4-2.9
		c-1.9-1.9-2.9-4.4-2.9-7.5c0-3.3,0.9-6.6,2.8-9.8c1.9-3.3,4.4-5.9,7.5-7.8c3.1-1.9,6.2-2.9,9.1-2.9c2.9,0,5.4,1,7.2,2.9
		C871,1086,871.9,1088.5,871.9,1091.6z M866.4,1089.3c0-2.1-0.5-3.6-1.5-4.8c-1-1.1-2.3-1.7-3.9-1.7c-3.2,0-6.2,2.3-9,7
		c-2.7,4.7-4.1,9.3-4.1,13.9c0,2.1,0.5,3.7,1.6,4.9c1.1,1.1,2.4,1.7,4,1.7c3.1,0,6.1-2.3,8.8-7
		C865.1,1098.8,866.4,1094.1,866.4,1089.3z"/>
	<path class="st2" d="M889.6,1081.2l-2.3,7.7c2.4-2.8,4.6-4.8,6.5-6c1.9-1.1,3.8-1.7,5.8-1.7c2,0,3.7,0.8,5.1,2.4
		c1.4,1.6,2.1,3.6,2.1,6.1c0,4.9-2,9.8-5.9,14.9c-4,5-8.6,7.6-13.9,7.6c-1.1,0-2.1-0.1-2.9-0.4c-0.9-0.2-1.8-0.7-2.8-1.3l-2.4,8.6
		c-0.5,1.7-0.7,2.8-0.7,3.3s0.1,0.9,0.4,1.3c0.3,0.3,0.7,0.6,1.2,0.8c0.6,0.2,1.7,0.3,3.4,0.3l-0.3,1.2H867l0.3-1.2
		c2.1-0.1,3.5-0.4,4.2-1.1c0.7-0.6,1.5-2.3,2.3-5.2l8.4-29.1c0.5-1.8,0.7-3,0.7-3.4c0-0.6-0.2-1.1-0.5-1.4c-0.3-0.3-0.9-0.5-1.6-0.5
		c-0.7,0-1.6,0.1-2.7,0.2v-1.3L889.6,1081.2z M881.8,1107.8c1.4,1.7,3.2,2.5,5.6,2.5c1.1,0,2.3-0.3,3.5-1c1.2-0.6,2.4-1.6,3.5-2.8
		c1.1-1.3,2.2-2.7,3.1-4.4s1.7-3.6,2.5-5.8c0.7-2.2,1.1-4.5,1.1-6.7c0-1.8-0.4-3.1-1.2-4c-0.8-0.9-1.8-1.4-2.9-1.4
		c-2.4,0-4.8,1.4-7.1,4.1c-2.3,2.7-4,6-5.1,9.6L881.8,1107.8z"/>
	<path class="st2" d="M940,1091.6c0,3.3-0.9,6.6-2.6,9.9c-1.8,3.3-4.2,5.8-7.4,7.7c-3.1,1.9-6.2,2.8-9.2,2.8c-3,0-5.5-1-7.4-2.9
		c-1.9-1.9-2.9-4.4-2.9-7.5c0-3.3,0.9-6.6,2.8-9.8c1.9-3.3,4.4-5.9,7.5-7.8c3.1-1.9,6.2-2.9,9.1-2.9c2.9,0,5.4,1,7.2,2.9
		C939.1,1086,940,1088.5,940,1091.6z M934.5,1089.3c0-2.1-0.5-3.6-1.5-4.8c-1-1.1-2.3-1.7-3.9-1.7c-3.2,0-6.2,2.3-9,7
		c-2.7,4.7-4.1,9.3-4.1,13.9c0,2.1,0.5,3.7,1.6,4.9c1.1,1.1,2.4,1.7,4,1.7c3.1,0,6.1-2.3,8.8-7
		C933.1,1098.8,934.5,1094.1,934.5,1089.3z"/>
	<path class="st2" d="M960.3,1073l-2.6,9h5.2l-0.6,2.1h-5.2l-5.7,19.6c-0.6,2.1-0.9,3.5-0.9,4.1c0,0.4,0.1,0.7,0.2,0.9
		c0.2,0.2,0.4,0.3,0.6,0.3c0.6,0,1.3-0.4,2.2-1.2c0.6-0.4,1.7-1.8,3.6-4.1l1.1,0.9c-2,2.9-4,5-5.8,6.3c-1.2,0.8-2.5,1.2-3.8,1.2
		c-1,0-1.8-0.3-2.4-0.9c-0.6-0.6-0.9-1.4-0.9-2.4c0-1.2,0.3-3,1-5.5l5.6-19.2h-5l0.3-1.3c2.5-0.7,4.5-1.7,6.1-3
		c1.6-1.3,3.4-3.6,5.4-6.9H960.3z"/>
	<path class="st2" d="M969.6,1098.8c-0.1,1.1-0.2,2-0.2,2.7c0,2,0.7,3.7,2.1,5.1c1.4,1.4,3.1,2.1,5.1,2.1c1.6,0,3.1-0.3,4.6-1
		c1.5-0.7,3.7-2.1,6.5-4.3l0.7,1c-5.3,5.2-10.3,7.8-15,7.8c-3.2,0-5.7-1-7.3-3.1c-1.6-2-2.5-4.3-2.5-6.7c0-3.3,1-6.7,3.1-10.1
		c2-3.5,4.6-6.1,7.7-8.1c3.1-1.9,6.2-2.9,9.5-2.9c2.3,0,4.1,0.5,5.2,1.4c1.1,1,1.7,2.1,1.7,3.4c0,1.8-0.7,3.6-2.2,5.3
		c-1.9,2.2-4.8,4-8.5,5.3C977.6,1097.5,974.1,1098.3,969.6,1098.8z M969.8,1097.1c3.3-0.4,5.9-1,8-1.9c2.7-1.2,4.8-2.7,6.1-4.4
		c1.4-1.7,2-3.3,2-4.9c0-0.9-0.3-1.7-0.9-2.2s-1.4-0.9-2.5-0.9c-2.3,0-4.7,1.2-7.2,3.6C972.9,1088.9,971,1092.4,969.8,1097.1z"/>
	<path class="st2" d="M1006.8,1081.2l-2.3,7.7c2.4-2.8,4.6-4.8,6.5-6c1.9-1.1,3.8-1.7,5.8-1.7c2,0,3.7,0.8,5.1,2.4
		c1.4,1.6,2.1,3.6,2.1,6.1c0,4.9-2,9.8-5.9,14.9c-4,5-8.6,7.6-13.9,7.6c-1.1,0-2.1-0.1-2.9-0.4c-0.9-0.2-1.8-0.7-2.8-1.3l-2.4,8.6
		c-0.5,1.7-0.7,2.8-0.7,3.3s0.1,0.9,0.4,1.3c0.3,0.3,0.7,0.6,1.2,0.8c0.6,0.2,1.7,0.3,3.4,0.3l-0.3,1.2h-15.7l0.3-1.2
		c2.1-0.1,3.5-0.4,4.2-1.1c0.7-0.6,1.5-2.3,2.3-5.2l8.4-29.1c0.5-1.8,0.7-3,0.7-3.4c0-0.6-0.2-1.1-0.5-1.4c-0.3-0.3-0.9-0.5-1.6-0.5
		c-0.7,0-1.6,0.1-2.7,0.2v-1.3L1006.8,1081.2z M999,1107.8c1.4,1.7,3.2,2.5,5.6,2.5c1.1,0,2.3-0.3,3.5-1c1.2-0.6,2.4-1.6,3.5-2.8
		c1.1-1.3,2.2-2.7,3.1-4.4c0.9-1.7,1.7-3.6,2.5-5.8c0.7-2.2,1.1-4.5,1.1-6.7c0-1.8-0.4-3.1-1.2-4c-0.8-0.9-1.8-1.4-2.9-1.4
		c-2.4,0-4.8,1.4-7.1,4.1c-2.3,2.7-4,6-5.1,9.6L999,1107.8z"/>
	<path class="st2" d="M1057.8,1082l-5.8,19.8c-0.9,2.9-1.3,4.8-1.3,5.6c0,0.4,0.1,0.7,0.2,0.9c0.1,0.2,0.3,0.3,0.6,0.3
		c0.4,0,0.8-0.2,1.3-0.5c0.5-0.3,1.6-1.7,3.4-4.1l1,0.8c-1.8,2.8-3.6,4.8-5.4,6.1c-1.2,0.8-2.4,1.2-3.5,1.2c-0.9,0-1.6-0.2-2-0.7
		c-0.5-0.5-0.7-1.1-0.7-1.9c0-0.8,0.1-1.8,0.4-3c0.4-1.6,1.4-5.2,3.1-10.7c-3.8,6.2-6.9,10.5-9.5,12.8c-2.5,2.3-4.9,3.5-7.1,3.5
		c-1,0-1.9-0.4-2.6-1.1c-0.7-0.7-1.1-1.6-1.1-2.7c0-1.7,0.5-4.2,1.4-7.6l2.9-10.3c0.7-2.5,1-4,1-4.6c0-0.2-0.1-0.5-0.3-0.7
		c-0.2-0.2-0.4-0.3-0.6-0.3c-0.5,0-0.9,0.2-1.4,0.5c-0.5,0.3-1.5,1.6-3.2,3.7l-1-0.7c1.7-2.6,3.4-4.5,5.3-5.7c1.4-1,2.7-1.4,3.9-1.4
		c0.8,0,1.5,0.3,2,0.8c0.5,0.5,0.8,1.2,0.8,2c0,1.2-0.4,3.3-1.3,6.4l-3.1,10.7c-0.9,2.9-1.3,4.8-1.3,5.6c0,0.4,0.1,0.8,0.4,1
		c0.3,0.3,0.6,0.4,1.1,0.4c0.7,0,1.7-0.4,2.9-1.1c1.2-0.7,2.8-2.4,4.7-4.9c2-2.5,3.6-4.9,4.9-7.1c1.3-2.2,2.6-5.7,4.1-10.5l0.7-2.5
		H1057.8z"/>
	<path class="st2" d="M1070.7,1081.2c0.8,1.3,1.3,2.5,1.6,3.6c0.3,1.1,0.6,3.3,0.8,6.6l1.4,16.4c1.3-1.6,3.3-4.1,5.8-7.6
		c1.2-1.7,2.8-4,4.5-6.9c1.1-1.8,1.7-3,2-3.7c0.1-0.4,0.2-0.7,0.2-1.1c0-0.2-0.1-0.4-0.2-0.6c-0.2-0.2-0.6-0.3-1.2-0.6
		c-0.7-0.2-1.2-0.6-1.6-1.2c-0.4-0.6-0.6-1.2-0.6-1.9c0-0.9,0.3-1.6,0.8-2.2c0.5-0.6,1.2-0.8,2-0.8c1,0,1.8,0.4,2.5,1.2
		c0.7,0.8,1,1.9,1,3.4c0,1.7-0.6,3.7-1.8,6c-1.2,2.3-3.5,5.7-6.9,10.4c-3.4,4.7-7.5,9.7-12.4,15.2c-3.4,3.8-5.8,6.2-7.5,7.1
		c-1.6,1-3,1.5-4.2,1.5c-0.7,0-1.3-0.3-1.8-0.8c-0.5-0.5-0.8-1.1-0.8-1.8c0-0.9,0.4-1.6,1.1-2.4c0.7-0.7,1.5-1.1,2.4-1.1
		c0.4,0,0.8,0.1,1.1,0.3c0.2,0.1,0.4,0.4,0.6,1c0.2,0.5,0.4,0.9,0.6,1.1c0.1,0.1,0.2,0.2,0.4,0.2c0.1,0,0.4-0.1,0.7-0.3
		c1.2-0.8,2.6-2,4.3-3.6c2.1-2.2,3.7-4,4.8-5.3l-1.9-21.1c-0.3-3.5-0.8-5.6-1.4-6.4c-0.6-0.8-1.7-1.1-3.1-1.1
		c-0.5,0-1.3,0.1-2.5,0.2l-0.3-1.2L1070.7,1081.2z"/>
</g>
<g>
	<path class="st2" d="M284.8,1185.1l0.8,12.6h-0.8c-1.1-3.8-2.7-6.5-4.8-8.1c-2.1-1.7-4.6-2.5-7.5-2.5c-2.5,0-4.7,0.6-6.6,1.9
		c-2,1.2-3.5,3.2-4.7,5.9c-1.1,2.7-1.7,6.1-1.7,10.1c0,3.3,0.5,6.2,1.6,8.7s2.7,4.3,4.8,5.6c2.1,1.3,4.6,2,7.3,2
		c2.4,0,4.5-0.5,6.3-1.5s3.8-3.1,6-6.1l0.8,0.5c-1.8,3.3-4,5.7-6.5,7.2c-2.5,1.5-5.4,2.3-8.8,2.3c-6.1,0-10.8-2.3-14.2-6.8
		c-2.5-3.4-3.7-7.3-3.7-11.9c0-3.7,0.8-7,2.5-10.1c1.6-3.1,3.9-5.5,6.8-7.2c2.9-1.7,6-2.5,9.5-2.5c2.7,0,5.3,0.7,7.9,2
		c0.8,0.4,1.3,0.6,1.7,0.6c0.5,0,0.9-0.2,1.3-0.5c0.5-0.5,0.8-1.2,1-2.1H284.8z"/>
	<path class="st2" d="M304.2,1219.2c-2.5,2-4.1,3.1-4.8,3.4c-1,0.5-2,0.7-3.1,0.7c-1.7,0-3.1-0.6-4.2-1.8s-1.7-2.7-1.7-4.7
		c0-1.2,0.3-2.3,0.8-3.1c0.7-1.2,2-2.4,3.9-3.5c1.8-1.1,4.9-2.4,9.2-4v-1c0-2.5-0.4-4.2-1.2-5.1c-0.8-0.9-1.9-1.4-3.4-1.4
		c-1.1,0-2,0.3-2.7,0.9c-0.7,0.6-1,1.3-1,2.1l0.1,1.6c0,0.8-0.2,1.5-0.6,1.9c-0.4,0.5-1,0.7-1.7,0.7s-1.2-0.2-1.7-0.7
		c-0.4-0.5-0.6-1.1-0.6-1.9c0-1.6,0.8-3,2.4-4.3c1.6-1.3,3.8-2,6.7-2c2.2,0,4,0.4,5.4,1.1c1.1,0.6,1.8,1.4,2.4,2.6
		c0.3,0.8,0.5,2.4,0.5,4.8v8.4c0,2.4,0,3.8,0.1,4.4c0.1,0.5,0.2,0.9,0.5,1.1c0.2,0.2,0.5,0.3,0.7,0.3c0.3,0,0.5-0.1,0.7-0.2
		c0.4-0.2,1.1-0.9,2.2-2v1.5c-2,2.7-4,4-5.8,4c-0.9,0-1.6-0.3-2.1-0.9C304.5,1221.8,304.2,1220.7,304.2,1219.2z M304.2,1217.4v-9.5
		c-2.7,1.1-4.5,1.9-5.3,2.3c-1.4,0.8-2.4,1.6-3.1,2.5c-0.6,0.9-0.9,1.8-0.9,2.8c0,1.3,0.4,2.4,1.2,3.3c0.8,0.9,1.7,1.3,2.7,1.3
		C300.2,1220.2,302,1219.3,304.2,1217.4z"/>
	<path class="st2" d="M323.4,1184.2v33c0,1.6,0.1,2.6,0.3,3.1c0.2,0.5,0.6,0.9,1,1.1s1.3,0.4,2.6,0.4v1h-12.2v-1
		c1.1,0,1.9-0.1,2.3-0.4c0.4-0.2,0.7-0.6,1-1.2c0.2-0.5,0.3-1.6,0.3-3.1v-22.6c0-2.8-0.1-4.5-0.2-5.2c-0.1-0.6-0.3-1.1-0.6-1.3
		c-0.3-0.2-0.6-0.4-1.1-0.4c-0.5,0-1.1,0.1-1.8,0.4l-0.5-1l7.4-3H323.4z"/>
	<path class="st2" d="M338.8,1184.2v33c0,1.6,0.1,2.6,0.3,3.1c0.2,0.5,0.6,0.9,1,1.1s1.3,0.4,2.6,0.4v1h-12.2v-1
		c1.1,0,1.9-0.1,2.3-0.4c0.4-0.2,0.7-0.6,1-1.2c0.2-0.5,0.3-1.6,0.3-3.1v-22.6c0-2.8-0.1-4.5-0.2-5.2c-0.1-0.6-0.3-1.1-0.6-1.3
		c-0.3-0.2-0.6-0.4-1.1-0.4c-0.5,0-1.1,0.1-1.8,0.4l-0.5-1l7.4-3H338.8z"/>
	<path class="st2" d="M349.9,1207.3c0,3.7,0.9,6.6,2.7,8.7c1.8,2.1,3.9,3.1,6.4,3.1c1.6,0,3.1-0.4,4.3-1.3c1.2-0.9,2.2-2.4,3-4.6
		l0.8,0.5c-0.4,2.5-1.5,4.7-3.3,6.8s-4.1,3.1-6.9,3.1c-3,0-5.6-1.2-7.7-3.5s-3.2-5.5-3.2-9.4c0-4.3,1.1-7.6,3.3-10s4.9-3.6,8.2-3.6
		c2.8,0,5.1,0.9,6.9,2.7c1.8,1.8,2.7,4.3,2.7,7.4H349.9z M349.9,1205.7h11.5c-0.1-1.6-0.3-2.7-0.6-3.4c-0.5-1-1.1-1.8-2-2.4
		c-0.9-0.6-1.8-0.9-2.8-0.9c-1.5,0-2.9,0.6-4,1.8C350.8,1202,350.1,1203.6,349.9,1205.7z"/>
	<path class="st2" d="M382.5,1200.4l7.7-3.1h1v5.8c1.3-2.2,2.6-3.7,3.9-4.6c1.3-0.9,2.7-1.3,4.1-1.3c2.5,0,4.6,1,6.2,2.9
		c2,2.4,3.1,5.5,3.1,9.3c0,4.3-1.2,7.8-3.7,10.6c-2,2.3-4.6,3.5-7.7,3.5c-1.3,0-2.5-0.2-3.5-0.6c-0.7-0.3-1.5-0.8-2.4-1.7v7.6
		c0,1.7,0.1,2.8,0.3,3.3c0.2,0.5,0.6,0.8,1.1,1.1c0.5,0.3,1.4,0.4,2.8,0.4v1h-13.1v-1h0.7c1,0,1.9-0.2,2.6-0.6
		c0.3-0.2,0.6-0.5,0.8-1c0.2-0.4,0.3-1.6,0.3-3.4v-23.5c0-1.6-0.1-2.6-0.2-3.1c-0.1-0.4-0.4-0.8-0.7-1c-0.3-0.2-0.7-0.3-1.3-0.3
		c-0.4,0-1,0.1-1.7,0.4L382.5,1200.4z M391.2,1204.7v9.3c0,2,0.1,3.4,0.2,4c0.3,1,0.9,2,1.9,2.7c1,0.8,2.2,1.2,3.7,1.2
		c1.8,0,3.3-0.7,4.4-2.1c1.5-1.8,2.2-4.4,2.2-7.8c0-3.8-0.8-6.7-2.5-8.8c-1.2-1.4-2.6-2.1-4.1-2.1c-0.9,0-1.7,0.2-2.6,0.6
		C393.8,1202.1,392.7,1203.1,391.2,1204.7z"/>
	<path class="st2" d="M419.4,1197.2v5.6c2.1-3.7,4.2-5.6,6.4-5.6c1,0,1.8,0.3,2.5,0.9s1,1.3,1,2.1c0,0.7-0.2,1.3-0.7,1.8
		c-0.5,0.5-1,0.7-1.7,0.7c-0.7,0-1.4-0.3-2.2-0.9c-0.8-0.6-1.4-0.9-1.7-0.9c-0.3,0-0.7,0.2-1.1,0.5c-0.8,0.7-1.7,2-2.5,3.6v11.9
		c0,1.4,0.2,2.4,0.5,3.1c0.2,0.5,0.6,0.9,1.2,1.2c0.6,0.3,1.5,0.5,2.6,0.5v1H411v-1c1.3,0,2.2-0.2,2.8-0.6c0.4-0.3,0.8-0.8,0.9-1.4
		c0.1-0.3,0.1-1.2,0.1-2.6v-9.6c0-2.9-0.1-4.6-0.2-5.2c-0.1-0.6-0.3-1-0.6-1.2c-0.3-0.2-0.7-0.4-1.2-0.4c-0.6,0-1.2,0.1-1.9,0.4
		l-0.3-1l7.5-3H419.4z"/>
	<path class="st2" d="M439.2,1197.2v20c0,1.6,0.1,2.6,0.3,3.1c0.2,0.5,0.6,0.9,1,1.1c0.4,0.3,1.3,0.4,2.4,0.4v1h-12.1v-1
		c1.2,0,2-0.1,2.4-0.4c0.4-0.2,0.7-0.6,1-1.2c0.2-0.5,0.4-1.6,0.4-3.1v-9.6c0-2.7-0.1-4.4-0.2-5.2c-0.1-0.6-0.3-1-0.6-1.2
		c-0.3-0.2-0.6-0.3-1.1-0.3c-0.5,0-1.1,0.1-1.8,0.4l-0.4-1l7.5-3H439.2z M437,1184.2c0.8,0,1.4,0.3,1.9,0.8c0.5,0.5,0.8,1.2,0.8,2
		c0,0.7-0.3,1.4-0.8,1.9c-0.5,0.6-1.2,0.8-1.9,0.8c-0.8,0-1.4-0.3-2-0.8c-0.5-0.6-0.8-1.2-0.8-1.9c0-0.8,0.3-1.4,0.8-2
		C435.5,1184.4,436.2,1184.2,437,1184.2z"/>
	<path class="st2" d="M453.3,1202.5c2.9-3.5,5.7-5.3,8.4-5.3c1.3,0,2.5,0.3,3.5,1c1,0.7,1.8,1.8,2.3,3.3c0.4,1.1,0.6,2.8,0.6,5v10.6
		c0,1.6,0.1,2.6,0.4,3.2c0.2,0.5,0.5,0.8,1,1.1s1.3,0.4,2.4,0.4v1h-12.3v-1h0.5c1.1,0,2-0.2,2.4-0.5c0.5-0.3,0.8-0.9,1-1.6
		c0.1-0.3,0.1-1.1,0.1-2.6V1207c0-2.2-0.3-3.9-0.9-4.9c-0.6-1-1.6-1.5-3-1.5c-2.2,0-4.3,1.2-6.4,3.5v13.1c0,1.7,0.1,2.7,0.3,3.1
		c0.3,0.5,0.6,0.9,1.1,1.1c0.4,0.2,1.3,0.4,2.7,0.4v1h-12.3v-1h0.5c1.3,0,2.1-0.3,2.6-1c0.4-0.6,0.7-1.9,0.7-3.7v-9.2
		c0-3-0.1-4.8-0.2-5.5c-0.1-0.7-0.3-1.1-0.6-1.3c-0.3-0.2-0.7-0.4-1.1-0.4c-0.5,0-1.1,0.1-1.8,0.4l-0.4-1l7.5-3h1.1V1202.5z"/>
	<path class="st2" d="M495,1213.4c-0.7,3.3-2,5.8-3.9,7.6c-2,1.8-4.1,2.6-6.5,2.6c-2.8,0-5.3-1.2-7.4-3.6c-2.1-2.4-3.2-5.6-3.2-9.6
		c0-3.9,1.2-7.1,3.5-9.5c2.3-2.4,5.1-3.7,8.4-3.7c2.5,0,4.5,0.6,6,1.9c1.6,1.3,2.4,2.6,2.4,4c0,0.7-0.2,1.3-0.7,1.7
		c-0.5,0.4-1.1,0.6-1.9,0.6c-1.1,0-1.9-0.3-2.4-1c-0.3-0.4-0.5-1.1-0.6-2.2c-0.1-1.1-0.5-1.9-1.1-2.4c-0.7-0.5-1.5-0.8-2.6-0.8
		c-1.8,0-3.3,0.7-4.4,2c-1.5,1.8-2.2,4.1-2.2,7.1c0,3,0.7,5.6,2.2,7.9c1.5,2.3,3.4,3.4,5.9,3.4c1.8,0,3.4-0.6,4.8-1.8
		c1-0.8,2-2.3,2.9-4.5L495,1213.4z"/>
	<path class="st2" d="M507.2,1197.2v20c0,1.6,0.1,2.6,0.3,3.1c0.2,0.5,0.6,0.9,1,1.1c0.4,0.3,1.3,0.4,2.4,0.4v1h-12.1v-1
		c1.2,0,2-0.1,2.4-0.4c0.4-0.2,0.7-0.6,1-1.2c0.2-0.5,0.4-1.6,0.4-3.1v-9.6c0-2.7-0.1-4.4-0.2-5.2c-0.1-0.6-0.3-1-0.6-1.2
		c-0.3-0.2-0.6-0.3-1.1-0.3c-0.5,0-1.1,0.1-1.8,0.4l-0.4-1l7.5-3H507.2z M504.9,1184.2c0.8,0,1.4,0.3,1.9,0.8c0.5,0.5,0.8,1.2,0.8,2
		c0,0.7-0.3,1.4-0.8,1.9c-0.5,0.6-1.2,0.8-1.9,0.8c-0.8,0-1.4-0.3-2-0.8c-0.5-0.6-0.8-1.2-0.8-1.9c0-0.8,0.3-1.4,0.8-2
		C503.5,1184.4,504.1,1184.2,504.9,1184.2z"/>
	<path class="st2" d="M512.3,1200.4l7.7-3.1h1v5.8c1.3-2.2,2.6-3.7,3.9-4.6c1.3-0.9,2.7-1.3,4.1-1.3c2.5,0,4.6,1,6.2,2.9
		c2,2.4,3.1,5.5,3.1,9.3c0,4.3-1.2,7.8-3.7,10.6c-2,2.3-4.6,3.5-7.7,3.5c-1.3,0-2.5-0.2-3.5-0.6c-0.7-0.3-1.5-0.8-2.4-1.7v7.6
		c0,1.7,0.1,2.8,0.3,3.3c0.2,0.5,0.6,0.8,1.1,1.1c0.5,0.3,1.4,0.4,2.8,0.4v1h-13.1v-1h0.7c1,0,1.9-0.2,2.6-0.6
		c0.3-0.2,0.6-0.5,0.8-1c0.2-0.4,0.3-1.6,0.3-3.4v-23.5c0-1.6-0.1-2.6-0.2-3.1c-0.1-0.4-0.4-0.8-0.7-1c-0.3-0.2-0.7-0.3-1.3-0.3
		c-0.4,0-1,0.1-1.7,0.4L512.3,1200.4z M521,1204.7v9.3c0,2,0.1,3.4,0.2,4c0.3,1,0.9,2,1.9,2.7c1,0.8,2.2,1.2,3.7,1.2
		c1.8,0,3.3-0.7,4.4-2.1c1.5-1.8,2.2-4.4,2.2-7.8c0-3.8-0.8-6.7-2.5-8.8c-1.2-1.4-2.6-2.1-4.1-2.1c-0.9,0-1.7,0.2-2.6,0.6
		C523.5,1202.1,522.5,1203.1,521,1204.7z"/>
	<path class="st2" d="M555.9,1219.2c-2.5,2-4.1,3.1-4.8,3.4c-1,0.5-2,0.7-3.1,0.7c-1.7,0-3.1-0.6-4.2-1.8s-1.7-2.7-1.7-4.7
		c0-1.2,0.3-2.3,0.8-3.1c0.7-1.2,2-2.4,3.9-3.5c1.8-1.1,4.9-2.4,9.2-4v-1c0-2.5-0.4-4.2-1.2-5.1c-0.8-0.9-1.9-1.4-3.4-1.4
		c-1.1,0-2,0.3-2.7,0.9c-0.7,0.6-1,1.3-1,2.1l0.1,1.6c0,0.8-0.2,1.5-0.6,1.9c-0.4,0.5-1,0.7-1.7,0.7s-1.2-0.2-1.7-0.7
		c-0.4-0.5-0.6-1.1-0.6-1.9c0-1.6,0.8-3,2.4-4.3c1.6-1.3,3.8-2,6.7-2c2.2,0,4,0.4,5.4,1.1c1.1,0.6,1.8,1.4,2.4,2.6
		c0.3,0.8,0.5,2.4,0.5,4.8v8.4c0,2.4,0,3.8,0.1,4.4c0.1,0.5,0.2,0.9,0.5,1.1c0.2,0.2,0.5,0.3,0.7,0.3c0.3,0,0.5-0.1,0.7-0.2
		c0.4-0.2,1.1-0.9,2.2-2v1.5c-2,2.7-4,4-5.8,4c-0.9,0-1.6-0.3-2.1-0.9C556.2,1221.8,556,1220.7,555.9,1219.2z M555.9,1217.4v-9.5
		c-2.7,1.1-4.5,1.9-5.3,2.3c-1.4,0.8-2.4,1.6-3.1,2.5c-0.6,0.9-0.9,1.8-0.9,2.8c0,1.3,0.4,2.4,1.2,3.3c0.8,0.9,1.7,1.3,2.7,1.3
		C551.9,1220.2,553.7,1219.3,555.9,1217.4z"/>
	<path class="st2" d="M575.1,1184.2v33c0,1.6,0.1,2.6,0.3,3.1c0.2,0.5,0.6,0.9,1,1.1s1.3,0.4,2.6,0.4v1h-12.2v-1
		c1.1,0,1.9-0.1,2.3-0.4c0.4-0.2,0.7-0.6,1-1.2c0.2-0.5,0.3-1.6,0.3-3.1v-22.6c0-2.8-0.1-4.5-0.2-5.2c-0.1-0.6-0.3-1.1-0.6-1.3
		c-0.3-0.2-0.6-0.4-1.1-0.4c-0.5,0-1.1,0.1-1.8,0.4l-0.5-1l7.4-3H575.1z"/>
	<path class="st2" d="M599.9,1201l-1.5-8.1c-0.4-2.2-0.6-3.7-0.6-4.5c0-1.2,0.2-2,0.7-2.5c0.5-0.5,1.1-0.8,1.9-0.8
		c0.8,0,1.4,0.3,2,0.8c0.5,0.5,0.8,1.2,0.8,2.1c0,0.7-0.2,2.4-0.7,4.9l-1.5,8H599.9z M609.8,1201l-1.5-7.9l-0.6-3.3
		c0-0.5-0.1-0.9-0.1-1.3c0-1.1,0.3-2,0.8-2.5s1.2-0.8,2-0.8c0.8,0,1.4,0.3,2,0.8c0.5,0.5,0.8,1.2,0.8,2.1c0,1.5-0.2,3.2-0.5,5
		l-1.6,8H609.8z"/>
	<path class="st2" d="M648.8,1212.6l0.9,0.2l-3.2,10H618v-1h1.4c1.6,0,2.7-0.5,3.3-1.5c0.4-0.6,0.6-1.9,0.6-4v-23.8
		c0-2.3-0.3-3.8-0.8-4.3c-0.7-0.8-1.7-1.2-3.1-1.2H618v-1h16.7v1c-2,0-3.3,0.2-4.1,0.5c-0.8,0.4-1.3,0.9-1.6,1.5s-0.4,2-0.4,4.1
		v23.1c0,1.5,0.1,2.5,0.4,3.1c0.2,0.4,0.6,0.7,1,0.8c0.4,0.2,1.9,0.3,4.2,0.3h2.7c2.8,0,4.8-0.2,6-0.6c1.1-0.4,2.2-1.2,3.1-2.2
		C646.9,1216.6,647.8,1214.9,648.8,1212.6z"/>
	<path class="st2" d="M664.8,1197.2c3.8,0,6.8,1.4,9.1,4.3c1.9,2.5,2.9,5.3,2.9,8.4c0,2.2-0.5,4.5-1.6,6.7c-1.1,2.3-2.5,4-4.4,5.2
		c-1.9,1.2-4,1.8-6.3,1.8c-3.7,0-6.7-1.5-8.9-4.5c-1.8-2.5-2.8-5.3-2.8-8.5c0-2.3,0.6-4.6,1.7-6.8c1.1-2.2,2.6-3.9,4.5-5
		C660.7,1197.7,662.7,1197.2,664.8,1197.2z M663.9,1199c-0.9,0-1.9,0.3-2.9,0.9c-1,0.6-1.8,1.6-2.4,3c-0.6,1.4-0.9,3.3-0.9,5.5
		c0,3.6,0.7,6.7,2.2,9.4s3.3,3.9,5.7,3.9c1.8,0,3.2-0.7,4.3-2.2s1.7-3.9,1.7-7.5c0-4.4-0.9-7.9-2.8-10.5
		C667.6,1199.8,665.9,1199,663.9,1199z"/>
	<path class="st2" d="M696.5,1197.2v8.5h-0.9c-0.7-2.7-1.6-4.5-2.7-5.4c-1.1-1-2.5-1.5-4.1-1.5c-1.3,0-2.3,0.3-3.1,1
		c-0.8,0.7-1.2,1.4-1.2,2.2c0,1,0.3,1.9,0.9,2.6c0.6,0.7,1.7,1.5,3.4,2.4l3.9,2c3.7,1.8,5.5,4.1,5.5,7.1c0,2.2-0.9,4.1-2.6,5.5
		c-1.7,1.4-3.6,2.1-5.8,2.1c-1.5,0-3.2-0.3-5.2-0.8c-0.6-0.2-1.1-0.3-1.5-0.3c-0.4,0-0.7,0.2-1,0.7h-0.9v-8.9h0.9
		c0.5,2.5,1.5,4.5,2.9,5.7s3,1.9,4.8,1.9c1.2,0,2.2-0.4,3-1.1c0.8-0.7,1.2-1.6,1.2-2.6c0-1.3-0.4-2.3-1.3-3.2
		c-0.9-0.8-2.6-1.9-5.2-3.2s-4.3-2.5-5.1-3.5c-0.8-1-1.2-2.3-1.2-3.9c0-2,0.7-3.8,2.1-5.1c1.4-1.4,3.2-2.1,5.4-2.1
		c1,0,2.2,0.2,3.6,0.6c0.9,0.3,1.5,0.4,1.8,0.4c0.3,0,0.5-0.1,0.7-0.2c0.2-0.1,0.4-0.4,0.6-0.8H696.5z"/>
	<path class="st2" d="M748.4,1185.1l0.9,11.6h-0.9c-1-2.9-2.2-5.1-3.7-6.5c-2.2-2.1-5-3.2-8.5-3.2c-4.7,0-8.2,1.9-10.7,5.6
		c-2,3.1-3.1,6.8-3.1,11.2c0,3.5,0.7,6.7,2,9.6c1.4,2.9,3.1,5,5.3,6.4s4.5,2,6.8,2c1.3,0,2.7-0.2,3.9-0.5c1.3-0.3,2.5-0.8,3.7-1.5
		v-10.7c0-1.8-0.1-3.1-0.4-3.6c-0.3-0.6-0.7-1-1.3-1.3c-0.6-0.3-1.6-0.4-3.1-0.4v-1h14.2v1h-0.7c-1.4,0-2.4,0.5-2.9,1.4
		c-0.4,0.7-0.5,2-0.5,3.9v11.3c-2.1,1.1-4.1,2-6.2,2.5c-2,0.5-4.3,0.8-6.7,0.8c-7.1,0-12.5-2.3-16.2-6.8c-2.8-3.4-4.1-7.4-4.1-11.8
		c0-3.2,0.8-6.3,2.3-9.3c1.8-3.5,4.4-6.3,7.6-8.2c2.7-1.6,5.9-2.4,9.5-2.4c1.3,0,2.6,0.1,3.7,0.3s2.6,0.7,4.6,1.5
		c1,0.4,1.7,0.6,2.1,0.6c0.3,0,0.6-0.2,0.9-0.5c0.2-0.3,0.4-0.9,0.4-1.9H748.4z"/>
	<path class="st2" d="M777.9,1197.9v15c0,2.9,0.1,4.6,0.2,5.3s0.4,1.1,0.7,1.3c0.3,0.2,0.6,0.4,1,0.4c0.6,0,1.2-0.2,1.9-0.5l0.4,1
		l-7.5,3.1h-1.2v-5.3c-2.1,2.3-3.8,3.8-4.9,4.4s-2.3,0.9-3.5,0.9c-1.4,0-2.6-0.4-3.6-1.2s-1.7-1.8-2.1-3.1c-0.4-1.3-0.6-3.1-0.6-5.4
		v-11.1c0-1.2-0.1-2-0.4-2.4c-0.2-0.5-0.6-0.8-1.1-1c-0.5-0.2-1.4-0.4-2.7-0.4v-1h8.7v16.6c0,2.3,0.4,3.8,1.2,4.6
		c0.8,0.7,1.8,1.1,2.9,1.1c0.8,0,1.7-0.2,2.7-0.7c1-0.5,2.2-1.4,3.5-2.8v-14.1c0-1.4-0.3-2.4-0.8-2.9c-0.5-0.5-1.6-0.8-3.2-0.8v-1
		H777.9z"/>
	<path class="st2" d="M798,1219.2c-2.5,2-4.1,3.1-4.8,3.4c-1,0.5-2,0.7-3.1,0.7c-1.7,0-3.1-0.6-4.2-1.8s-1.7-2.7-1.7-4.7
		c0-1.2,0.3-2.3,0.8-3.1c0.7-1.2,2-2.4,3.9-3.5c1.8-1.1,4.9-2.4,9.2-4v-1c0-2.5-0.4-4.2-1.2-5.1c-0.8-0.9-1.9-1.4-3.4-1.4
		c-1.1,0-2,0.3-2.7,0.9c-0.7,0.6-1,1.3-1,2.1l0.1,1.6c0,0.8-0.2,1.5-0.6,1.9c-0.4,0.5-1,0.7-1.7,0.7s-1.2-0.2-1.7-0.7
		c-0.4-0.5-0.6-1.1-0.6-1.9c0-1.6,0.8-3,2.4-4.3c1.6-1.3,3.8-2,6.7-2c2.2,0,4,0.4,5.4,1.1c1.1,0.6,1.8,1.4,2.4,2.6
		c0.3,0.8,0.5,2.4,0.5,4.8v8.4c0,2.4,0,3.8,0.1,4.4c0.1,0.5,0.2,0.9,0.5,1.1c0.2,0.2,0.5,0.3,0.7,0.3c0.3,0,0.5-0.1,0.7-0.2
		c0.4-0.2,1.1-0.9,2.2-2v1.5c-2,2.7-4,4-5.8,4c-0.9,0-1.6-0.3-2.1-0.9C798.3,1221.8,798,1220.7,798,1219.2z M798,1217.4v-9.5
		c-2.7,1.1-4.5,1.9-5.3,2.3c-1.4,0.8-2.4,1.6-3.1,2.5c-0.6,0.9-0.9,1.8-0.9,2.8c0,1.3,0.4,2.4,1.2,3.3c0.8,0.9,1.7,1.3,2.7,1.3
		C794,1220.2,795.8,1219.3,798,1217.4z"/>
	<path class="st2" d="M807.2,1197.9h11.6v1h-0.6c-0.8,0-1.4,0.2-1.8,0.5c-0.4,0.4-0.6,0.8-0.6,1.3c0,0.7,0.3,1.7,0.9,2.9l6,12.6
		l5.6-13.7c0.3-0.7,0.5-1.5,0.5-2.2c0-0.3-0.1-0.6-0.2-0.7c-0.1-0.2-0.4-0.4-0.7-0.5c-0.3-0.1-0.9-0.2-1.6-0.2v-1h8.1v1
		c-0.7,0.1-1.2,0.2-1.6,0.5s-0.8,0.6-1.2,1.2c-0.2,0.2-0.5,0.9-0.9,2.1l-10.1,24.8c-1,2.4-2.3,4.2-3.9,5.5c-1.6,1.2-3.1,1.9-4.6,1.9
		c-1.1,0-1.9-0.3-2.6-0.9c-0.7-0.6-1-1.3-1-2.1c0-0.8,0.3-1.4,0.8-1.8s1.2-0.7,2-0.7c0.6,0,1.4,0.2,2.5,0.6c0.7,0.3,1.2,0.4,1.3,0.4
		c0.5,0,1.1-0.3,1.8-0.8s1.3-1.7,1.9-3.3l1.8-4.3l-8.9-18.8c-0.3-0.6-0.7-1.3-1.3-2.1c-0.5-0.6-0.8-1.1-1.1-1.3
		c-0.4-0.3-1.1-0.6-2-0.8V1197.9z"/>
	<path class="st2" d="M850.5,1219.2c-2.5,2-4.1,3.1-4.8,3.4c-1,0.5-2,0.7-3.1,0.7c-1.7,0-3.1-0.6-4.2-1.8s-1.7-2.7-1.7-4.7
		c0-1.2,0.3-2.3,0.8-3.1c0.7-1.2,2-2.4,3.9-3.5c1.8-1.1,4.9-2.4,9.2-4v-1c0-2.5-0.4-4.2-1.2-5.1c-0.8-0.9-1.9-1.4-3.4-1.4
		c-1.1,0-2,0.3-2.7,0.9c-0.7,0.6-1,1.3-1,2.1l0.1,1.6c0,0.8-0.2,1.5-0.6,1.9c-0.4,0.5-1,0.7-1.7,0.7c-0.7,0-1.2-0.2-1.7-0.7
		c-0.4-0.5-0.6-1.1-0.6-1.9c0-1.6,0.8-3,2.4-4.3s3.8-2,6.7-2c2.2,0,4,0.4,5.4,1.1c1.1,0.6,1.8,1.4,2.4,2.6c0.3,0.8,0.5,2.4,0.5,4.8
		v8.4c0,2.4,0,3.8,0.1,4.4c0.1,0.5,0.2,0.9,0.5,1.1c0.2,0.2,0.5,0.3,0.7,0.3c0.3,0,0.5-0.1,0.7-0.2c0.4-0.2,1.1-0.9,2.2-2v1.5
		c-2,2.7-4,4-5.8,4c-0.9,0-1.6-0.3-2.1-0.9C850.8,1221.8,850.5,1220.7,850.5,1219.2z M850.5,1217.4v-9.5c-2.7,1.1-4.5,1.9-5.3,2.3
		c-1.4,0.8-2.4,1.6-3.1,2.5c-0.6,0.9-0.9,1.8-0.9,2.8c0,1.3,0.4,2.4,1.2,3.3c0.8,0.9,1.7,1.3,2.7,1.3
		C846.5,1220.2,848.3,1219.3,850.5,1217.4z"/>
	<path class="st2" d="M868,1202.2c2.4-3.4,5-5,7.8-5c2.5,0,4.8,1.1,6.7,3.3c1.9,2.2,2.9,5.2,2.9,8.9c0,4.4-1.5,8-4.4,10.7
		c-2.5,2.3-5.3,3.5-8.4,3.5c-1.4,0-2.9-0.3-4.4-0.8c-1.5-0.5-3-1.3-4.6-2.4v-25.8c0-2.8-0.1-4.5-0.2-5.2s-0.3-1.1-0.6-1.3
		c-0.3-0.2-0.7-0.4-1.1-0.4c-0.5,0-1.2,0.1-1.9,0.4l-0.4-1l7.5-3h1.2V1202.2z M868,1203.9v14.9c0.9,0.9,1.9,1.6,2.9,2.1s2,0.7,3,0.7
		c1.7,0,3.2-0.9,4.6-2.7s2.1-4.4,2.1-7.9c0-3.2-0.7-5.6-2.1-7.4c-1.4-1.7-3-2.6-4.9-2.6c-1,0-1.9,0.2-2.9,0.7
		C870,1202.1,869.1,1202.9,868,1203.9z"/>
	<path class="st2" d="M897.5,1197.2v20c0,1.6,0.1,2.6,0.3,3.1s0.6,0.9,1,1.1c0.4,0.3,1.3,0.4,2.4,0.4v1h-12.1v-1
		c1.2,0,2-0.1,2.4-0.4c0.4-0.2,0.7-0.6,1-1.2c0.2-0.5,0.4-1.6,0.4-3.1v-9.6c0-2.7-0.1-4.4-0.2-5.2c-0.1-0.6-0.3-1-0.6-1.2
		c-0.3-0.2-0.6-0.3-1.1-0.3c-0.5,0-1.1,0.1-1.8,0.4l-0.4-1l7.5-3H897.5z M895.2,1184.2c0.8,0,1.4,0.3,1.9,0.8c0.5,0.5,0.8,1.2,0.8,2
		c0,0.7-0.3,1.4-0.8,1.9c-0.5,0.6-1.2,0.8-1.9,0.8c-0.8,0-1.4-0.3-2-0.8c-0.5-0.6-0.8-1.2-0.8-1.9c0-0.8,0.3-1.4,0.8-2
		S894.5,1184.2,895.2,1184.2z"/>
	<path class="st2" d="M911.6,1189.7v8.2h5.8v1.9h-5.8v16.1c0,1.6,0.2,2.7,0.7,3.3c0.5,0.6,1.1,0.8,1.8,0.8c0.6,0,1.2-0.2,1.7-0.6
		c0.6-0.4,1-0.9,1.3-1.7h1c-0.6,1.8-1.5,3.1-2.7,4c-1.2,0.9-2.3,1.3-3.6,1.3c-0.9,0-1.7-0.2-2.5-0.7c-0.8-0.5-1.4-1.1-1.8-2
		c-0.4-0.9-0.6-2.2-0.6-4v-16.7h-3.9v-0.9c1-0.4,2-1.1,3.1-2s2-2.1,2.8-3.4c0.4-0.7,1-1.9,1.8-3.8H911.6z"/>
	<path class="st2" d="M932,1197.2c3.8,0,6.8,1.4,9.1,4.3c1.9,2.5,2.9,5.3,2.9,8.4c0,2.2-0.5,4.5-1.6,6.7c-1.1,2.3-2.5,4-4.4,5.2
		c-1.9,1.2-4,1.8-6.3,1.8c-3.7,0-6.7-1.5-8.9-4.5c-1.8-2.5-2.8-5.3-2.8-8.5c0-2.3,0.6-4.6,1.7-6.8s2.6-3.9,4.5-5
		C928,1197.7,929.9,1197.2,932,1197.2z M931.1,1199c-0.9,0-1.9,0.3-2.9,0.9c-1,0.6-1.8,1.6-2.4,3c-0.6,1.4-0.9,3.3-0.9,5.5
		c0,3.6,0.7,6.7,2.2,9.4s3.3,3.9,5.7,3.9c1.8,0,3.2-0.7,4.3-2.2c1.1-1.4,1.7-3.9,1.7-7.5c0-4.4-0.9-7.9-2.8-10.5
		C934.8,1199.8,933.1,1199,931.1,1199z"/>
	<path class="st2" d="M963.7,1197.2v8.5h-0.9c-0.7-2.7-1.6-4.5-2.7-5.4c-1.1-1-2.5-1.5-4.1-1.5c-1.3,0-2.3,0.3-3.1,1
		c-0.8,0.7-1.2,1.4-1.2,2.2c0,1,0.3,1.9,0.9,2.6c0.6,0.7,1.7,1.5,3.4,2.4l3.9,2c3.7,1.8,5.5,4.1,5.5,7.1c0,2.2-0.9,4.1-2.6,5.5
		c-1.7,1.4-3.6,2.1-5.8,2.1c-1.5,0-3.2-0.3-5.2-0.8c-0.6-0.2-1.1-0.3-1.5-0.3c-0.4,0-0.7,0.2-1,0.7h-0.9v-8.9h0.9
		c0.5,2.5,1.5,4.5,2.9,5.7c1.4,1.3,3,1.9,4.8,1.9c1.2,0,2.2-0.4,3-1.1c0.8-0.7,1.2-1.6,1.2-2.6c0-1.3-0.4-2.3-1.3-3.2
		c-0.9-0.8-2.6-1.9-5.2-3.2c-2.6-1.3-4.3-2.5-5.1-3.5c-0.8-1-1.2-2.3-1.2-3.9c0-2,0.7-3.8,2.1-5.1s3.2-2.1,5.4-2.1
		c1,0,2.2,0.2,3.6,0.6c0.9,0.3,1.5,0.4,1.8,0.4s0.5-0.1,0.7-0.2c0.2-0.1,0.4-0.4,0.6-0.8H963.7z"/>
	<path class="st2" d="M973.3,1201l-1.5-8.1c-0.4-2.2-0.6-3.7-0.6-4.5c0-1.2,0.2-2,0.7-2.5s1.1-0.8,1.9-0.8c0.8,0,1.4,0.3,2,0.8
		c0.5,0.5,0.8,1.2,0.8,2.1c0,0.7-0.2,2.4-0.7,4.9l-1.5,8H973.3z M983.2,1201l-1.5-7.9l-0.6-3.3c0-0.5-0.1-0.9-0.1-1.3
		c0-1.1,0.3-2,0.8-2.5s1.2-0.8,2-0.8c0.8,0,1.4,0.3,2,0.8s0.8,1.2,0.8,2.1c0,1.5-0.2,3.2-0.5,5l-1.6,8H983.2z"/>
	<path class="st2" d="M258.1,1306.1c1.8,3.2,3.8,5.5,6,7c2.1,1.5,4.6,2.4,7.3,2.6v0.9c-2.5-0.1-5.2-0.6-8-1.5
		c-2.8-0.9-5.5-2.2-8.1-3.8c-2.6-1.6-4.8-3.3-6.6-5.2c-2.6-1.1-4.7-2.2-6.2-3.3c-2.2-1.8-3.9-3.9-5.1-6.5c-1.2-2.6-1.8-5.6-1.8-9.1
		c0-5.5,1.8-10.1,5.3-13.7s7.9-5.5,13-5.5c4.8,0,9,1.8,12.5,5.5c3.5,3.7,5.3,8.3,5.3,13.8c0,4.5-1.3,8.5-3.8,11.9
		C265.4,1302.6,262.1,1304.9,258.1,1306.1z M253.5,1270.1c-3.3,0-6,1.2-8,3.5c-2.5,2.9-3.8,7.5-3.8,13.6c0,6,1.3,10.5,3.9,13.8
		c2,2.5,4.6,3.7,7.9,3.7c3.4,0,6.1-1.2,8.2-3.7c2.4-2.9,3.6-7.3,3.6-13c0-4.4-0.7-8.1-2-11.1c-1-2.3-2.4-4-4.1-5.1
		C257.6,1270.7,255.7,1270.1,253.5,1270.1z"/>
	<path class="st2" d="M282.7,1272.7v8.2h5.8v1.9h-5.8v16.1c0,1.6,0.2,2.7,0.7,3.3c0.5,0.6,1.1,0.8,1.8,0.8c0.6,0,1.2-0.2,1.7-0.6
		c0.6-0.4,1-0.9,1.3-1.7h1c-0.6,1.8-1.5,3.1-2.7,4c-1.2,0.9-2.3,1.3-3.6,1.3c-0.9,0-1.7-0.2-2.5-0.7c-0.8-0.5-1.4-1.1-1.8-2
		c-0.4-0.9-0.6-2.2-0.6-4v-16.7h-3.9v-0.9c1-0.4,2-1.1,3.1-2s2-2.1,2.8-3.4c0.4-0.7,1-1.9,1.8-3.8H282.7z"/>
	<path class="st2" d="M305,1302.1c-2.5,2-4.1,3.1-4.8,3.4c-1,0.5-2,0.7-3.1,0.7c-1.7,0-3.1-0.6-4.2-1.8s-1.7-2.7-1.7-4.7
		c0-1.2,0.3-2.3,0.8-3.1c0.7-1.2,2-2.4,3.9-3.5c1.8-1.1,4.9-2.4,9.2-4v-1c0-2.5-0.4-4.2-1.2-5.1c-0.8-0.9-1.9-1.4-3.4-1.4
		c-1.1,0-2,0.3-2.7,0.9c-0.7,0.6-1,1.3-1,2.1l0.1,1.6c0,0.8-0.2,1.5-0.6,1.9c-0.4,0.5-1,0.7-1.7,0.7s-1.2-0.2-1.7-0.7
		c-0.4-0.5-0.6-1.1-0.6-1.9c0-1.6,0.8-3,2.4-4.3c1.6-1.3,3.8-2,6.7-2c2.2,0,4,0.4,5.4,1.1c1.1,0.6,1.8,1.4,2.4,2.6
		c0.3,0.8,0.5,2.4,0.5,4.8v8.4c0,2.4,0,3.8,0.1,4.4c0.1,0.5,0.2,0.9,0.5,1.1c0.2,0.2,0.5,0.3,0.7,0.3c0.3,0,0.5-0.1,0.7-0.2
		c0.4-0.2,1.1-0.9,2.2-2v1.5c-2,2.7-4,4-5.8,4c-0.9,0-1.6-0.3-2.1-0.9C305.3,1304.7,305.1,1303.6,305,1302.1z M305,1300.4v-9.5
		c-2.7,1.1-4.5,1.9-5.3,2.3c-1.4,0.8-2.4,1.6-3.1,2.5c-0.6,0.9-0.9,1.8-0.9,2.8c0,1.3,0.4,2.4,1.2,3.3c0.8,0.9,1.7,1.3,2.7,1.3
		C301,1303.1,302.8,1302.2,305,1300.4z"/>
	<path class="st2" d="M320.9,1300.5c0.9,0,1.6,0.3,2.1,0.9c0.6,0.6,0.9,1.3,0.9,2.1c0,0.8-0.3,1.5-0.9,2.1c-0.6,0.6-1.3,0.9-2.1,0.9
		c-0.8,0-1.5-0.3-2.1-0.9c-0.6-0.6-0.9-1.3-0.9-2.1c0-0.9,0.3-1.6,0.9-2.1C319.3,1300.7,320,1300.5,320.9,1300.5z"/>
	<path class="st2" d="M373.9,1268.9l0.4,8.6h-1c-0.2-1.5-0.5-2.6-0.8-3.2c-0.6-1.1-1.3-1.8-2.2-2.3c-0.9-0.5-2.2-0.7-3.7-0.7h-5.2
		v28.1c0,2.2,0.2,3.7,0.7,4.2c0.7,0.8,1.7,1.1,3.2,1.1h1.3v1h-15.6v-1h1.3c1.6,0,2.7-0.5,3.3-1.4c0.4-0.6,0.6-1.9,0.6-3.9v-28.1
		h-4.4c-1.7,0-2.9,0.1-3.6,0.4c-0.9,0.3-1.8,1-2.4,2s-1.1,2.3-1.2,4h-1l0.4-8.6H373.9z"/>
	<path class="st2" d="M389.6,1280.1c3.8,0,6.8,1.4,9.1,4.3c1.9,2.5,2.9,5.3,2.9,8.4c0,2.2-0.5,4.5-1.6,6.7c-1.1,2.3-2.5,4-4.4,5.2
		c-1.9,1.2-4,1.8-6.3,1.8c-3.7,0-6.7-1.5-8.9-4.5c-1.8-2.5-2.8-5.3-2.8-8.5c0-2.3,0.6-4.6,1.7-6.8c1.1-2.2,2.6-3.9,4.5-5
		C385.6,1280.7,387.5,1280.1,389.6,1280.1z M388.7,1281.9c-0.9,0-1.9,0.3-2.9,0.9c-1,0.6-1.8,1.6-2.4,3c-0.6,1.4-0.9,3.3-0.9,5.5
		c0,3.6,0.7,6.7,2.2,9.4c1.4,2.6,3.3,3.9,5.7,3.9c1.8,0,3.2-0.7,4.3-2.2c1.1-1.4,1.7-3.9,1.7-7.5c0-4.4-0.9-7.9-2.8-10.5
		C392.4,1282.7,390.7,1281.9,388.7,1281.9z"/>
	<path class="st2" d="M403.4,1283.3l7.7-3.1h1v5.8c1.3-2.2,2.6-3.7,3.9-4.6c1.3-0.9,2.7-1.3,4.1-1.3c2.5,0,4.6,1,6.2,2.9
		c2,2.4,3.1,5.5,3.1,9.3c0,4.3-1.2,7.8-3.7,10.6c-2,2.3-4.6,3.5-7.7,3.5c-1.3,0-2.5-0.2-3.5-0.6c-0.7-0.3-1.5-0.8-2.4-1.7v7.6
		c0,1.7,0.1,2.8,0.3,3.3c0.2,0.5,0.6,0.8,1.1,1.1c0.5,0.3,1.4,0.4,2.8,0.4v1h-13.1v-1h0.7c1,0,1.9-0.2,2.6-0.6
		c0.3-0.2,0.6-0.5,0.8-1c0.2-0.4,0.3-1.6,0.3-3.4v-23.5c0-1.6-0.1-2.6-0.2-3.1c-0.1-0.4-0.4-0.8-0.7-1c-0.3-0.2-0.7-0.3-1.3-0.3
		c-0.4,0-1,0.1-1.7,0.4L403.4,1283.3z M412.1,1287.6v9.3c0,2,0.1,3.4,0.2,4c0.3,1,0.9,2,1.9,2.7c1,0.8,2.2,1.2,3.7,1.2
		c1.8,0,3.3-0.7,4.4-2.1c1.5-1.8,2.2-4.4,2.2-7.8c0-3.8-0.8-6.7-2.5-8.8c-1.2-1.4-2.6-2.1-4.1-2.1c-0.9,0-1.7,0.2-2.6,0.6
		C414.7,1285,413.6,1286,412.1,1287.6z"/>
	<path class="st2" d="M445.2,1280.1c3.8,0,6.8,1.4,9.1,4.3c1.9,2.5,2.9,5.3,2.9,8.4c0,2.2-0.5,4.5-1.6,6.7c-1.1,2.3-2.5,4-4.4,5.2
		c-1.9,1.2-4,1.8-6.3,1.8c-3.7,0-6.7-1.5-8.9-4.5c-1.8-2.5-2.8-5.3-2.8-8.5c0-2.3,0.6-4.6,1.7-6.8c1.1-2.2,2.6-3.9,4.5-5
		C441.2,1280.7,443.1,1280.1,445.2,1280.1z M444.3,1281.9c-0.9,0-1.9,0.3-2.9,0.9c-1,0.6-1.8,1.6-2.4,3c-0.6,1.4-0.9,3.3-0.9,5.5
		c0,3.6,0.7,6.7,2.2,9.4c1.4,2.6,3.3,3.9,5.7,3.9c1.8,0,3.2-0.7,4.3-2.2c1.1-1.4,1.7-3.9,1.7-7.5c0-4.4-0.9-7.9-2.8-10.5
		C448,1282.7,446.3,1281.9,444.3,1281.9z"/>
	<path class="st2" d="M468.1,1272.7v8.2h5.8v1.9h-5.8v16.1c0,1.6,0.2,2.7,0.7,3.3c0.5,0.6,1.1,0.8,1.8,0.8c0.6,0,1.2-0.2,1.7-0.6
		c0.6-0.4,1-0.9,1.3-1.7h1c-0.6,1.8-1.5,3.1-2.7,4c-1.2,0.9-2.3,1.3-3.6,1.3c-0.9,0-1.7-0.2-2.5-0.7c-0.8-0.5-1.4-1.1-1.8-2
		c-0.4-0.9-0.6-2.2-0.6-4v-16.7h-3.9v-0.9c1-0.4,2-1.1,3.1-2s2-2.1,2.8-3.4c0.4-0.7,1-1.9,1.8-3.8H468.1z"/>
	<path class="st2" d="M480.4,1290.2c0,3.7,0.9,6.6,2.7,8.7c1.8,2.1,3.9,3.1,6.4,3.1c1.6,0,3.1-0.4,4.3-1.3c1.2-0.9,2.2-2.4,3-4.6
		l0.8,0.5c-0.4,2.5-1.5,4.7-3.3,6.8s-4.1,3.1-6.9,3.1c-3,0-5.6-1.2-7.7-3.5s-3.2-5.5-3.2-9.4c0-4.3,1.1-7.6,3.3-10s4.9-3.6,8.2-3.6
		c2.8,0,5.1,0.9,6.9,2.7c1.8,1.8,2.7,4.3,2.7,7.4H480.4z M480.4,1288.7H492c-0.1-1.6-0.3-2.7-0.6-3.4c-0.5-1-1.1-1.8-2-2.4
		c-0.9-0.6-1.8-0.9-2.8-0.9c-1.5,0-2.9,0.6-4,1.8C481.3,1284.9,480.6,1286.6,480.4,1288.7z"/>
	<path class="st2" d="M499.2,1283.3l7.7-3.1h1v5.8c1.3-2.2,2.6-3.7,3.9-4.6c1.3-0.9,2.7-1.3,4.1-1.3c2.5,0,4.6,1,6.2,2.9
		c2,2.4,3.1,5.5,3.1,9.3c0,4.3-1.2,7.8-3.7,10.6c-2,2.3-4.6,3.5-7.7,3.5c-1.3,0-2.5-0.2-3.5-0.6c-0.7-0.3-1.5-0.8-2.4-1.7v7.6
		c0,1.7,0.1,2.8,0.3,3.3c0.2,0.5,0.6,0.8,1.1,1.1c0.5,0.3,1.4,0.4,2.8,0.4v1H499v-1h0.7c1,0,1.9-0.2,2.6-0.6c0.3-0.2,0.6-0.5,0.8-1
		c0.2-0.4,0.3-1.6,0.3-3.4v-23.5c0-1.6-0.1-2.6-0.2-3.1c-0.1-0.4-0.4-0.8-0.7-1c-0.3-0.2-0.7-0.3-1.3-0.3c-0.4,0-1,0.1-1.7,0.4
		L499.2,1283.3z M507.9,1287.6v9.3c0,2,0.1,3.4,0.2,4c0.3,1,0.9,2,1.9,2.7c1,0.8,2.2,1.2,3.7,1.2c1.8,0,3.3-0.7,4.4-2.1
		c1.5-1.8,2.2-4.4,2.2-7.8c0-3.8-0.8-6.7-2.5-8.8c-1.2-1.4-2.6-2.1-4.1-2.1c-0.9,0-1.7,0.2-2.6,0.6
		C510.5,1285,509.4,1286,507.9,1287.6z"/>
	<path class="st2" d="M550.6,1280.9v15c0,2.9,0.1,4.6,0.2,5.3c0.1,0.7,0.4,1.1,0.7,1.3c0.3,0.2,0.6,0.4,1,0.4c0.6,0,1.2-0.2,1.9-0.5
		l0.4,1l-7.5,3.1h-1.2v-5.3c-2.1,2.3-3.8,3.8-4.9,4.4c-1.1,0.6-2.3,0.9-3.5,0.9c-1.4,0-2.6-0.4-3.6-1.2s-1.7-1.8-2.1-3.1
		c-0.4-1.3-0.6-3.1-0.6-5.4v-11.1c0-1.2-0.1-2-0.4-2.4c-0.2-0.5-0.6-0.8-1.1-1c-0.5-0.2-1.4-0.4-2.7-0.4v-1h8.7v16.6
		c0,2.3,0.4,3.8,1.2,4.6c0.8,0.7,1.8,1.1,2.9,1.1c0.8,0,1.7-0.2,2.7-0.7c1-0.5,2.2-1.4,3.5-2.8v-14.1c0-1.4-0.3-2.4-0.8-2.9
		c-0.5-0.5-1.6-0.8-3.2-0.8v-1H550.6z"/>
	<path class="st2" d="M555.2,1280.9h11.6v1h-0.6c-0.8,0-1.4,0.2-1.8,0.5c-0.4,0.4-0.6,0.8-0.6,1.3c0,0.7,0.3,1.7,0.9,2.9l6,12.6
		l5.6-13.7c0.3-0.7,0.5-1.5,0.5-2.2c0-0.3-0.1-0.6-0.2-0.7c-0.1-0.2-0.4-0.4-0.7-0.5c-0.3-0.1-0.9-0.2-1.6-0.2v-1h8.1v1
		c-0.7,0.1-1.2,0.2-1.6,0.5c-0.4,0.2-0.8,0.6-1.2,1.2c-0.2,0.2-0.5,0.9-0.9,2.1l-10.1,24.8c-1,2.4-2.3,4.2-3.9,5.5
		c-1.6,1.2-3.1,1.9-4.6,1.9c-1.1,0-1.9-0.3-2.6-0.9c-0.7-0.6-1-1.3-1-2.1c0-0.8,0.3-1.4,0.8-1.8c0.5-0.5,1.2-0.7,2-0.7
		c0.6,0,1.4,0.2,2.5,0.6c0.7,0.3,1.2,0.4,1.3,0.4c0.5,0,1.1-0.3,1.8-0.8s1.3-1.7,1.9-3.3l1.8-4.3l-8.9-18.8
		c-0.3-0.6-0.7-1.3-1.3-2.1c-0.5-0.6-0.8-1.1-1.1-1.3c-0.4-0.3-1.1-0.6-2-0.8V1280.9z"/>
	<path class="st2" d="M589.6,1300.5c0.9,0,1.6,0.3,2.1,0.9c0.6,0.6,0.9,1.3,0.9,2.1c0,0.8-0.3,1.5-0.9,2.1c-0.6,0.6-1.3,0.9-2.1,0.9
		c-0.8,0-1.5-0.3-2.1-0.9c-0.6-0.6-0.9-1.3-0.9-2.1c0-0.9,0.3-1.6,0.9-2.1C588,1300.7,588.7,1300.5,589.6,1300.5z"/>
	<path class="st2" d="M642.4,1268.9l-24.2,34.6h15.1c2.3,0,4.1-0.5,5.3-1.5c1.2-1,2.3-3.1,3.3-6.2l0.9,0.2l-1.7,9.8h-30v-1
		l23.6-33.6H623c-2,0-3.4,0.2-4.3,0.6s-1.5,1-2,1.8s-0.9,2.3-1.3,4.5h-1l0.8-9.2H642.4z"/>
	<path class="st2" d="M658.3,1280.1c3.8,0,6.8,1.4,9.1,4.3c1.9,2.5,2.9,5.3,2.9,8.4c0,2.2-0.5,4.5-1.6,6.7c-1.1,2.3-2.5,4-4.4,5.2
		s-4,1.8-6.3,1.8c-3.7,0-6.7-1.5-8.9-4.5c-1.8-2.5-2.8-5.3-2.8-8.5c0-2.3,0.6-4.6,1.7-6.8s2.6-3.9,4.5-5
		C654.3,1280.7,656.2,1280.1,658.3,1280.1z M657.5,1281.9c-0.9,0-1.9,0.3-2.9,0.9c-1,0.6-1.8,1.6-2.4,3c-0.6,1.4-0.9,3.3-0.9,5.5
		c0,3.6,0.7,6.7,2.2,9.4c1.4,2.6,3.3,3.9,5.7,3.9c1.8,0,3.2-0.7,4.3-2.2c1.1-1.4,1.7-3.9,1.7-7.5c0-4.4-0.9-7.9-2.8-10.5
		C661.1,1282.7,659.5,1281.9,657.5,1281.9z"/>
	<path class="st2" d="M681.2,1285.4c2.9-3.5,5.7-5.3,8.4-5.3c1.3,0,2.5,0.3,3.5,1c1,0.7,1.8,1.8,2.3,3.3c0.4,1.1,0.6,2.8,0.6,5v10.6
		c0,1.6,0.1,2.6,0.4,3.2c0.2,0.5,0.5,0.8,1,1.1c0.4,0.3,1.3,0.4,2.4,0.4v1h-12.3v-1h0.5c1.1,0,2-0.2,2.4-0.5s0.8-0.9,1-1.6
		c0.1-0.3,0.1-1.1,0.1-2.6v-10.2c0-2.2-0.3-3.9-0.9-4.9c-0.6-1-1.6-1.5-3-1.5c-2.2,0-4.3,1.2-6.4,3.5v13.1c0,1.7,0.1,2.7,0.3,3.1
		c0.3,0.5,0.6,0.9,1.1,1.1c0.4,0.2,1.3,0.4,2.7,0.4v1h-12.3v-1h0.5c1.3,0,2.1-0.3,2.6-1c0.4-0.6,0.7-1.9,0.7-3.7v-9.2
		c0-3-0.1-4.8-0.2-5.5s-0.3-1.1-0.6-1.3c-0.3-0.2-0.7-0.4-1.1-0.4c-0.5,0-1.1,0.1-1.8,0.4l-0.4-1l7.5-3h1.1V1285.4z"/>
	<path class="st2" d="M715.8,1302.1c-2.5,2-4.1,3.1-4.8,3.4c-1,0.5-2,0.7-3.1,0.7c-1.7,0-3.1-0.6-4.2-1.8s-1.7-2.7-1.7-4.7
		c0-1.2,0.3-2.3,0.8-3.1c0.7-1.2,2-2.4,3.9-3.5c1.8-1.1,4.9-2.4,9.2-4v-1c0-2.5-0.4-4.2-1.2-5.1c-0.8-0.9-1.9-1.4-3.4-1.4
		c-1.1,0-2,0.3-2.7,0.9c-0.7,0.6-1,1.3-1,2.1l0.1,1.6c0,0.8-0.2,1.5-0.6,1.9c-0.4,0.5-1,0.7-1.7,0.7s-1.2-0.2-1.7-0.7
		c-0.4-0.5-0.6-1.1-0.6-1.9c0-1.6,0.8-3,2.4-4.3c1.6-1.3,3.8-2,6.7-2c2.2,0,4,0.4,5.4,1.1c1.1,0.6,1.8,1.4,2.4,2.6
		c0.3,0.8,0.5,2.4,0.5,4.8v8.4c0,2.4,0,3.8,0.1,4.4c0.1,0.5,0.2,0.9,0.5,1.1c0.2,0.2,0.5,0.3,0.7,0.3c0.3,0,0.5-0.1,0.7-0.2
		c0.4-0.2,1.1-0.9,2.2-2v1.5c-2,2.7-4,4-5.8,4c-0.9,0-1.6-0.3-2.1-0.9C716.1,1304.7,715.9,1303.6,715.8,1302.1z M715.8,1300.4v-9.5
		c-2.7,1.1-4.5,1.9-5.3,2.3c-1.4,0.8-2.4,1.6-3.1,2.5c-0.6,0.9-0.9,1.8-0.9,2.8c0,1.3,0.4,2.4,1.2,3.3c0.8,0.9,1.7,1.3,2.7,1.3
		C711.8,1303.1,713.6,1302.2,715.8,1300.4z"/>
	<path class="st2" d="M744.3,1283.9l-1.5-8.1c-0.4-2.2-0.6-3.7-0.6-4.5c0-1.2,0.2-2,0.7-2.5s1.1-0.8,1.9-0.8c0.8,0,1.4,0.3,2,0.8
		c0.5,0.5,0.8,1.2,0.8,2.1c0,0.7-0.2,2.4-0.7,4.9l-1.5,8H744.3z M754.3,1283.9l-1.5-7.9l-0.6-3.3c0-0.5-0.1-0.9-0.1-1.3
		c0-1.1,0.3-2,0.8-2.5s1.2-0.8,2-0.8c0.8,0,1.4,0.3,2,0.8s0.8,1.2,0.8,2.1c0,1.5-0.2,3.2-0.5,5l-1.6,8H754.3z"/>
	<path class="st2" d="M772.9,1270.9v14.5h8.1c2.1,0,3.5-0.3,4.2-0.9c0.9-0.8,1.5-2.3,1.6-4.4h1v12.8h-1c-0.2-1.8-0.5-2.9-0.8-3.4
		c-0.3-0.7-0.8-1.2-1.6-1.5c-0.7-0.4-1.9-0.5-3.4-0.5h-8.1v12.1c0,1.6,0.1,2.6,0.2,3c0.1,0.3,0.4,0.6,0.8,0.8s1.1,0.3,2.1,0.3h6.2
		c2.1,0,3.6-0.1,4.5-0.4c0.9-0.3,1.9-0.8,2.7-1.7c1.1-1.1,2.3-2.8,3.4-5.1h1.1l-3.2,9.2h-28.4v-1h1.3c0.9,0,1.7-0.2,2.5-0.6
		c0.6-0.3,1-0.7,1.2-1.3c0.2-0.6,0.3-1.8,0.3-3.5v-24c0-2.3-0.2-3.8-0.7-4.3c-0.7-0.7-1.7-1.1-3.3-1.1h-1.3v-1h28.4l0.4,8.1h-1
		c-0.4-2-0.8-3.3-1.3-4s-1.1-1.3-2-1.7c-0.7-0.3-2-0.4-3.8-0.4H772.9z"/>
	<path class="st2" d="M805.6,1267.1v33c0,1.6,0.1,2.6,0.3,3.1s0.6,0.9,1,1.1c0.5,0.3,1.3,0.4,2.6,0.4v1h-12.2v-1
		c1.1,0,1.9-0.1,2.3-0.4c0.4-0.2,0.7-0.6,1-1.2c0.2-0.5,0.3-1.6,0.3-3.1v-22.6c0-2.8-0.1-4.5-0.2-5.2c-0.1-0.6-0.3-1.1-0.6-1.3
		c-0.3-0.2-0.6-0.4-1.1-0.4c-0.5,0-1.1,0.1-1.8,0.4l-0.5-1l7.4-3H805.6z"/>
	<path class="st2" d="M864.1,1268.9v1c-1.3,0.2-2.3,0.7-2.9,1.2c-1,0.9-1.8,2.3-2.6,4.1l-12.9,31.3h-1l-13.8-31.7
		c-0.7-1.6-1.2-2.6-1.5-3c-0.5-0.6-1-1-1.7-1.3c-0.7-0.3-1.6-0.5-2.7-0.6v-1h15v1c-1.7,0.2-2.8,0.4-3.3,0.9c-0.5,0.4-0.8,1-0.8,1.6
		c0,0.9,0.4,2.3,1.2,4.3l9.3,21.6l8.7-21.3c0.9-2.1,1.3-3.6,1.3-4.4c0-0.5-0.3-1-0.8-1.5c-0.5-0.5-1.4-0.8-2.6-1
		c-0.1,0-0.2-0.1-0.5-0.1v-1H864.1z"/>
	<path class="st2" d="M878.7,1280.1c3.8,0,6.8,1.4,9.1,4.3c1.9,2.5,2.9,5.3,2.9,8.4c0,2.2-0.5,4.5-1.6,6.7c-1.1,2.3-2.5,4-4.4,5.2
		c-1.9,1.2-4,1.8-6.3,1.8c-3.7,0-6.7-1.5-8.9-4.5c-1.8-2.5-2.8-5.3-2.8-8.5c0-2.3,0.6-4.6,1.7-6.8c1.1-2.2,2.6-3.9,4.5-5
		C874.7,1280.7,876.6,1280.1,878.7,1280.1z M877.9,1281.9c-0.9,0-1.9,0.3-2.9,0.9c-1,0.6-1.8,1.6-2.4,3c-0.6,1.4-0.9,3.3-0.9,5.5
		c0,3.6,0.7,6.7,2.2,9.4s3.3,3.9,5.7,3.9c1.8,0,3.2-0.7,4.3-2.2s1.7-3.9,1.7-7.5c0-4.4-0.9-7.9-2.8-10.5
		C881.5,1282.7,879.9,1281.9,877.9,1281.9z"/>
	<path class="st2" d="M902.9,1267.1v33c0,1.6,0.1,2.6,0.3,3.1c0.2,0.5,0.6,0.9,1,1.1s1.3,0.4,2.6,0.4v1h-12.2v-1
		c1.1,0,1.9-0.1,2.3-0.4c0.4-0.2,0.7-0.6,1-1.2c0.2-0.5,0.3-1.6,0.3-3.1v-22.6c0-2.8-0.1-4.5-0.2-5.2c-0.1-0.6-0.3-1.1-0.6-1.3
		c-0.3-0.2-0.6-0.4-1.1-0.4c-0.5,0-1.1,0.1-1.8,0.4l-0.5-1l7.4-3H902.9z"/>
	<path class="st2" d="M930.9,1296.3c-0.7,3.3-2,5.8-3.9,7.6c-2,1.8-4.1,2.6-6.5,2.6c-2.8,0-5.3-1.2-7.4-3.6s-3.2-5.6-3.2-9.6
		c0-3.9,1.2-7.1,3.5-9.5s5.1-3.7,8.4-3.7c2.5,0,4.5,0.6,6,1.9c1.6,1.3,2.4,2.6,2.4,4c0,0.7-0.2,1.3-0.7,1.7
		c-0.4,0.4-1.1,0.6-1.9,0.6c-1.1,0-1.9-0.3-2.4-1c-0.3-0.4-0.5-1.1-0.6-2.2s-0.5-1.9-1.1-2.4c-0.7-0.5-1.5-0.8-2.6-0.8
		c-1.8,0-3.3,0.7-4.4,2c-1.5,1.8-2.2,4.1-2.2,7.1c0,3,0.7,5.6,2.2,7.9c1.5,2.3,3.4,3.4,5.9,3.4c1.8,0,3.4-0.6,4.8-1.8
		c1-0.8,2-2.3,2.9-4.5L930.9,1296.3z"/>
	<path class="st2" d="M948.6,1302.1c-2.5,2-4.1,3.1-4.8,3.4c-1,0.5-2,0.7-3.1,0.7c-1.7,0-3.1-0.6-4.2-1.8s-1.7-2.7-1.7-4.7
		c0-1.2,0.3-2.3,0.8-3.1c0.7-1.2,2-2.4,3.9-3.5c1.8-1.1,4.9-2.4,9.2-4v-1c0-2.5-0.4-4.2-1.2-5.1c-0.8-0.9-1.9-1.4-3.4-1.4
		c-1.1,0-2,0.3-2.7,0.9c-0.7,0.6-1,1.3-1,2.1l0.1,1.6c0,0.8-0.2,1.5-0.6,1.9c-0.4,0.5-1,0.7-1.7,0.7c-0.7,0-1.2-0.2-1.7-0.7
		c-0.4-0.5-0.6-1.1-0.6-1.9c0-1.6,0.8-3,2.4-4.3s3.8-2,6.7-2c2.2,0,4,0.4,5.4,1.1c1.1,0.6,1.8,1.4,2.4,2.6c0.3,0.8,0.5,2.4,0.5,4.8
		v8.4c0,2.4,0,3.8,0.1,4.4c0.1,0.5,0.2,0.9,0.5,1.1c0.2,0.2,0.5,0.3,0.7,0.3c0.3,0,0.5-0.1,0.7-0.2c0.4-0.2,1.1-0.9,2.2-2v1.5
		c-2,2.7-4,4-5.8,4c-0.9,0-1.6-0.3-2.1-0.9C948.9,1304.7,948.6,1303.6,948.6,1302.1z M948.6,1300.4v-9.5c-2.7,1.1-4.5,1.9-5.3,2.3
		c-1.4,0.8-2.4,1.6-3.1,2.5c-0.6,0.9-0.9,1.8-0.9,2.8c0,1.3,0.4,2.4,1.2,3.3c0.8,0.9,1.7,1.3,2.7,1.3
		C944.5,1303.1,946.3,1302.2,948.6,1300.4z M951.3,1268l-8,9.4h-0.9l2.9-9.4H951.3z"/>
	<path class="st2" d="M966.4,1285.4c2.9-3.5,5.7-5.3,8.4-5.3c1.3,0,2.5,0.3,3.5,1c1,0.7,1.8,1.8,2.3,3.3c0.4,1.1,0.6,2.8,0.6,5v10.6
		c0,1.6,0.1,2.6,0.4,3.2c0.2,0.5,0.5,0.8,1,1.1c0.4,0.3,1.3,0.4,2.4,0.4v1h-12.3v-1h0.5c1.1,0,2-0.2,2.4-0.5s0.8-0.9,1-1.6
		c0.1-0.3,0.1-1.1,0.1-2.6v-10.2c0-2.2-0.3-3.9-0.9-4.9c-0.6-1-1.6-1.5-3-1.5c-2.2,0-4.3,1.2-6.4,3.5v13.1c0,1.7,0.1,2.7,0.3,3.1
		c0.3,0.5,0.6,0.9,1.1,1.1c0.4,0.2,1.3,0.4,2.7,0.4v1h-12.3v-1h0.5c1.3,0,2.1-0.3,2.6-1c0.4-0.6,0.7-1.9,0.7-3.7v-9.2
		c0-3-0.1-4.8-0.2-5.5s-0.3-1.1-0.6-1.3c-0.3-0.2-0.7-0.4-1.1-0.4c-0.5,0-1.1,0.1-1.8,0.4l-0.4-1l7.5-3h1.1V1285.4z"/>
	<path class="st2" d="M991,1283.9l-1.5-8.1c-0.4-2.2-0.6-3.7-0.6-4.5c0-1.2,0.2-2,0.7-2.5s1.1-0.8,1.9-0.8c0.8,0,1.4,0.3,2,0.8
		s0.8,1.2,0.8,2.1c0,0.7-0.2,2.4-0.7,4.9l-1.5,8H991z M1000.9,1283.9l-1.5-7.9l-0.6-3.3c0-0.5-0.1-0.9-0.1-1.3c0-1.1,0.3-2,0.8-2.5
		s1.2-0.8,2-0.8c0.8,0,1.4,0.3,2,0.8s0.8,1.2,0.8,2.1c0,1.5-0.2,3.2-0.5,5l-1.6,8H1000.9z"/>
</g>
</svg>
