<?xml version="1.0" encoding="utf-8"?>
<!-- Generator: Adobe Illustrator 25.4.1, SVG Export Plug-In . SVG Version: 6.00 Build 0)  -->
<svg version="1.1" id="Capa_1" xmlns="http://www.w3.org/2000/svg" xmlns:xlink="http://www.w3.org/1999/xlink" x="0px" y="0px"
	 viewBox="0 0 1242 2208" style="enable-background:new 0 0 1242 2208;" xml:space="preserve">
<style type="text/css">
	.st0{display:none;}
	.st1{display:inline;}
	.st2{fill:#FFFFFF;}
	.st3{display:inline;enable-background:new    ;}
</style>
<g id="_x31_5_años" class="st0">
	<g class="st1">
		<path class="st2" d="M516.5,1090c69.7,0,139.3,0,209,0c0,95,0,190,0,285.1c-69.7,0-139.3,0-209,0
			C516.5,1280,516.5,1185,516.5,1090z M611.7,1205.4c0-0.8,0-1.5,0-2.2c0-13.4,0-26.8,0-40.2c0-4.2-1.2-7.9-3.8-11.2
			c-4.4-5.3-10-7.8-16.8-6.4c-9,1.8-14.3,8.7-14.3,17.9c0,21.2,0,42.4,0,63.6c0,1.2-0.3,1.9-1.3,2.6c-3.7,2.3-7.3,4.8-10.9,7.2
			c-11,7.6-16.3,18-15,31.3c0.7,7.2,3.2,13.9,5.8,20.6c6.7,17.3,16.5,32.6,29.6,45.9c0.5,0.6,0.9,1.5,0.9,2.3c0.1,5.7,0,11.3,0,17
			c0,3.4,1.4,4.8,4.8,4.8c8,0,16,0,24,0c18.8,0,37.6,0,56.4,0c3.5,0,4.8-1.3,4.8-4.7c0-5.8,0-11.6,0-17.3c0-0.9,0.3-2,0.8-2.8
			c11-17.5,16.9-36.5,17.4-57.2c0.3-11.6,0.1-23.2,0.1-34.8c0-2.3,0.1-4.6-0.3-6.9c-1.7-9.4-10.4-15.5-19.8-13.8
			c-2.7,0.5-5.3,1.7-8.1,2.6c-1.8-5.2-5.4-9.3-11.1-11.2c-5.7-1.9-11.2-0.9-16.1,2.4C632.2,1202.6,625.1,1200,611.7,1205.4z
			 M549.3,1109.5c-1.7,0.2-2.9,1-3.5,2.4c-0.7,1.5-0.5,3,0.7,4.2c6.8,6.9,13.7,13.7,20.6,20.5c1.7,1.7,3.9,1.6,5.4,0
			c1.5-1.5,1.4-3.8-0.3-5.4c-6.7-6.7-13.5-13.5-20.2-20.1C551.2,1110.3,550.2,1110,549.3,1109.5z M640.1,1109.5
			c-0.9,0.4-1.9,0.7-2.6,1.4c-6.9,6.8-13.8,13.6-20.6,20.5c-1,1.1-1.5,2.3-0.9,3.8c1.1,2.8,4.1,3.3,6.4,1.1c4.3-4.3,8.7-8.6,13-12.9
			c2.5-2.4,4.9-4.9,7.4-7.4c1.2-1.2,1.4-2.7,0.8-4.2C643,1110.5,641.8,1109.8,640.1,1109.5z M598.3,1115.2c0-2.9,0-5.8,0-8.7
			c0-2.4-1.5-4-3.6-4c-2.1-0.1-3.8,1.7-3.8,4c0,5.8,0,11.7,0,17.5c0,2.4,1.7,4,3.8,4s3.6-1.6,3.6-4
			C598.3,1121.1,598.3,1118.2,598.3,1115.2z M548.8,1162.4c2.9,0,5.8,0,8.7,0c2.4,0,4-1.4,4.1-3.5c0.1-2.2-1.5-3.9-3.9-3.9
			c-5.9-0.1-11.8-0.1-17.6,0c-2.4,0-4.1,1.8-4,3.9s1.7,3.5,4.1,3.5C543,1162.5,545.9,1162.4,548.8,1162.4z M640.3,1162.4
			c3,0,6.1,0,9.1,0c2.2,0,3.7-1.4,3.8-3.4c0.1-2.1-1.3-3.9-3.5-3.9c-6.1-0.1-12.2-0.1-18.3,0c-2.2,0-3.8,1.9-3.7,3.8
			c0.1,2.1,1.6,3.5,3.9,3.5C634.5,1162.5,637.4,1162.4,640.3,1162.4z"/>
		<path d="M611.7,1205.4c13.4-5.4,20.4-2.9,27,9.7c5-3.4,10.4-4.4,16.1-2.4c5.7,1.9,9.3,6,11.1,11.2c2.8-0.9,5.4-2.1,8.1-2.6
			c9.3-1.7,18,4.4,19.8,13.8c0.4,2.2,0.3,4.6,0.3,6.9c0,11.6,0.2,23.2-0.1,34.8c-0.5,20.6-6.4,39.7-17.4,57.2
			c-0.5,0.8-0.8,1.9-0.8,2.8c-0.1,5.8,0,11.6,0,17.3c0,3.4-1.4,4.7-4.8,4.7c-18.8,0-37.6,0-56.4,0c-8,0-16,0-24,0
			c-3.4,0-4.8-1.4-4.8-4.8c0-5.7,0-11.3,0-17c0-0.8-0.4-1.8-0.9-2.3c-13-13.2-22.9-28.5-29.6-45.9c-2.6-6.7-5.1-13.5-5.8-20.6
			c-1.3-13.3,3.9-23.8,15-31.3c3.6-2.5,7.2-4.9,10.9-7.2c1-0.7,1.3-1.4,1.3-2.6c0-21.2,0-42.4,0-63.6c0-9.2,5.3-16.1,14.3-17.9
			c6.8-1.4,12.4,1.1,16.8,6.4c2.7,3.2,3.8,7,3.8,11.2c0,13.4,0,26.8,0,40.2C611.7,1203.9,611.7,1204.6,611.7,1205.4z M576.7,1237.6
			c-3.4,2.3-6.7,4.3-9.7,6.5c-6.4,4.8-9.8,11.2-10.3,19.2c-0.3,5,1.2,9.6,2.7,14.3c6.2,20.5,17,38.2,32.3,53.2
			c1.2,1.2,1.7,2.4,1.7,4c0,4.8,0.1,9.7-0.1,14.5c0,1.7,0.4,2.2,2.1,2.2c21.7-0.1,43.4,0,65.1,0c2.6,0,5.1,0,7.8,0
			c0-5.6-0.1-10.9,0.1-16.2c0-1.4,0.5-2.9,1.2-4.1c10.3-15.9,16.2-33.3,16.8-52.2c0.5-13.6,0.3-27.1,0.2-40.7c0-6-4.9-9.6-8.8-9.8
			c-6.9-0.4-11.2,3.9-11.2,10.8c0,4.2,0,8.4,0,12.6c0,2.5-1.7,4-4.1,3.8c-2-0.2-3.3-1.7-3.3-4.1c0-7.3,0-14.6,0-21.9
			c0-1.1-0.1-2.1-0.4-3.1c-1.2-4.7-5.7-7.7-10.7-7.3c-4.6,0.4-8.4,4.3-8.8,9c-0.1,1.6-0.1,3.2-0.1,4.9c0,6.1,0,12.1,0,18.2
			c0,2.9-1.6,4.5-4.1,4.4c-2.1-0.2-3.4-1.7-3.4-4.4c0-10.2,0-20.3,0-30.4c0-2.2-0.4-4.3-1.6-6.2c-2.6-3.9-7-5.3-11.7-3.9
			c-3.8,1.2-6.6,5.1-6.7,9.5c0,9.7,0,19.3,0,28.9c0,1.1,0.1,2.2-0.1,3.4c-0.2,1.9-1.8,3.2-3.7,3.2c-2,0-3.5-1.4-3.7-3.4
			c0-0.5,0-1,0-1.5c0-20.8,0-41.5,0-62.2c0-8.5-0.1-17.1,0-25.6c0.1-6.5-5.3-10.9-10.8-10.3c-5.4,0.5-9.3,4.8-9.3,10.5
			c0,23.8,0,47.7,0,71.5c0,11.7,0,23.3,0,35c0,1-0.2,2-0.7,2.8c-0.8,1.3-2.6,1.8-4.2,1.3c-1.5-0.5-2.5-1.9-2.5-3.8
			c0-6.7,0-13.5,0-20.2C576.7,1245.8,576.7,1241.9,576.7,1237.6z"/>
		<path d="M549.3,1109.5c0.9,0.5,1.9,0.8,2.6,1.5c6.8,6.7,13.5,13.4,20.2,20.1c1.6,1.6,1.7,3.9,0.3,5.4c-1.5,1.6-3.7,1.6-5.4,0
			c-6.9-6.8-13.7-13.7-20.6-20.5c-1.2-1.2-1.4-2.6-0.7-4.2C546.4,1110.4,547.5,1109.7,549.3,1109.5z"/>
		<path d="M640.1,1109.5c1.7,0.2,2.9,0.9,3.5,2.4s0.5,3-0.8,4.2c-2.5,2.5-4.9,4.9-7.4,7.4c-4.3,4.3-8.6,8.6-13,12.9
			c-2.2,2.2-5.3,1.7-6.4-1.1c-0.6-1.5-0.2-2.8,0.9-3.8c6.8-6.9,13.7-13.7,20.6-20.5C638.2,1110.2,639.2,1110,640.1,1109.5z"/>
		<path d="M598.3,1115.2c0,2.9,0,5.8,0,8.7c0,2.4-1.5,4-3.6,4c-2.2,0-3.8-1.6-3.8-4c0-5.8,0-11.7,0-17.5c0-2.4,1.7-4.1,3.8-4
			s3.6,1.6,3.6,4C598.3,1109.4,598.3,1112.3,598.3,1115.2z"/>
		<path d="M548.8,1162.4c-2.9,0-5.8,0-8.7,0c-2.4,0-4-1.4-4.1-3.5s1.6-3.8,4-3.9c5.9-0.1,11.8-0.1,17.6,0c2.4,0,4,1.7,3.9,3.9
			c-0.1,2.1-1.6,3.5-4.1,3.5C554.7,1162.5,551.8,1162.4,548.8,1162.4z"/>
		<path d="M640.3,1162.4c-2.9,0-5.8,0-8.8,0c-2.3,0-3.8-1.4-3.9-3.5c-0.1-2,1.5-3.8,3.7-3.8c6.1-0.1,12.2-0.1,18.3,0
			c2.2,0,3.6,1.8,3.5,3.9s-1.5,3.4-3.8,3.4C646.4,1162.5,643.3,1162.4,640.3,1162.4z"/>
		<path class="st2" d="M576.7,1237.6c0,4.3,0,8.2,0,12.1c0,6.7,0,13.5,0,20.2c0,1.9,1,3.3,2.5,3.8c1.6,0.5,3.4,0.1,4.2-1.3
			c0.5-0.8,0.7-1.9,0.7-2.8c0-11.7,0-23.3,0-35c0-23.8,0-47.7,0-71.5c0-5.7,3.9-10,9.3-10.5c5.5-0.5,10.9,3.8,10.8,10.3
			c-0.1,8.5,0,17.1,0,25.6c0,20.8,0,41.5,0,62.2c0,0.5,0,1,0,1.5c0.2,2,1.7,3.4,3.7,3.4c1.9,0,3.5-1.3,3.7-3.2
			c0.1-1.1,0.1-2.2,0.1-3.4c0-9.7,0-19.3,0-28.9c0-4.4,2.8-8.3,6.7-9.5c4.7-1.4,9.1,0.1,11.7,3.9c1.3,1.9,1.7,4,1.6,6.2
			c0,10.2,0,20.3,0,30.4c0,2.7,1.3,4.2,3.4,4.4c2.5,0.2,4.1-1.5,4.1-4.4c0-6.1,0-12.1,0-18.2c0-1.6,0-3.3,0.1-4.9
			c0.3-4.7,4.1-8.5,8.8-9c5-0.5,9.5,2.6,10.7,7.3c0.3,1,0.4,2.1,0.4,3.1c0,7.3,0,14.6,0,21.9c0,2.4,1.3,3.9,3.3,4.1
			c2.4,0.2,4.1-1.4,4.1-3.8c0-4.2,0-8.4,0-12.6c0-6.9,4.3-11.2,11.2-10.8c4,0.2,8.8,3.9,8.8,9.8c0.1,13.6,0.2,27.2-0.2,40.7
			c-0.6,18.9-6.6,36.3-16.8,52.2c-0.7,1.2-1.2,2.7-1.2,4.1c-0.1,5.3-0.1,10.6-0.1,16.2c-2.7,0-5.3,0-7.8,0c-21.7,0-43.4,0-65.1,0
			c-1.7,0-2.2-0.5-2.1-2.2c0.1-4.8,0-9.7,0.1-14.5c0-1.6-0.5-2.9-1.7-4c-15.2-15-26-32.7-32.3-53.2c-1.4-4.7-3-9.3-2.7-14.3
			c0.5-7.9,3.9-14.4,10.3-19.2C570.1,1241.9,573.3,1239.9,576.7,1237.6z"/>
	</g>
	<g class="st3">
		<path d="M286,1498.3v-35.8h4.7v14.7h18.6v-14.7h4.7v35.8h-4.7v-16.9h-18.6v16.9H286z"/>
		<path d="M338.3,1495.2c-1.6,1.4-3.2,2.4-4.7,2.9c-1.5,0.6-3.1,0.8-4.9,0.8c-2.9,0-5-0.7-6.6-2.1s-2.3-3.2-2.3-5.3
			c0-1.3,0.3-2.4,0.9-3.5s1.3-1.9,2.3-2.5c0.9-0.6,2-1.1,3.2-1.4c0.9-0.2,2.2-0.4,3.9-0.7c3.5-0.4,6.2-0.9,7.8-1.5c0-0.6,0-1,0-1.2
			c0-1.8-0.4-3.1-1.2-3.8c-1.1-1-2.8-1.5-5-1.5c-2.1,0-3.6,0.4-4.6,1.1s-1.7,2-2.2,3.8l-4.3-0.6c0.4-1.8,1-3.3,1.9-4.5
			c0.9-1.1,2.2-2,3.9-2.6s3.6-0.9,5.9-0.9c2.2,0,4,0.3,5.4,0.8s2.4,1.2,3,2s1.1,1.8,1.4,3c0.1,0.8,0.2,2.1,0.2,4.1v5.9
			c0,4.1,0.1,6.7,0.3,7.8s0.6,2.1,1.1,3.1h-4.6C338.7,1497.4,338.4,1496.4,338.3,1495.2z M337.9,1485.3c-1.6,0.7-4,1.2-7.2,1.7
			c-1.8,0.3-3.1,0.6-3.8,0.9s-1.3,0.8-1.7,1.4c-0.4,0.6-0.6,1.3-0.6,2.1c0,1.2,0.4,2.2,1.3,2.9c0.9,0.8,2.2,1.2,3.9,1.2
			c1.7,0,3.2-0.4,4.5-1.1s2.3-1.8,2.9-3c0.5-1,0.7-2.5,0.7-4.4L337.9,1485.3L337.9,1485.3z"/>
		<path d="M346.9,1498.3v-3.6l16.5-18.9c-1.9,0.1-3.5,0.2-5,0.2h-10.6v-3.6H369v2.9l-14,16.5l-2.7,3c2-0.2,3.8-0.2,5.5-0.2h12v3.8
			L346.9,1498.3L346.9,1498.3z"/>
		<path d="M405,1488.8l4.3,0.6c-0.5,3-1.7,5.3-3.6,7c-2,1.7-4.3,2.5-7.2,2.5c-3.5,0-6.4-1.2-8.6-3.5s-3.2-5.6-3.2-10
			c0-2.8,0.5-5.2,1.4-7.3s2.3-3.7,4.2-4.7c1.9-1.1,4-1.6,6.2-1.6c2.8,0,5.1,0.7,6.9,2.1s2.9,3.4,3.4,6.1l-4.3,0.7
			c-0.4-1.7-1.1-3.1-2.2-3.9s-2.3-1.3-3.8-1.3c-2.2,0-4,0.8-5.4,2.4s-2.1,4.1-2.1,7.5c0,3.5,0.7,6,2,7.6s3.1,2.4,5.2,2.4
			c1.7,0,3.2-0.5,4.3-1.6C403.9,1492.7,404.7,1491.1,405,1488.8z"/>
		<path d="M413,1498.3v-35.8h4.4v35.8H413z"/>
		<path d="M424.2,1467.6v-5.1h4.4v5.1H424.2z M424.2,1498.3v-25.9h4.4v25.9H424.2z"/>
		<path d="M452.2,1488.8l4.3,0.6c-0.5,3-1.7,5.3-3.6,7c-2,1.7-4.3,2.5-7.2,2.5c-3.5,0-6.4-1.2-8.6-3.5s-3.2-5.6-3.2-10
			c0-2.8,0.5-5.2,1.4-7.3s2.3-3.7,4.2-4.7c1.9-1.1,4-1.6,6.2-1.6c2.8,0,5.1,0.7,6.9,2.1s2.9,3.4,3.4,6.1l-4.3,0.7
			c-0.4-1.7-1.1-3.1-2.2-3.9s-2.3-1.3-3.8-1.3c-2.2,0-4,0.8-5.4,2.4s-2.1,4.1-2.1,7.5c0,3.5,0.7,6,2,7.6s3.1,2.4,5.2,2.4
			c1.7,0,3.2-0.5,4.3-1.6C451.2,1492.7,451.9,1491.1,452.2,1488.8z"/>
		<path d="M460.3,1498.3v-35.8h4.4v20.4l10.4-10.6h5.7l-9.9,9.6l10.9,16.3h-5.4l-8.6-13.3l-3.1,3v10.3L460.3,1498.3L460.3,1498.3z"
			/>
		<path d="M499,1508.3l-0.5-4.1c1,0.3,1.8,0.4,2.5,0.4c1,0,1.8-0.2,2.3-0.5c0.6-0.3,1.1-0.8,1.4-1.4c0.3-0.4,0.7-1.5,1.3-3.3
			c0.1-0.2,0.2-0.6,0.4-1.1l-9.8-26h4.7l5.4,15c0.7,1.9,1.3,3.9,1.9,6c0.5-2,1.1-4,1.8-5.9l5.5-15.1h4.4l-9.9,26.4
			c-1.1,2.8-1.9,4.8-2.5,5.9c-0.8,1.4-1.7,2.5-2.7,3.2s-2.2,1-3.6,1C501,1508.9,500,1508.7,499,1508.3z"/>
		<path d="M554.9,1498.3v-3.3c-1.6,2.6-4.1,3.9-7.2,3.9c-2.1,0-4-0.6-5.7-1.7s-3.1-2.7-4-4.8s-1.4-4.4-1.4-7s0.4-4.9,1.3-7
			c0.9-2.1,2.2-3.7,3.9-4.8c1.7-1.1,3.7-1.7,5.8-1.7c1.6,0,3,0.3,4.2,1s2.2,1.5,3,2.6v-12.8h4.4v35.8L554.9,1498.3L554.9,1498.3z
			 M541,1485.4c0,3.3,0.7,5.8,2.1,7.4c1.4,1.6,3,2.5,5,2.5c1.9,0,3.5-0.8,4.9-2.4c1.3-1.6,2-4,2-7.2c0-3.6-0.7-6.2-2-7.8
			s-3-2.5-5-2.5s-3.6,0.8-4.9,2.4C541.7,1479.5,541,1482,541,1485.4z"/>
		<path d="M583.6,1490l4.5,0.6c-0.7,2.7-2,4.7-4,6.2c-1.9,1.5-4.4,2.2-7.4,2.2c-3.8,0-6.8-1.2-9-3.5s-3.3-5.6-3.3-9.8
			c0-4.4,1.1-7.8,3.4-10.2s5.2-3.6,8.7-3.6s6.3,1.2,8.5,3.5s3.3,5.7,3.3,10c0,0.3,0,0.7,0,1.2H569c0.2,2.8,1,5,2.4,6.5
			s3.2,2.3,5.4,2.3c1.6,0,3-0.4,4.1-1.3C582,1493.2,583,1491.9,583.6,1490z M569.2,1482.9h14.5c-0.2-2.2-0.8-3.8-1.7-4.9
			c-1.4-1.7-3.2-2.5-5.4-2.5c-2,0-3.7,0.7-5.1,2C570.1,1478.8,569.3,1480.6,569.2,1482.9z"/>
		<path d="M591.9,1490.6l4.3-0.7c0.2,1.7,0.9,3.1,2,4s2.7,1.4,4.7,1.4s3.5-0.4,4.5-1.2c1-0.8,1.5-1.8,1.5-2.9c0-1-0.4-1.8-1.3-2.3
			c-0.6-0.4-2.1-0.9-4.5-1.5c-3.2-0.8-5.5-1.5-6.7-2.1s-2.2-1.4-2.8-2.5s-1-2.2-1-3.5c0-1.2,0.3-2.2,0.8-3.2s1.2-1.8,2.2-2.4
			c0.7-0.5,1.6-0.9,2.8-1.3s2.5-0.5,3.8-0.5c2,0,3.8,0.3,5.4,0.9s2.7,1.4,3.4,2.4s1.2,2.3,1.5,4l-4.3,0.6c-0.2-1.3-0.8-2.4-1.7-3.1
			c-0.9-0.8-2.3-1.1-4-1.1c-2,0-3.5,0.3-4.3,1s-1.3,1.4-1.3,2.3c0,0.6,0.2,1.1,0.5,1.5c0.4,0.5,0.9,0.9,1.7,1.2
			c0.4,0.2,1.7,0.5,3.9,1.1c3.1,0.8,5.3,1.5,6.5,2s2.2,1.3,2.9,2.3s1,2.3,1,3.8s-0.4,2.8-1.3,4.1c-0.8,1.3-2.1,2.3-3.7,3
			s-3.4,1.1-5.5,1.1c-3.4,0-5.9-0.7-7.7-2.1C593.5,1495.4,592.4,1493.4,591.9,1490.6z"/>
		<path d="M618.6,1498.3v-35.8h4.4v35.8H618.6z"/>
		<path d="M629.8,1467.6v-5.1h4.4v5.1H629.8z M629.8,1498.3v-25.9h4.4v25.9H629.8z"/>
		<path d="M638.6,1498.3v-3.6l16.5-18.9c-1.9,0.1-3.5,0.2-5,0.2h-10.6v-3.6h21.2v2.9l-14,16.5l-2.7,3c2-0.2,3.8-0.2,5.5-0.2h12v3.8
			L638.6,1498.3L638.6,1498.3z"/>
		<path d="M682.8,1495.2c-1.6,1.4-3.2,2.4-4.7,2.9s-3.1,0.8-4.8,0.8c-2.8,0-5-0.7-6.6-2.1s-2.3-3.2-2.3-5.3c0-1.3,0.3-2.4,0.9-3.5
			c0.6-1.1,1.3-1.9,2.3-2.5c0.9-0.6,2-1.1,3.2-1.4c0.9-0.2,2.2-0.4,3.9-0.7c3.5-0.4,6.2-0.9,7.8-1.5c0-0.6,0-1,0-1.2
			c0-1.8-0.4-3.1-1.2-3.8c-1.1-1-2.8-1.5-5-1.5c-2.1,0-3.6,0.4-4.6,1.1s-1.7,2-2.2,3.8l-4.3-0.6c0.4-1.8,1-3.3,1.9-4.5
			c0.9-1.1,2.2-2,3.9-2.6s3.7-0.9,5.9-0.9s4,0.3,5.4,0.8s2.4,1.2,3,2c0.7,0.8,1.1,1.8,1.4,3c0.2,0.8,0.2,2.1,0.2,4.1v5.9
			c0,4.1,0.1,6.7,0.3,7.8s0.6,2.1,1.1,3.1h-4.6C683.2,1497.4,682.9,1496.4,682.8,1495.2z M682.5,1485.3c-1.6,0.7-4,1.2-7.2,1.7
			c-1.8,0.3-3.1,0.6-3.8,0.9s-1.3,0.8-1.7,1.4s-0.6,1.3-0.6,2.1c0,1.2,0.4,2.2,1.3,2.9s2.2,1.2,3.9,1.2s3.2-0.4,4.5-1.1
			s2.3-1.8,2.9-3c0.5-1,0.7-2.5,0.7-4.4L682.5,1485.3L682.5,1485.3z"/>
		<path d="M707.6,1498.3v-35.8h4.4v12.8c2-2.4,4.6-3.6,7.8-3.6c1.9,0,3.6,0.4,5,1.1c1.4,0.8,2.4,1.8,3,3.1c0.6,1.3,0.9,3.3,0.9,5.8
			v16.4h-4.4v-16.4c0-2.2-0.5-3.8-1.4-4.8s-2.3-1.5-4-1.5c-1.3,0-2.5,0.3-3.7,1s-2,1.6-2.5,2.8s-0.7,2.8-0.7,4.8v14.2L707.6,1498.3
			L707.6,1498.3z"/>
		<path d="M752.3,1495.2c-1.6,1.4-3.2,2.4-4.7,2.9c-1.5,0.6-3.1,0.8-4.8,0.8c-2.8,0-5-0.7-6.6-2.1s-2.3-3.2-2.3-5.3
			c0-1.3,0.3-2.4,0.9-3.5c0.6-1.1,1.3-1.9,2.3-2.5s2-1.1,3.2-1.4c0.9-0.2,2.2-0.4,3.9-0.7c3.5-0.4,6.2-0.9,7.8-1.5c0-0.6,0-1,0-1.2
			c0-1.8-0.4-3.1-1.2-3.8c-1.1-1-2.8-1.5-5-1.5c-2.1,0-3.6,0.4-4.6,1.1s-1.7,2-2.2,3.8l-4.3-0.6c0.4-1.8,1-3.3,1.9-4.5
			c0.9-1.1,2.2-2,3.9-2.6s3.7-0.9,5.9-0.9s4,0.3,5.4,0.8s2.4,1.2,3,2c0.7,0.8,1.1,1.8,1.4,3c0.2,0.8,0.2,2.1,0.2,4.1v5.9
			c0,4.1,0.1,6.7,0.3,7.8s0.6,2.1,1.1,3.1h-4.6C752.7,1497.4,752.5,1496.4,752.3,1495.2z M752,1485.3c-1.6,0.7-4,1.2-7.2,1.7
			c-1.8,0.3-3.1,0.6-3.8,0.9s-1.3,0.8-1.7,1.4s-0.6,1.3-0.6,2.1c0,1.2,0.4,2.2,1.3,2.9s2.2,1.2,3.9,1.2s3.2-0.4,4.5-1.1
			s2.3-1.8,2.9-3c0.5-1,0.7-2.5,0.7-4.4L752,1485.3L752,1485.3z"/>
		<path d="M780.1,1488.8l4.3,0.6c-0.5,3-1.7,5.3-3.6,7c-2,1.7-4.3,2.5-7.2,2.5c-3.5,0-6.4-1.2-8.6-3.5s-3.2-5.6-3.2-10
			c0-2.8,0.5-5.2,1.4-7.3s2.3-3.7,4.2-4.7c1.9-1.1,4-1.6,6.2-1.6c2.8,0,5.1,0.7,6.9,2.1c1.8,1.4,2.9,3.4,3.4,6.1l-4.3,0.7
			c-0.4-1.7-1.1-3.1-2.2-3.9c-1-0.9-2.3-1.3-3.8-1.3c-2.2,0-4,0.8-5.4,2.4s-2.1,4.1-2.1,7.5c0,3.5,0.7,6,2,7.6s3.1,2.4,5.2,2.4
			c1.7,0,3.2-0.5,4.3-1.6C779.1,1492.7,779.8,1491.1,780.1,1488.8z"/>
		<path d="M788.2,1467.6v-5.1h4.4v5.1H788.2z M788.2,1498.3v-25.9h4.4v25.9H788.2z"/>
		<path d="M816.2,1495.2c-1.6,1.4-3.2,2.4-4.7,2.9c-1.5,0.6-3.1,0.8-4.8,0.8c-2.8,0-5-0.7-6.6-2.1s-2.3-3.2-2.3-5.3
			c0-1.3,0.3-2.4,0.9-3.5c0.6-1.1,1.3-1.9,2.3-2.5s2-1.1,3.2-1.4c0.9-0.2,2.2-0.4,3.9-0.7c3.5-0.4,6.2-0.9,7.8-1.5c0-0.6,0-1,0-1.2
			c0-1.8-0.4-3.1-1.2-3.8c-1.1-1-2.8-1.5-5-1.5c-2.1,0-3.6,0.4-4.6,1.1s-1.7,2-2.2,3.8l-4.3-0.6c0.4-1.8,1-3.3,1.9-4.5
			c0.9-1.1,2.2-2,3.9-2.6s3.7-0.9,5.9-0.9s4,0.3,5.4,0.8s2.4,1.2,3,2c0.7,0.8,1.1,1.8,1.4,3c0.2,0.8,0.2,2.1,0.2,4.1v5.9
			c0,4.1,0.1,6.7,0.3,7.8s0.6,2.1,1.1,3.1h-4.6C816.7,1497.4,816.4,1496.4,816.2,1495.2z M815.9,1485.3c-1.6,0.7-4,1.2-7.2,1.7
			c-1.8,0.3-3.1,0.6-3.8,0.9s-1.3,0.8-1.7,1.4s-0.6,1.3-0.6,2.1c0,1.2,0.4,2.2,1.3,2.9s2.2,1.2,3.9,1.2s3.2-0.4,4.5-1.1
			s2.3-1.8,2.9-3c0.5-1,0.7-2.5,0.7-4.4L815.9,1485.3L815.9,1485.3z"/>
		<path d="M857.9,1495.2c-1.6,1.4-3.2,2.4-4.7,2.9c-1.5,0.6-3.1,0.8-4.8,0.8c-2.8,0-5-0.7-6.6-2.1s-2.3-3.2-2.3-5.3
			c0-1.3,0.3-2.4,0.9-3.5c0.6-1.1,1.3-1.9,2.3-2.5s2-1.1,3.2-1.4c0.9-0.2,2.2-0.4,3.9-0.7c3.5-0.4,6.2-0.9,7.8-1.5c0-0.6,0-1,0-1.2
			c0-1.8-0.4-3.1-1.2-3.8c-1.1-1-2.8-1.5-5-1.5c-2.1,0-3.6,0.4-4.6,1.1s-1.7,2-2.2,3.8l-4.3-0.6c0.4-1.8,1-3.3,1.9-4.5
			c0.9-1.1,2.2-2,3.9-2.6s3.7-0.9,5.9-0.9s4,0.3,5.4,0.8s2.4,1.2,3,2c0.7,0.8,1.1,1.8,1.4,3c0.2,0.8,0.2,2.1,0.2,4.1v5.9
			c0,4.1,0.1,6.7,0.3,7.8s0.6,2.1,1.1,3.1h-4.6C858.4,1497.4,858.1,1496.4,857.9,1495.2z M857.6,1485.3c-1.6,0.7-4,1.2-7.2,1.7
			c-1.8,0.3-3.1,0.6-3.8,0.9s-1.3,0.8-1.7,1.4s-0.6,1.3-0.6,2.1c0,1.2,0.4,2.2,1.3,2.9s2.2,1.2,3.9,1.2s3.2-0.4,4.5-1.1
			s2.3-1.8,2.9-3c0.5-1,0.7-2.5,0.7-4.4L857.6,1485.3L857.6,1485.3z"/>
		<path d="M872.9,1498.3h-4.1v-35.8h4.4v12.8c1.9-2.3,4.2-3.5,7.1-3.5c1.6,0,3.1,0.3,4.5,1c1.4,0.6,2.6,1.6,3.5,2.7
			c0.9,1.2,1.6,2.6,2.2,4.2c0.5,1.6,0.8,3.4,0.8,5.3c0,4.4-1.1,7.9-3.3,10.3s-4.8,3.6-7.9,3.6c-3.1,0-5.5-1.3-7.2-3.8V1498.3
			L872.9,1498.3z M872.8,1485.2c0,3.1,0.4,5.4,1.3,6.7c1.4,2.3,3.2,3.4,5.6,3.4c1.9,0,3.6-0.8,5-2.5s2.1-4.2,2.1-7.5
			c0-3.4-0.7-5.9-2-7.5s-3-2.4-4.9-2.4s-3.6,0.8-5,2.5C873.5,1479.6,872.8,1482,872.8,1485.2z"/>
		<path d="M913.5,1495.2c-1.6,1.4-3.2,2.4-4.7,2.9c-1.5,0.6-3.1,0.8-4.8,0.8c-2.8,0-5-0.7-6.6-2.1s-2.3-3.2-2.3-5.3
			c0-1.3,0.3-2.4,0.9-3.5c0.6-1.1,1.3-1.9,2.3-2.5s2-1.1,3.2-1.4c0.9-0.2,2.2-0.4,3.9-0.7c3.5-0.4,6.2-0.9,7.8-1.5c0-0.6,0-1,0-1.2
			c0-1.8-0.4-3.1-1.2-3.8c-1.1-1-2.8-1.5-5-1.5c-2.1,0-3.6,0.4-4.6,1.1s-1.7,2-2.2,3.8l-4.3-0.6c0.4-1.8,1-3.3,1.9-4.5
			c0.9-1.1,2.2-2,3.9-2.6s3.7-0.9,5.9-0.9s4,0.3,5.4,0.8s2.4,1.2,3,2c0.7,0.8,1.1,1.8,1.4,3c0.2,0.8,0.2,2.1,0.2,4.1v5.9
			c0,4.1,0.1,6.7,0.3,7.8s0.6,2.1,1.1,3.1h-4.6C914,1497.4,913.7,1496.4,913.5,1495.2z M913.2,1485.3c-1.6,0.7-4,1.2-7.2,1.7
			c-1.8,0.3-3.1,0.6-3.8,0.9s-1.3,0.8-1.7,1.4s-0.6,1.3-0.6,2.1c0,1.2,0.4,2.2,1.3,2.9s2.2,1.2,3.9,1.2s3.2-0.4,4.5-1.1
			s2.3-1.8,2.9-3c0.5-1,0.7-2.5,0.7-4.4L913.2,1485.3L913.2,1485.3z"/>
		<path d="M918.8,1508.4l0.8-3.7c0.9,0.2,1.6,0.3,2.1,0.3c0.9,0,1.6-0.3,2-0.9s0.7-2.1,0.7-4.5v-27.2h4.4v27.3
			c0,3.2-0.4,5.4-1.2,6.7c-1.1,1.6-2.8,2.4-5.3,2.4C921.1,1508.9,920,1508.7,918.8,1508.4z M924.4,1467.7v-5.1h4.4v5.1H924.4z"/>
		<path d="M933.9,1485.4c0-4.8,1.3-8.4,4-10.7c2.2-1.9,5-2.9,8.2-2.9c3.6,0,6.5,1.2,8.7,3.5s3.4,5.6,3.4,9.7c0,3.3-0.5,6-1.5,7.9
			s-2.5,3.4-4.4,4.5s-4,1.6-6.3,1.6c-3.6,0-6.6-1.2-8.8-3.5C935,1493.1,933.9,1489.8,933.9,1485.4z M938.4,1485.4
			c0,3.3,0.7,5.8,2.2,7.5s3.3,2.5,5.5,2.5s4-0.8,5.4-2.5c1.5-1.7,2.2-4.2,2.2-7.6c0-3.2-0.7-5.6-2.2-7.3s-3.3-2.5-5.4-2.5
			c-2.2,0-4,0.8-5.5,2.5C939.2,1479.6,938.4,1482.1,938.4,1485.4z"/>
	</g>
	<g class="st1">
		<path d="M227,907.4c17.5,14.1,43.1-11.6,44.6-26.8c0.3-0.1,0.8,18.2-12.8,27.3c-28.7,19.6-51.2-7.9-35.7-31.1
			c5.8-8.8,29.6-27.2,74.5-21.5c42.3,5.4,53.6,3,63.6,0.1c18.5-5.4,25.1-15.6,25.1-15.6c-14.7,26.2-60.9,24.6-84.7,20.4
			C226.1,846.8,209.1,892.8,227,907.4z M280.7,930.5c-10.3,27-23.5,44.6-32.5,50.3s-14.7,2-14.7,2s14.7-2.9,28.1-27.7
			c15.5-28.5,31.9-77.5,37.2-87c4.3-7.9,5.7-4.1,5.7-4.1C309.3,866.9,293.8,896.4,280.7,930.5z"/>
		<path d="M306,937.1c-2.2,10.5,3.5,14.5,9.5,12.1c10.1-3.9,19.6-26,26.6-25.8c-6.9,6.4-7.5,8.4-12.2,14.5c-6.3,8-12.8,15-20.5,14.1
			c-10.2-1.1-11.4-13.9-8.8-19.8c2.7-6.3,8.2-13.3,16.7-13.9c7.1-0.4,9.8,6.3,3,12c-4.1,3.4-10.1,5-14,5.7
			C306.3,936.3,306,936.9,306,937.1z M311.9,933.2c11-3.7,12.9-12,7.2-10.6c0,0-9,1.1-12.4,12C308,934.3,309.9,933.9,311.9,933.2z"
			/>
		<path d="M347.6,927.8c0.1,4.5-1.4,6.7-3.8,11.8c5.7-8.2,18.9-21.2,27.9-23.7c5.2-1.4,7.5,3.4,7.1,6.9c-0.7,5.3-15.8,26-17.7,33.6
			c-2.7,11.3,4.3,7.6,6.5,6c6.5-4.9,18.8-26.9,24.3-33.3c6.8-7.9,9.4-5.3,9.4-5.3c-10.7,2.6-23.8,37.2-35.7,42
			c-3.5,1.5-9,0.5-10.6-5.2c-3.1-11.4,17.5-37.8,18.2-41.7c0.7-4.5-12.5,3.5-21.7,14.1c-6.3,7.2-9.5,12.6-12.2,16.9
			c-0.5,1-3.7,1-5-1.4c-0.5-1-2.2-3.1,2.9-13.5c5.6-11.3,3.3-10.9,3.3-10.9C341.5,922.5,347.5,923.4,347.6,927.8z"/>
		<path d="M402.6,947.9c5.3-1.5,9.5-1.2,12.6,0.3c12.9-8.3,20.4-13.9,26.5-24.7c-1.4,8.7-11.7,17.3-24.9,25.8
			c5.8,3.9,7.2,12.6,5.8,19.7c-2.6,12.8-10.2,23.7-24.3,32.5c-10.6,6.7-24.9,8.3-30.3,4.5c-14.1-9.8,6.1-31.5,21.2-41.3
			c9.4-6.1,17-10.9,23.4-14.8c-2.3-1-5.3-1.4-9.2-0.4c-6.4,1.5-10.7,3.3-10.7,3.3S397.1,949.2,402.6,947.9z M390.8,965.8
			c-32.6,21.5-32.1,48.1-5.4,35.9c30.2-14,34.4-35.2,32.9-44.3c-0.4-2.4-1.5-5-3.8-6.7C407,955.6,398.7,960.5,390.8,965.8z
			 M415.8,921.7c0.7,0.4,1.5,1.1,1.9,2.3c2.3,6.9-5.8,17.5-15.5,22.8c-8.8,4.9-14.7,2.9-16-4.6c-2.2-12.1,12-21.5,18.5-23.2
			c2.9-0.8,5-1,6.8-1C415.8,918.1,417.1,920.4,415.8,921.7z M397.3,930.3c-7.1,7.5-8.6,16.6-3,16.2c5.7-0.4,11.8-4.6,17.3-11.3
			c4.3-5.4,4.1-11,2.9-13.2C412,922.1,404.1,923.3,397.3,930.3z"/>
		<path d="M443,915.9c6.1-0.1,11,3.5,11,13.2c0,2.9-0.7,6.8-1.8,10.6c1.9-0.8,3.9-2,6-3.7c8.2-6.5,10.1-13,14.3-12.6
			c-4.5,3.4-8.3,11.3-15.9,15.9c-1.5,1-3.1,1.6-4.9,2.2c-3,9.1-8.8,18.2-15.5,17.9c-9.5-0.3-10.2-12.8-5.7-21.6
			c0.5-1.1,1.1-2.2,1.6-3.1C426.6,924.2,435.5,916.1,443,915.9z M436.6,939.9c-1.4,2.4-2.4,4.9-3.1,7.3c-1.8,6.7,1.6,13.9,7.5,8.7
			c2.9-2.6,6.1-7.9,8.4-13.9C444.9,942.9,440.3,942.4,436.6,939.9z M441,923.4c3.7-0.5,4.1,3,3.8,5c0,0.1-3.9,4.3-7.2,9.8
			c3.1,2.4,7.6,3.4,12.5,2.2c2.9-8.2,3.7-17-1.1-20.9c-6.4-5.4-14,0.8-15.4,5.4c-0.7,2.6-0.7,5.2,0,7.3
			C437,926.7,439.9,923.6,441,923.4z"/>
		<path d="M518.2,923.6c4.9-1.1,7.6,1.8,2.4,11.6c-4.8,9.1,0.1,12.5,5.4,8.3c6.1-4.9,12.6-16,14.8-18.5c3.7-4.2,5.8-2.2,6.5,1.4
			c1.1,4.9-2.2,7.1-8.4,20.9c-5.7,12.5,1.6,14.3,9.1,5.6c12-14,15.1-27.9,23.8-29.2c-7.3,3.5-7.2,10.6-20.1,27.6
			c-3.5,4.6-10.2,12.6-17.3,6.8c-9-7.5,3.8-24.9,3.4-26.2c0,0-2.3,5.6-9.1,11.6c-7.2,6.4-13.6,3-15.5-1.2
			C511,937,516.5,931.4,518.2,923.6z"/>
		<path d="M576.5,927.8c0.1,4.5-1.4,6.7-3.8,11.8c5.7-8.2,18.9-21.2,27.9-23.7c5.2-1.4,7.5,3.4,7.1,6.9c-0.7,5.3-15.8,26-17.7,33.6
			c-2.7,11.3,4.3,7.6,6.5,6c6.5-4.9,18.8-26.9,24.3-33.3c6.8-7.9,9.4-5.3,9.4-5.3c-10.7,2.6-23.8,37.2-35.7,42
			c-3.5,1.5-9,0.5-10.6-5.2c-3.1-11.4,17.5-37.8,18.2-41.7c0.7-4.5-12.5,3.5-21.7,14.1c-6.3,7.2-9.5,12.6-12.2,16.9
			c-0.5,1-3.7,1-5-1.4c-0.5-1-2.2-3.1,2.9-13.5c5.6-11.3,3.3-10.9,3.3-10.9C570.4,922.5,576.4,923.4,576.5,927.8z"/>
		<path d="M645.5,955.6c7.7-11.4,17.3-30.9,23.9-32.4c-6.8,7.7-8.6,11.3-12.5,17.5c-7.5,12.1-11.6,20.3-15.9,19.6
			c-4.9-0.8-9.4-7.2-4.3-20.9c0.1-0.5,0.4-1.1,0.5-1.6c-5.6,6.8-10.9,13.3-16,7.5c-5.3-6-0.1-16.7,4.8-21.2
			c3.5-3.3,10.2-6.1,17.3-4.3c7.9,2,1.9,2,1.9,2s-10.1-2.2-17.3,9.4c-5.3,8.6-2.3,16.3,1.9,12.4c2.3-2.2,7.3-8.6,11.3-13.6
			c2-3.3,4.2-7.2,6.3-7.2c2-0.1,7.1,0.5,2.6,6.3C637.5,945,637.2,967.7,645.5,955.6z"/>
		<path d="M722.6,927.8c0.1,4.5-1.4,6.7-3.8,11.8c5.7-8.2,18.9-21.2,27.9-23.7c5.2-1.4,7.5,3.4,7.1,6.9c-0.7,5.3-15.8,26-17.7,33.6
			c-2.7,11.3,4.3,7.6,6.5,6c6.5-4.9,18.8-26.9,24.3-33.3c6.8-7.9,9.4-5.3,9.4-5.3c-10.7,2.6-23.8,37.2-35.7,42
			c-3.5,1.5-9,0.5-10.6-5.2c-3.1-11.4,17.5-37.8,18.2-41.7c0.7-4.5-12.5,3.5-21.7,14.1c-6.3,7.2-9.5,12.6-12.2,16.9
			c-0.5,1-3.7,1-5-1.4c-0.5-1-2.2-3.1,2.9-13.5c5.6-11.3,3.3-10.9,3.3-10.9C716.5,922.5,722.5,923.4,722.6,927.8z"/>
		<path d="M775.8,915.9c6.1-0.1,11,3.5,11,13.2c0,2.9-0.7,6.8-1.8,10.6c1.9-0.8,3.9-2,6-3.7c8.2-6.5,10.1-13,14.3-12.6
			c-4.5,3.4-8.3,11.3-15.9,15.9c-1.5,1-3.1,1.6-4.9,2.2c-3,9.1-8.8,18.2-15.5,17.9c-9.5-0.3-10.2-12.8-5.7-21.6
			c0.5-1.1,1.1-2.2,1.6-3.1C759.3,924.2,768.3,916.1,775.8,915.9z M769.4,939.9c-1.4,2.4-2.4,4.9-3.1,7.3c-1.8,6.7,1.6,13.9,7.5,8.7
			c2.9-2.6,6.1-7.9,8.4-13.9C777.7,942.9,773,942.4,769.4,939.9z M773.7,923.4c3.7-0.5,4.1,3,3.8,5c0,0.1-3.9,4.3-7.2,9.8
			c3.1,2.4,7.6,3.4,12.5,2.2c2.9-8.2,3.7-17-1.1-20.9c-6.4-5.4-14,0.8-15.4,5.4c-0.7,2.6-0.7,5.2,0,7.3
			C769.8,926.7,772.6,923.6,773.7,923.4z"/>
		<path d="M771.5,870.8c-3.4,2.3-6.3,6.8-2.6,10.5c6.5,6.5,25.3,5.8,47.6,3.5c5.7-10.6,8.8-13.5,8.8-13.5c1.4-2.2,5.8,2.7,4.5,5
			c-1.5,2.4-3,4.9-4.5,7.5c31-3.7,66.1-9.4,83.5-4.1c6.5,2,9,4.3,8.3,7.6c-0.3,1.8-2.2,2.9-3,1.1c-0.7-1.5,2.9-5-6.1-7.6
			c-17.9-5-52.7,0.8-83.6,4.5c-9,15.4-18.3,34.8-26.1,62.3c-5.6,19.7-0.5,28.7,8.4,17.4c10.1-12.6,19.7-39.8,30.4-41.6
			c-8.6,7.6-11.6,13.3-19.6,28.3c-11.3,21.2-17.7,22.4-22.2,18.8c-5.7-4.6-8.7-16.4,6.1-53.1c5.7-14,10.5-24.1,14.1-31
			c-22.4,2.3-41.3,2.7-48.1-4.5c-3.4-3.7-2-10.1,2.4-13C771.4,867.8,775.1,868.5,771.5,870.8z"/>
		<path d="M846.4,939.6c-6.3,8.3-11.1,13.5-16.4,11.8c-8.4-2.7-1.4-23.8,4.6-27.7c2.7-1.4,4.1,0.1,3.7,2.3
			c-0.5,3.4-4.2,8.4-5.7,14.4c-1.1,4.5-2.4,9.7,1,9.2c4.2-0.4,12-12.4,17.4-19c4.5-5.6,5.8-7.2,8.7-7.2
			C855.5,925.5,852.1,932.1,846.4,939.6z M839.9,918c-1.6-0.5-1.8-1.5-0.5-3.8c1.4-2.6,0.5-3.1,2.7-4.3c1.5-0.8,6.4-0.3,4.8,3.1
			C845.1,916.6,841.8,918.5,839.9,918z"/>
		<path d="M855.5,934c-3.5,4.8-6.1,10.6-4.5,17.4c0.7,3.3,5.7,5.6,11.6,1.8c11.3-7.3,21.5-25.4,30.2-29.8
			c-6.3,5.2-12.9,16-22.7,25.6c-9,8.7-15.6,10.9-21.2,6.3c-6.5-5.4-4.3-18.8,1.1-25.4c6.3-7.7,13.9-11.8,20.9-9.8
			c7.5,2,4.8,8.3,2.6,11.4c-2.2,3.1-5.3,6-8.3,3.5s1.1-5,1.9-4.8c0.8,0.3,3.5,0,5.4-2.2c2.6-2.9,0.4-5.2-2.9-4.6
			C867.6,923.7,861.9,925.5,855.5,934z"/>
		<path d="M901.6,939.6c-6.3,8.3-11.1,13.5-16.4,11.8c-8.4-2.7-1.4-23.8,4.6-27.7c2.7-1.4,4.1,0.1,3.7,2.3
			c-0.5,3.4-4.2,8.4-5.7,14.4c-1.1,4.5-2.4,9.7,1,9.2c4.2-0.4,12-12.4,17.4-19c4.5-5.6,5.8-7.2,8.7-7.2
			C910.7,925.5,907.3,932.1,901.6,939.6z M895.1,918c-1.6-0.5-1.8-1.5-0.5-3.8c1.4-2.6,0.5-3.1,2.7-4.3c1.5-0.8,6.4-0.3,4.8,3.1
			C900.3,916.6,897,918.5,895.1,918z"/>
		<path d="M930.6,955.6c7.7-11.4,17.3-30.9,23.9-32.4c-6.8,7.7-8.6,11.3-12.5,17.5c-7.5,12.1-11.6,20.3-15.9,19.6
			c-4.9-0.8-9.4-7.2-4.3-20.9c0.1-0.5,0.4-1.1,0.5-1.6c-5.6,6.8-10.9,13.3-16,7.5c-5.3-6-0.1-16.7,4.8-21.2
			c3.5-3.3,10.2-6.1,17.3-4.3c7.9,2,1.9,2,1.9,2s-10.1-2.2-17.3,9.4c-5.3,8.6-2.3,16.3,1.9,12.4c2.3-2.2,7.3-8.6,11.3-13.6
			c2-3.3,4.2-7.2,6.3-7.2c2-0.1,7.1,0.5,2.6,6.3C922.5,945,922.3,967.7,930.6,955.6z"/>
		<path d="M962.8,950.1c-1.8,1.8-4.3,1.2-4.8-1c-0.4-2.3,0.1-4.3,2.7-4.3C963.9,944.8,964.5,948.3,962.8,950.1z"/>
		<path d="M984.8,950.1c-1.8,1.8-4.3,1.2-4.8-1c-0.4-2.3,0.1-4.3,2.7-4.3C985.9,944.8,986.6,948.3,984.8,950.1z"/>
		<path d="M1006.8,950.1c-1.8,1.8-4.3,1.2-4.8-1c-0.4-2.3,0.1-4.3,2.7-4.3C1007.9,944.8,1008.6,948.3,1006.8,950.1z"/>
		<path d="M1028.8,950.1c-1.8,1.8-4.3,1.2-4.8-1c-0.4-2.3,0.1-4.3,2.7-4.3C1029.9,944.8,1030.6,948.3,1028.8,950.1z"/>
	</g>
</g>
<g>
	<path class="st2" d="M516.5,1090c69.7,0,139.3,0,209,0c0,95,0,190,0,285.1c-69.7,0-139.3,0-209,0C516.5,1280,516.5,1185,516.5,1090
		z M611.7,1205.4c0-0.8,0-1.5,0-2.2c0-13.4,0-26.8,0-40.2c0-4.2-1.2-7.9-3.8-11.2c-4.4-5.3-10-7.8-16.8-6.4
		c-9,1.8-14.3,8.7-14.3,17.9c0,21.2,0,42.4,0,63.6c0,1.2-0.3,1.9-1.3,2.6c-3.7,2.3-7.3,4.8-10.9,7.2c-11,7.6-16.3,18-15,31.3
		c0.7,7.2,3.2,13.9,5.8,20.6c6.7,17.3,16.5,32.6,29.6,45.9c0.5,0.6,0.9,1.5,0.9,2.3c0.1,5.7,0,11.3,0,17c0,3.4,1.4,4.8,4.8,4.8
		c8,0,16,0,24,0c18.8,0,37.6,0,56.4,0c3.5,0,4.8-1.3,4.8-4.7c0-5.8,0-11.6,0-17.3c0-0.9,0.3-2,0.8-2.8c11-17.5,16.9-36.5,17.4-57.2
		c0.3-11.6,0.1-23.2,0.1-34.8c0-2.3,0.1-4.6-0.3-6.9c-1.7-9.4-10.4-15.5-19.8-13.8c-2.7,0.5-5.3,1.7-8.1,2.6
		c-1.8-5.2-5.4-9.3-11.1-11.2c-5.7-1.9-11.2-0.9-16.1,2.4C632.2,1202.6,625.1,1200,611.7,1205.4z M549.3,1109.5
		c-1.7,0.2-2.9,1-3.5,2.4c-0.7,1.5-0.5,3,0.7,4.2c6.8,6.9,13.7,13.7,20.6,20.5c1.7,1.7,3.9,1.6,5.4,0c1.5-1.5,1.4-3.8-0.3-5.4
		c-6.7-6.7-13.5-13.5-20.2-20.1C551.2,1110.3,550.2,1110,549.3,1109.5z M640.1,1109.5c-0.9,0.4-1.9,0.7-2.6,1.4
		c-6.9,6.8-13.8,13.6-20.6,20.5c-1,1.1-1.5,2.3-0.9,3.8c1.1,2.8,4.1,3.3,6.4,1.1c4.3-4.3,8.7-8.6,13-12.9c2.5-2.4,4.9-4.9,7.4-7.4
		c1.2-1.2,1.4-2.7,0.8-4.2C643,1110.5,641.8,1109.8,640.1,1109.5z M598.3,1115.2c0-2.9,0-5.8,0-8.7c0-2.4-1.5-4-3.6-4
		c-2.1-0.1-3.8,1.7-3.8,4c0,5.8,0,11.7,0,17.5c0,2.4,1.7,4,3.8,4s3.6-1.6,3.6-4C598.3,1121.1,598.3,1118.2,598.3,1115.2z
		 M548.8,1162.4c2.9,0,5.8,0,8.7,0c2.4,0,4-1.4,4.1-3.5c0.1-2.2-1.5-3.9-3.9-3.9c-5.9-0.1-11.8-0.1-17.6,0c-2.4,0-4.1,1.8-4,3.9
		s1.7,3.5,4.1,3.5C543,1162.5,545.9,1162.4,548.8,1162.4z M640.3,1162.4c3,0,6.1,0,9.1,0c2.2,0,3.7-1.4,3.8-3.4
		c0.1-2.1-1.3-3.9-3.5-3.9c-6.1-0.1-12.2-0.1-18.3,0c-2.2,0-3.8,1.9-3.7,3.8c0.1,2.1,1.6,3.5,3.9,3.5
		C634.5,1162.5,637.4,1162.4,640.3,1162.4z"/>
	<path d="M611.7,1205.4c13.4-5.4,20.4-2.9,27,9.7c5-3.4,10.4-4.4,16.1-2.4c5.7,1.9,9.3,6,11.1,11.2c2.8-0.9,5.4-2.1,8.1-2.6
		c9.3-1.7,18,4.4,19.8,13.8c0.4,2.2,0.3,4.6,0.3,6.9c0,11.6,0.2,23.2-0.1,34.8c-0.5,20.6-6.4,39.7-17.4,57.2
		c-0.5,0.8-0.8,1.9-0.8,2.8c-0.1,5.8,0,11.6,0,17.3c0,3.4-1.4,4.7-4.8,4.7c-18.8,0-37.6,0-56.4,0c-8,0-16,0-24,0
		c-3.4,0-4.8-1.4-4.8-4.8c0-5.7,0-11.3,0-17c0-0.8-0.4-1.8-0.9-2.3c-13-13.2-22.9-28.5-29.6-45.9c-2.6-6.7-5.1-13.5-5.8-20.6
		c-1.3-13.3,3.9-23.8,15-31.3c3.6-2.5,7.2-4.9,10.9-7.2c1-0.7,1.3-1.4,1.3-2.6c0-21.2,0-42.4,0-63.6c0-9.2,5.3-16.1,14.3-17.9
		c6.8-1.4,12.4,1.1,16.8,6.4c2.7,3.2,3.8,7,3.8,11.2c0,13.4,0,26.8,0,40.2C611.7,1203.9,611.7,1204.6,611.7,1205.4z M576.7,1237.6
		c-3.4,2.3-6.7,4.3-9.7,6.5c-6.4,4.8-9.8,11.2-10.3,19.2c-0.3,5,1.2,9.6,2.7,14.3c6.2,20.5,17,38.2,32.3,53.2c1.2,1.2,1.7,2.4,1.7,4
		c0,4.8,0.1,9.7-0.1,14.5c0,1.7,0.4,2.2,2.1,2.2c21.7-0.1,43.4,0,65.1,0c2.6,0,5.1,0,7.8,0c0-5.6-0.1-10.9,0.1-16.2
		c0-1.4,0.5-2.9,1.2-4.1c10.3-15.9,16.2-33.3,16.8-52.2c0.5-13.6,0.3-27.1,0.2-40.7c0-6-4.9-9.6-8.8-9.8
		c-6.9-0.4-11.2,3.9-11.2,10.8c0,4.2,0,8.4,0,12.6c0,2.5-1.7,4-4.1,3.8c-2-0.2-3.3-1.7-3.3-4.1c0-7.3,0-14.6,0-21.9
		c0-1.1-0.1-2.1-0.4-3.1c-1.2-4.7-5.7-7.7-10.7-7.3c-4.6,0.4-8.4,4.3-8.8,9c-0.1,1.6-0.1,3.2-0.1,4.9c0,6.1,0,12.1,0,18.2
		c0,2.9-1.6,4.5-4.1,4.4c-2.1-0.2-3.4-1.7-3.4-4.4c0-10.2,0-20.3,0-30.4c0-2.2-0.4-4.3-1.6-6.2c-2.6-3.9-7-5.3-11.7-3.9
		c-3.8,1.2-6.6,5.1-6.7,9.5c0,9.7,0,19.3,0,28.9c0,1.1,0.1,2.2-0.1,3.4c-0.2,1.9-1.8,3.2-3.7,3.2c-2,0-3.5-1.4-3.7-3.4
		c0-0.5,0-1,0-1.5c0-20.8,0-41.5,0-62.2c0-8.5-0.1-17.1,0-25.6c0.1-6.5-5.3-10.9-10.8-10.3c-5.4,0.5-9.3,4.8-9.3,10.5
		c0,23.8,0,47.7,0,71.5c0,11.7,0,23.3,0,35c0,1-0.2,2-0.7,2.8c-0.8,1.3-2.6,1.8-4.2,1.3c-1.5-0.5-2.5-1.9-2.5-3.8
		c0-6.7,0-13.5,0-20.2C576.7,1245.8,576.7,1241.9,576.7,1237.6z"/>
	<path d="M549.3,1109.5c0.9,0.5,1.9,0.8,2.6,1.5c6.8,6.7,13.5,13.4,20.2,20.1c1.6,1.6,1.7,3.9,0.3,5.4c-1.5,1.6-3.7,1.6-5.4,0
		c-6.9-6.8-13.7-13.7-20.6-20.5c-1.2-1.2-1.4-2.6-0.7-4.2C546.4,1110.4,547.5,1109.7,549.3,1109.5z"/>
	<path d="M640.1,1109.5c1.7,0.2,2.9,0.9,3.5,2.4s0.5,3-0.8,4.2c-2.5,2.5-4.9,4.9-7.4,7.4c-4.3,4.3-8.6,8.6-13,12.9
		c-2.2,2.2-5.3,1.7-6.4-1.1c-0.6-1.5-0.2-2.8,0.9-3.8c6.8-6.9,13.7-13.7,20.6-20.5C638.2,1110.2,639.2,1110,640.1,1109.5z"/>
	<path d="M598.3,1115.2c0,2.9,0,5.8,0,8.7c0,2.4-1.5,4-3.6,4c-2.2,0-3.8-1.6-3.8-4c0-5.8,0-11.7,0-17.5c0-2.4,1.7-4.1,3.8-4
		s3.6,1.6,3.6,4C598.3,1109.4,598.3,1112.3,598.3,1115.2z"/>
	<path d="M548.8,1162.4c-2.9,0-5.8,0-8.7,0c-2.4,0-4-1.4-4.1-3.5s1.6-3.8,4-3.9c5.9-0.1,11.8-0.1,17.6,0c2.4,0,4,1.7,3.9,3.9
		c-0.1,2.1-1.6,3.5-4.1,3.5C554.7,1162.5,551.8,1162.4,548.8,1162.4z"/>
	<path d="M640.3,1162.4c-2.9,0-5.8,0-8.8,0c-2.3,0-3.8-1.4-3.9-3.5c-0.1-2,1.5-3.8,3.7-3.8c6.1-0.1,12.2-0.1,18.3,0
		c2.2,0,3.6,1.8,3.5,3.9s-1.5,3.4-3.8,3.4C646.4,1162.5,643.3,1162.4,640.3,1162.4z"/>
	<path class="st2" d="M576.7,1237.6c0,4.3,0,8.2,0,12.1c0,6.7,0,13.5,0,20.2c0,1.9,1,3.3,2.5,3.8c1.6,0.5,3.4,0.1,4.2-1.3
		c0.5-0.8,0.7-1.9,0.7-2.8c0-11.7,0-23.3,0-35c0-23.8,0-47.7,0-71.5c0-5.7,3.9-10,9.3-10.5c5.5-0.5,10.9,3.8,10.8,10.3
		c-0.1,8.5,0,17.1,0,25.6c0,20.8,0,41.5,0,62.2c0,0.5,0,1,0,1.5c0.2,2,1.7,3.4,3.7,3.4c1.9,0,3.5-1.3,3.7-3.2
		c0.1-1.1,0.1-2.2,0.1-3.4c0-9.7,0-19.3,0-28.9c0-4.4,2.8-8.3,6.7-9.5c4.7-1.4,9.1,0.1,11.7,3.9c1.3,1.9,1.7,4,1.6,6.2
		c0,10.2,0,20.3,0,30.4c0,2.7,1.3,4.2,3.4,4.4c2.5,0.2,4.1-1.5,4.1-4.4c0-6.1,0-12.1,0-18.2c0-1.6,0-3.3,0.1-4.9
		c0.3-4.7,4.1-8.5,8.8-9c5-0.5,9.5,2.6,10.7,7.3c0.3,1,0.4,2.1,0.4,3.1c0,7.3,0,14.6,0,21.9c0,2.4,1.3,3.9,3.3,4.1
		c2.4,0.2,4.1-1.4,4.1-3.8c0-4.2,0-8.4,0-12.6c0-6.9,4.3-11.2,11.2-10.8c4,0.2,8.8,3.9,8.8,9.8c0.1,13.6,0.2,27.2-0.2,40.7
		c-0.6,18.9-6.6,36.3-16.8,52.2c-0.7,1.2-1.2,2.7-1.2,4.1c-0.1,5.3-0.1,10.6-0.1,16.2c-2.7,0-5.3,0-7.8,0c-21.7,0-43.4,0-65.1,0
		c-1.7,0-2.2-0.5-2.1-2.2c0.1-4.8,0-9.7,0.1-14.5c0-1.6-0.5-2.9-1.7-4c-15.2-15-26-32.7-32.3-53.2c-1.4-4.7-3-9.3-2.7-14.3
		c0.5-7.9,3.9-14.4,10.3-19.2C570.1,1241.9,573.3,1239.9,576.7,1237.6z"/>
</g>
<g>
	<path d="M478.3,829.3c-55.9,25.2,13.2,116.6-34.7,161.9c-26.2,24.8-70.9,22.5-82.3-5.9c-4.7-12.2-4.3-40.8,21.9-53.2
		c13.4-6.3,18.9-6.9,27.6-7.3c20.5-1.2,42.7,17.3,15,37c11-23.8-4.1-38.8-29.3-32.1c-36.6,9.7-39.2,44.9-29.5,59.3
		c15,22.3,58.9,11.4,72.5-5.5c35.6-44.9-23.4-125.3,31.9-154.6c15-7.9,34.7-5.5,39.6,6.7c4.7-2.6,10.4-4.5,16.3-5.3
		c-3.9,2.2-8.1,1.8-15.4,8.1c3.3,15-6.9,35.8-15.8,35.8c-16.5,0.2-8.5-24.8,12.6-37.2C504.2,825.9,489.2,824.4,478.3,829.3z
		 M504.5,845.6c-19.5,23-6.1,39,3.3,10.6c2.2-6.5,2.6-11.8,1.8-16C508.1,841.9,506.3,843.5,504.5,845.6z"/>
	<path d="M501.8,916.3c8.9-0.2,16,5.1,16,19.1c0,4.1-1,9.8-2.6,15.4c2.8-1.2,5.7-3,8.7-5.3c11.8-9.5,14.6-18.9,20.7-18.3
		c-6.5,4.9-12,16.3-23,23c-2.2,1.4-4.5,2.4-7.1,3.2c-4.3,13.2-12.8,26.4-22.5,26c-13.8-0.4-14.8-18.5-8.3-31.3
		c0.8-1.6,1.6-3.2,2.4-4.5C478,928.4,491,916.5,501.8,916.3z M492.5,951c-2,3.5-3.5,7.1-4.5,10.6c-2.6,9.7,2.4,20.1,10.8,12.6
		c4.1-3.7,8.9-11.4,12.2-20.1C504.5,955.3,497.9,954.7,492.5,951z M498.8,927.2c5.3-0.8,5.9,4.3,5.5,7.3c0,0.2-5.7,6.3-10.4,14.2
		c4.5,3.5,11,4.9,18.1,3.2c4.1-11.8,5.3-24.6-1.6-30.3c-9.3-7.9-20.3,1.2-22.3,7.9c-1,3.7-1,7.5,0,10.6
		C493.1,931.9,497.3,927.4,498.8,927.2z"/>
	<path d="M548.3,928.9c12.8,8.1,17.1,16.9,6.1,33.1c-11.6,16.9-13.4,44.1,2.8,31.1c9.5-7.7,16.5-20.9,28.4-40.8
		c11.4-19.3,14.2-22.5,19.3-25.2c-1.6,3-10.4,15-16.3,25.6c-13.2,24-27,47.1-39,46.1s-16.9-17.7-9.1-33.5
		c8.5-17.3,18.1-24.2,2.8-34.1c-19.5-12.6-9.3-22.7-4.5-25.4c5.7-3.3,14.2-2,14.2,6.5c0,6.3-4.3,11.6-7.7,14.6
		C546.1,927.6,547.1,928.2,548.3,928.9z M542.6,907.9c-5.5,2.4-8.5,10,1.4,18.1c3.3-3.9,5.7-8.1,6.3-10.4
		C551.6,910.2,547.1,905.9,542.6,907.9z"/>
	<path d="M526,1051.3c-1.8-26,45.9-68.7,53.6-75.6c3-2.8,5.5-4.9,7.3-6.1c3.3-11.2,5.7-19.7,6.7-22.3c6.3-18.3,10.2-20.9,12.6-19.9
		c3.3,1.6,3.2,5.5,1.2,11.6c6.3-7.7,14.6-15.2,25.6-15.4c13.6-0.4,17.5,12.8,13,28c10.4-3.5,20.7-9.5,29.9-23.8
		c-4.9,15.6-17.1,21.5-30.5,25.8c-1.6,4.5-4.1,9.7-7.5,14.2c-14.4,20.5-32.9,17.9-35.3,11.2c-2-5.7,2-10.8,7.9-14.8
		c8.5-5.5,17.1-7.5,25.8-9.8c4.7-12.2,5.7-26.8-3-27.6c-11.4-1.2-21.3,9.1-28.2,18.3c-3.2,8.1-7.9,18.7-11.6,31.1
		c-6.9,23-16.3,50.8-28.4,69.3C549.5,1069.8,527.2,1069.2,526,1051.3z M573.7,985.1c-16.3,15.2-27.6,28-37.4,44.3
		c-10.6,17.7-8.9,32.5,1,31.7c20.3-2,38.6-54.8,48.6-88C583.3,975.8,579.6,979.8,573.7,985.1z M612.5,965.6
		c-7.1,4.5-8.7,10.4-7.1,13c4.1,6.7,16.7-1.4,25.2-13.6c1.8-2.4,3.3-5.1,4.7-8.3C627.1,959.1,619.2,961.4,612.5,965.6z"/>
	<path d="M682.4,928.9c12.8,8.1,17.1,16.9,6.1,33.1c-11.6,16.9-13.4,44.1,2.8,31.1c9.5-7.7,16.5-20.9,28.4-40.8
		c11.4-19.3,14.2-22.5,19.3-25.2c-1.6,3-10.4,15-16.3,25.6c-13.2,24-27,47.1-39,46.1s-16.9-17.7-9.1-33.5
		c8.5-17.3,18.1-24.2,2.8-34.1c-19.5-12.6-9.3-22.7-4.5-25.4c5.7-3.3,14.2-2,14.2,6.5c0,6.3-4.3,11.6-7.7,14.6
		C680.2,927.6,681.2,928.2,682.4,928.9z M676.7,907.9c-5.5,2.4-8.5,10,1.4,18.1c3.3-3.9,5.7-8.1,6.3-10.4
		C685.8,910.2,681.2,905.9,676.7,907.9z"/>
	<path d="M732,947.1c-3.2,15.2,5.1,21.1,13.8,17.5c14.6-5.7,28.4-37.6,38.6-37.4c-10,9.3-10.8,12.2-17.7,21.1
		c-9.1,11.6-18.5,21.7-29.7,20.5c-14.8-1.6-16.5-20.1-12.8-28.8c3.9-9.1,11.8-19.3,24.2-20.1c10.2-0.6,14.2,9.1,4.3,17.3
		c-5.9,4.9-14.6,7.3-20.3,8.3C732.4,945.9,732,946.7,732,947.1z M740.5,941.4c16-5.3,18.7-17.3,10.4-15.4c0,0-13,1.6-17.9,17.3
		C735,942.9,737.8,942.3,740.5,941.4z"/>
	<path d="M786.4,928.7c-0.8,2.8-0.8,6.9,1.8,11.2c3.5,6.1,7.3,11.2,8.9,16c19.7-9.7,24.4-15.4,34.5-28.6
		c-4.3,13.4-18.1,23-33.9,30.5c3,9.3,2.6,16.7-3.3,26c-10,16-31.5,21.1-38.4,12.6c-9.5-11.8,5.5-24.6,27.4-34.5
		c3.2-1.4,5.7-2.8,8.3-3.9c-0.6-3.7-2.2-7.5-4.7-11.6c-9.5-14.8-7.9-16.5-7.7-19.9c0.4-6.3,7.9-12.8,7.9-12.8
		c4.3-3.2,5.5,3.2,4.5,6.9C789.4,923.2,787.2,926.2,786.4,928.7z M789,961.2c-18.3,7.9-34.5,18.3-33.1,28.4c1,6.9,6.9,9.1,14.2,4.9
		c7.5-4.1,23.4-17.1,21.9-34.3C790.9,960.7,789.9,960.9,789,961.2z"/>
	<path d="M856.5,973.9c11.2-16.5,25-44.7,34.7-46.9c-9.8,11.2-12.4,16.3-18.1,25.4c-10.8,17.5-16.7,29.3-23,28.4
		c-7.1-1.2-13.6-10.4-6.3-30.3c0.2-0.8,0.6-1.6,0.8-2.4c-8.1,9.8-15.8,19.3-23.2,10.8c-7.7-8.7-0.2-24.2,6.9-30.7
		c5.1-4.7,14.8-8.9,25-6.3c11.4,3,2.8,3,2.8,3s-14.6-3.2-25,13.6c-7.7,12.4-3.3,23.6,2.8,17.9c3.3-3.2,10.6-12.4,16.3-19.7
		c3-4.7,6.1-10.4,9.1-10.4c3-0.2,10.2,0.8,3.7,9.1C844.9,958.5,844.5,991.4,856.5,973.9z"/>
</g>
<g>
	<path d="M242.3,1453.5v14.8h17.1v-14.8h4.6v35.4h-4.6v-16.6h-17.1v16.6h-4.6v-35.4H242.3z"/>
	<path d="M285.8,1488.9l-0.4-3.2h-0.2c-1.4,2-4.1,3.8-7.8,3.8c-5.1,0-7.8-3.6-7.8-7.3c0-6.1,5.5-9.5,15.3-9.4v-0.5
		c0-2.1-0.6-5.9-5.8-5.9c-2.4,0-4.8,0.7-6.6,1.9l-1-3c2.1-1.4,5.1-2.3,8.3-2.3c7.8,0,9.7,5.3,9.7,10.4v9.5c0,2.2,0.1,4.4,0.4,6.1
		H285.8z M285.1,1476c-5-0.1-10.8,0.8-10.8,5.7c0,3,2,4.4,4.4,4.4c3.3,0,5.4-2.1,6.1-4.3c0.2-0.5,0.3-1,0.3-1.5V1476z"/>
	<path d="M294.2,1486.2l11.5-15c1.1-1.4,2.2-2.6,3.3-3.9v-0.1h-13.8v-3.7h19.4l-0.1,2.9l-11.3,14.8c-1,1.4-2.1,2.7-3.3,4v0.1h14.9
		v3.7h-20.6V1486.2z"/>
	<path d="M348.8,1488c-1.2,0.6-3.9,1.5-7.3,1.5c-7.7,0-12.7-5.2-12.7-13c0-7.8,5.4-13.5,13.6-13.5c2.7,0,5.1,0.7,6.4,1.3l-1,3.6
		c-1.1-0.6-2.8-1.2-5.4-1.2c-5.8,0-9,4.3-9,9.6c0,5.9,3.8,9.5,8.8,9.5c2.6,0,4.4-0.7,5.7-1.3L348.8,1488z"/>
	<path d="M354.2,1451.6h4.6v37.3h-4.6V1451.6z"/>
	<path d="M371.7,1456.4c0.1,1.6-1.1,2.8-2.9,2.8c-1.6,0-2.8-1.3-2.8-2.8c0-1.6,1.2-2.9,2.9-2.9
		C370.6,1453.5,371.7,1454.7,371.7,1456.4z M366.6,1488.9v-25.4h4.6v25.4H366.6z"/>
	<path d="M396.9,1488c-1.2,0.6-3.9,1.5-7.3,1.5c-7.7,0-12.7-5.2-12.7-13c0-7.8,5.4-13.5,13.6-13.5c2.7,0,5.1,0.7,6.4,1.3l-1,3.6
		c-1.1-0.6-2.8-1.2-5.4-1.2c-5.8,0-9,4.3-9,9.6c0,5.9,3.8,9.5,8.8,9.5c2.6,0,4.4-0.7,5.7-1.3L396.9,1488z"/>
	<path d="M406.9,1475.2h0.1c0.6-0.9,1.5-2,2.3-2.9l7.5-8.8h5.6l-9.8,10.4l11.2,15h-5.6l-8.8-12.2l-2.4,2.6v9.6h-4.6v-37.3h4.6
		V1475.2z"/>
	<path d="M439.8,1463.5l5.6,15c0.6,1.7,1.2,3.7,1.6,5.2h0.1c0.5-1.5,1-3.5,1.6-5.3l5-14.9h4.9l-6.9,18.1c-3.3,8.7-5.6,13.2-8.7,15.9
		c-2.3,2-4.5,2.8-5.7,3l-1.2-3.9c1.2-0.4,2.7-1.1,4-2.3c1.3-1,2.8-2.8,3.9-5.1c0.2-0.5,0.4-0.8,0.4-1.1c0-0.3-0.1-0.6-0.3-1.2
		l-9.4-23.4H439.8z"/>
	<path d="M474,1451.6h4.6v37.3H474V1451.6z"/>
	<path d="M507.6,1482c0,2.6,0.1,4.9,0.2,6.9h-4.1l-0.3-4.1h-0.1c-1.2,2-3.9,4.7-8.4,4.7c-4,0-8.8-2.2-8.8-11.1v-14.9h4.6v14.1
		c0,4.8,1.5,8.1,5.7,8.1c3.1,0,5.2-2.2,6.1-4.2c0.3-0.7,0.4-1.5,0.4-2.4v-15.6h4.6V1482z"/>
	<path d="M517.8,1477.1c0.1,6.2,4.1,8.8,8.7,8.8c3.3,0,5.3-0.6,7-1.3l0.8,3.3c-1.6,0.7-4.4,1.6-8.5,1.6c-7.8,0-12.5-5.1-12.5-12.8
		c0-7.7,4.5-13.7,11.9-13.7c8.3,0,10.5,7.3,10.5,12c0,0.9-0.1,1.7-0.2,2.2H517.8z M531.4,1473.7c0.1-2.9-1.2-7.5-6.4-7.5
		c-4.7,0-6.7,4.3-7.1,7.5H531.4z"/>
	<path d="M563.5,1463.5c-0.1,1.8-0.2,3.9-0.2,7v14.8c0,5.8-1.2,9.4-3.6,11.6c-2.5,2.3-6,3-9.2,3c-3,0-6.4-0.7-8.5-2.1l1.2-3.5
		c1.7,1.1,4.3,2,7.5,2c4.7,0,8.2-2.5,8.2-8.9v-2.8h-0.1c-1.4,2.4-4.1,4.3-8.1,4.3c-6.3,0-10.8-5.4-10.8-12.4
		c0-8.6,5.6-13.5,11.4-13.5c4.4,0,6.8,2.3,7.9,4.4h0.1l0.2-3.8H563.5z M558.7,1473.5c0-0.8-0.1-1.5-0.3-2.1
		c-0.8-2.7-3.1-4.9-6.5-4.9c-4.4,0-7.6,3.7-7.6,9.6c0,5,2.5,9.1,7.5,9.1c2.8,0,5.4-1.8,6.4-4.7c0.3-0.8,0.4-1.7,0.4-2.5V1473.5z"/>
	<path d="M593.9,1476c0,9.4-6.5,13.5-12.6,13.5c-6.9,0-12.2-5-12.2-13.1c0-8.5,5.6-13.5,12.6-13.5
		C589,1462.9,593.9,1468.2,593.9,1476z M573.7,1476.3c0,5.6,3.2,9.8,7.7,9.8c4.4,0,7.7-4.1,7.7-9.9c0-4.3-2.2-9.8-7.6-9.8
		S573.7,1471.4,573.7,1476.3z"/>
	<path d="M632.8,1451.6v30.7c0,2.3,0.1,4.8,0.2,6.6h-4.1l-0.2-4.4h-0.1c-1.4,2.8-4.5,5-8.7,5c-6.1,0-10.9-5.2-10.9-12.9
		c-0.1-8.5,5.2-13.6,11.4-13.6c3.9,0,6.5,1.8,7.7,3.9h0.1v-15.2H632.8z M628.2,1473.9c0-0.6-0.1-1.4-0.2-1.9
		c-0.7-2.9-3.2-5.4-6.7-5.4c-4.8,0-7.6,4.2-7.6,9.8c0,5.1,2.5,9.4,7.5,9.4c3.1,0,5.9-2,6.8-5.5c0.2-0.6,0.2-1.3,0.2-2V1473.9z"/>
	<path d="M643,1477.1c0.1,6.2,4.1,8.8,8.7,8.8c3.3,0,5.3-0.6,7-1.3l0.8,3.3c-1.6,0.7-4.4,1.6-8.5,1.6c-7.8,0-12.5-5.1-12.5-12.8
		c0-7.7,4.5-13.7,11.9-13.7c8.3,0,10.5,7.3,10.5,12c0,0.9-0.1,1.7-0.2,2.2H643z M656.6,1473.7c0.1-2.9-1.2-7.5-6.4-7.5
		c-4.7,0-6.7,4.3-7.1,7.5H656.6z"/>
	<path d="M666.1,1484.2c1.4,0.9,3.8,1.8,6.1,1.8c3.4,0,4.9-1.7,4.9-3.8c0-2.2-1.3-3.4-4.7-4.7c-4.6-1.6-6.7-4.1-6.7-7.2
		c0-4.1,3.3-7.5,8.8-7.5c2.6,0,4.8,0.7,6.2,1.6l-1.2,3.4c-1-0.6-2.8-1.5-5.2-1.5c-2.7,0-4.3,1.6-4.3,3.5c0,2.1,1.5,3,4.8,4.3
		c4.4,1.7,6.7,3.9,6.7,7.7c0,4.5-3.5,7.6-9.5,7.6c-2.8,0-5.4-0.7-7.1-1.7L666.1,1484.2z"/>
	<path d="M687.6,1451.6h4.6v37.3h-4.6V1451.6z"/>
	<path d="M705.1,1456.4c0.1,1.6-1.1,2.8-2.9,2.8c-1.6,0-2.8-1.3-2.8-2.8c0-1.6,1.2-2.9,2.9-2.9
		C704,1453.5,705.1,1454.7,705.1,1456.4z M699.9,1488.9v-25.4h4.6v25.4H699.9z"/>
	<path d="M709.3,1486.2l11.5-15c1.1-1.4,2.2-2.6,3.3-3.9v-0.1h-13.8v-3.7h19.4l-0.1,2.9l-11.3,14.8c-1,1.4-2.1,2.7-3.3,4v0.1H730
		v3.7h-20.6V1486.2z"/>
	<path d="M748.8,1488.9l-0.4-3.2h-0.2c-1.4,2-4.1,3.8-7.8,3.8c-5.1,0-7.8-3.6-7.8-7.3c0-6.1,5.5-9.5,15.3-9.4v-0.5
		c0-2.1-0.6-5.9-5.8-5.9c-2.4,0-4.8,0.7-6.6,1.9l-1.1-3c2.1-1.4,5.1-2.3,8.3-2.3c7.8,0,9.7,5.3,9.7,10.4v9.5c0,2.2,0.1,4.4,0.4,6.1
		H748.8z M748.1,1476c-5-0.1-10.8,0.8-10.8,5.7c0,3,2,4.4,4.4,4.4c3.3,0,5.4-2.1,6.1-4.3c0.2-0.5,0.3-1,0.3-1.5V1476z"/>
	<path d="M771.1,1451.6h4.6v15.9h0.1c0.7-1.3,1.9-2.5,3.3-3.3c1.4-0.8,3-1.3,4.7-1.3c3.4,0,8.9,2.1,8.9,10.9v15.1h-4.6v-14.6
		c0-4.1-1.5-7.6-5.9-7.6c-3,0-5.4,2.1-6.2,4.6c-0.3,0.6-0.3,1.3-0.3,2.2v15.3h-4.6V1451.6z"/>
	<path d="M814.3,1488.9l-0.4-3.2h-0.2c-1.4,2-4.1,3.8-7.8,3.8c-5.1,0-7.8-3.6-7.8-7.3c0-6.1,5.5-9.5,15.3-9.4v-0.5
		c0-2.1-0.6-5.9-5.8-5.9c-2.4,0-4.8,0.7-6.6,1.9l-1.1-3c2.1-1.4,5.1-2.3,8.3-2.3c7.8,0,9.7,5.3,9.7,10.4v9.5c0,2.2,0.1,4.4,0.4,6.1
		H814.3z M813.6,1476c-5-0.1-10.8,0.8-10.8,5.7c0,3,2,4.4,4.4,4.4c3.3,0,5.4-2.1,6.1-4.3c0.2-0.5,0.3-1,0.3-1.5V1476z"/>
	<path d="M843.7,1488c-1.2,0.6-3.9,1.5-7.3,1.5c-7.7,0-12.6-5.2-12.6-13c0-7.8,5.4-13.5,13.6-13.5c2.7,0,5.1,0.7,6.4,1.3l-1,3.6
		c-1.1-0.6-2.8-1.2-5.4-1.2c-5.8,0-9,4.3-9,9.6c0,5.9,3.8,9.5,8.8,9.5c2.6,0,4.4-0.7,5.7-1.3L843.7,1488z"/>
	<path d="M854.2,1456.4c0.1,1.6-1.1,2.8-2.9,2.8c-1.6,0-2.8-1.3-2.8-2.8c0-1.6,1.2-2.9,2.9-2.9
		C853.1,1453.5,854.2,1454.7,854.2,1456.4z M849.1,1488.9v-25.4h4.6v25.4H849.1z"/>
	<path d="M875.4,1488.9l-0.4-3.2h-0.2c-1.4,2-4.1,3.8-7.8,3.8c-5.1,0-7.8-3.6-7.8-7.3c0-6.1,5.5-9.5,15.3-9.4v-0.5
		c0-2.1-0.6-5.9-5.8-5.9c-2.4,0-4.8,0.7-6.6,1.9l-1-3c2.1-1.4,5.1-2.3,8.3-2.3c7.8,0,9.7,5.3,9.7,10.4v9.5c0,2.2,0.1,4.4,0.4,6.1
		H875.4z M874.7,1476c-5-0.1-10.8,0.8-10.8,5.7c0,3,2,4.4,4.4,4.4c3.3,0,5.4-2.1,6.1-4.3c0.2-0.5,0.3-1,0.3-1.5V1476z"/>
	<path d="M911.9,1488.9l-0.4-3.2h-0.2c-1.4,2-4.1,3.8-7.8,3.8c-5.1,0-7.8-3.6-7.8-7.3c0-6.1,5.5-9.5,15.3-9.4v-0.5
		c0-2.1-0.6-5.9-5.8-5.9c-2.4,0-4.8,0.7-6.6,1.9l-1-3c2.1-1.4,5.1-2.3,8.3-2.3c7.8,0,9.7,5.3,9.7,10.4v9.5c0,2.2,0.1,4.4,0.4,6.1
		H911.9z M911.2,1476c-5-0.1-10.8,0.8-10.8,5.7c0,3,2,4.4,4.4,4.4c3.3,0,5.4-2.1,6.1-4.3c0.2-0.5,0.3-1,0.3-1.5V1476z"/>
	<path d="M922.9,1488.9c0.1-1.7,0.2-4.3,0.2-6.6v-30.7h4.6v16h0.1c1.6-2.8,4.6-4.7,8.7-4.7c6.3,0,10.8,5.2,10.7,13
		c0,9.1-5.7,13.6-11.4,13.6c-3.7,0-6.6-1.4-8.5-4.8h-0.2l-0.2,4.2H922.9z M927.7,1478.7c0,0.6,0.1,1.2,0.2,1.7
		c0.9,3.2,3.6,5.4,6.9,5.4c4.8,0,7.7-3.9,7.7-9.8c0-5.1-2.6-9.4-7.6-9.4c-3.1,0-6.1,2.2-7,5.7c-0.1,0.5-0.3,1.2-0.3,1.9V1478.7z"/>
	<path d="M967,1488.9l-0.4-3.2h-0.2c-1.4,2-4.1,3.8-7.8,3.8c-5.1,0-7.8-3.6-7.8-7.3c0-6.1,5.5-9.5,15.3-9.4v-0.5
		c0-2.1-0.6-5.9-5.8-5.9c-2.4,0-4.8,0.7-6.6,1.9l-1-3c2.1-1.4,5.1-2.3,8.3-2.3c7.8,0,9.7,5.3,9.7,10.4v9.5c0,2.2,0.1,4.4,0.4,6.1
		H967z M966.3,1476c-5-0.1-10.8,0.8-10.8,5.7c0,3,2,4.4,4.4,4.4c3.3,0,5.4-2.1,6.1-4.3c0.2-0.5,0.3-1,0.3-1.5V1476z"/>
	<path d="M972.1,1496.3c2.1-0.2,3.9-0.7,5-1.9c1.3-1.5,1.7-3.5,1.7-9.6v-21.3h4.6v23c0,4.9-0.8,8.1-3,10.4c-2,2-5.4,2.9-7.9,2.9
		L972.1,1496.3z M984,1456.4c0.1,1.5-1,2.8-2.9,2.8c-1.7,0-2.8-1.3-2.8-2.8c0-1.6,1.2-2.9,2.9-2.9
		C982.9,1453.5,984,1454.7,984,1456.4z"/>
	<path d="M1014,1476c0,9.4-6.5,13.5-12.7,13.5c-6.9,0-12.2-5-12.2-13.1c0-8.5,5.6-13.5,12.6-13.5
		C1009.1,1462.9,1014,1468.2,1014,1476z M993.8,1476.3c0,5.6,3.2,9.8,7.7,9.8c4.4,0,7.7-4.1,7.7-9.9c0-4.3-2.2-9.8-7.6-9.8
		S993.8,1471.4,993.8,1476.3z"/>
</g>
</svg>
