<?xml version="1.0" encoding="utf-8"?>
<!-- Generator: Adobe Illustrator 25.4.1, SVG Export Plug-In . SVG Version: 6.00 Build 0)  -->
<svg version="1.1" id="regalo" xmlns="http://www.w3.org/2000/svg" xmlns:xlink="http://www.w3.org/1999/xlink" x="0px" y="0px"
	 viewBox="0 0 1242 2208" style="enable-background:new 0 0 1242 2208;" xml:space="preserve">
<style type="text/css">
	.st0{enable-background:new    ;}
	.st1{fill:#4D4D4D;}
	.st2{fill:none;}
</style>
<script  type="text/ecmascript">
	<![CDATA[
      function changerect(evt) {
		navigator.clipboard.writeText("11111111111111111111").then(function() {
          /* Alert the copied text */
          alert("Cuenta: 1111 1111 1111 1111 1111");
        });
      }
	]]>
</script>
<g class="st0">
	<path class="st1" d="M485.1,589.5c26.3-13.7,27.7-20.4,30.5-24.4c0.8-1.8,2.4-4,5-1.4c3,3,1.5,8,1.5,8s-9.6,19.3-18.1,37.9
		c6.4-7.8,19.6-23.1,33.6-30.2c10.2-5.3,24.4-7.4,31.1,0.3c8.4,10.1,3.1,27-9.6,41.4c-17.9,20.4-38,25.7-42.6,28.5
		c9.9,0.3,20.7,8.8,20.3,22.5c-0.4,13.8-7.8,20-8.1,34.5c-0.3,14.5,15.4,10.6,30.1-21.6c12-26.3,15.9-33.6,20.7-34.4
		c-9.5,5.6-23.8,66.1-46.1,66c-14.5,0-12.3-21.3-5-40.1c7-17.8-5.6-28.9-20.4-23.5c-14.8,5.5-11.5-4.2-11.5-4.2s3-0.6,8-2.2
		c5-1.5,15.5-4,28.2-11.9c21.6-13.4,31.3-26.3,34.5-41.7c3.9-17.9-11.3-19.4-24.9-13.4c-20.1,8.8-41.5,38.6-41.5,38.6l-1,1
		c-1.5,3.5-3,6.8-4.2,9.8c-8.3,20.1-26.4,69.2-39.7,80.3c-11.9,9.9-19.3-0.4-17.3-13.3c3.6-24.6,23.2-49.8,50.6-72.8
		c5.9-14.1,12.9-29.6,21-46.5c-26,26.4-86.1,27.5-87.5,71.7C419.9,614.1,452.7,606.3,485.1,589.5z M441.1,702.1
		c0.1,9.9,6.8,9.9,13.8-0.6c7-10.6,14.7-27.1,23.8-52.1c2.7-7,5.6-14.5,9.1-22.4C464.1,648.8,440.7,676.4,441.1,702.1z"/>
	<path class="st1" d="M572.3,667.4c-2.7,12.7,4.3,17.8,11.7,14.8c12.3-4.9,23.9-31.7,32.6-31.6c-8.4,7.8-9.2,10.2-15,17.8
		c-7.7,9.8-15.5,18.2-25,17.3c-12.4-1.4-14-16.9-10.8-24.3c3.2-7.7,9.9-16.3,20.4-16.9c8.7-0.4,12,7.7,3.6,14.7
		c-5,4.2-12.3,6-17.2,7C572.7,666.4,572.3,667.2,572.3,667.4z M579.5,662.6c13.4-4.5,15.8-14.7,8.8-12.9c0,0-10.9,1.4-15.1,14.7
		C574.8,663.9,577.2,663.4,579.5,662.6z"/>
</g>
<g class="st0">
	<path class="st1" d="M619.9,680.2c6.6-1.8,11.9-1.5,15.6,0.3c16.1-10.2,25.4-17.3,32.9-30.9c-1.7,10.8-14.6,21.5-31,32.1
		c7.2,4.9,9,15.6,7.2,24.5c-3.1,15.9-12.6,29.5-30.2,40.3c-13.2,8.2-31,10.2-37.7,5.5c-17.6-12.2,7.6-39.3,26.4-51.4
		c11.7-7.6,21.1-13.6,29.1-18.3c-2.8-1.1-6.6-1.7-11.5-0.4c-7.9,1.8-13.3,4.1-13.3,4.1S612.9,682,619.9,680.2z M605.1,702.6
		c-40.7,26.8-39.9,59.8-6.8,44.7c37.5-17.4,42.7-43.8,41-55c-0.4-3-1.8-6.3-4.7-8.2C625.3,689.9,615,696,605.1,702.6z M636.3,647.6
		c0.8,0.4,1.8,1.4,2.4,2.8c2.8,8.5-7.2,21.8-19.3,28.5c-10.9,6-18.2,3.5-20-5.7c-2.7-15,14.9-26.8,23-28.9c3.5-1,6.3-1.1,8.4-1.1
		C636.3,643.2,637.8,646.1,636.3,647.6z M613.2,658.4c-8.8,9.3-10.6,20.6-3.8,20.1c7.1-0.4,14.7-5.7,21.5-14
		c5.4-6.8,5.1-13.7,3.5-16.4C631.6,648.2,621.8,649.7,613.2,658.4z"/>
</g>
<g class="st0">
	<path class="st1" d="M689.3,690c9.5-14,21.1-37.7,29.2-39.5c-8.3,9.5-10.5,13.8-15.2,21.5c-9.2,14.8-14.1,24.7-19.4,23.9
		c-5.9-1-11.5-8.8-5.3-25.6c0.1-0.6,0.4-1.4,0.6-2c-6.8,8.3-13.3,16.3-19.6,9.2c-6.5-7.3-0.1-20.4,5.8-26c4.3-4,12.4-7.4,21.1-5.3
		c9.6,2.5,2.4,2.5,2.4,2.5s-12.3-2.7-21.1,11.5c-6.5,10.5-2.8,20,2.4,15.1c2.8-2.7,9.1-10.5,13.8-16.6c2.5-4,5.2-8.8,7.7-8.8
		c2.5-0.1,8.7,0.6,3.1,7.7C679.5,677.1,679.1,704.8,689.3,690z"/>
	<path class="st1" d="M707.3,697.2c-0.4,4.9,0.1,8.7,4.5,2.5c12.9-18.1,28.8-42.9,42.1-48.9c-9.2,8.4-20.7,21.8-30.2,35.8
		c-12.9,19.1-14.8,20.3-18.3,18.2c-6.8-3.5-3.5-23.2,0.6-36.7c5-16.2,18.1-48.4,32.9-69.6c7.1-10.2,13.3-18.2,19.6-22.4
		c5-3.5,11.3-4.9,14.7,0.1c7.3,10.9-33.8,58-46.1,69.2c-2.4,2.2-4,3.6-5.3,4.6C711.4,674.3,708.4,688.3,707.3,697.2z M729,633.9
		c-2,4.2-3.9,8.1-5.5,11.9c6.5-6.7,18.3-19.3,25.4-28.2c15.9-20.4,21-30.6,22.1-35.4c2.8-11.7-9.1,0.4-12.3,4.2
		C753.3,592.4,742.7,606,729,633.9z"/>
	<path class="st1" d="M753.7,641.5c7.4-0.1,13.4,4.3,13.4,16.2c0,3.5-0.8,8.3-2.2,12.9c2.4-1,4.9-2.5,7.3-4.5
		c9.9-8,12.3-15.9,17.5-15.4c-5.5,4.2-10.1,13.8-19.4,19.4c-1.8,1.1-3.9,2-5.9,2.7c-3.6,11.2-10.8,22.2-19,21.9
		c-11.7-0.3-12.4-15.5-7-26.4c0.6-1.4,1.4-2.7,2-3.9C733.6,651.6,744.6,641.6,753.7,641.5z M745.9,670.7c-1.7,3-3,5.9-3.9,9.1
		c-2.2,8.1,2,16.9,9.2,10.6c3.5-3.1,7.4-9.6,10.2-16.9C756.1,674.4,750.5,673.9,745.9,670.7z M751.2,650.7c4.5-0.6,5,3.6,4.6,6
		c0,0.1-4.9,5.3-8.8,12c3.9,3,9.3,4.2,15.2,2.7c3.5-9.9,4.5-20.7-1.4-25.6c-7.8-6.7-17.2,1-18.8,6.7c-0.8,3.1-0.8,6.4,0,9.1
		C746.4,654.7,749.9,650.8,751.2,650.7z"/>
</g>
<g>
	<path class="st1" d="M738.7,403.7c-0.2-0.6-0.8-1.1-1.5-1.3l-48.9-3c-0.3,0-0.5,0-1-0.1c0.1-0.6,0.1-1.6,0.2-2.5
		c0.2-4.5,0.4-9.1,0.6-13.6c0.1-2.3,0.2-4.5,0.3-6.8c0.3-6.3-3.2-9.7-10.7-10.1c-2.8-0.2-5.6,0-8.5,0.1c-2.3,0.1-4.6,0.2-6.4,0.1
		c-0.4,0-1,0-1.5-0.1c0.3-0.1,0.6-0.2,1.1-0.3c3.9-1.1,8.8-2.8,12.5-6.4c0.8-0.8,2-2,2.5-3.9c0.3-1.4,0.2-2.7,0.1-4
		c-1.6-11.5-4.5-20.1-10.4-30.6l-0.1,0.1c-1.6-4.7-5.6-8.7-10.6-9.7c-7.6-1.5-14.3,3.5-19,7.3c-7.6,6.6-14.2,14-20,22.3
		c-2.8,4.1-5.3,8.4-7.7,13.2c0,0-0.8,1.8-1.3,3.8c-0.4-0.2-1.1-0.3-1.6-0.3c-2-0.2-3.9,0.3-5.4,1.1c-0.3-2.3-1.4-4.5-1.4-4.5
		c-2.3-4.7-5-9.2-7.7-13.2c-5.6-8.3-12.3-15.8-20-22.3c-4.5-3.9-11.4-8.8-19-7.3c-5,1-9.1,4.9-10.6,9.7l-0.1-0.1
		c-6,10.6-9,19.2-10.4,30.6c-0.1,1.3-0.2,2.7,0.1,4c0.4,1.7,1.7,3,2.5,3.9c3.8,3.5,8.5,5.2,12.5,6.4c0.6,0.2,1.5,0.3,2.2,0.5
		c-1,0-2-0.1-3.2-0.2c-5.3-0.3-13.9-1.4-17.3,1.8c-1.8,1.7-2.8,4.1-2.8,7.3c0,3-0.1,6.3-0.2,9.3c-0.1,3.6-0.2,7.4-0.2,11
		c-0.4,0.2-1,0.3-1.6,0.5c-4,1.5-8.7,3-13.7,3.2c-4.4,0.2-7.7,0.2-10.2-0.1c-0.1,0-0.4,0-0.6-0.1c-4-0.4-9.1-3-12.7-2.8
		c0.4,0,7.7,12.5,8.7,13.9c2.8,4.1,4.7,8.5,7.6,12.5c1.9,2.7,11.8-1.8,14.1-2.4c8.7-2.4,17.6-4.9,26.3-9
		c-0.5,11.9-1.1,23.9-1.4,35.9c-0.2,8.3,0.4,16.7,1.1,24.8c0.4,7,1.1,14.2,1.1,21.4c0.1,9.2,10.6,13.1,20.4,13.7
		c16.6,1,33,1.1,48.7,1.3c7,0,14.5-0.2,23.8-0.6c2.4-0.1,5,0.1,7.7,0.4c2.4,0.2,5,0.5,7.3,0.5c3,0,5.8-0.3,8.7-1.8
		c3.5-1.7,6.3-5.3,7.6-10.7l0,0c1.9-7.2,1.8-15.2,1.6-23c0-2.4-0.1-4.6-0.1-6.8c0-3.9-0.1-7.9-0.2-11.8c-0.2-6.8-0.3-13.7,0.1-20.3
		c0.4-6.4,0.5-12.8,0.4-20c2.5,1.7,5.2,3,8.1,3.9c5.6,1.7,11.7,1.5,17.3,1.3c1.7-0.1,3.3-0.1,5-0.2c9-0.1,15.2,1.8,19.2,6
		c0.2,0.2,0.5,0.4,1,0.4c0.1,0,0.2,0,0.3,0c0.4,0,1-0.3,1.4-0.8c4.6-7,9.8-13.8,15.2-20.1C738.7,405.1,738.9,404.4,738.7,403.7z
		 M662.7,370.9c1.9,0.1,4.4,0,6.8-0.1c2.8-0.1,5.5-0.3,8.1-0.1c6,0.4,7.1,2.7,7,5.7c-0.1,2.3-0.2,4.5-0.3,6.8
		c-0.2,4.5-0.4,9-0.6,13.6c0,0.6-0.1,1.6-0.2,2.4c-2.5-0.2-5.2-0.6-7.6-1.6c-6.8-2.3-12-7.4-17.6-13.1c-2.7-2.7-5.4-5.3-8.3-7.6
		c-2.4-2-5.6-4.2-9.3-6.3c1.8-0.1,3.6-0.3,5.5-0.5C651.9,370.2,657.4,370.5,662.7,370.9z M667.4,330.4c3.3,7.2,5.3,14,6.5,22.4
		c0.1,0.8,0.2,1.7,0,2.3c-0.1,0.5-0.5,1.3-1.4,1.9c-3,2.9-7.3,4.4-10.7,5.3c-10.8,3-20.4,4.5-28.8,4.5c-5.2-2.2-10.6-3.6-15.6-3.6
		c2-0.3,4.2-0.4,6.5-0.4c11.9-3.9,21.7-10.4,32.8-19C661.2,340.1,665.8,335.8,667.4,330.4z M663.9,327.2c-0.5,5.3-5.2,9.6-10,13.3
		c-9.1,7.1-17.3,12.6-26.4,16.5c7.7-14.5,21-26.2,36.5-31.9C664,325.7,664,326.5,663.9,327.2z M614.1,356.7
		c2.3-4.6,4.7-8.8,7.3-12.6c5.4-8,11.9-15.2,19.2-21.5c6.3-5.2,10.9-7.2,15.4-6.5c2.8,0.4,5.2,2.5,6.7,5.1
		c-17.8,6.6-32.9,20.5-40.9,37.9l0,0c-2.9,1-5.7,1.7-9,2.3l0,0C612.8,360.3,613.3,357.9,614.1,356.7z M603.5,363.2
		c1.4-0.5,2.4-1,3.5-0.8c0.8,0.1,1.7,0.6,2.3,1.7c0.1,0.2,0.2,0.4,0.3,0.8c-0.1,0.1-0.2,0.2-0.2,0.3c-1.9,0-3.9,0-5.6,0
		C603.5,364.6,603.4,363.7,603.5,363.2z M594.4,373c1.3-1,3-2.3,4.4-3.1c-1.3,10.7-2.2,21.5-2.9,32.4c-10.2,0.1-20.5,0.3-30.5,0.4
		c-2.2,0-4.4,0.1-6.6,0.1c3-2.7,5.6-5.5,8.3-8.3c3-3.1,6.3-6.5,9.7-9.4c4.4-3.6,9.4-6.7,13.8-9.2C591.1,375.2,592.4,374.5,594.4,373
		z M555,316.1c0.5-0.1,1.4-0.2,1.9-0.2c3.9,0,8.2,2.2,13.6,6.7c7.2,6.4,13.8,13.6,19.2,21.5c2.7,3.9,5.2,8.2,7.3,12.6
		c0.5,1.3,1.3,3.5,1.1,4.5l0,0c-3-0.5-5.8-1.4-9.1-2.3h0.1c-7.7-17.3-22.9-31.4-40.9-37.9C549.6,318.5,552.1,316.6,555,316.1z
		 M547,325.1c15.4,5.6,28.9,17.4,36.5,32c-7.3-3.1-15.5-8-26.4-16.6c-4.9-3.8-9.4-8-10-13.3C546.9,326.5,546.9,325.7,547,325.1z
		 M549.1,362.4c-3.3-1-7.7-2.4-10.7-5.3c-0.6-0.6-1.3-1.4-1.4-1.9s-0.1-1.5,0-2.3c1.1-8.3,3-15.2,6.5-22.4
		c1.7,5.4,6.4,9.6,10.9,13.3c13.2,10.2,24.6,17.5,39.6,20.8c-1.3,0.3-2.4,0.5-3.6,1c-1.7,0.2-3.3,0.4-5.1,0.8
		C575.1,367.7,563.3,366.3,549.1,362.4z M530.8,385.3c0.1-3.1,0.2-6.4,0.2-9.3c0-2,0.4-3.5,1.5-4.4c2.2-1.9,9.7-1.1,14.1-0.6
		c2.2,0.1,4.5,0.3,6.6,0.2c4.6-0.2,9.2-0.4,14-0.6c1.7,0.2,3.3,0.3,5.1,0.4c-6.6,2.9-12.8,6.8-19.5,10.8c-0.8,0.4-1.7,1-2.4,1.6
		c-6.5,4-13.1,8.1-19.7,11.4C530.6,391.3,530.7,388.3,530.8,385.3z M516.8,417.6c-3.8,1-7.6,2-11.5,3.2c-0.4-1.9-2-5.1-5.8-11
		c-1.6-2.5-3.2-5-4.7-6.9c1.4,0.2,3,0.4,5,0.6c0.3,0,0.5,0.1,0.6,0.1c2.9,0.3,6.5,0.4,10.9,0.2c5.4-0.2,10.5-1.9,14.8-3.5
		c9.1-3.3,17.7-8.8,26.1-14c0.8-0.4,1.7-1,2.4-1.6c13.1-8.1,25.1-15,38.7-15.8c-0.4,0.3-0.8,0.6-1.5,1.1c-1.5,1.1-2.9,2.2-3.5,2.5
		c-4.6,2.7-9.8,5.7-14.3,9.7c-3.8,3.1-6.9,6.6-10,9.8c-5.2,5.4-10.1,10.6-17,14.6C537.4,411.9,527.4,414.7,516.8,417.6z
		 M565.5,503.8c-1.7-0.1-16.6-1.3-16.6-9.6c0-7.2-0.5-14.6-1.1-21.8c-0.5-8-1.3-16.3-1.1-24.4c0.2-12.6,0.8-25.6,1.5-38.1
		c0.2-0.1,0.4-0.2,0.8-0.4c1.6-0.8,2.9-1.8,4.4-2.8c4,0,7.9-0.1,11.9-0.1c9.9-0.1,20.1-0.2,30.2-0.4c-2,32.8-1.7,65.8,0.8,98.6
		C586.2,504.7,575.9,504.5,565.5,503.8z M613,505c-4.1,0-8.3,0-12.5-0.1C597.8,472.1,600,402,600,402c0.6-10.9,1.7-21.9,3-32.8
		c2.9,0,5.7,0,8.5,0c0.6,10.8,1.5,21.8,1.9,32.6C613,401.9,614.6,472,613,505z M666.2,434.8c-0.4,6.9-0.2,13.9-0.1,20.7
		c0.1,3.9,0.2,7.7,0.2,11.7c0,2.3,0,4.5,0.1,6.9c0.2,7.4,0.3,15.2-1.5,21.9l0,0c-1.3,4.2-3,7-5.4,8.2c-4,1.9-9,1.4-13.8,0.8
		c-2.3-0.2-4.7-0.4-7-0.4c-0.4,0-1,0-1.4,0c-7.7,0.3-14.2,0.5-20.3,0.5c1.6-32.8,1.7-66,0.3-99.1c9.1-0.1,18.2,0.3,27.2,0.6
		c1.6,0.1,3,0.1,4.6,0.2c4.1,0.1,8.1,0.2,12,0.1c1.7,1.8,3.5,3.5,5.4,5.1C666.8,420.1,666.6,427.6,666.2,434.8z M615.7,371.8
		c2.3,1.4,4.7,2.5,7.1,3.8c3.2,1.7,6.8,3.3,9.8,5.4c7.2,4.9,14,10.5,20.1,16.8c1.4,1.4,2.7,2.8,3.9,4.1c0.2,0.3,0.5,0.5,0.8,1
		c-2.7,0-5.3,0-8-0.1c-1.6-0.1-3-0.1-4.6-0.2c-9.1-0.3-18.2-0.6-27.5-0.6C616.9,391.8,616.4,381.8,615.7,371.8z M721.3,421.9
		c-3.2-2.8-7.4-4.5-12.8-5.2c-2.2-0.2-4.6-0.3-7.2-0.3c-1.7,0-3.3,0.1-5.1,0.2c-5.6,0.2-11,0.4-16.2-1.1
		c-8.2-2.5-14.8-9.4-20.8-16.2c-1.4-1.4-2.7-2.8-4-4.2c-6.4-6.6-13.2-12.3-20.6-17.3c-3.2-2.2-6.8-4-10.1-5.6
		c-3-1.6-6.4-3.1-9.2-5.1c10.2-1.1,24.6,6.4,32.6,12.7c2.8,2.3,5.4,4.9,8.1,7.4c5.5,5.5,11.4,11.3,18.9,13.8c4.5,1.6,9.1,1.8,13.6,2
		l45.1,2.8C728.9,411.1,725,416.4,721.3,421.9z"/>
</g>
<a onclick="changerect()" pointer-events="all">
	<g>
		<rect x="428.9" y="1349" class="st2" width="368.3" height="192.3"/>
		<path class="st1" d="M460.9,1392.6h15.5h2.4v2.4v94.1c0,3.2,1.4,6,3.3,8.2c2.2,2.2,5,3.3,8.2,3.3h59.3h2.4v2.4v10
			c0,4.6-1.9,8.7-5,11.9c-3.1,3.1-7.2,5-11.9,5h-74.8c-4.6,0-8.7-1.9-11.9-5c-3.1-3.1-5-7.2-5-11.9v-103.9c0-4.6,1.9-8.7,5-11.9
			C451.9,1394.4,456.4,1392.6,460.9,1392.6L460.9,1392.6z M474,1397.4h-13.1c-3.2,0-6,1.4-8.2,3.3c-2.2,2.2-3.5,5-3.5,8.2v103.9
			c0,3.2,1.4,6,3.5,8.2c2.2,2.2,5,3.3,8.2,3.3h75c3.2,0,6-1.4,8.2-3.3c2.2-2.2,3.3-5,3.3-8.2v-7.4h-57c-4.6,0-8.7-1.9-11.9-5
			c-3.1-3.1-5-7.2-5-11.9v-91.2H474L474,1397.4z"/>
		<g>
			<g>
				<g>
					<g class="st0">
						<path class="st1" d="M635.5,1416.4l1,14.3h-1c-1.4-4.5-3.2-7.3-5.5-9.3c-2.4-1.9-5.2-2.8-8.5-2.8c-2.8,0-5.2,0.8-7.4,2.2
							c-2.3,1.4-4,3.8-5.2,6.9c-1.4,3.1-1.9,7-1.9,11.7c0,3.8,0.4,7.2,1.9,9.8c1.1,2.8,3.1,5,5.5,6.5c2.4,1.5,5.2,2.3,8.3,2.3
							c2.8,0,5.1-0.4,7.2-1.6c2.2-1.1,4.5-3.3,7-7l1,0.4c-2.2,3.8-4.6,6.5-7.3,8.3c-2.8,1.6-6.4,2.7-10,2.7c-7,0-12.3-2.7-16.5-7.9
							c-2.8-3.8-4.5-8.3-4.5-13.7c0-4.1,1-8.2,2.8-11.7c1.9-3.6,4.6-6.4,7.9-8.2c3.3-1.9,7-2.8,10.8-2.8c3.1,0,6,0.8,9.2,2.3
							c1,0.3,1.5,0.8,1.9,0.8c0.4,0,1.1-0.1,1.5-0.4c0.4-0.4,1-1.4,1.1-2.3h1v-0.4H635.5L635.5,1416.4L635.5,1416.4z"/>
						<path class="st1" d="M655.6,1430.5c4.5,0,7.9,1.6,10.5,5c2.3,2.8,3.3,6,3.3,9.7c0,2.4-0.4,5.1-1.9,7.9
							c-1.4,2.7-2.8,4.6-5.1,5.8c-2.2,1.4-4.6,2.2-7.2,2.2c-4.5,0-7.9-1.6-10.2-5.1c-2.2-2.8-3.2-6-3.2-9.7c0-2.7,0.4-5.2,1.9-7.9
							c1.4-2.4,3.1-4.6,5.1-5.7C651.1,1431,653.5,1430.5,655.6,1430.5z M654.7,1432.5c-1.1,0-2.3,0.3-3.2,1
							c-1.1,0.4-2.2,1.9-2.7,3.3c-0.8,1.6-1,3.8-1,6.4c0,4.1,0.8,7.9,2.4,10.8c1.6,3.1,3.8,4.6,6.8,4.6c2.2,0,3.6-0.8,5-2.4
							c1.4-1.6,1.9-4.6,1.9-8.5c0-5.1-1.1-9.2-3.2-12C659,1433.3,656.9,1432.5,654.7,1432.5z"/>
						<path class="st1" d="M671.5,1434.1l8.7-3.6h1.1v6.8c1.5-2.4,3.1-4.1,4.5-5.2c1.5-1,3.1-1.5,4.7-1.5c2.8,0,5.2,1.1,7.2,3.3
							c2.3,2.7,3.6,6.4,3.6,10.8c0,5-1.4,8.8-4.1,12.1c-2.3,2.7-5.2,4-8.7,4c-1.5,0-2.8-0.1-4-0.4c-0.8-0.3-1.6-1-2.8-1.9v8.7
							c0,1.9,0.1,3.2,0.3,3.8c0.1,0.4,0.4,1,1.4,1.4c0.4,0.3,1.6,0.3,3.2,0.3v1.1h-15.1v-1.1h0.8c1.1,0,2.2-0.1,3.1-0.4
							c0.3-0.1,0.8-0.4,1-1.1c0.1-0.4,0.3-1.9,0.3-4v-27.1c0-1.9,0-3.1-0.1-3.6c-0.1-0.4-0.3-1-0.8-1.1c-0.3-0.1-0.8-0.3-1.5-0.3
							c-0.4,0-1.1,0.1-1.9,0.3L671.5,1434.1z M681.6,1439.2v10.6c0,2.3,0,3.8,0.1,4.6c0.3,1.1,1,2.3,2.2,3.2s2.4,1.4,4.5,1.4
							s3.8-0.8,5.1-2.4c1.6-2.2,2.4-5.1,2.4-8.8c0-4.5-1-7.9-2.8-10c-1.4-1.5-2.8-2.4-4.7-2.4c-1,0-1.9,0.1-3.1,0.8
							C684.6,1436,683.4,1437,681.6,1439.2z"/>
						<path class="st1" d="M715.5,1430.5v22.9c0,1.9,0.1,3.1,0.3,3.6c0.1,0.4,0.4,1,1.1,1.4c0.4,0.3,1.5,0.3,2.8,0.3v1.1h-13.9v-1.1
							c1.4,0,2.3-0.1,2.8-0.3c0.4-0.1,0.8-0.8,1.1-1.4c0.1-0.4,0.3-1.9,0.3-3.6v-10.9c0-3.1,0-5.1-0.1-6c-0.1-0.8-0.3-1.1-0.8-1.4
							c-0.3-0.1-0.8-0.3-1.4-0.3c-0.4,0-1.4,0.1-2.2,0.3l-0.3-1.1l8.5-3.3L715.5,1430.5L715.5,1430.5z M713,1415.4
							c1,0,1.6,0.3,2.3,1c0.4,0.4,1,1.4,1,2.3c0,0.8-0.3,1.5-1,2.3c-0.4,0.4-1.4,1-2.3,1c-1,0-1.6-0.3-2.3-1c-0.4-0.4-1-1.4-1-2.3
							c0-0.9,0.3-1.6,1-2.3C711.3,1415.7,711.9,1415.4,713,1415.4z"/>
						<path class="st1" d="M739.6,1455.7c-2.8,2.3-4.7,3.6-5.5,4c-1.1,0.4-2.3,0.8-3.6,0.8c-1.9,0-3.6-0.8-5-2.2
							c-1.4-1.4-1.9-3.1-1.9-5.2c0-1.4,0.3-2.7,1-3.6c0.8-1.4,2.3-2.8,4.5-4c2.2-1.1,5.7-2.8,10.5-4.6v-1.1c0-2.8-0.3-4.7-1.4-5.8
							c-1-1.1-2.3-1.5-4-1.5c-1.4,0-2.3,0.3-3.1,1.1c-0.8,0.8-1.1,1.5-1.1,2.4v1.9c0,1-0.1,1.6-0.8,2.3c-0.4,0.4-1.1,0.8-1.9,0.8
							c-0.8,0-1.4-0.1-1.9-0.8c-0.4-0.4-0.8-1.4-0.8-2.3c0-1.6,1-3.3,2.7-5c1.9-1.5,4.5-2.3,7.9-2.3c2.4,0,4.6,0.3,6.4,1.4
							c1.1,0.4,2.2,1.6,2.7,3.1c0.3,1,0.4,2.7,0.4,5.5v9.7c0,2.7,0,4.5,0.1,5c0.1,0.4,0.1,1,0.4,1.4c0.1,0.1,0.4,0.3,0.8,0.3
							c0.3,0,0.4,0,0.8-0.1c0.3-0.1,1.4-1,2.4-2.3v1.6c-2.3,3.1-4.6,4.7-6.8,4.7c-1,0-1.9-0.3-2.4-1.1
							C740,1458.6,739.6,1457.3,739.6,1455.7z M739.6,1453.5v-10.8c-3.1,1.4-5.1,2.2-6,2.7c-1.6,1-2.8,1.9-3.3,2.8
							c-0.8,1-1.1,2.2-1.1,3.2c0,1.5,0.3,2.7,1.4,3.8c1,1.1,1.9,1.5,3.1,1.5C734.9,1456.7,737.1,1455.8,739.6,1453.5z"/>
						<path class="st1" d="M759.9,1430.5v6.5c2.4-4.5,5-6.5,7.3-6.5c1.1,0,2.2,0.3,2.8,1.1c0.8,0.8,1.1,1.5,1.1,2.4
							c0,0.8-0.1,1.5-0.8,2.2c-0.4,0.4-1.1,0.8-1.9,0.8s-1.5-0.3-2.4-1.1c-1-0.8-1.5-1.1-1.9-1.1c-0.3,0-0.8,0.1-1.4,0.4
							c-1,0.8-1.9,2.3-2.8,4.1v13.7c0,1.5,0.1,2.8,0.4,3.6c0.1,0.4,0.8,1,1.4,1.4c0.8,0.3,1.6,0.4,3.1,0.4v1.1h-14.6v-1.1
							c1.5,0,2.4-0.1,3.2-0.8c0.4-0.3,1-1,1.1-1.5c0.1-0.3,0.1-1.4,0.1-3.1v-10.9c0-3.2,0-5.2-0.1-5.8c-0.1-0.4-0.3-1.1-0.8-1.4
							c-0.4-0.3-0.8-0.3-1.4-0.3c-0.5,0-1.4,0.1-2.2,0.3l-0.3-1.1l8.7-3.3h1.1L759.9,1430.5L759.9,1430.5L759.9,1430.5L759.9,1430.5
							z"/>
					</g>
				</g>
			</g>
		</g>
		<path class="st2" d="M566.3,1502.7H492c-7,0-12.8-5.7-12.8-12.8v-105.5c0-7,5.7-12.8,12.8-12.8h74.3c7,0,12.8,5.7,12.8,12.8v105.5
			C579.2,1497,573.4,1502.7,566.3,1502.7z"/>
		<path class="st1" d="M490.5,1368.6h75c4.6,0,8.7,1.9,11.9,5c3.1,3.1,5,7.2,5,11.9v103.9c0,4.6-1.9,8.7-5,11.9s-7.2,5-11.9,5h-75
			c-4.6,0-8.7-1.9-11.9-5c-3.1-3.1-5-7.2-5-11.9v-103.9c0-4.6,1.9-8.7,5-11.9C481.7,1370.3,485.9,1368.6,490.5,1368.6L490.5,1368.6z
			 M565.2,1373.6h-75c-3.2,0-6,1.4-8.2,3.3c-2.2,2.2-3.5,5-3.5,8.2V1489c0,3.2,1.4,6,3.5,8.2c2.2,2.2,5,3.3,8.2,3.3h75
			c3.2,0,6-1.4,8.2-3.3c2.2-2.2,3.3-5,3.3-8.2v-103.9c0-3.2-1.4-6-3.3-8.2C571.3,1374.8,568.5,1373.6,565.2,1373.6z"/>
	</g>
</a>
<g>
	<g class="st0">
		<path class="st1" d="M230.3,1220.9v17h9.5c2.5,0,4.2-0.3,5-1.1c1.1-1,1.7-2.7,1.8-5.1h1.3v15h-1.3c-0.3-2.2-0.5-3.5-0.9-4.1
			c-0.3-0.8-1-1.4-1.8-1.8c-0.9-0.4-2.3-0.6-4.1-0.6h-9.5v14.2c0,1.9,0.1,3,0.2,3.5c0.1,0.4,0.4,0.6,0.9,1c0.4,0.2,1.3,0.3,2.5,0.3
			h7.3c2.4,0,4.2-0.1,5.3-0.4c1.1-0.3,2.2-1,3.1-2c1.4-1.4,2.7-3.2,4.1-5.9h1.3l-3.8,10.8h-33.1v-1.3h1.5c1,0,2-0.2,2.9-0.6
			c0.6-0.3,1.1-0.9,1.4-1.6c0.3-0.8,0.3-2,0.3-4.2v-28c0-2.7-0.2-4.4-0.8-5.1c-0.8-0.8-2-1.3-3.9-1.3h-1.5v-1.3h33.1l0.4,9.5h-1.3
			c-0.4-2.3-0.9-3.9-1.5-4.7c-0.5-0.8-1.4-1.5-2.4-1.9c-0.9-0.3-2.4-0.4-4.5-0.4H230v0.4H230.3z"/>
		<path class="st1" d="M285.1,1217.5v14.9h-1.3c-0.3-2.8-1-5.2-2-6.9c-1-1.7-2.4-3-4.2-4.1c-1.8-1-3.8-1.5-5.6-1.5
			c-2.2,0-4,0.6-5.4,2c-1.5,1.4-2.2,2.8-2.2,4.6c0,1.4,0.4,2.5,1.4,3.6c1.4,1.6,4.4,3.8,9.4,6.4c4.1,2.2,6.8,3.9,8.2,5
			c1.4,1.1,2.6,2.5,3.3,4.1c0.8,1.6,1.3,3.1,1.3,5c0,3.2-1.3,6-3.9,8.4c-2.6,2.4-5.7,3.6-9.7,3.6c-1.3,0-2.5-0.1-3.6-0.2
			c-0.6-0.1-2-0.4-4.1-1.1c-2-0.6-3.3-1-4-1c-0.5,0-0.9,0.1-1.3,0.4c-0.3,0.3-0.5,1-0.6,2h-1.1v-14.8h1.1c0.5,3,1.3,5.4,2.3,6.9
			c0.9,1.6,2.4,2.8,4.3,3.9c1.9,1.1,4.1,1.5,6.4,1.5c2.6,0,4.7-0.6,6.3-2.2c1.6-1.4,2.3-3,2.3-5c0-1-0.3-2.2-0.9-3.1
			c-0.5-1.1-1.5-2-2.7-3c-0.8-0.6-3-2-6.8-4.1c-3.8-2-6.4-3.8-7.9-5c-1.6-1.3-2.7-2.6-3.6-4.1c-0.8-1.5-1.3-3.1-1.3-4.9
			c0-3.1,1.3-5.7,3.6-8c2.4-2.3,5.4-3.3,9.2-3.3c2.3,0,4.7,0.5,7.2,1.7c1.3,0.5,2,0.8,2.5,0.8c0.5,0,1-0.1,1.4-0.4
			c0.3-0.3,0.6-1,0.9-2L285.1,1217.5L285.1,1217.5z"/>
		<path class="st1" d="M292.7,1240.3c0-5,0.8-9.2,2.3-12.7c1.5-3.5,3.5-6.3,5.9-7.9c1.9-1.4,3.9-2,5.8-2c3.2,0,6.4,1.7,9,5.1
			c3.2,4.2,5,9.8,5,17c0,5-0.6,9.3-2.2,12.7s-3.2,5.9-5.5,7.6c-2.3,1.6-4.4,2.4-6.5,2.4c-4.1,0-7.6-2.4-10.2-7.2
			C293.8,1251,292.7,1246.1,292.7,1240.3z M299,1241.1c0,5.9,0.8,10.7,2.3,14.6c1.3,3.1,3,4.7,5.4,4.7c1.1,0,2.4-0.5,3.6-1.6
			c1.3-1,2.2-2.7,2.8-5.2c1-3.6,1.5-8.8,1.5-15.4c0-4.9-0.5-9.1-1.6-12.3c-0.8-2.5-1.8-4.2-2.9-5.2c-0.9-0.6-1.9-1-3.1-1
			c-1.5,0-2.7,0.6-3.9,1.9c-1.6,1.8-2.6,4.5-3.1,8.3C299.2,1233.8,299,1237.4,299,1241.1z"/>
		<path class="st1" d="M350,1218.5l-2.5,5.4h-12.9l-2.8,5.7c5.6,0.8,10,2.9,13.3,6.3c2.8,2.9,4.2,6.4,4.2,10.1
			c0,2.3-0.4,4.4-1.4,6.4c-0.9,1.9-2,3.6-3.5,5c-1.4,1.4-2.9,2.5-4.7,3.2c-2.4,1.1-5,1.7-7.6,1.7s-4.5-0.4-5.6-1.4
			c-1.1-0.9-1.8-1.8-1.8-2.9c0-0.5,0.2-1.1,0.6-1.6c0.4-0.5,1.1-0.6,1.8-0.6c0.5,0,1,0.1,1.5,0.2c0.4,0.2,1.1,0.5,2.2,1.4
			c1.6,1.1,3.2,1.6,4.9,1.6c2.5,0,4.6-0.9,6.6-2.8c1.9-1.9,2.8-4.2,2.8-6.9c0-2.6-0.8-5.1-2.5-7.3c-1.7-2.3-4-4-6.9-5.2
			c-2.4-1-5.4-1.6-9.5-1.7l8.2-16.8H350L350,1218.5L350,1218.5z"/>
		<path class="st1" d="M375.9,1222.6l10.5-5.1h1v36.5c0,2.4,0.1,3.9,0.3,4.5c0.2,0.5,0.6,1,1.3,1.4c0.6,0.4,1.9,0.4,3.9,0.5v1.3
			h-16.3v-1.3c2,0,3.3-0.2,4-0.5c0.6-0.3,1-0.6,1.3-1.3c0.2-0.5,0.3-2,0.3-4.6v-23.3c0-3.1-0.1-5.2-0.3-6c-0.1-0.6-0.4-1.1-0.8-1.5
			c-0.4-0.3-0.9-0.4-1.5-0.4c-0.8,0-1.9,0.3-3.2,1L375.9,1222.6z"/>
		<path class="st1" d="M407.4,1222.6l10.5-5.1h1v36.5c0,2.4,0.1,3.9,0.3,4.5c0.2,0.5,0.6,1,1.3,1.4c0.6,0.4,1.9,0.4,3.9,0.5v1.3H408
			v-1.3c2,0,3.3-0.2,4-0.5c0.6-0.3,1-0.6,1.3-1.3c0.2-0.5,0.3-2,0.3-4.6v-23.3c0-3.1-0.1-5.2-0.3-6c-0.1-0.6-0.4-1.1-0.8-1.5
			c-0.4-0.3-0.9-0.4-1.5-0.4c-0.8,0-1.9,0.3-3.2,1L407.4,1222.6z"/>
		<path class="st1" d="M438.7,1222.6l10.5-5.1h1v36.5c0,2.4,0.1,3.9,0.3,4.5c0.2,0.5,0.6,1,1.3,1.4c0.5,0.3,1.9,0.4,3.9,0.5v1.3
			h-16.3v-1.3c2,0,3.3-0.2,4-0.5c0.6-0.3,1-0.6,1.3-1.3c0.2-0.5,0.3-2,0.3-4.6v-23.3c0-3.1-0.1-5.2-0.3-6c-0.1-0.6-0.4-1.1-0.8-1.5
			c-0.4-0.3-0.9-0.4-1.5-0.4c-0.8,0-1.9,0.3-3.2,1L438.7,1222.6z"/>
		<path class="st1" d="M470.2,1222.6l10.5-5.1h1v36.5c0,2.4,0.1,3.9,0.3,4.5c0.2,0.5,0.6,1,1.3,1.4c0.6,0.4,1.9,0.4,3.9,0.5v1.3
			h-16.3v-1.3c2,0,3.3-0.2,4-0.5c0.6-0.3,1-0.6,1.3-1.3c0.2-0.5,0.3-2,0.3-4.6v-23.3c0-3.1-0.1-5.2-0.3-6c-0.1-0.6-0.4-1.1-0.8-1.5
			c-0.4-0.3-0.9-0.4-1.5-0.4c-0.8,0-1.9,0.3-3.2,1L470.2,1222.6z"/>
		<path class="st1" d="M516.7,1222.6l10.5-5.1h1v36.5c0,2.4,0.1,3.9,0.3,4.5c0.2,0.5,0.6,1,1.3,1.4c0.5,0.3,1.9,0.4,3.9,0.5v1.3
			h-16.3v-1.3c2,0,3.3-0.2,4-0.5c0.5-0.3,1-0.6,1.3-1.3c0.2-0.5,0.3-2,0.3-4.6v-23.3c0-3.1-0.1-5.2-0.3-6c-0.1-0.6-0.4-1.1-0.8-1.5
			c-0.4-0.3-0.9-0.4-1.5-0.4c-0.8,0-1.9,0.3-3.2,1L516.7,1222.6z"/>
		<path class="st1" d="M548.2,1222.6l10.5-5.1h1v36.5c0,2.4,0.1,3.9,0.3,4.5c0.2,0.5,0.6,1,1.3,1.4c0.5,0.3,1.9,0.4,3.9,0.5v1.3
			h-16.3v-1.3c2,0,3.3-0.2,4-0.5c0.5-0.3,1-0.6,1.3-1.3c0.2-0.5,0.3-2,0.3-4.6v-23.3c0-3.1-0.1-5.2-0.3-6c-0.1-0.6-0.4-1.1-0.8-1.5
			c-0.4-0.3-0.9-0.4-1.5-0.4c-0.8,0-1.9,0.3-3.2,1L548.2,1222.6z"/>
		<path class="st1" d="M579.6,1222.6l10.5-5.1h1v36.5c0,2.4,0.1,3.9,0.3,4.5c0.2,0.5,0.6,1,1.3,1.4c0.5,0.3,1.9,0.4,3.9,0.5v1.3
			h-16.3v-1.3c2,0,3.3-0.2,4-0.5c0.5-0.3,1-0.6,1.3-1.3s0.3-2,0.3-4.6v-23.3c0-3.1-0.1-5.2-0.3-6c-0.1-0.6-0.4-1.1-0.8-1.5
			c-0.4-0.3-0.9-0.4-1.5-0.4c-0.8,0-1.9,0.3-3.2,1L579.6,1222.6z"/>
		<path class="st1" d="M610.9,1222.6l10.5-5.1h1v36.5c0,2.4,0.1,3.9,0.3,4.5c0.2,0.5,0.6,1,1.3,1.4c0.5,0.3,1.9,0.4,3.9,0.5v1.3
			h-16.3v-1.3c2,0,3.3-0.2,4-0.5c0.5-0.3,1-0.6,1.3-1.3c0.2-0.5,0.3-2,0.3-4.6v-23.3c0-3.1-0.1-5.2-0.3-6c-0.1-0.6-0.4-1.1-0.8-1.5
			c-0.4-0.3-0.9-0.4-1.5-0.4c-0.8,0-1.9,0.3-3.2,1L610.9,1222.6z"/>
		<path class="st1" d="M657.5,1222.6l10.5-5.1h1v36.5c0,2.4,0.1,3.9,0.3,4.5c0.2,0.5,0.6,1,1.3,1.4c0.5,0.3,1.9,0.4,3.9,0.5v1.3
			h-16.3v-1.3c2,0,3.3-0.2,4-0.5c0.5-0.3,1-0.6,1.3-1.3c0.2-0.5,0.3-2,0.3-4.6v-23.3c0-3.1-0.1-5.2-0.3-6c-0.1-0.6-0.4-1.1-0.8-1.5
			c-0.4-0.3-0.9-0.4-1.5-0.4c-0.8,0-1.9,0.3-3.2,1L657.5,1222.6z"/>
		<path class="st1" d="M688.9,1222.6l10.5-5.1h1v36.5c0,2.4,0.1,3.9,0.3,4.5c0.2,0.5,0.6,1,1.3,1.4c0.5,0.3,1.9,0.4,3.9,0.5v1.3
			h-16.2v-1.3c2,0,3.3-0.2,4-0.5c0.5-0.3,1-0.6,1.3-1.3c0.2-0.5,0.3-2,0.3-4.6v-23.3c0-3.1-0.1-5.2-0.3-6c-0.1-0.6-0.4-1.1-0.8-1.5
			c-0.4-0.3-0.9-0.4-1.5-0.4c-0.8,0-1.9,0.3-3.2,1L688.9,1222.6z"/>
		<path class="st1" d="M720.4,1222.6l10.5-5.1h1v36.5c0,2.4,0.1,3.9,0.3,4.5c0.2,0.5,0.6,1,1.3,1.4c0.6,0.3,1.9,0.4,3.9,0.5v1.3H721
			v-1.3c2,0,3.3-0.2,4-0.5c0.5-0.3,1-0.6,1.3-1.3c0.2-0.5,0.3-2,0.3-4.6v-23.3c0-3.1-0.1-5.2-0.3-6c-0.1-0.6-0.4-1.1-0.8-1.5
			c-0.4-0.3-0.9-0.4-1.5-0.4c-0.8,0-1.9,0.3-3.2,1L720.4,1222.6z"/>
		<path class="st1" d="M751.7,1222.6l10.5-5.1h1v36.5c0,2.4,0.1,3.9,0.3,4.5c0.2,0.5,0.6,1,1.3,1.4c0.5,0.3,1.9,0.4,3.9,0.5v1.3
			h-16.3v-1.3c2,0,3.3-0.2,4-0.5c0.5-0.3,1-0.6,1.3-1.3c0.2-0.5,0.3-2,0.3-4.6v-23.3c0-3.1-0.1-5.2-0.3-6c-0.1-0.6-0.4-1.1-0.8-1.5
			c-0.4-0.3-0.9-0.4-1.5-0.4c-0.8,0-1.9,0.3-3.2,1L751.7,1222.6z"/>
		<path class="st1" d="M798.2,1222.6l10.5-5.1h1v36.5c0,2.4,0.1,3.9,0.3,4.5c0.2,0.5,0.6,1,1.3,1.4c0.5,0.3,1.9,0.4,3.9,0.5v1.3H799
			v-1.3c2,0,3.3-0.2,4-0.5c0.5-0.3,1-0.6,1.3-1.3c0.2-0.5,0.3-2,0.3-4.6v-23.3c0-3.1-0.1-5.2-0.3-6c-0.1-0.6-0.4-1.1-0.8-1.5
			c-0.4-0.3-0.9-0.4-1.5-0.4c-0.8,0-1.9,0.3-3.2,1L798.2,1222.6z"/>
		<path class="st1" d="M829.6,1222.6l10.5-5.1h1v36.5c0,2.4,0.1,3.9,0.3,4.5c0.2,0.5,0.6,1,1.3,1.4c0.5,0.3,1.9,0.4,3.9,0.5v1.3
			h-16.3v-1.3c2,0,3.3-0.2,4-0.5c0.5-0.3,1-0.6,1.3-1.3c0.2-0.5,0.3-2,0.3-4.6v-23.3c0-3.1-0.1-5.2-0.3-6c-0.1-0.6-0.4-1.1-0.8-1.5
			c-0.4-0.3-0.9-0.4-1.5-0.4c-0.8,0-1.9,0.3-3.2,1L829.6,1222.6z"/>
		<path class="st1" d="M861.1,1222.6l10.5-5.1h1v36.5c0,2.4,0.1,3.9,0.3,4.5c0.2,0.5,0.6,1,1.3,1.4c0.5,0.3,1.9,0.4,3.9,0.5v1.3
			h-16.3v-1.3c2,0,3.3-0.2,4-0.5c0.5-0.3,1-0.6,1.3-1.3c0.2-0.5,0.3-2,0.3-4.6v-23.3c0-3.1-0.1-5.2-0.3-6c-0.1-0.6-0.4-1.1-0.8-1.5
			c-0.4-0.3-0.9-0.4-1.5-0.4c-0.8,0-1.9,0.3-3.2,1L861.1,1222.6z"/>
		<path class="st1" d="M892.5,1222.6l10.5-5.1h1v36.5c0,2.4,0.1,3.9,0.3,4.5c0.2,0.5,0.6,1,1.3,1.4c0.5,0.3,1.9,0.4,3.9,0.5v1.3
			h-16.3v-1.3c2,0,3.3-0.2,4-0.5c0.5-0.3,1-0.6,1.3-1.3c0.2-0.5,0.3-2,0.3-4.6v-23.3c0-3.1-0.1-5.2-0.3-6c-0.1-0.6-0.4-1.1-0.8-1.5
			c-0.4-0.3-0.9-0.4-1.5-0.4c-0.8,0-1.9,0.3-3.2,1L892.5,1222.6z"/>
		<path class="st1" d="M939.1,1222.6l10.5-5.1h1v36.5c0,2.4,0.1,3.9,0.3,4.5c0.2,0.5,0.6,1,1.3,1.4c0.5,0.3,1.9,0.4,3.9,0.5v1.3
			h-16.3v-1.3c2,0,3.3-0.2,4-0.5c0.5-0.3,1-0.6,1.3-1.3c0.2-0.5,0.3-2,0.3-4.6v-23.3c0-3.1-0.1-5.2-0.3-6c-0.1-0.6-0.4-1.1-0.8-1.5
			c-0.4-0.3-0.9-0.4-1.5-0.4c-0.8,0-1.9,0.3-3.2,1L939.1,1222.6z"/>
		<path class="st1" d="M970.4,1222.6l10.5-5.1h1v36.5c0,2.4,0.1,3.9,0.3,4.5c0.2,0.5,0.6,1,1.3,1.4c0.5,0.3,1.9,0.4,3.9,0.5v1.3
			h-16.3v-1.3c2,0,3.3-0.2,4-0.5c0.5-0.3,1-0.6,1.3-1.3c0.2-0.5,0.3-2,0.3-4.6v-23.3c0-3.1-0.1-5.2-0.3-6c-0.1-0.6-0.4-1.1-0.8-1.5
			c-0.4-0.3-0.9-0.4-1.5-0.4c-0.8,0-1.9,0.3-3.2,1L970.4,1222.6z"/>
		<path class="st1" d="M1001.9,1222.6l10.5-5.1h1v36.5c0,2.4,0.1,3.9,0.3,4.5c0.2,0.5,0.6,1,1.3,1.4c0.5,0.3,1.9,0.4,3.9,0.5v1.3
			h-16.3v-1.3c2,0,3.3-0.2,4-0.5c0.5-0.3,1-0.6,1.3-1.3c0.2-0.5,0.3-2,0.3-4.6v-23.3c0-3.1-0.1-5.2-0.3-6c-0.1-0.6-0.4-1.1-0.8-1.5
			c-0.4-0.3-0.9-0.4-1.5-0.4c-0.8,0-1.9,0.3-3.2,1L1001.9,1222.6z"/>
		<path class="st1" d="M1033.3,1222.6l10.5-5.1h1v36.5c0,2.4,0.1,3.9,0.3,4.5c0.2,0.5,0.6,1,1.3,1.4c0.5,0.3,1.9,0.4,3.9,0.5v1.3
			H1034v-1.3c2,0,3.3-0.2,4-0.5c0.5-0.3,1-0.6,1.3-1.3c0.2-0.5,0.3-2,0.3-4.6v-23.3c0-3.1-0.1-5.2-0.3-6c-0.1-0.6-0.4-1.1-0.8-1.5
			c-0.4-0.3-0.9-0.4-1.5-0.4c-0.8,0-1.9,0.3-3.2,1L1033.3,1222.6z"/>
	</g>
</g>
<g>
	<g>
		<g>
			<g>
				<g>
					<path class="st1" d="M467.9,811c13.6,18.7,39.5,14.3,59.5,10.5c16.2-3.1,32.5-5.2,49-4.7c8.2,0.2,16.8,0.5,24.6,2.5
						c3.8,1,7.7,2.2,10.5,5.1c4.2,5.1,4.2,10.1-0.1,15.1c-6.8,5.5-9.4,5-8-2c0.2,1,1.8,0.6,1.7-0.2c-0.4-10.6-18.2-0.6-6.9,6.6
						c12.5,8.1,23.9-10.8,15.9-20.4c-5.6-6.8-16.1-7.4-24.5-8.3c-14.3-1.5-28.9-1-43.3,0.6c-25.2,3.1-57.5,16.2-77.5-5.7
						C468.5,809.6,467.5,810.3,467.9,811L467.9,811z"/>
				</g>
				<g>
					<path class="st1" d="M578.3,826.8c1.3-6.5-8.4-4.7-6.8,1.4c3,10.8,18.3,1.8,20.3-5c3.3-12.3-10.8-20.3-21.9-20.4
						c-9.6-0.1-18.6,3.6-27.3,6.6c-5.3,1.7-10.7,3.2-16.5,3.1c-3.6,0-7.6-0.4-10.9-2c-1.3-0.6-2.3-1.5-3.5-2.2
						c-4.4-3-4.4-5.5-0.1-7.7c-0.8-1.1-2.5-0.2-1.9,1.1c3,6.8,13.3,1.8,9.9-4.9c-4-7.9-14.9-1.8-14.5,5.3
						c0.4,12.5,18.6,14.5,28.2,12.6c10.1-1.8,19.2-6.8,29.2-8.7c7.1-1.4,14.5-1,20.5,3.1c2.7,1.8,5.8,5,6.4,8.3
						c-0.4,2.7-1,5.2-1.5,7.9c-3.8,5.8-7.2,6.5-10.5,1.5C577.6,827.2,578.2,827.2,578.3,826.8L578.3,826.8z"/>
				</g>
			</g>
		</g>
	</g>
	<g>
		<g>
			<g>
				<g>
					<path class="st1" d="M776,810.5c-13.6,18.7-39.5,14.3-59.5,10.5c-16.2-3.1-32.5-5.2-49-4.7c-8.2,0.2-16.8,0.5-24.6,2.5
						c-3.8,1-7.7,2.2-10.5,5.1c-4.2,5.1-4.2,10.1,0.1,15.1c6.8,5.5,9.4,5,8-2c-0.2,1-1.7,0.6-1.7-0.2c0.4-10.6,18.2-0.6,6.9,6.6
						c-12.5,8.1-23.9-10.8-15.9-20.4c5.6-6.8,16.1-7.4,24.5-8.3c14.3-1.5,28.9-1,43.3,0.6c25.2,3.1,57.5,16.2,77.5-5.7
						C775.4,809,776.6,809.8,776,810.5L776,810.5z"/>
				</g>
				<g>
					<path class="st1" d="M665.8,826.3c-1.3-6.5,8.4-4.7,6.8,1.4c-3,10.8-18.3,1.8-20.3-5c-3.3-12.3,10.8-20.3,21.9-20.4
						c9.6-0.1,18.6,3.6,27.3,6.6c5.3,1.7,10.7,3.2,16.5,3.1c3.6,0,7.6-0.4,10.9-2c1.3-0.6,2.3-1.5,3.5-2.2c4.4-3,4.4-5.5,0.1-7.7
						c0.8-1.1,2.5-0.2,1.9,1.1c-3,6.8-13.3,1.8-9.9-4.9c4-7.9,14.9-1.8,14.5,5.3c-0.4,12.5-18.6,14.5-28.2,12.6
						c-10.1-1.8-19.2-6.8-29.2-8.7c-7.1-1.4-14.5-1-20.5,3.1c-2.7,1.8-5.8,5-6.4,8.3c0.4,2.7,1,5.2,1.5,7.9
						c3.8,5.8,7.2,6.5,10.5,1.5C666.3,826.5,665.8,826.6,665.8,826.3L665.8,826.3z"/>
				</g>
			</g>
		</g>
	</g>
</g>
<g id="XMLID_6662_">
	<path class="st1" d="M184.7,941h-31.1l0.3-1.2c1.7,0,2.8-0.1,3.2-0.3c0.8-0.3,1.5-0.8,2-1.5c0.6-0.9,1.4-2.7,2.1-5.2l7.4-25.5
		c0.6-2.1,0.9-3.6,0.9-4.6c0-0.7-0.2-1.4-0.8-1.8c-0.6-0.5-1.7-0.6-3.2-0.6c-0.3,0-0.6,0-0.8,0l0.3-1.2h17l-0.2,1.2
		c-2,0-3.2,0.2-4.2,0.6c-0.8,0.3-1.5,0.9-2.1,1.8c-0.3,0.6-0.9,2.3-1.8,5.2l-7.3,24.9c-0.6,2-0.8,3.2-0.8,4c0,0.5,0.2,0.9,0.8,1.5
		c0.3,0.3,1,0.5,2.4,0.5h4c2.9,0,5.3-0.3,7-1c1.4-0.5,2.4-1.4,3.5-2.5c0.6-0.6,1.6-2.2,3-4.6l0.8-1.4h1.2L184.7,941z"/>
	<path class="st1" d="M218.2,922.7c0,3.1-0.8,6.1-2.4,9.1c-1.7,3-3.8,5.4-6.8,7.3c-2.9,1.8-5.8,2.7-8.4,2.7c-2.8,0-5.1-0.8-6.9-2.7
		c-1.8-1.8-2.7-4.2-2.7-7c0-3,0.8-6,2.7-9.1c1.7-3,4.2-5.4,7-7.3c2.9-1.8,5.7-2.7,8.4-2.7c2.8,0,5,0.8,6.8,2.7
		C217.4,917.5,218.2,920,218.2,922.7z M213.1,920.7c0-2-0.5-3.3-1.5-4.5c-0.9-0.9-2.2-1.6-3.6-1.6c-3,0-5.8,2.2-8.3,6.5
		c-2.5,4.4-3.8,8.7-3.8,12.9c0,2,0.5,3.5,1.5,4.5c1,1,2.3,1.6,3.7,1.6c2.9,0,5.7-2.2,8.2-6.4C211.9,929.6,213.1,925,213.1,920.7z"/>
	<path class="st1" d="M246.1,913.2l-4,14c1.8-3.2,3.2-5.8,4.6-7.4c2-2.5,3.8-4.4,5.7-5.5c1-0.6,2.3-0.9,3.3-0.9c0.9,0,2,0.3,2.5,0.9
		c0.7,0.7,1,1.5,1,2.5c0,0.9-0.2,2.3-0.7,4l-2.2,7.9c3.3-6.2,6.5-10.7,9.6-13.3c1.7-1.5,3.2-2.1,5-2.1c0.9,0,1.7,0.3,2.3,0.9
		c0.6,0.6,0.9,1.7,0.9,3c0,1.2-0.2,2.4-0.6,3.7l-3.3,12c-0.7,2.7-1,4.2-1,4.4s0.1,0.5,0.2,0.7c0.1,0.1,0.2,0.2,0.5,0.2
		c0.2,0,0.6-0.2,1-0.6c1.2-0.9,2.3-2.2,3.2-3.6l1,0.6c-0.5,0.8-1.5,2-2.8,3.3c-1.4,1.5-2.4,2.4-3.3,2.9c-0.9,0.5-1.8,0.7-2.5,0.7
		s-1.4-0.2-1.8-0.7c-0.5-0.5-0.7-1-0.7-1.8c0-0.9,0.3-3,1.2-6l2.8-9.9c0.6-2.3,0.9-3.6,0.9-3.7c0.1-0.3,0.1-0.8,0.1-1.2
		c0-0.5-0.1-0.9-0.3-1.2c-0.2-0.3-0.5-0.5-0.8-0.5c-0.8,0-1.8,0.5-2.8,1.4c-2.9,2.7-5.5,6.2-8,11c-1.7,3.1-3.1,7.2-4.6,12h-4.7
		l5.3-18.7c0.6-2.1,0.8-3.3,0.8-4c0-0.6-0.1-0.9-0.3-1.2c-0.2-0.2-0.5-0.3-0.8-0.3c-0.7,0-1.5,0.2-2.2,0.7c-1.2,0.8-2.8,2.5-4.7,5.2
		c-2,2.7-3.5,5.2-4.5,7.6c-0.5,1-1.7,4.7-3.6,10.9h-4.6l5.7-20.1l0.7-2.5c0.1-0.3,0.2-0.7,0.2-0.8c0-0.5-0.2-0.8-0.6-1.2
		c-0.3-0.3-0.9-0.5-1.6-0.5c-0.2,0-0.9,0.1-2.2,0.3l-0.2-1.2L246.1,913.2z"/>
	<path class="st1" d="M305.7,913.2l-6,20.9l-0.7,2.8c0,0.2-0.1,0.5-0.1,0.6c0,0.3,0.1,0.6,0.3,0.8c0.1,0.1,0.3,0.2,0.6,0.2
		c0.2,0,0.6-0.1,1-0.5c0.8-0.6,1.8-1.8,3.2-3.6l1,0.7c-1.5,2.2-2.9,3.7-4.4,4.8c-1.5,1-2.9,1.7-4.3,1.7c-0.8,0-1.6-0.2-2-0.6
		c-0.3-0.3-0.7-1-0.7-2s0.2-2.3,0.7-4l0.6-2.3c-2.7,3.5-5.2,6-7.5,7.4c-1.7,0.9-3.2,1.5-4.8,1.5c-1.5,0-2.8-0.6-3.8-1.8
		c-1-1.2-1.6-2.9-1.6-5.1c0-3.2,0.9-6.8,2.9-10.4c2-3.6,4.5-6.5,7.5-8.7c2.3-1.7,4.6-2.7,6.7-2.7c1.4,0,2.3,0.3,3.1,0.9
		c0.8,0.7,1.5,1.8,2,3.2l1-3.5L305.7,913.2z M294.8,914.7c-1.4,0-2.7,0.6-4.3,2c-2.2,1.7-4,4.4-5.7,7.7c-1.7,3.3-2.4,6.5-2.4,9.4
		c0,1.4,0.3,2.5,1,3.2c0.7,0.8,1.6,1.2,2.4,1.2c2.2,0,4.7-1.7,7.3-5c3.5-4.4,5.3-8.9,5.3-13.5c0-1.7-0.3-3-0.9-3.7
		C296.8,915.1,296,914.7,294.8,914.7z M304.1,897.8l-9,10.6h-1l3.1-10.6H304.1z"/>
	<path class="st1" d="M328.7,913.2l-2,9.6h-1.2c-0.1-2.8-0.7-4.7-1.8-6c-1-1.2-2.4-2-4-2c-1.2,0-2.3,0.3-3,1c-0.7,0.7-1,1.6-1,2.5
		c0,0.7,0.1,1.4,0.5,2c0.2,0.6,0.9,1.5,2,2.5c2.7,2.9,4.4,5.2,5.2,6.7c0.7,1.5,1.2,2.9,1.2,4.3c0,2.2-0.8,4-2.7,5.7
		c-1.8,1.7-4,2.4-6.8,2.4c-1.5,0-3.1-0.3-5.2-1c-0.7-0.2-1.2-0.3-1.6-0.3c-0.9,0-1.6,0.5-2.1,1.5h-1l2-10h1.2c0.1,3.1,0.7,5.3,2,6.7
		c1.2,1.4,2.8,2,4.8,2c1.6,0,2.8-0.5,3.7-1.4c0.9-0.8,1.4-2,1.4-3.2c0-0.8-0.1-1.6-0.5-2.3c-0.6-1.2-1.8-2.9-3.6-5.1
		c-1.7-2.2-3-3.8-3.5-5c-0.5-1-0.8-2.2-0.8-3.2c0-2.1,0.7-3.6,2.2-5.1c1.5-1.5,3.3-2.1,5.5-2.1c0.6,0,1.2,0,1.8,0.1
		c0.2,0.1,0.9,0.3,2.1,0.7c1,0.3,1.8,0.6,2.2,0.6c0.8,0,1.6-0.5,2.2-1.5h1v0H328.7z"/>
	<path class="st1" d="M356.8,913.2l-6,21.6c-0.3,1.5-0.6,2.3-0.6,2.7c0,0.3,0.1,0.6,0.2,0.8c0.2,0.2,0.3,0.3,0.7,0.3
		c0.3,0,0.7-0.1,1-0.5c1.2-0.9,2.4-2.3,3.6-4l1,0.7c-1.5,2.2-3,3.8-5,5.4c-1.4,1-2.7,1.6-4,1.6c-0.8,0-1.6-0.2-2.1-0.7
		c-0.5-0.5-0.8-1-0.8-2c0-0.8,0.2-2.1,0.7-3.7l4-13.9c0.6-2.3,0.9-3.6,0.9-4.3c0-0.5-0.1-0.8-0.5-1s-0.7-0.5-1.4-0.5
		c-0.5,0-1.5,0.1-2.8,0.3V915L356.8,913.2z M356.4,900.9c0.8,0,1.6,0.2,2.2,0.8s0.8,1.4,0.8,2.2s-0.2,1.6-0.8,2.2
		c-0.6,0.6-1.4,0.9-2.2,0.9c-0.8,0-1.6-0.3-2.2-0.9c-0.6-0.6-0.9-1.4-0.9-2.2s0.2-1.6,0.8-2.2C354.8,901.1,355.5,900.9,356.4,900.9z
		"/>
	<path class="st1" d="M371.4,913.2l-4,14c1.8-3.2,3.2-5.8,4.6-7.4c2-2.5,3.8-4.4,5.7-5.5c1-0.6,2.3-0.9,3.3-0.9c0.9,0,2,0.3,2.5,0.9
		c0.7,0.7,1,1.5,1,2.5c0,0.9-0.2,2.3-0.7,4l-2.2,7.9c3.3-6.2,6.5-10.7,9.6-13.3c1.7-1.5,3.2-2.1,5-2.1c0.9,0,1.7,0.3,2.3,0.9
		c0.6,0.6,0.9,1.7,0.9,3c0,1.2-0.2,2.4-0.6,3.7l-3.3,12c-0.7,2.7-1,4.2-1,4.4s0.1,0.5,0.2,0.7c0.1,0.1,0.2,0.2,0.5,0.2
		s0.6-0.2,1-0.6c1.2-0.9,2.3-2.2,3.2-3.6l1,0.6c-0.5,0.8-1.5,2-2.8,3.3c-1.4,1.5-2.4,2.4-3.3,2.9s-1.8,0.7-2.5,0.7
		c-0.7,0-1.4-0.2-1.8-0.7c-0.5-0.5-0.7-1-0.7-1.8c0-0.9,0.3-3,1.2-6l2.8-9.9c0.6-2.3,0.9-3.6,0.9-3.7c0.1-0.3,0.1-0.8,0.1-1.2
		c0-0.5-0.1-0.9-0.3-1.2c-0.2-0.3-0.5-0.5-0.8-0.5c-0.8,0-1.8,0.5-2.8,1.4c-2.9,2.7-5.5,6.2-8,11c-1.7,3.1-3.1,7.2-4.6,12h-4.7
		l5.3-18.7c0.6-2.1,0.8-3.3,0.8-4c0-0.6-0.1-0.9-0.3-1.2c-0.2-0.2-0.5-0.3-0.8-0.3c-0.7,0-1.5,0.2-2.2,0.7c-1.2,0.8-2.8,2.5-4.7,5.2
		c-2,2.7-3.5,5.2-4.5,7.6c-0.5,1-1.7,4.7-3.6,10.9h-4.6L364,921l0.7-2.5c0.1-0.3,0.2-0.7,0.2-0.8c0-0.5-0.2-0.8-0.6-1.2
		c-0.3-0.3-0.9-0.5-1.6-0.5c-0.2,0-0.9,0.1-2.2,0.3l-0.2-1.2L371.4,913.2z"/>
	<path class="st1" d="M415.4,913.2l-2.2,7.2c2.3-2.7,4.3-4.5,6-5.5c1.8-1,3.5-1.6,5.3-1.6c1.8,0,3.3,0.7,4.7,2.2
		c1.4,1.5,2,3.3,2,5.7c0,4.5-1.8,9.1-5.5,13.7c-3.7,4.6-8,7-12.9,7c-0.9,0-2-0.1-2.8-0.3c-0.8-0.2-1.7-0.6-2.7-1.2l-2.3,8
		c-0.5,1.6-0.7,2.5-0.7,3c0,0.5,0.1,0.8,0.3,1.2c0.2,0.3,0.6,0.6,1.2,0.7c0.5,0.1,1.6,0.2,3.1,0.2l-0.2,1.2h-14.4l0.3-1.2
		c2-0.1,3.2-0.3,3.8-0.9c0.7-0.6,1.4-2.2,2.1-4.8l7.9-27c0.5-1.7,0.7-2.8,0.7-3.1c0-0.6-0.1-0.9-0.5-1.4c-0.3-0.3-0.8-0.5-1.5-0.5
		s-1.5,0.1-2.5,0.2v-1.2L415.4,913.2z M408.3,937.8c1.4,1.6,3,2.3,5.2,2.3c1,0,2.2-0.2,3.2-0.8c1-0.6,2.2-1.5,3.2-2.7
		c1-1.2,2.1-2.5,2.9-4c0.8-1.5,1.6-3.3,2.3-5.4c0.7-2.1,0.9-4.2,0.9-6.1c0-1.7-0.3-2.9-1-3.7c-0.7-0.8-1.7-1.4-2.7-1.4
		c-2.2,0-4.5,1.4-6.5,3.8c-2.2,2.5-3.7,5.5-4.8,8.9L408.3,937.8z"/>
	<path class="st1" d="M460.4,922.7c0,3.1-0.8,6.1-2.4,9.1c-1.7,3-3.8,5.4-6.8,7.3c-2.9,1.8-5.8,2.7-8.4,2.7c-2.8,0-5.1-0.8-6.9-2.7
		c-1.8-1.8-2.7-4.2-2.7-7c0-3,0.8-6,2.7-9.1c1.7-3,4.2-5.4,7-7.3c2.9-1.8,5.7-2.7,8.4-2.7s5,0.8,6.8,2.7
		C459.4,917.5,460.4,920,460.4,922.7z M455.3,920.7c0-2-0.5-3.3-1.5-4.5c-0.9-0.9-2.2-1.6-3.6-1.6c-3,0-5.8,2.2-8.3,6.5
		c-2.5,4.4-3.8,8.7-3.8,12.9c0,2,0.5,3.5,1.5,4.5c0.9,0.9,2.3,1.6,3.7,1.6c2.9,0,5.7-2.2,8.2-6.4C454,929.6,455.3,925,455.3,920.7z"
		/>
	<path class="st1" d="M463.9,914.9l10.6-1.8l-4.5,15c3.6-6.1,6.9-10.5,9.8-12.9c1.7-1.5,3-2.1,4.2-2.1c0.7,0,1.2,0.2,1.6,0.6
		c0.3,0.3,0.6,0.9,0.6,1.8c0,1.4-0.3,2.7-1,3.8c-0.5,0.9-1.2,1.4-2.2,1.4c-0.5,0-0.8-0.1-1.2-0.5s-0.6-0.7-0.6-1.5
		c0-0.3-0.1-0.6-0.2-0.7c-0.1-0.1-0.3-0.2-0.6-0.2c-0.3,0-0.7,0.1-0.9,0.2c-0.5,0.2-1.4,1-2.4,2.4c-1.7,2.1-3.6,4.6-5.5,7.9
		c-0.8,1.4-1.6,2.9-2.2,4.6c-0.8,2.3-1.4,3.7-1.5,4.3l-0.9,3.8h-4.7l5.7-19.2c0.6-2.2,0.9-3.8,0.9-4.7c0-0.3-0.1-0.6-0.5-0.9
		c-0.3-0.3-0.9-0.5-1.6-0.5c-0.5,0-1.2,0.1-2.4,0.2L463.9,914.9z"/>
	<path class="st1" d="M499.7,905.5l-2.4,8.4h4.8l-0.5,2h-4.8l-5.3,18.1c-0.6,2-0.8,3.2-0.8,3.7c0,0.3,0.1,0.6,0.2,0.8
		c0.1,0.2,0.3,0.2,0.6,0.2c0.5,0,1.2-0.3,2.1-1c0.5-0.3,1.6-1.7,3.3-3.7l0.9,0.8c-2,2.8-3.6,4.7-5.3,5.8c-1.2,0.7-2.3,1.2-3.5,1.2
		c-0.8,0-1.6-0.2-2.2-0.8c-0.6-0.6-0.8-1.4-0.8-2.2c0-1,0.3-2.8,0.9-5.1l5.2-17.9h-4.7l0.3-1.2c2.3-0.6,4.2-1.6,5.7-2.8
		c1.5-1.2,3.1-3.3,5.1-6.4L499.7,905.5L499.7,905.5z"/>
	<path class="st1" d="M528.6,913.2l-6,20.9l-0.7,2.8c0,0.2-0.1,0.5-0.1,0.6c0,0.3,0.1,0.6,0.3,0.8c0.1,0.1,0.3,0.2,0.6,0.2
		s0.6-0.1,1-0.5c0.8-0.6,1.8-1.8,3.2-3.6l1,0.7c-1.5,2.2-2.9,3.7-4.4,4.8c-1.5,1.2-2.9,1.7-4.3,1.7c-0.8,0-1.6-0.2-2-0.6
		c-0.3-0.3-0.7-1-0.7-2s0.2-2.3,0.7-4l0.6-2.3c-2.7,3.5-5.2,6-7.5,7.4c-1.7,0.9-3.2,1.5-4.8,1.5c-1.5,0-2.8-0.6-3.8-1.8
		c-1-1.3-1.6-2.9-1.6-5.1c0-3.2,0.9-6.8,2.9-10.4s4.5-6.5,7.5-8.7c2.3-1.7,4.6-2.7,6.7-2.7c1.4,0,2.3,0.3,3.1,0.9
		c0.8,0.7,1.5,1.8,2,3.2l1-3.5L528.6,913.2z M517.6,914.7c-1.4,0-2.7,0.6-4.3,2c-2.2,1.7-4,4.4-5.7,7.7c-1.7,3.3-2.4,6.5-2.4,9.4
		c0,1.4,0.3,2.5,1,3.2c0.7,0.8,1.6,1.2,2.4,1.2c2.2,0,4.7-1.7,7.3-5c3.5-4.4,5.3-8.9,5.3-13.5c0-1.7-0.3-3-0.9-3.7
		C519.8,915.2,518.8,914.7,517.6,914.7z"/>
	<path class="st1" d="M542.6,913.2l-4.2,14c3.8-5.8,6.8-9.6,8.8-11.3c2.1-1.8,4-2.8,5.9-2.8c0.9,0,1.8,0.3,2.5,1
		c0.6,0.7,0.9,1.6,0.9,2.7c0,1.2-0.2,2.9-0.8,5l-3.7,13c-0.5,1.5-0.6,2.4-0.6,2.8c0,0.2,0.1,0.5,0.2,0.7c0.1,0.2,0.3,0.2,0.5,0.2
		c0.2,0,0.5-0.1,0.8-0.3c1-0.8,2.3-2.2,3.6-4l0.9,0.6c-2,2.8-3.7,4.7-5.4,5.9c-1.2,0.8-2.3,1.2-3.2,1.2c-0.7,0-1.4-0.2-1.8-0.7
		c-0.5-0.5-0.7-1-0.7-1.8c0-0.9,0.3-2.7,1-5.1l3.6-12.5c0.5-1.6,0.6-2.8,0.6-3.6c0-0.3-0.1-0.7-0.3-0.9s-0.6-0.3-0.9-0.3
		c-0.6,0-1.2,0.2-2.1,0.7c-1.5,0.9-3.1,2.4-4.7,4.6c-1.7,2.2-3.3,4.8-5.2,8.1c-0.9,1.8-1.8,3.6-2.4,5.8l-1.6,5.1h-4.6l5.7-19.3
		c0.6-2.3,0.9-3.7,0.9-4.3c0-0.5-0.2-0.8-0.6-1.2c-0.3-0.3-0.8-0.5-1.4-0.5c-0.2,0-0.7,0-1.4,0.1l-1.2,0.1l-0.2-1L542.6,913.2z"/>
	<path class="st1" d="M574.6,905.5l-2.4,8.4h4.8l-0.5,2h-4.8l-5.3,18.1c-0.6,2-0.8,3.2-0.8,3.7c0,0.3,0.1,0.6,0.2,0.8
		s0.3,0.2,0.6,0.2c0.5,0,1.2-0.3,2.1-1c0.5-0.3,1.6-1.7,3.3-3.7l0.9,0.8c-2,2.8-3.6,4.7-5.3,5.8c-1.2,0.7-2.3,1.2-3.5,1.2
		c-0.8,0-1.6-0.2-2.2-0.8c-0.6-0.6-0.8-1.4-0.8-2.2c0-1,0.3-2.8,0.9-5.1l5.2-17.9h-4.7l0.3-1.2c2.3-0.6,4.2-1.6,5.7-2.8
		c1.5-1.2,3.1-3.3,5.1-6.4L574.6,905.5L574.6,905.5z"/>
	<path class="st1" d="M581.4,929.4c-0.1,0.9-0.2,1.8-0.2,2.5c0,1.8,0.6,3.3,2,4.7c1.4,1.4,2.9,2,4.7,2c1.5,0,2.9-0.3,4.3-0.9
		c1.4-0.6,3.3-2,6-4l0.6,0.8c-4.8,4.8-9.6,7.3-14,7.3c-3,0-5.2-0.9-6.8-2.8c-1.6-2-2.3-4-2.3-6.2c0-3,0.9-6.1,2.8-9.5
		c2-3.2,4.3-5.7,7.2-7.5s5.8-2.7,8.8-2.7c2.2,0,3.7,0.5,4.8,1.4c1,0.8,1.6,2,1.6,3.1c0,1.7-0.7,3.3-2.1,5c-1.8,2.1-4.5,3.7-7.9,5
		C588.8,928.3,585.5,929,581.4,929.4z M581.6,927.9c3-0.3,5.5-0.9,7.5-1.8c2.5-1,4.5-2.4,5.7-4s2-3,2-4.5c0-0.8-0.2-1.6-0.8-2.1
		c-0.6-0.5-1.4-0.8-2.3-0.8c-2.1,0-4.4,1-6.7,3.3C584.4,920.2,582.8,923.4,581.6,927.9z"/>
	<path class="st1" d="M621.2,929.4c-0.1,0.9-0.2,1.8-0.2,2.5c0,1.8,0.6,3.3,2,4.7c1.4,1.4,2.9,2,4.7,2c1.5,0,2.9-0.3,4.3-0.9
		c1.4-0.6,3.3-2,6-4l0.6,0.8c-4.8,4.8-9.6,7.3-14,7.3c-3,0-5.2-0.9-6.8-2.8c-1.6-2-2.3-4-2.3-6.2c0-3,0.9-6.1,2.8-9.5
		c2-3.2,4.3-5.7,7.2-7.5s5.8-2.7,8.8-2.7c2.2,0,3.7,0.5,4.8,1.4c1,0.8,1.6,2,1.6,3.1c0,1.7-0.7,3.3-2.1,5c-1.8,2.1-4.5,3.7-7.9,5
		C628.7,928.3,625.5,929,621.2,929.4z M621.4,927.9c3-0.3,5.5-0.9,7.5-1.8c2.5-1,4.5-2.4,5.7-4s2-3,2-4.5c0-0.8-0.2-1.6-0.8-2.1
		c-0.6-0.5-1.4-0.8-2.3-0.8c-2.1,0-4.4,1-6.7,3.3C624.3,920.2,622.6,923.4,621.4,927.9z"/>
	<path class="st1" d="M662.8,913.2l-2,9.6h-1.2c-0.1-2.8-0.7-4.7-1.8-6c-1-1.2-2.4-2-4-2c-1.2,0-2.3,0.3-3,1c-0.7,0.7-1,1.6-1,2.5
		c0,0.7,0.1,1.4,0.5,2c0.2,0.6,0.9,1.5,2,2.5c2.7,2.9,4.4,5.2,5.2,6.7c0.7,1.5,1.2,2.9,1.2,4.3c0,2.2-0.8,4-2.7,5.7
		c-1.8,1.7-4,2.4-6.8,2.4c-1.5,0-3.1-0.3-5.2-1c-0.7-0.2-1.2-0.3-1.6-0.3c-0.9,0-1.6,0.5-2.1,1.5h-1l2-10h1.2c0.1,3.1,0.7,5.3,2,6.7
		c1.2,1.4,2.8,2,4.8,2c1.6,0,2.8-0.5,3.7-1.4c0.9-0.8,1.4-2,1.4-3.2c0-0.8-0.1-1.6-0.5-2.3c-0.6-1.2-1.8-2.9-3.6-5.1
		c-1.8-2.2-3-3.8-3.5-5c-0.5-1-0.8-2.2-0.8-3.2c0-2.1,0.7-3.6,2.2-5.1c1.5-1.4,3.3-2.1,5.5-2.1c0.6,0,1.2,0,1.8,0.1
		c0.2,0.1,0.9,0.3,2.1,0.7c1,0.3,1.8,0.6,2.2,0.6c0.8,0,1.6-0.5,2.2-1.5h1v0H662.8z"/>
	<path class="st1" d="M677.7,915l8.9-2c0.6,1.6,1.2,3.1,1.6,4.7c0.6,2.3,0.9,5.1,1.4,8.3c0.1,1.6,0.3,5,0.6,10.2
		c2.5-2.8,4.2-4.6,4.6-5.2c2.8-3.6,4.4-5.8,4.7-6.5c0.6-1,1-2.1,1.5-2.9c0.2-0.6,0.3-1.2,0.3-1.8c0-0.5-0.5-1.2-1.5-1.8
		c-0.9-0.7-1.5-1.5-1.5-2.4c0-0.6,0.2-1.2,0.8-1.7c0.5-0.5,1-0.8,1.8-0.8c0.8,0,1.6,0.3,2.3,1c0.6,0.7,0.9,1.6,0.9,2.7
		c0,1-0.1,2.1-0.5,3c-0.5,1.6-1.5,3.5-3,5.7c-1.5,2.3-3.8,5.3-7.2,9c-0.3,0.5-2.7,2.8-6.9,7.2h-0.9c-0.5-13-1.6-21.1-3.1-24.4
		c-0.5-1-1.4-1.6-2.5-1.6c-0.5,0-1.2,0.1-2.2,0.3L677.7,915z"/>
	<path class="st1" d="M732.1,913.8l-5.3,18.4c-0.8,2.8-1.2,4.5-1.2,5.2c0,0.3,0.1,0.6,0.2,0.8c0.1,0.1,0.3,0.2,0.5,0.2
		c0.3,0,0.7-0.1,1.2-0.5c0.3-0.3,1.5-1.6,3.1-3.8l0.9,0.7c-1.7,2.5-3.2,4.5-5.1,5.7c-1,0.7-2.2,1.2-3.2,1.2c-0.8,0-1.5-0.2-2-0.7
		c-0.5-0.5-0.7-1-0.7-1.7s0.1-1.7,0.3-2.8c0.3-1.5,1.4-4.8,2.8-9.9c-3.5,5.8-6.4,9.7-8.8,11.8c-2.3,2.2-4.6,3.2-6.5,3.2
		c-0.9,0-1.8-0.3-2.4-0.9c-0.7-0.6-0.9-1.5-0.9-2.5c0-1.6,0.5-3.8,1.4-7.2l2.8-9.6c0.6-2.3,0.9-3.7,0.9-4.3c0-0.2-0.1-0.5-0.2-0.6
		c-0.1-0.1-0.3-0.2-0.6-0.2c-0.5,0-0.8,0.1-1.4,0.5c-0.5,0.3-1.5,1.5-2.9,3.3l-0.9-0.6c1.6-2.4,3.1-4.2,5-5.3
		c1.4-0.8,2.5-1.4,3.6-1.4c0.7,0,1.5,0.2,2,0.7c0.5,0.5,0.7,1,0.7,2c0,1-0.3,3.1-1.2,5.9l-2.9,10c-0.8,2.8-1.2,4.5-1.2,5.2
		c0,0.3,0.1,0.7,0.3,0.9s0.6,0.3,1,0.3c0.7,0,1.6-0.3,2.7-0.9c1-0.7,2.5-2.2,4.4-4.5c1.8-2.3,3.2-4.6,4.5-6.5
		c1.2-2.1,2.4-5.3,3.7-9.8l0.7-2.3h4.7v0H732.1z"/>
	<path class="st1" d="M739.6,929.4c-0.1,0.9-0.2,1.8-0.2,2.5c0,1.8,0.6,3.3,2,4.7c1.4,1.4,2.9,2,4.7,2c1.5,0,2.9-0.3,4.3-0.9
		c1.4-0.6,3.3-2,6-4l0.6,0.8c-4.8,4.8-9.6,7.3-14,7.3c-3,0-5.2-0.9-6.8-2.8c-1.6-2-2.3-4-2.3-6.2c0-3,0.9-6.1,2.8-9.5
		c2-3.2,4.3-5.7,7.2-7.5s5.8-2.7,8.8-2.7c2.2,0,3.7,0.5,4.8,1.4c1,0.8,1.6,2,1.6,3.1c0,1.7-0.7,3.3-2.1,5c-1.8,2.1-4.5,3.7-7.9,5
		C747,928.3,743.7,929,739.6,929.4z M739.8,927.9c3-0.3,5.5-0.9,7.5-1.8c2.5-1,4.5-2.4,5.7-4s2-3,2-4.5c0-0.8-0.2-1.6-0.8-2.1
		c-0.6-0.5-1.4-0.8-2.3-0.8c-2.1,0-4.4,1-6.7,3.3C742.6,920.2,741,923.4,739.8,927.9z"/>
	<path class="st1" d="M781,913.2l-2,9.6h-1.2c-0.1-2.8-0.7-4.7-1.8-6c-1-1.2-2.4-2-4-2c-1.2,0-2.3,0.3-3,1c-0.7,0.7-1,1.6-1,2.5
		c0,0.7,0.1,1.4,0.5,2c0.2,0.6,0.9,1.5,2,2.5c2.7,2.9,4.4,5.2,5.2,6.7c0.7,1.5,1.2,2.9,1.2,4.3c0,2.2-0.8,4-2.7,5.7
		c-1.8,1.7-4,2.4-6.8,2.4c-1.5,0-3.1-0.3-5.2-1c-0.7-0.2-1.2-0.3-1.6-0.3c-0.9,0-1.6,0.5-2.1,1.5h-1l2-10h1.2c0.1,3.1,0.7,5.3,2,6.7
		c1.2,1.4,2.8,2,4.8,2c1.6,0,2.8-0.5,3.7-1.4c0.9-0.8,1.4-2,1.4-3.2c0-0.8-0.1-1.6-0.5-2.3c-0.6-1.2-1.8-2.9-3.6-5.1
		c-1.8-2.2-3-3.8-3.5-5c-0.5-1-0.8-2.2-0.8-3.2c0-2.1,0.7-3.6,2.2-5.1c1.5-1.4,3.3-2.1,5.5-2.1c0.6,0,1.2,0,1.8,0.1
		c0.2,0.1,0.9,0.3,2.1,0.7c1,0.3,1.8,0.6,2.2,0.6c0.8,0,1.6-0.5,2.2-1.5h1v0H781z"/>
	<path class="st1" d="M797.2,905.5l-2.4,8.4h4.8l-0.5,2h-4.8l-5.3,18.1c-0.6,2-0.8,3.2-0.8,3.7c0,0.3,0.1,0.6,0.2,0.8
		c0.1,0.2,0.3,0.2,0.6,0.2c0.5,0,1.2-0.3,2.1-1c0.5-0.3,1.6-1.7,3.3-3.7l0.9,0.8c-2,2.8-3.6,4.7-5.3,5.8c-1.2,0.7-2.3,1.2-3.5,1.2
		c-0.8,0-1.6-0.2-2.2-0.8c-0.6-0.6-0.8-1.4-0.8-2.2c0-1,0.3-2.8,0.9-5.1l5.2-17.9h-4.7l0.3-1.2c2.3-0.6,4.2-1.6,5.7-2.8
		c1.5-1.2,3.1-3.3,5.1-6.4L797.2,905.5L797.2,905.5z"/>
	<path class="st1" d="M799.6,914.9l10.6-1.8l-4.5,15c3.6-6.1,6.9-10.5,9.8-12.9c1.7-1.5,3-2.1,4.2-2.1c0.7,0,1.2,0.2,1.6,0.6
		c0.3,0.3,0.6,0.9,0.6,1.8c0,1.4-0.3,2.7-1,3.8c-0.5,0.9-1.2,1.4-2.2,1.4c-0.5,0-0.8-0.1-1.2-0.5c-0.3-0.3-0.6-0.7-0.6-1.5
		c0-0.3-0.1-0.6-0.2-0.7c-0.1-0.1-0.3-0.2-0.6-0.2c-0.3,0-0.7,0.1-0.9,0.2c-0.5,0.2-1.4,1-2.4,2.4c-1.7,2.1-3.6,4.6-5.5,7.9
		c-0.8,1.4-1.6,2.9-2.2,4.6c-0.8,2.3-1.4,3.7-1.5,4.3l-0.9,3.8h-4.7l5.7-19.2c0.6-2.2,0.9-3.8,0.9-4.7c0-0.3-0.1-0.6-0.5-0.9
		c-0.3-0.3-0.9-0.5-1.6-0.5c-0.5,0-1.2,0.1-2.4,0.2L799.6,914.9z"/>
	<path class="st1" d="M848.6,913.2l-6,20.9l-0.7,2.8c0,0.2-0.1,0.5-0.1,0.6c0,0.3,0.1,0.6,0.3,0.8c0.1,0.1,0.3,0.2,0.6,0.2
		s0.6-0.1,1-0.5c0.8-0.6,1.8-1.8,3.2-3.6l1,0.7c-1.5,2.2-2.9,3.7-4.4,4.8c-1.5,1-2.9,1.7-4.3,1.7c-0.8,0-1.6-0.2-2-0.6
		c-0.3-0.3-0.7-1-0.7-2s0.2-2.3,0.7-4l0.6-2.3c-2.7,3.5-5.2,6-7.5,7.4c-1.7,0.9-3.2,1.5-4.8,1.5c-1.5,0-2.8-0.6-3.8-1.8
		c-1-1.2-1.6-2.9-1.6-5.1c0-3.2,0.9-6.8,2.9-10.4s4.5-6.5,7.5-8.7c2.3-1.7,4.6-2.7,6.7-2.7c1.4,0,2.3,0.3,3.1,0.9
		c0.8,0.7,1.5,1.8,2,3.2l1-3.5L848.6,913.2z M837.6,914.7c-1.4,0-2.7,0.6-4.3,2c-2.2,1.7-4,4.4-5.7,7.7c-1.7,3.3-2.4,6.5-2.4,9.4
		c0,1.4,0.3,2.5,1,3.2c0.7,0.8,1.6,1.2,2.4,1.2c2.2,0,4.7-1.7,7.3-5c3.5-4.4,5.3-8.9,5.3-13.5c0-1.7-0.3-3-0.9-3.7
		C839.8,915.2,838.9,914.7,837.6,914.7z"/>
	<path class="st1" d="M876.4,913.2l-2.2,7.2c2.3-2.7,4.3-4.5,6-5.5c1.8-1,3.5-1.6,5.3-1.6s3.3,0.7,4.7,2.2s2,3.3,2,5.7
		c0,4.5-1.8,9.1-5.5,13.7c-3.7,4.6-8,7-12.9,7c-0.9,0-2-0.1-2.8-0.3s-1.7-0.6-2.7-1.2l-2.3,8c-0.5,1.6-0.7,2.5-0.7,3
		c0,0.5,0.1,0.8,0.3,1.2c0.2,0.3,0.6,0.6,1.2,0.7c0.5,0.1,1.6,0.2,3.1,0.2l-0.2,1.2h-14.5l0.3-1.2c2-0.1,3.2-0.3,3.8-0.9
		c0.6-0.6,1.4-2.2,2.1-4.8l7.9-27c0.5-1.7,0.7-2.8,0.7-3.1c0-0.6-0.1-0.9-0.5-1.4c-0.3-0.3-0.8-0.5-1.5-0.5c-0.6,0-1.5,0.1-2.5,0.2
		v-1.2L876.4,913.2z M869.2,937.8c1.4,1.6,3,2.3,5.2,2.3c1,0,2.2-0.2,3.2-0.8c1-0.6,2.2-1.5,3.2-2.7c1-1.2,2.1-2.5,2.9-4
		c0.8-1.5,1.6-3.3,2.3-5.4c0.7-2.1,0.9-4.2,0.9-6.1c0-1.7-0.3-2.9-1-3.7c-0.7-0.8-1.7-1.4-2.7-1.4c-2.2,0-4.5,1.4-6.5,3.8
		c-2.2,2.5-3.7,5.5-4.8,8.9L869.2,937.8z"/>
	<path class="st1" d="M895.3,914.9L906,913l-4.5,15c3.6-6.1,6.9-10.5,9.8-12.9c1.7-1.5,3-2.1,4.2-2.1c0.7,0,1.2,0.2,1.6,0.6
		c0.3,0.3,0.6,0.9,0.6,1.8c0,1.4-0.3,2.7-1,3.8c-0.5,0.9-1.2,1.4-2.2,1.4c-0.5,0-0.8-0.1-1.2-0.5c-0.3-0.3-0.6-0.7-0.6-1.5
		c0-0.3-0.1-0.6-0.2-0.7c-0.1-0.1-0.3-0.2-0.6-0.2c-0.3,0-0.7,0.1-0.9,0.2c-0.5,0.2-1.4,1-2.4,2.4c-1.7,2.1-3.6,4.6-5.5,7.9
		c-0.8,1.4-1.6,2.9-2.2,4.6c-0.8,2.3-1.4,3.7-1.5,4.3l-0.9,3.8h-4.7l5.7-19.2c0.6-2.2,0.9-3.8,0.9-4.7c0-0.3-0.1-0.6-0.5-0.9
		c-0.3-0.3-0.9-0.5-1.6-0.5c-0.5,0-1.2,0.1-2.4,0.2L895.3,914.9z"/>
	<path class="st1" d="M922.1,929.4c-0.1,0.9-0.2,1.8-0.2,2.5c0,1.8,0.6,3.3,2,4.7c1.4,1.4,2.9,2,4.7,2c1.5,0,2.9-0.3,4.3-0.9
		c1.4-0.6,3.3-2,6-4l0.6,0.8c-4.8,4.8-9.6,7.3-14,7.3c-3,0-5.2-0.9-6.8-2.8c-1.6-2-2.3-4-2.3-6.2c0-3,0.9-6.1,2.8-9.5
		c2-3.2,4.3-5.7,7.2-7.5s5.8-2.7,8.8-2.7c2.2,0,3.7,0.5,4.8,1.4c1,0.8,1.6,2,1.6,3.1c0,1.7-0.7,3.3-2.1,5c-1.8,2.1-4.5,3.7-7.9,5
		C929.6,928.3,926.4,929,922.1,929.4z M922.4,927.9c3-0.3,5.5-0.9,7.5-1.8c2.5-1,4.5-2.4,5.7-4s2-3,2-4.5c0-0.8-0.2-1.6-0.8-2.1
		c-0.6-0.5-1.4-0.8-2.3-0.8c-2.1,0-4.4,1-6.7,3.3C925.4,920.2,923.6,923.4,922.4,927.9z"/>
	<path class="st1" d="M963.7,913.2l-2,9.6h-1.2c-0.1-2.8-0.7-4.7-1.8-6c-1-1.2-2.4-2-4-2c-1.2,0-2.3,0.3-3,1c-0.7,0.7-1,1.6-1,2.5
		c0,0.7,0.1,1.4,0.5,2c0.2,0.6,0.9,1.5,2,2.5c2.7,2.9,4.4,5.2,5.2,6.7c0.7,1.5,1.2,2.9,1.2,4.3c0,2.2-0.8,4-2.7,5.7
		c-1.8,1.7-4,2.4-6.8,2.4c-1.5,0-3.1-0.3-5.2-1c-0.7-0.2-1.2-0.3-1.6-0.3c-0.9,0-1.6,0.5-2.1,1.5h-1l2-10h1.2c0.1,3.1,0.7,5.3,2,6.7
		c1.2,1.4,2.8,2,4.8,2c1.6,0,2.8-0.5,3.7-1.4c0.9-0.8,1.4-2,1.4-3.2c0-0.8-0.1-1.6-0.5-2.3c-0.6-1.2-1.8-2.9-3.6-5.1
		c-1.8-2.2-3-3.8-3.5-5c-0.5-1-0.8-2.2-0.8-3.2c0-2.1,0.7-3.6,2.2-5.1c1.5-1.4,3.3-2.1,5.5-2.1c0.6,0,1.2,0,1.8,0.1
		c0.2,0.1,0.9,0.3,2.1,0.7c1,0.3,1.8,0.6,2.2,0.6c0.8,0,1.6-0.5,2.2-1.5h1v0H963.7z"/>
	<path class="st1" d="M971,929.4c-0.1,0.9-0.2,1.8-0.2,2.5c0,1.8,0.6,3.3,2,4.7c1.4,1.4,2.9,2,4.7,2c1.5,0,2.9-0.3,4.3-0.9
		c1.4-0.6,3.3-2,6-4l0.6,0.8c-4.8,4.8-9.6,7.3-14,7.3c-3,0-5.2-0.9-6.8-2.8c-1.6-2-2.3-4-2.3-6.2c0-3,0.9-6.1,2.8-9.5
		c2-3.2,4.3-5.7,7.2-7.5c2.9-1.8,5.8-2.7,8.8-2.7c2.2,0,3.7,0.5,4.8,1.4c1,0.8,1.6,2,1.6,3.1c0,1.7-0.7,3.3-2.1,5
		c-1.8,2.1-4.5,3.7-7.9,5C978.5,928.3,975.2,929,971,929.4z M971.2,927.9c3-0.3,5.5-0.9,7.5-1.8c2.5-1,4.5-2.4,5.7-4s2-3,2-4.5
		c0-0.8-0.2-1.6-0.8-2.1c-0.6-0.5-1.4-0.8-2.3-0.8c-2.1,0-4.4,1-6.7,3.3C974.1,920.2,972.2,923.4,971.2,927.9z"/>
	<path class="st1" d="M1003.4,913.2l-4.2,14c3.8-5.8,6.8-9.6,8.8-11.3c2.1-1.8,4-2.8,5.9-2.8c0.9,0,1.8,0.3,2.5,1
		c0.6,0.7,0.9,1.6,0.9,2.7c0,1.2-0.2,2.9-0.8,5l-3.7,13c-0.5,1.5-0.6,2.4-0.6,2.8c0,0.2,0.1,0.5,0.2,0.7c0.1,0.2,0.3,0.2,0.5,0.2
		c0.2,0,0.5-0.1,0.8-0.3c1-0.8,2.3-2.2,3.6-4l0.9,0.6c-2,2.8-3.7,4.7-5.4,5.9c-1.2,0.8-2.3,1.2-3.2,1.2c-0.7,0-1.4-0.2-1.8-0.7
		c-0.5-0.5-0.7-1-0.7-1.8c0-0.9,0.3-2.7,1-5.1l3.6-12.5c0.5-1.6,0.6-2.8,0.6-3.6c0-0.3-0.1-0.7-0.3-0.9s-0.6-0.3-0.9-0.3
		c-0.6,0-1.2,0.2-2.1,0.7c-1.5,0.9-3.1,2.4-4.7,4.6c-1.7,2.2-3.3,4.8-5.2,8.1c-0.9,1.8-1.8,3.6-2.4,5.8L995,941h-4.6l5.7-19.3
		c0.6-2.3,0.9-3.7,0.9-4.3c0-0.5-0.2-0.8-0.6-1.2c-0.3-0.3-0.8-0.5-1.4-0.5c-0.2,0-0.7,0-1.4,0.1l-1.2,0.1l-0.2-1L1003.4,913.2z"/>
	<path class="st1" d="M1043.5,934.4c-2.2,2.5-4.4,4.5-6.5,5.7c-2.2,1.2-4.5,1.8-6.9,1.8c-2.9,0-5.2-0.8-6.9-2.4
		c-1.7-1.7-2.4-3.8-2.4-6.7c0-3.1,0.8-6.2,2.7-9.4c1.8-3,4.2-5.5,7.2-7.5s5.9-2.9,8.7-2.9c2.3,0,4,0.5,5.1,1.5
		c1,0.9,1.7,2.1,1.7,3.5s-0.3,2.4-1.2,3.2c-0.6,0.7-1.2,1-2.1,1c-0.6,0-1.2-0.2-1.6-0.6c-0.3-0.3-0.6-0.9-0.6-1.6
		c0-0.3,0.1-0.7,0.2-1s0.5-0.7,0.9-1.2s0.7-0.8,0.8-0.9c0.1-0.2,0.1-0.3,0.1-0.6c0-0.5-0.2-0.8-0.6-1c-0.6-0.3-1.5-0.6-2.5-0.6
		c-2.1,0-4,0.7-6,2.2c-2,1.5-3.6,3.3-5.1,6c-1.7,3.1-2.5,6.2-2.5,9.6c0,2.1,0.6,3.7,1.8,5c1.3,1.3,2.8,1.8,4.8,1.8
		c1.6,0,3.1-0.3,4.7-1.2c1.6-0.8,3.2-2.2,5.2-4.4L1043.5,934.4z"/>
	<path class="st1" d="M1059.9,913.2l-6,21.6c-0.3,1.5-0.6,2.3-0.6,2.7c0,0.3,0.1,0.6,0.2,0.8c0.2,0.2,0.3,0.3,0.7,0.3
		c0.3,0,0.7-0.1,1-0.5c1.2-0.9,2.4-2.3,3.6-4l1,0.7c-1.5,2.2-3,3.8-5,5.4c-1.4,1-2.7,1.6-4,1.6c-0.8,0-1.6-0.2-2.1-0.7
		c-0.5-0.5-0.8-1-0.8-2c0-0.8,0.2-2.1,0.7-3.7l4-13.9c0.6-2.3,0.9-3.6,0.9-4.3c0-0.5-0.1-0.8-0.5-1s-0.7-0.5-1.4-0.5
		c-0.5,0-1.5,0.1-2.8,0.3V915L1059.9,913.2z M1059.3,900.9c0.8,0,1.6,0.2,2.2,0.8c0.6,0.6,0.8,1.4,0.8,2.2s-0.2,1.6-0.8,2.2
		c-0.6,0.6-1.4,0.9-2.2,0.9s-1.6-0.3-2.2-0.9c-0.6-0.6-0.9-1.4-0.9-2.2s0.2-1.6,0.8-2.2C1057.8,901.1,1058.5,900.9,1059.3,900.9z"/>
	<path class="st1" d="M1090.5,913.2l-6,20.9l-0.7,2.8c0,0.2-0.1,0.5-0.1,0.6c0,0.3,0.1,0.6,0.3,0.8c0.1,0.1,0.3,0.2,0.6,0.2
		c0.2,0,0.6-0.1,1-0.5c0.8-0.6,1.8-1.8,3.2-3.6l1,0.7c-1.5,2.2-2.9,3.7-4.4,4.8c-1.5,1.2-2.9,1.7-4.3,1.7c-0.8,0-1.6-0.2-2-0.6
		c-0.3-0.3-0.7-1-0.7-2s0.2-2.3,0.7-4l0.6-2.3c-2.7,3.5-5.2,6-7.5,7.4c-1.7,0.9-3.2,1.5-4.8,1.5c-1.5,0-2.8-0.6-3.8-1.8
		c-1-1.3-1.6-2.9-1.6-5.1c0-3.2,0.9-6.8,2.9-10.4c2-3.6,4.5-6.5,7.5-8.7c2.3-1.7,4.6-2.7,6.7-2.7c1.4,0,2.3,0.3,3.1,0.9
		c0.8,0.7,1.5,1.8,2,3.2l1-3.5L1090.5,913.2z M1079.5,914.7c-1.4,0-2.7,0.6-4.3,2c-2.2,1.7-4,4.4-5.7,7.7c-1.7,3.3-2.4,6.5-2.4,9.4
		c0,1.4,0.3,2.5,1,3.2c0.7,0.8,1.6,1.2,2.4,1.2c2.2,0,4.7-1.7,7.3-5c3.5-4.4,5.3-8.9,5.3-13.5c0-1.7-0.3-3-0.9-3.7
		C1081.6,915.1,1080.8,914.7,1079.5,914.7z"/>
	<path class="st1" d="M222.2,1009.7l-2.2,7.2c2.3-2.7,4.3-4.5,6-5.5c1.8-1,3.5-1.6,5.3-1.6c1.8,0,3.3,0.7,4.7,2.2
		c1.4,1.5,2,3.3,2,5.7c0,4.5-1.8,9.1-5.5,13.7c-3.7,4.6-8,7-12.9,7c-0.9,0-2-0.1-2.8-0.3c-0.8-0.2-1.7-0.6-2.7-1.2l-2.3,8
		c-0.5,1.6-0.7,2.5-0.7,3c0,0.5,0.1,0.8,0.3,1.2c0.2,0.3,0.6,0.6,1.2,0.7c0.5,0.1,1.6,0.2,3.1,0.2l-0.2,1.2H201l0.3-1.2
		c2-0.1,3.2-0.3,3.8-0.9c0.7-0.6,1.4-2.2,2.1-4.8l7.9-27c0.5-1.7,0.7-2.8,0.7-3.1c0-0.6-0.1-0.9-0.5-1.4s-0.8-0.5-1.5-0.5
		s-1.5,0.1-2.5,0.2v-1.2L222.2,1009.7z M215,1034.4c1.4,1.6,3,2.3,5.2,2.3c1,0,2.2-0.2,3.2-0.8c1-0.6,2.2-1.5,3.2-2.7
		c1-1.2,2.1-2.5,2.9-4c0.8-1.5,1.6-3.3,2.3-5.4c0.7-2.1,0.9-4.2,0.9-6.1c0-1.7-0.3-2.9-1-3.7c-0.7-0.8-1.7-1.4-2.7-1.4
		c-2.2,0-4.5,1.4-6.5,3.8c-2.2,2.5-3.7,5.5-4.8,8.9L215,1034.4z"/>
	<path class="st1" d="M245.2,1026c-0.1,0.9-0.2,1.8-0.2,2.5c0,1.8,0.6,3.3,2,4.7s2.9,2,4.7,2c1.5,0,2.9-0.3,4.3-0.9
		c1.4-0.6,3.3-2,6-4l0.6,0.8c-4.8,4.8-9.6,7.3-14,7.3c-3,0-5.2-0.9-6.8-2.8c-1.6-2-2.3-4-2.3-6.2c0-3,0.9-6.1,2.8-9.5
		c2-3.2,4.3-5.7,7.2-7.5s5.8-2.7,8.8-2.7c2.2,0,3.7,0.5,4.8,1.4s1.6,2,1.6,3.1c0,1.7-0.7,3.3-2.1,5c-1.8,2.1-4.5,3.7-7.9,5
		C252.7,1024.9,249.5,1025.5,245.2,1026z M245.6,1024.6c3-0.3,5.5-0.9,7.5-1.8c2.5-1,4.5-2.4,5.7-4c1.2-1.6,2-3,2-4.5
		c0-0.8-0.2-1.6-0.8-2.1c-0.6-0.5-1.4-0.8-2.3-0.8c-2.1,0-4.4,1-6.7,3.3C248.5,1016.8,246.7,1020.1,245.6,1024.6z"/>
	<path class="st1" d="M267.3,1011.5l10.6-1.8l-4.5,15c3.6-6.1,6.9-10.5,9.8-12.9c1.7-1.5,3-2.1,4.2-2.1c0.7,0,1.2,0.2,1.6,0.6
		c0.3,0.3,0.6,0.9,0.6,1.8c0,1.4-0.3,2.7-1,3.8c-0.5,0.9-1.2,1.4-2.2,1.4c-0.5,0-0.8-0.1-1.2-0.5c-0.3-0.3-0.6-0.7-0.6-1.5
		c0-0.3-0.1-0.6-0.2-0.7c-0.1-0.1-0.3-0.2-0.6-0.2c-0.3,0-0.7,0.1-0.9,0.2c-0.5,0.2-1.4,1-2.4,2.4c-1.7,2.1-3.6,4.6-5.5,7.9
		c-0.8,1.4-1.6,2.9-2.2,4.6c-0.8,2.3-1.4,3.7-1.5,4.3l-0.9,3.8h-4.7l5.7-19.2c0.6-2.2,0.9-3.8,0.9-4.7c0-0.3-0.1-0.6-0.5-0.9
		c-0.3-0.3-0.9-0.5-1.6-0.5c-0.5,0-1.2,0.1-2.4,0.2L267.3,1011.5z"/>
	<path class="st1" d="M315.8,1019.4c0,3.1-0.8,6.1-2.4,9.1c-1.7,3-3.8,5.4-6.8,7.3c-2.9,1.8-5.8,2.7-8.4,2.7c-2.8,0-5.1-0.8-6.9-2.7
		c-1.8-1.8-2.7-4.2-2.7-7c0-3,0.8-6,2.7-9.1c1.7-3,4.2-5.4,7-7.3s5.7-2.7,8.4-2.7c2.8,0,5,0.8,6.8,2.7
		C314.9,1014.2,315.8,1016.6,315.8,1019.4z M310.6,1017.3c0-2-0.5-3.3-1.5-4.5c-0.9-0.9-2.2-1.6-3.6-1.6c-3,0-5.8,2.2-8.3,6.5
		c-2.5,4.4-3.8,8.7-3.8,12.9c0,2,0.5,3.5,1.5,4.5c0.9,0.9,2.3,1.6,3.7,1.6c2.9,0,5.7-2.2,8.2-6.4
		C309.4,1026.1,310.6,1021.7,310.6,1017.3z"/>
	<path class="st1" d="M352.8,1009.7l-2,9.6h-1.2c-0.1-2.8-0.7-4.7-1.8-6c-1-1.2-2.4-2-4-2c-1.2,0-2.3,0.3-3,1c-0.7,0.7-1,1.6-1,2.5
		c0,0.7,0.1,1.4,0.5,2c0.2,0.6,0.9,1.5,2,2.5c2.7,2.9,4.4,5.2,5.2,6.7c0.7,1.5,1.2,2.9,1.2,4.3c0,2.2-0.8,4-2.7,5.7
		c-1.8,1.7-4,2.4-6.8,2.4c-1.5,0-3.1-0.3-5.2-1c-0.7-0.2-1.2-0.3-1.6-0.3c-0.9,0-1.6,0.5-2.1,1.5h-0.9l2-10h1.2
		c0.1,3.1,0.7,5.3,2,6.7c1.3,1.4,2.8,2,4.8,2c1.6,0,2.8-0.5,3.7-1.4c0.9-0.8,1.4-2,1.4-3.2c0-0.8-0.1-1.6-0.5-2.3
		c-0.6-1.2-1.8-2.9-3.6-5.1c-1.8-2.2-3-3.8-3.5-5c-0.5-1-0.8-2.2-0.8-3.2c0-2.1,0.7-3.6,2.2-5.1c1.5-1.5,3.3-2.1,5.5-2.1
		c0.6,0,1.2,0,1.8,0.1c0.2,0.1,0.9,0.3,2.1,0.7c1.2,0.3,1.8,0.6,2.2,0.6c0.8,0,1.6-0.5,2.2-1.5h0.9v0H352.8z"/>
	<path class="st1" d="M367.2,1009.7l-6,21.6c-0.3,1.5-0.6,2.3-0.6,2.7s0.1,0.6,0.2,0.8c0.2,0.2,0.3,0.3,0.7,0.3c0.3,0,0.7-0.1,1-0.5
		c1.2-0.9,2.4-2.3,3.6-4l1,0.7c-1.5,2.2-3,3.8-5,5.4c-1.4,1-2.7,1.6-4,1.6c-0.8,0-1.6-0.2-2.1-0.7c-0.5-0.5-0.8-1-0.8-2
		c0-0.9,0.2-2.1,0.7-3.7l4-13.9c0.6-2.3,0.9-3.6,0.9-4.3c0-0.5-0.1-0.8-0.5-1s-0.7-0.5-1.4-0.5c-0.5,0-1.5,0.1-2.8,0.3v-1.2
		L367.2,1009.7z M366.8,997.6c0.8,0,1.6,0.2,2.2,0.8c0.6,0.6,0.8,1.4,0.8,2.2c0,0.8-0.2,1.6-0.8,2.2c-0.6,0.6-1.4,0.9-2.2,0.9
		c-0.8,0-1.6-0.3-2.2-0.9c-0.6-0.6-0.9-1.4-0.9-2.2c0-0.8,0.2-1.6,0.8-2.2C365.2,997.8,365.9,997.6,366.8,997.6z"/>
	<path class="st1" d="M412.1,1009.7l-10.2,34.9c-0.5,1.6-0.6,2.7-0.6,3.1s0.1,0.8,0.3,1.2c0.2,0.3,0.6,0.6,0.9,0.7
		c0.6,0.2,1.5,0.3,2.5,0.3l-0.3,1.2H390l0.3-1.2c2.1-0.1,3.2-0.3,3.7-0.5c0.8-0.3,1.5-0.8,2-1.6c0.5-0.7,1-2.2,1.7-4.4l4.3-15.2
		c-2.7,4-5.2,6.8-7.6,8.3c-1.7,1-3.2,1.7-4.6,1.7c-2.1,0-3.6-0.8-4.7-2.5c-1-1.7-1.6-3.5-1.6-5.4c0-3.1,0.9-6.4,2.9-9.8
		c2-3.3,4.5-6.1,7.6-8.4c2.4-1.7,4.6-2.5,6.7-2.5c1.5,0,2.7,0.3,3.6,1c0.9,0.7,1.7,1.8,2.1,3.3l0.9-3.5L412.1,1009.7z M404.9,1015.7
		c0-1.4-0.3-2.4-1.2-3.2c-0.8-0.8-1.8-1.2-3-1.2c-2.5,0-5.2,2.2-8,6.5c-2.8,4.4-4.2,8.4-4.2,12.2c0,1.6,0.3,2.7,1,3.5
		s1.6,1.2,2.5,1.2c1.4,0,2.7-0.7,4.4-2.1c2.4-2.2,4.4-4.8,6-8.2C404.2,1021.1,404.9,1018.1,404.9,1015.7z"/>
	<path class="st1" d="M441.4,1010.4l-5.3,18.4c-0.8,2.8-1.2,4.5-1.2,5.2c0,0.3,0.1,0.6,0.2,0.8c0.1,0.1,0.3,0.2,0.5,0.2
		c0.3,0,0.7-0.1,1.2-0.5c0.3-0.3,1.5-1.6,3.1-3.8l0.9,0.7c-1.7,2.5-3.2,4.5-5.1,5.7c-1,0.7-2.2,1.2-3.2,1.2c-0.8,0-1.5-0.2-2-0.7
		c-0.5-0.5-0.7-1-0.7-1.7c0-0.7,0.1-1.7,0.3-2.8c0.3-1.5,1.4-4.8,2.8-9.9c-3.5,5.8-6.4,9.7-8.8,11.8c-2.3,2.2-4.6,3.2-6.5,3.2
		c-0.9,0-1.7-0.3-2.4-0.9s-0.9-1.5-0.9-2.5c0-1.6,0.5-3.8,1.4-7.2l2.8-9.6c0.6-2.3,0.9-3.7,0.9-4.3c0-0.2-0.1-0.5-0.2-0.6
		c-0.1-0.1-0.3-0.2-0.6-0.2c-0.5,0-0.8,0.1-1.4,0.5c-0.5,0.3-1.5,1.5-2.9,3.3l-0.9-0.6c1.6-2.4,3.1-4.2,5-5.3
		c1.4-0.8,2.5-1.4,3.6-1.4c0.7,0,1.5,0.2,2,0.7c0.5,0.5,0.7,1,0.7,2c0,1-0.3,3.1-1.2,5.9l-2.9,10c-0.8,2.8-1.2,4.5-1.2,5.2
		c0,0.3,0.1,0.7,0.3,0.9c0.2,0.2,0.6,0.3,1,0.3c0.6,0,1.6-0.3,2.7-0.9c1-0.7,2.5-2.2,4.4-4.5c1.8-2.3,3.2-4.6,4.5-6.5
		c1.2-2.1,2.4-5.3,3.7-9.8l0.7-2.3h4.7v0H441.4z"/>
	<path class="st1" d="M448.8,1026c-0.1,0.9-0.2,1.8-0.2,2.5c0,1.8,0.6,3.3,2,4.7c1.4,1.4,2.9,2,4.7,2c1.5,0,2.9-0.3,4.3-0.9
		c1.4-0.6,3.3-2,6-4l0.6,0.8c-4.8,4.8-9.6,7.3-14,7.3c-3,0-5.2-0.9-6.8-2.8c-1.6-2-2.3-4-2.3-6.2c0-3,0.9-6.1,2.8-9.5
		c2-3.2,4.3-5.7,7.2-7.5c2.9-1.8,5.8-2.7,8.8-2.7c2.2,0,3.7,0.5,4.8,1.4c1,0.8,1.6,2,1.6,3.1c0,1.7-0.7,3.3-2.1,5
		c-1.8,2.1-4.5,3.7-7.9,5C456.3,1024.9,453,1025.5,448.8,1026z M449,1024.6c3-0.3,5.5-0.9,7.5-1.8c2.5-1,4.5-2.4,5.7-4
		c1.2-1.6,2-3,2-4.5c0-0.8-0.2-1.6-0.8-2.1c-0.6-0.5-1.4-0.8-2.3-0.8c-2.1,0-4.4,1-6.7,3.3C451.9,1016.8,450.2,1020.1,449,1024.6z"
		/>
	<path class="st1" d="M470.7,1011.5l10.6-1.8l-4.5,15c3.6-6.1,6.9-10.5,9.8-12.9c1.7-1.5,3-2.1,4.2-2.1c0.7,0,1.2,0.2,1.6,0.6
		c0.3,0.3,0.6,0.9,0.6,1.8c0,1.4-0.3,2.7-1,3.8c-0.5,0.9-1.2,1.4-2.2,1.4c-0.5,0-0.8-0.1-1.2-0.5c-0.3-0.3-0.6-0.7-0.6-1.5
		c0-0.3-0.1-0.6-0.2-0.7c-0.1-0.1-0.3-0.2-0.6-0.2c-0.3,0-0.7,0.1-0.9,0.2c-0.5,0.2-1.4,1-2.4,2.4c-1.7,2.1-3.6,4.6-5.5,7.9
		c-0.8,1.4-1.6,2.9-2.2,4.6c-0.8,2.3-1.4,3.7-1.5,4.3l-0.9,3.8H469l5.7-19.2c0.6-2.2,0.9-3.8,0.9-4.7c0-0.3-0.1-0.6-0.5-0.9
		c-0.3-0.3-0.9-0.5-1.6-0.5c-0.5,0-1.2,0.1-2.4,0.2L470.7,1011.5z"/>
	<path class="st1" d="M497.5,1026c-0.1,0.9-0.2,1.8-0.2,2.5c0,1.8,0.6,3.3,2,4.7s2.9,2,4.7,2c1.5,0,2.9-0.3,4.3-0.9
		c1.4-0.6,3.3-2,6-4l0.6,0.8c-4.8,4.8-9.6,7.3-14,7.3c-3,0-5.2-0.9-6.8-2.8c-1.6-2-2.3-4-2.3-6.2c0-3,0.9-6.1,2.8-9.5
		c2-3.2,4.3-5.7,7.2-7.5s5.8-2.7,8.8-2.7c2.2,0,3.7,0.5,4.8,1.4c1.2,0.9,1.6,2,1.6,3.1c0,1.7-0.7,3.3-2.1,5c-1.8,2.1-4.5,3.7-7.9,5
		C505,1024.9,501.8,1025.5,497.5,1026z M497.8,1024.6c3-0.3,5.5-0.9,7.5-1.8c2.5-1,4.5-2.4,5.7-4c1.2-1.6,2-3,2-4.5
		c0-0.8-0.2-1.6-0.8-2.1c-0.6-0.5-1.4-0.8-2.3-0.8c-2.1,0-4.4,1-6.7,3.3C500.7,1016.8,498.9,1020.1,497.8,1024.6z M516.4,994.3
		l-9,10.6h-1l3.1-10.6H516.4z"/>
	<path class="st1" d="M530.7,1009.7l-6,21.6c-0.3,1.5-0.6,2.3-0.6,2.7s0.1,0.6,0.2,0.8c0.2,0.2,0.3,0.3,0.7,0.3c0.3,0,0.7-0.1,1-0.5
		c1.2-0.9,2.4-2.3,3.6-4l1,0.7c-1.5,2.2-3,3.8-5,5.4c-1.4,1-2.7,1.6-4,1.6c-0.8,0-1.6-0.2-2.1-0.7c-0.5-0.5-0.8-1-0.8-2
		c0-0.9,0.2-2.1,0.7-3.7l4-13.9c0.6-2.3,0.9-3.6,0.9-4.3c0-0.5-0.1-0.8-0.5-1c-0.3-0.2-0.7-0.5-1.4-0.5c-0.5,0-1.5,0.1-2.8,0.3v-1.2
		L530.7,1009.7z M530.3,997.6c0.8,0,1.6,0.2,2.2,0.8c0.6,0.6,0.8,1.4,0.8,2.2c0,0.8-0.2,1.6-0.8,2.2c-0.6,0.6-1.4,0.9-2.2,0.9
		c-0.8,0-1.6-0.3-2.2-0.9c-0.6-0.6-0.9-1.4-0.9-2.2c0-0.8,0.2-1.6,0.8-2.2C528.7,997.8,529.4,997.6,530.3,997.6z"/>
	<path class="st1" d="M554.7,1009.7l-2,9.6h-1.2c-0.1-2.8-0.7-4.7-1.8-6c-1-1.2-2.4-2-4-2c-1.2,0-2.3,0.3-3,1c-0.7,0.7-1,1.6-1,2.5
		c0,0.7,0.1,1.4,0.5,2c0.2,0.6,0.9,1.5,2,2.5c2.7,2.9,4.4,5.2,5.2,6.7c0.7,1.5,1.2,2.9,1.2,4.3c0,2.2-0.8,4-2.7,5.7
		c-1.8,1.7-4,2.4-6.8,2.4c-1.5,0-3.1-0.3-5.2-1c-0.7-0.2-1.2-0.3-1.6-0.3c-0.9,0-1.6,0.5-2.1,1.5h-1l2-10h1.2c0.1,3.1,0.7,5.3,2,6.7
		c1.3,1.4,2.8,2,4.8,2c1.6,0,2.8-0.5,3.7-1.4c0.9-0.8,1.4-2,1.4-3.2c0-0.8-0.1-1.6-0.5-2.3c-0.6-1.2-1.8-2.9-3.6-5.1
		c-1.8-2.2-3-3.8-3.5-5c-0.5-1-0.8-2.2-0.8-3.2c0-2.1,0.7-3.6,2.2-5.1c1.5-1.4,3.3-2.1,5.5-2.1c0.6,0,1.2,0,1.8,0.1
		c0.2,0.1,0.9,0.3,2.1,0.7c1.2,0.3,1.8,0.6,2.2,0.6c0.8,0,1.6-0.5,2.2-1.5h1v0H554.7z"/>
	<path class="st1" d="M586.8,993.8l-8.7,29.9c3.7-5.7,6.7-9.5,8.7-11.2c2-1.7,4.2-2.8,6-2.8c0.9,0,1.8,0.3,2.4,1
		c0.6,0.7,0.9,1.6,0.9,2.8c0,1.4-0.2,3-0.8,5l-3.7,12.9c-0.5,1.6-0.7,2.4-0.7,2.7s0.1,0.5,0.2,0.7c0.1,0.1,0.3,0.2,0.6,0.2
		s0.6-0.1,0.9-0.3c1.2-0.9,2.3-2.2,3.5-3.7l0.9,0.6c-0.7,1-1.7,2.3-2.9,3.6c-1.2,1.4-2.3,2.2-3.2,2.7c-0.8,0.5-1.7,0.7-2.4,0.7
		s-1.5-0.2-2-0.7c-0.5-0.5-0.7-1-0.7-1.8c0-0.9,0.3-2.7,1-5.1l3.6-12.4c0.5-1.6,0.6-2.8,0.6-3.6c0-0.3-0.1-0.7-0.3-0.9
		s-0.6-0.3-0.9-0.3c-0.6,0-1.2,0.2-2.1,0.7c-1.5,0.8-3,2.5-4.8,4.8c-0.5,0.6-2.2,3.2-5,7.7c-0.8,1.5-1.6,3-2.2,4.7l-2,6.2h-4.6
		l10.2-35.2l1-3.8c0-0.5-0.2-0.9-0.7-1.5c-0.5-0.3-0.9-0.6-1.6-0.6c-0.3,0-0.9,0.1-1.7,0.2l-0.6,0.1v-1.2L586.8,993.8z"/>
	<path class="st1" d="M627.6,1009.7l-6,20.9l-0.7,2.8c0,0.2-0.1,0.5-0.1,0.6c0,0.3,0.1,0.6,0.3,0.8c0.1,0.1,0.3,0.2,0.6,0.2
		s0.6-0.1,1-0.5c0.8-0.6,1.8-1.8,3.2-3.6l1,0.7c-1.5,2.2-2.9,3.7-4.4,4.8c-1.5,1-2.9,1.7-4.3,1.7c-0.8,0-1.6-0.2-2-0.6
		c-0.5-0.5-0.7-1-0.7-2c0-0.9,0.2-2.3,0.7-4l0.6-2.3c-2.7,3.5-5.2,6-7.5,7.4c-1.7,0.9-3.2,1.5-4.8,1.5c-1.5,0-2.8-0.6-3.8-1.8
		c-1-1.3-1.6-2.9-1.6-5.1c0-3.2,0.9-6.8,2.9-10.4c2-3.6,4.5-6.5,7.5-8.7c2.3-1.7,4.6-2.7,6.7-2.7c1.4,0,2.3,0.3,3.1,0.9
		c0.8,0.7,1.5,1.8,2,3.2l1-3.5L627.6,1009.7z M616.5,1011.3c-1.4,0-2.7,0.6-4.3,2c-2.2,1.7-4,4.4-5.7,7.7c-1.7,3.3-2.4,6.5-2.4,9.4
		c0,1.4,0.3,2.5,1,3.2c0.7,0.8,1.6,1.2,2.4,1.2c2.2,0,4.7-1.7,7.3-5c3.5-4.4,5.3-8.9,5.3-13.5c0-1.7-0.3-3-0.9-3.7
		C618.6,1011.8,617.7,1011.3,616.5,1011.3z"/>
	<path class="st1" d="M651.9,1030.9c-2.2,2.5-4.4,4.5-6.5,5.7c-2.2,1.2-4.5,1.8-6.9,1.8c-2.9,0-5.2-0.8-6.9-2.4
		c-1.7-1.7-2.4-3.8-2.4-6.7c0-3.1,0.8-6.2,2.7-9.4c1.8-3,4.2-5.5,7.2-7.5c3-2,5.9-2.9,8.7-2.9c2.3,0,4,0.5,5.1,1.5
		c1,0.9,1.7,2.1,1.7,3.5s-0.3,2.4-1.2,3.2c-0.6,0.7-1.2,1-2.1,1c-0.6,0-1.2-0.2-1.6-0.6c-0.5-0.3-0.6-0.9-0.6-1.6
		c0-0.3,0.1-0.7,0.2-1c0.1-0.3,0.5-0.7,0.9-1.2c0.5-0.5,0.7-0.8,0.8-0.9c0.1-0.2,0.1-0.3,0.1-0.6c0-0.5-0.2-0.8-0.6-1
		c-0.6-0.3-1.5-0.6-2.5-0.6c-2.1,0-4,0.7-6,2.2c-2,1.5-3.6,3.3-5.1,6c-1.7,3.1-2.5,6.2-2.5,9.6c0,2.1,0.6,3.7,1.8,5
		c1.3,1.3,2.8,1.8,4.8,1.8c1.6,0,3.1-0.3,4.7-1.2c1.6-0.8,3.2-2.2,5.2-4.4L651.9,1030.9z"/>
	<path class="st1" d="M661,1026c-0.1,0.9-0.2,1.8-0.2,2.5c0,1.8,0.6,3.3,2,4.7c1.4,1.4,2.9,2,4.7,2c1.5,0,2.9-0.3,4.3-0.9
		c1.4-0.6,3.3-2,6-4l0.6,0.8c-4.8,4.8-9.6,7.3-14,7.3c-3,0-5.2-0.9-6.8-2.8c-1.6-2-2.3-4-2.3-6.2c0-3,0.9-6.1,2.8-9.5
		c2-3.2,4.3-5.7,7.2-7.5s5.8-2.7,8.8-2.7c2.2,0,3.7,0.5,4.8,1.4s1.6,2,1.6,3.1c0,1.7-0.7,3.3-2.1,5c-1.8,2.1-4.5,3.7-7.9,5
		C668.4,1024.9,665.3,1025.5,661,1026z M661.3,1024.6c3-0.3,5.5-0.9,7.5-1.8c2.5-1,4.5-2.4,5.7-4c1.2-1.6,2-3,2-4.5
		c0-0.8-0.2-1.6-0.8-2.1c-0.6-0.5-1.4-0.8-2.3-0.8c-2.1,0-4.4,1-6.7,3.3C664,1016.8,662.4,1020.1,661.3,1024.6z"/>
	<path class="st1" d="M683,1011.5l10.6-1.8l-4.5,15c3.6-6.1,6.9-10.5,9.8-12.9c1.7-1.5,3-2.1,4.2-2.1c0.7,0,1.2,0.2,1.6,0.6
		c0.5,0.3,0.6,0.9,0.6,1.8c0,1.4-0.3,2.7-1,3.8c-0.5,0.9-1.2,1.4-2.2,1.4c-0.5,0-0.8-0.1-1.2-0.5c-0.3-0.3-0.6-0.7-0.6-1.5
		c0-0.3-0.1-0.6-0.2-0.7c-0.1-0.1-0.3-0.2-0.6-0.2c-0.3,0-0.7,0.1-0.9,0.2c-0.5,0.2-1.4,1-2.4,2.4c-1.7,2.1-3.6,4.6-5.5,7.9
		c-0.8,1.4-1.6,2.9-2.2,4.6c-0.8,2.3-1.4,3.7-1.5,4.3l-0.9,3.8h-4.8l5.7-19.2c0.6-2.2,0.9-3.8,0.9-4.7c0-0.3-0.1-0.6-0.5-0.9
		c-0.3-0.3-0.9-0.5-1.6-0.5c-0.5,0-1.2,0.1-2.4,0.2L683,1011.5z"/>
	<path class="st1" d="M716.2,1009.7l-4.2,14c3.8-5.8,6.8-9.6,8.8-11.3c2.1-1.8,4-2.8,5.9-2.8c0.9,0,1.8,0.3,2.5,1
		c0.6,0.7,0.9,1.6,0.9,2.7c0,1.2-0.2,2.9-0.8,5l-3.7,13c-0.5,1.5-0.6,2.4-0.6,2.8c0,0.2,0.1,0.5,0.2,0.7c0.1,0.2,0.3,0.2,0.5,0.2
		c0.2,0,0.5-0.1,0.8-0.3c1-0.8,2.3-2.2,3.6-4l0.9,0.6c-2,2.8-3.7,4.7-5.4,5.9c-1.2,0.8-2.3,1.2-3.2,1.2c-0.7,0-1.4-0.2-1.8-0.7
		c-0.5-0.5-0.7-1-0.7-1.8c0-0.9,0.3-2.7,1-5.1l3.6-12.5c0.5-1.6,0.6-2.8,0.6-3.6c0-0.3-0.1-0.7-0.3-0.9s-0.6-0.3-0.9-0.3
		c-0.6,0-1.2,0.2-2.1,0.7c-1.5,0.9-3.1,2.4-4.7,4.6c-1.7,2.2-3.3,4.8-5.2,8.1c-0.9,1.8-1.8,3.6-2.4,5.8l-1.6,5.1h-4.6l5.7-19.3
		c0.6-2.3,0.9-3.7,0.9-4.3c0-0.5-0.2-0.8-0.6-1.2c-0.3-0.3-0.8-0.5-1.4-0.5c-0.2,0-0.7,0-1.4,0.1l-1.2,0.1l-0.2-1L716.2,1009.7z"/>
	<path class="st1" d="M761,1019.4c0,3.1-0.8,6.1-2.4,9.1c-1.7,3-3.8,5.4-6.8,7.3c-2.9,1.8-5.8,2.7-8.4,2.7c-2.8,0-5.1-0.8-6.9-2.7
		s-2.7-4.2-2.7-7c0-3,0.8-6,2.7-9.1c1.7-3,4.2-5.4,7-7.3c2.9-1.8,5.7-2.7,8.4-2.7c2.8,0,5,0.8,6.8,2.7
		C760.2,1014.2,761,1016.6,761,1019.4z M756,1017.3c0-2-0.5-3.3-1.5-4.5c-0.9-0.9-2.2-1.6-3.6-1.6c-3,0-5.8,2.2-8.3,6.5
		c-2.5,4.4-3.8,8.7-3.8,12.9c0,2,0.5,3.5,1.5,4.5c0.9,1,2.3,1.6,3.7,1.6c2.9,0,5.7-2.2,8.2-6.4C754.8,1026.1,756,1021.7,756,1017.3z
		"/>
	<path class="st1" d="M784.5,1009.7l-2,9.6h-1.2c-0.1-2.8-0.7-4.7-1.8-6c-1-1.2-2.4-2-4-2c-1.2,0-2.3,0.3-3,1c-0.7,0.7-1,1.6-1,2.5
		c0,0.7,0.1,1.4,0.5,2c0.2,0.6,0.9,1.5,2,2.5c2.7,2.9,4.4,5.2,5.2,6.7c0.7,1.5,1.2,2.9,1.2,4.3c0,2.2-0.8,4-2.7,5.7
		c-1.8,1.7-4,2.4-6.8,2.4c-1.5,0-3.1-0.3-5.2-1c-0.7-0.2-1.2-0.3-1.6-0.3c-0.9,0-1.6,0.5-2.1,1.5h-1l2-10h1.2c0.1,3.1,0.7,5.3,2,6.7
		c1.3,1.4,2.8,2,4.8,2c1.6,0,2.8-0.5,3.7-1.4c0.9-0.8,1.4-2,1.4-3.2c0-0.8-0.1-1.6-0.5-2.3c-0.6-1.2-1.8-2.9-3.6-5.1
		c-1.8-2.2-3-3.8-3.5-5c-0.5-1-0.8-2.2-0.8-3.2c0-2.1,0.7-3.6,2.2-5.1c1.5-1.4,3.3-2.1,5.5-2.1c0.6,0,1.2,0,1.8,0.1
		c0.2,0.1,0.9,0.3,2.1,0.7c1.2,0.3,1.8,0.6,2.2,0.6c0.8,0,1.6-0.5,2.2-1.5h1v0H784.5z"/>
	<path class="st1" d="M827.8,1010.4l-5.3,18.4c-0.8,2.8-1.2,4.5-1.2,5.2c0,0.3,0.1,0.6,0.2,0.8c0.1,0.1,0.3,0.2,0.5,0.2
		c0.3,0,0.7-0.1,1.2-0.5c0.3-0.3,1.5-1.6,3.1-3.8l0.9,0.7c-1.7,2.5-3.2,4.5-5.1,5.7c-1,0.7-2.2,1.2-3.2,1.2c-0.8,0-1.5-0.2-2-0.7
		c-0.5-0.5-0.7-1-0.7-1.7c0-0.7,0.1-1.7,0.3-2.8c0.3-1.5,1.4-4.8,2.8-9.9c-3.5,5.8-6.4,9.7-8.8,11.8c-2.3,2.2-4.6,3.2-6.5,3.2
		c-0.9,0-1.8-0.3-2.4-0.9c-0.7-0.6-0.9-1.5-0.9-2.5c0-1.6,0.5-3.8,1.4-7.2l2.8-9.6c0.6-2.3,0.9-3.7,0.9-4.3c0-0.2-0.1-0.5-0.2-0.6
		c-0.1-0.1-0.3-0.2-0.6-0.2c-0.5,0-0.8,0.1-1.4,0.5c-0.5,0.3-1.5,1.5-2.9,3.3l-0.9-0.6c1.6-2.4,3.1-4.2,5-5.3
		c1.4-0.8,2.5-1.4,3.6-1.4c0.7,0,1.5,0.2,2,0.7c0.5,0.5,0.7,1,0.7,2c0,1-0.3,3.1-1.2,5.9l-2.9,10c-0.8,2.8-1.2,4.5-1.2,5.2
		c0,0.3,0.1,0.7,0.3,0.9s0.6,0.3,1,0.3c0.7,0,1.6-0.3,2.7-0.9c1-0.7,2.5-2.2,4.4-4.5s3.2-4.6,4.5-6.5c1.2-2.1,2.4-5.3,3.7-9.8
		l0.7-2.3h4.7v0H827.8z"/>
	<path class="st1" d="M841.6,1009.7l-4.2,14c3.8-5.8,6.8-9.6,8.8-11.3c2.1-1.8,4-2.8,5.9-2.8c0.9,0,1.8,0.3,2.5,1
		c0.6,0.7,0.9,1.6,0.9,2.7c0,1.2-0.2,2.9-0.8,5l-3.7,13c-0.5,1.5-0.6,2.4-0.6,2.8c0,0.2,0.1,0.5,0.2,0.7c0.1,0.2,0.3,0.2,0.5,0.2
		c0.2,0,0.5-0.1,0.8-0.3c1-0.8,2.3-2.2,3.6-4l0.9,0.6c-2,2.8-3.7,4.7-5.4,5.9c-1.2,0.8-2.3,1.2-3.2,1.2c-0.7,0-1.4-0.2-1.8-0.7
		c-0.5-0.5-0.7-1-0.7-1.8c0-0.9,0.3-2.7,1-5.1l3.6-12.5c0.5-1.6,0.6-2.8,0.6-3.6c0-0.3-0.1-0.7-0.3-0.9s-0.6-0.3-0.9-0.3
		c-0.6,0-1.2,0.2-2.1,0.7c-1.5,0.9-3.1,2.4-4.7,4.6c-1.7,2.2-3.3,4.8-5.2,8.1c-0.9,1.8-1.8,3.6-2.4,5.8l-1.6,5.1h-4.6l5.7-19.3
		c0.6-2.3,0.9-3.7,0.9-4.3c0-0.5-0.2-0.8-0.6-1.2c-0.3-0.3-0.8-0.5-1.4-0.5c-0.2,0-0.7,0-1.4,0.1l-1.2,0.1l-0.2-1L841.6,1009.7z"/>
	<path class="st1" d="M874.3,1011.5l10.6-1.8l-4.5,15c3.6-6.1,6.9-10.5,9.8-12.9c1.7-1.5,3-2.1,4.2-2.1c0.7,0,1.2,0.2,1.6,0.6
		c0.3,0.3,0.6,0.9,0.6,1.8c0,1.4-0.3,2.7-1,3.8c-0.5,0.9-1.2,1.4-2.2,1.4c-0.5,0-0.8-0.1-1.2-0.5c-0.3-0.3-0.6-0.7-0.6-1.5
		c0-0.3-0.1-0.6-0.2-0.7c-0.1-0.1-0.3-0.2-0.6-0.2c-0.3,0-0.7,0.1-0.9,0.2c-0.5,0.2-1.4,1-2.4,2.4c-1.7,2.1-3.6,4.6-5.5,7.9
		c-0.8,1.4-1.6,2.9-2.2,4.6c-0.8,2.3-1.4,3.7-1.5,4.3l-0.9,3.8h-5l5.8-19.2c0.6-2.2,0.9-3.8,0.9-4.7c0-0.3-0.1-0.6-0.5-0.9
		c-0.3-0.3-0.9-0.5-1.6-0.5c-0.5,0-1.2,0.1-2.4,0.2L874.3,1011.5z"/>
	<path class="st1" d="M901.2,1026c-0.1,0.9-0.2,1.8-0.2,2.5c0,1.8,0.6,3.3,2,4.7c1.4,1.4,2.9,2,4.7,2c1.5,0,2.9-0.3,4.3-0.9
		c1.4-0.6,3.3-2,6-4l0.6,0.8c-4.8,4.8-9.6,7.3-14,7.3c-3,0-5.2-0.9-6.8-2.8c-1.6-2-2.3-4-2.3-6.2c0-3,0.9-6.1,2.8-9.5
		c2-3.2,4.3-5.7,7.2-7.5s5.8-2.7,8.8-2.7c2.2,0,3.7,0.5,4.8,1.4s1.6,2,1.6,3.1c0,1.7-0.7,3.3-2.1,5c-1.8,2.1-4.5,3.7-7.9,5
		C908.6,1024.9,905.4,1025.5,901.2,1026z M901.3,1024.6c3-0.3,5.5-0.9,7.5-1.8c2.5-1,4.5-2.4,5.7-4c1.2-1.6,2-3,2-4.5
		c0-0.8-0.2-1.6-0.8-2.1c-0.6-0.5-1.4-0.8-2.3-0.8c-2.1,0-4.4,1-6.7,3.3C904.3,1016.8,902.6,1020.1,901.3,1024.6z"/>
	<path class="st1" d="M952.7,1011.7l-0.8,3.2h-5.2c0.3,1,0.6,2.2,0.6,3.1c0,2.8-1.2,5.2-3.5,7.3c-2.3,2.1-5.5,3.2-9.6,3.5
		c-2.2,0.6-3.8,1.5-5,2.4c-0.3,0.3-0.6,0.6-0.6,0.9c0,0.3,0.2,0.8,0.6,1c0.3,0.3,1.4,0.7,2.8,0.9l6,1.5c3.2,0.7,5.4,1.7,6.5,2.8
		c1,1,1.6,2.3,1.6,3.7c0,1.7-0.6,3.2-1.8,4.6c-1.2,1.5-3,2.5-5.4,3.2c-2.4,0.8-5.1,1.2-8,1.2c-2.5,0-4.8-0.3-7-0.9
		c-2.1-0.6-3.6-1.5-4.5-2.4c-0.9-0.9-1.4-2.1-1.4-3.1c0-0.8,0.2-1.8,0.8-2.8c0.6-0.9,1.4-1.7,2.2-2.4c0.6-0.3,2.2-1.4,4.7-2.8
		c-0.9-0.7-1.5-1.6-1.5-2.4c0-0.8,0.3-1.7,1.2-2.7c0.8-0.9,2.7-2,5.3-3c-2.3-0.5-4.2-1.4-5.4-2.8c-1.4-1.5-2-3-2-4.8
		c0-2.9,1.4-5.5,3.8-7.9c2.5-2.3,5.9-3.5,10.3-3.5c1.6,0,2.8,0.1,3.7,0.5c0.9,0.3,2,0.8,2.9,1.5h8.8V1011.7z M927.2,1037.6
		c-1.7,0.7-2.9,1.7-3.7,2.9c-0.8,1.2-1.4,2.4-1.4,3.5c0,1.4,0.6,2.5,1.8,3.3c1.8,1.4,4.4,2,7.7,2c2.9,0,5.4-0.5,7.6-1.5
		c2.1-0.9,3.1-2.3,3.1-3.8c0-0.8-0.3-1.6-1.2-2.3c-0.7-0.7-2.3-1.4-4.5-1.8C935.5,1039.8,932.4,1038.9,927.2,1037.6z M942,1016.5
		c0-1.7-0.5-3-1.4-3.8c-0.9-0.9-2.2-1.5-3.6-1.5c-2.3,0-4.3,1.2-5.8,3.5c-1.5,2.3-2.3,4.8-2.3,7.3c0,1.6,0.5,2.9,1.5,3.8
		c0.9,0.9,2.2,1.6,3.5,1.6c1,0,2.2-0.2,3.1-0.8c0.9-0.6,2-1.5,2.5-2.4c0.7-1,1.2-2.4,1.7-4C941.9,1018.5,942,1017.2,942,1016.5z"/>
	<path class="st1" d="M979.1,1009.7l-6,20.9l-0.7,2.8c0,0.2-0.1,0.5-0.1,0.6c0,0.3,0.1,0.6,0.3,0.8c0.1,0.1,0.3,0.2,0.6,0.2
		s0.6-0.1,1-0.5c0.8-0.6,1.8-1.8,3.2-3.6l1,0.7c-1.5,2.2-2.9,3.7-4.4,4.8c-1.5,1-2.9,1.7-4.3,1.7c-0.8,0-1.6-0.2-2-0.6
		c-0.5-0.5-0.7-1-0.7-2c0-0.9,0.2-2.3,0.7-4l0.6-2.3c-2.7,3.5-5.2,6-7.5,7.4c-1.7,0.9-3.2,1.5-4.8,1.5c-1.5,0-2.8-0.6-3.8-1.8
		c-1-1.3-1.6-2.9-1.6-5.1c0-3.2,0.9-6.8,2.9-10.4s4.5-6.5,7.5-8.7c2.3-1.7,4.6-2.7,6.7-2.7c1.4,0,2.3,0.3,3.1,0.9
		c0.8,0.7,1.5,1.8,2,3.2l1-3.5L979.1,1009.7z M968.1,1011.3c-1.4,0-2.7,0.6-4.3,2c-2.2,1.7-4,4.4-5.7,7.7c-1.7,3.3-2.4,6.5-2.4,9.4
		c0,1.4,0.3,2.5,1,3.2c0.7,0.8,1.6,1.2,2.4,1.2c2.2,0,4.7-1.7,7.3-5c3.5-4.4,5.3-8.9,5.3-13.5c0-1.7-0.3-3-0.9-3.7
		C970.3,1011.8,969.2,1011.3,968.1,1011.3z"/>
	<path class="st1" d="M997.8,993.8l-10.5,36.7c-0.5,1.8-0.7,3-0.7,3.3c0,0.3,0.1,0.6,0.2,0.7c0.2,0.2,0.5,0.3,0.7,0.3
		c0.3,0,0.8-0.1,1.2-0.5c1-0.8,2.2-2.2,3.3-3.8l0.9,0.9c-2,2.8-3.7,4.7-5.4,5.8c-1.2,0.7-2.3,1.2-3.5,1.2c-0.7,0-1.5-0.2-2-0.8
		c-0.5-0.5-0.8-1.2-0.8-1.8c0-0.7,0.3-2.3,0.9-4.6l8.4-29c0.6-2.4,0.9-3.7,0.9-4.2c0-0.5-0.2-0.9-0.6-1.2c-0.3-0.2-0.9-0.5-1.8-0.5
		c-0.5,0-1.2,0.1-2.2,0.2v-1.2L997.8,993.8z"/>
	<path class="st1" d="M1023.9,1019.4c0,3.1-0.8,6.1-2.4,9.1c-1.7,3-3.8,5.4-6.8,7.3c-2.9,1.8-5.8,2.7-8.4,2.7
		c-2.8,0-5.1-0.8-6.9-2.7c-1.8-1.8-2.7-4.2-2.7-7c0-3,0.8-6,2.7-9.1c1.7-3,4.2-5.4,7-7.3s5.7-2.7,8.4-2.7s5,0.8,6.8,2.7
		C1023.1,1014.2,1023.9,1016.6,1023.9,1019.4z M1018.8,1017.3c0-2-0.5-3.3-1.5-4.5c-0.9-0.9-2.2-1.6-3.6-1.6c-3,0-5.8,2.2-8.3,6.5
		c-2.5,4.4-3.8,8.7-3.8,12.9c0,2,0.5,3.5,1.5,4.5c0.9,1,2.3,1.6,3.7,1.6c2.9,0,5.7-2.2,8.2-6.4
		C1017.5,1026.1,1018.8,1021.7,1018.8,1017.3z"/>
	<path class="st1" d="M1023.6,1044.6c1.6-0.7,2.8-1.6,3.7-2.7c0.7-0.8,1-1.6,1-2.4c0-0.3-0.1-0.7-0.2-1c-0.1-0.1-0.3-0.5-0.8-0.9
		c-0.5-0.5-0.7-0.8-0.8-0.9c-0.1-0.3-0.2-0.7-0.2-1.2c0-0.8,0.2-1.7,0.8-2.3c0.6-0.6,1.4-0.9,2.2-0.9s1.6,0.3,2.3,0.9
		c0.6,0.7,0.9,1.6,0.9,2.5c0,1.8-0.7,3.7-2.2,5.5c-1.5,2-3.5,3.3-6.2,4.4L1023.6,1044.6z"/>
	<path class="st1" d="M182.9,1106.3l-6,20.9l-0.7,2.8c0,0.2-0.1,0.5-0.1,0.6c0,0.3,0.1,0.6,0.3,0.8c0.1,0.1,0.3,0.2,0.6,0.2
		s0.6-0.1,1-0.5c0.8-0.6,1.8-1.8,3.2-3.6l1,0.7c-1.5,2.2-2.9,3.7-4.4,4.8c-1.5,1.2-2.9,1.7-4.3,1.7c-0.8,0-1.6-0.2-2-0.6
		c-0.3-0.3-0.7-1-0.7-2c0-0.9,0.2-2.3,0.7-4l0.6-2.3c-2.7,3.5-5.2,6-7.5,7.4c-1.7,0.9-3.2,1.5-4.8,1.5c-1.5,0-2.8-0.6-3.8-1.8
		c-1-1.2-1.6-2.9-1.6-5.1c0-3.2,0.9-6.8,2.9-10.4c2-3.6,4.5-6.5,7.5-8.7c2.3-1.7,4.6-2.7,6.7-2.7c1.4,0,2.3,0.3,3.1,0.9
		c0.8,0.7,1.5,1.8,2,3.2l1-3.5L182.9,1106.3z M171.9,1107.8c-1.4,0-2.7,0.6-4.3,2c-2.2,1.7-4,4.4-5.7,7.7c-1.7,3.3-2.4,6.5-2.4,9.4
		c0,1.4,0.3,2.5,1,3.2c0.7,0.8,1.6,1.2,2.4,1.2c2.2,0,4.7-1.7,7.3-5c3.5-4.4,5.3-8.9,5.3-13.5c0-1.7-0.3-3-0.9-3.7
		C173.9,1108.4,172.9,1107.8,171.9,1107.8z"/>
	<path class="st1" d="M212.8,1106.3l-10.2,34.9c-0.5,1.6-0.6,2.7-0.6,3.1s0.1,0.8,0.3,1.2c0.2,0.3,0.6,0.6,0.9,0.7
		c0.6,0.2,1.5,0.3,2.5,0.3l-0.3,1.2h-14.8l0.3-1.2c2.1-0.1,3.2-0.3,3.7-0.5c0.8-0.3,1.5-0.8,2-1.6c0.5-0.7,1-2.2,1.7-4.4l4.3-15.2
		c-2.7,4-5.2,6.8-7.6,8.3c-1.7,1-3.2,1.7-4.6,1.7c-2.1,0-3.6-0.8-4.7-2.5c-1.2-1.7-1.6-3.5-1.6-5.4c0-3.1,0.9-6.4,2.9-9.8
		c2-3.3,4.5-6.1,7.6-8.4c2.4-1.7,4.6-2.5,6.7-2.5c1.5,0,2.7,0.3,3.6,1c0.9,0.7,1.7,1.8,2.1,3.3l0.9-3.5L212.8,1106.3z M205.6,1112.3
		c0-1.4-0.3-2.4-1.2-3.2c-0.8-0.8-1.8-1.2-3-1.2c-2.5,0-5.2,2.2-8,6.5c-2.8,4.4-4.2,8.4-4.2,12.2c0,1.6,0.3,2.7,1,3.5
		c0.7,0.8,1.6,1.2,2.5,1.2c1.4,0,2.7-0.7,4.4-2.1c2.4-2.2,4.4-4.8,6-8.2C204.9,1117.7,205.6,1114.8,205.6,1112.3z"/>
	<path class="st1" d="M242.1,1107l-5.3,18.4c-0.8,2.8-1.2,4.5-1.2,5.2c0,0.3,0.1,0.6,0.2,0.8c0.1,0.1,0.3,0.2,0.5,0.2
		c0.3,0,0.7-0.1,1.2-0.5c0.3-0.3,1.5-1.6,3.1-3.8l0.9,0.7c-1.7,2.5-3.2,4.5-5.1,5.7c-1,0.7-2.2,1.2-3.2,1.2c-0.8,0-1.5-0.2-2-0.7
		c-0.5-0.5-0.7-1-0.7-1.7c0-0.7,0.1-1.7,0.3-2.8c0.3-1.5,1.4-4.8,2.8-9.9c-3.5,5.8-6.4,9.7-8.8,11.8c-2.3,2.2-4.6,3.2-6.5,3.2
		c-0.9,0-1.7-0.3-2.4-0.9c-0.7-0.6-0.9-1.5-0.9-2.5c0-1.6,0.5-3.8,1.4-7.2l2.8-9.6c0.6-2.3,0.9-3.7,0.9-4.3c0-0.2-0.1-0.5-0.2-0.6
		c-0.1-0.1-0.3-0.2-0.6-0.2c-0.5,0-0.8,0.1-1.4,0.5c-0.5,0.3-1.5,1.5-2.9,3.3l-0.9-0.6c1.6-2.4,3.1-4.2,5-5.3
		c1.4-0.8,2.5-1.4,3.6-1.4c0.7,0,1.5,0.2,2,0.7c0.5,0.5,0.7,1,0.7,2c0,1-0.3,3.1-1.2,5.9l-2.9,10c-0.8,2.8-1.2,4.5-1.2,5.2
		c0,0.3,0.1,0.7,0.3,0.9c0.2,0.2,0.6,0.3,1,0.3c0.6,0,1.6-0.3,2.7-0.9c1-0.7,2.5-2.2,4.4-4.5s3.2-4.6,4.5-6.5
		c1.2-2.1,2.4-5.3,3.7-9.8l0.7-2.3h4.7l0,0H242.1z"/>
	<path class="st1" d="M256.5,1106.3l-6,21.6c-0.3,1.5-0.6,2.3-0.6,2.7c0,0.3,0.1,0.6,0.2,0.8c0.2,0.2,0.3,0.3,0.7,0.3
		c0.3,0,0.7-0.1,1-0.5c1.2-0.9,2.4-2.3,3.6-4l1,0.7c-1.5,2.2-3,3.8-5,5.4c-1.4,1-2.7,1.6-4,1.6c-0.8,0-1.6-0.2-2.1-0.7s-0.8-1-0.8-2
		s0.2-2.1,0.7-3.7l4-13.9c0.6-2.3,0.9-3.6,0.9-4.3c0-0.5-0.1-0.8-0.5-1c-0.3-0.2-0.7-0.5-1.4-0.5c-0.5,0-1.5,0.1-2.8,0.3v-1.2
		L256.5,1106.3z M263.1,1091l-9,10.6h-1l3.1-10.6H263.1z"/>
	<path class="st1" d="M305.6,1090.4l-10.6,36.5c-0.6,2-0.8,3.2-0.8,3.8c0,0.2,0.1,0.3,0.2,0.6c0.1,0.1,0.3,0.2,0.5,0.2
		c0.2,0,0.6-0.1,0.9-0.3c0.7-0.5,2-1.7,3.5-3.7l1,0.6c-1.5,2.1-3,3.7-4.5,5c-1.6,1.4-2.9,2-4.3,2c-0.7,0-1.4-0.2-1.7-0.7
		s-0.7-1.2-0.7-2.1c0-1.2,0.3-2.8,0.9-4.7l1.2-3.8c-3,4.6-5.7,7.9-8.1,9.6c-1.7,1.2-3.2,1.8-4.8,1.8s-2.9-0.7-4.2-2.1
		c-1.2-1.4-1.7-3.2-1.7-5.7c0-3,0.9-6.2,2.9-9.8c2-3.6,4.6-6.2,7.7-8.4c2.5-1.8,4.8-2.7,7-2.7c1,0,2.1,0.2,2.9,0.7
		c0.8,0.5,1.6,1.2,2.4,2.3l3-10.7c0.2-0.7,0.3-1.4,0.5-1.8c0.2-0.8,0.3-1.5,0.3-2.1c0-0.5-0.1-0.8-0.5-1c-0.5-0.3-0.9-0.5-1.7-0.5
		c-0.5,0-1.2,0.1-2.3,0.2v-1.2L305.6,1090.4z M294.2,1112.3c0-1.4-0.3-2.4-1-3.1c-0.7-0.8-1.7-1.2-2.9-1.2c-2.7,0-5.3,2.2-8.1,6.4
		c-2.8,4.3-4.3,8.3-4.3,12.4c0,1.6,0.3,2.8,0.9,3.5c0.7,0.8,1.5,1.2,2.4,1.2c2.2,0,4.8-2.3,8.1-6.9
		C292.6,1119.9,294.2,1115.7,294.2,1112.3z"/>
	<path class="st1" d="M308.5,1122.6c-0.1,0.9-0.2,1.8-0.2,2.5c0,1.8,0.6,3.3,2,4.7c1.4,1.4,2.9,2,4.7,2c1.5,0,2.9-0.3,4.3-0.9
		c1.4-0.6,3.3-2,6-4l0.6,0.8c-4.8,4.8-9.6,7.3-14,7.3c-3,0-5.2-0.9-6.8-2.8c-1.6-2-2.3-4-2.3-6.2c0-3,0.9-6.1,2.8-9.5
		c2-3.2,4.3-5.7,7.2-7.5c2.9-1.8,5.8-2.7,8.8-2.7c2.2,0,3.7,0.5,4.8,1.4c1,0.8,1.6,2,1.6,3.1c0,1.7-0.7,3.3-2.1,5
		c-1.8,2.1-4.5,3.7-7.9,5C316,1121.6,312.8,1122.2,308.5,1122.6z M308.9,1121.2c3-0.3,5.5-0.9,7.5-1.8c2.5-1,4.5-2.4,5.7-4
		c1.2-1.6,2-3,2-4.5c0-0.8-0.2-1.6-0.8-2.1c-0.6-0.5-1.4-0.8-2.3-0.8c-2.1,0-4.4,1-6.7,3.3C311.7,1113.5,309.9,1116.7,308.9,1121.2z
		"/>
	<path class="st1" d="M342.1,1106.3l-8,27.6c-1.5,5-3.3,8.4-5.9,10.6c-2.5,2.2-5.2,3.2-8,3.2c-1.4,0-2.3-0.2-2.9-0.8
		c-0.6-0.6-0.9-1.4-0.9-2.2c0-0.6,0.2-1.2,0.7-1.7c0.5-0.5,1-0.7,1.7-0.7s1,0.2,1.6,0.6c0.3,0.3,0.5,0.7,0.5,1
		c0,0.5-0.2,0.9-0.7,1.4c-0.2,0.2-0.3,0.3-0.3,0.6l0.1,0.1c0,0.1,0.1,0.1,0.2,0.1s0.3,0,0.5,0c1.7,0,3.1-0.5,4.4-1.6
		c1.2-1,2.2-3.1,3.1-6.4l6.9-23.7c0.6-2.3,0.9-3.6,0.9-3.8c0-0.5-0.2-0.9-0.6-1.4c-0.5-0.3-0.9-0.6-1.7-0.6c-0.2,0-0.6,0-0.9,0.1
		c-0.2,0-0.7,0.1-1.2,0.2v-1L342.1,1106.3z M341.6,1094.1c0.8,0,1.6,0.2,2.2,0.8c0.6,0.6,0.9,1.4,0.9,2.2c0,0.8-0.3,1.6-0.9,2.2
		c-0.6,0.6-1.4,0.8-2.2,0.8c-0.8,0-1.6-0.2-2.2-0.8s-0.9-1.4-0.9-2.2s0.3-1.6,0.9-2.2C340,1094.4,340.8,1094.1,341.6,1094.1z"/>
	<path class="st1" d="M372.5,1106.3l-6,20.9l-0.7,2.8c0,0.2-0.1,0.5-0.1,0.6c0,0.3,0.1,0.6,0.3,0.8c0.1,0.1,0.3,0.2,0.6,0.2
		s0.6-0.1,1-0.5c0.8-0.6,1.8-1.8,3.2-3.6l1,0.7c-1.5,2.2-2.9,3.7-4.4,4.8c-1.5,1-2.9,1.7-4.3,1.7c-0.8,0-1.6-0.2-2-0.6
		c-0.3-0.3-0.7-1-0.7-2c0-0.9,0.2-2.3,0.7-4l0.6-2.3c-2.7,3.5-5.2,6-7.5,7.4c-1.7,0.9-3.2,1.5-4.8,1.5c-1.5,0-2.8-0.6-3.8-1.8
		c-1-1.2-1.6-2.9-1.6-5.1c0-3.2,0.9-6.8,2.9-10.4c2-3.6,4.5-6.5,7.5-8.7c2.3-1.7,4.6-2.7,6.7-2.7c1.4,0,2.3,0.3,3.1,0.9
		c0.8,0.7,1.5,1.8,2,3.2l1-3.5L372.5,1106.3z M361.5,1107.8c-1.4,0-2.7,0.6-4.3,2c-2.2,1.7-4,4.4-5.7,7.7c-1.7,3.3-2.4,6.5-2.4,9.4
		c0,1.4,0.3,2.5,1,3.2c0.7,0.8,1.6,1.2,2.4,1.2c2.2,0,4.7-1.7,7.3-5c3.5-4.4,5.3-8.9,5.3-13.5c0-1.7-0.3-3-0.9-3.7
		C363.5,1108.4,362.5,1107.8,361.5,1107.8z"/>
	<path class="st1" d="M386.1,1106.3l-4,14c1.8-3.2,3.2-5.8,4.6-7.4c2-2.5,3.8-4.4,5.7-5.5c1-0.6,2.3-0.9,3.3-0.9
		c0.9,0,2,0.3,2.5,0.9c0.7,0.7,1,1.5,1,2.5c0,0.9-0.2,2.3-0.7,4l-2.2,7.9c3.3-6.2,6.5-10.7,9.6-13.3c1.7-1.5,3.2-2.1,5-2.1
		c0.9,0,1.7,0.3,2.3,0.9c0.6,0.6,0.9,1.7,0.9,3c0,1.2-0.2,2.4-0.6,3.7l-3.3,12c-0.7,2.7-1,4.2-1,4.4c0,0.2,0.1,0.5,0.2,0.7
		c0.1,0.1,0.2,0.2,0.5,0.2s0.6-0.2,1-0.6c1.2-0.9,2.3-2.2,3.2-3.6l1,0.6c-0.5,0.8-1.5,2-2.8,3.3c-1.4,1.5-2.4,2.4-3.3,2.9
		c-0.9,0.5-1.8,0.7-2.5,0.7c-0.7,0-1.4-0.2-1.8-0.7s-0.7-1-0.7-1.8c0-0.9,0.3-3,1.2-6l2.8-9.9c0.6-2.3,0.9-3.6,0.9-3.7
		c0.1-0.3,0.1-0.8,0.1-1.2c0-0.5-0.1-0.9-0.3-1.2c-0.2-0.3-0.5-0.5-0.8-0.5c-0.8,0-1.8,0.5-2.8,1.4c-2.9,2.7-5.5,6.2-8,11
		c-1.7,3.1-3.1,7.2-4.6,12h-4.7l5.3-18.7c0.6-2.1,0.8-3.3,0.8-4c0-0.7-0.1-0.9-0.3-1.2c-0.2-0.2-0.5-0.3-0.8-0.3
		c-0.7,0-1.5,0.2-2.2,0.7c-1.2,0.8-2.8,2.5-4.7,5.2c-2,2.7-3.5,5.2-4.5,7.6c-0.5,1-1.7,4.7-3.6,10.9h-4.6l5.7-20.1l0.7-2.5
		c0.1-0.3,0.2-0.7,0.2-0.8c0-0.5-0.2-0.8-0.6-1.2c-0.3-0.3-0.9-0.5-1.6-0.5c-0.2,0-0.9,0.1-2.2,0.3l-0.2-1.2L386.1,1106.3z"/>
	<path class="st1" d="M445.2,1116c0,3.1-0.8,6.1-2.4,9.1c-1.7,3-3.8,5.4-6.8,7.3c-2.9,1.8-5.8,2.7-8.4,2.7c-2.8,0-5.1-0.8-6.9-2.7
		c-1.8-1.8-2.7-4.2-2.7-7c0-3,0.8-6,2.7-9.1c1.7-3,4.2-5.4,7-7.3c2.9-1.8,5.7-2.7,8.4-2.7c2.8,0,5,0.8,6.8,2.7
		C444.4,1110.8,445.2,1113.2,445.2,1116z M440.1,1114c0-2-0.5-3.3-1.5-4.5c-0.9-0.9-2.2-1.6-3.6-1.6c-3,0-5.8,2.2-8.3,6.5
		c-2.5,4.4-3.8,8.7-3.8,12.9c0,2,0.5,3.5,1.5,4.5c0.9,0.9,2.3,1.6,3.7,1.6c2.9,0,5.7-2.2,8.2-6.4
		C438.9,1122.7,440.1,1118.2,440.1,1114z"/>
	<path class="st1" d="M468.6,1106.3l-2,9.6h-1.2c-0.1-2.8-0.7-4.7-1.8-6c-1-1.2-2.4-2-4-2c-1.2,0-2.3,0.3-3,1c-0.7,0.7-1,1.6-1,2.5
		c0,0.7,0.1,1.4,0.5,2c0.2,0.6,0.9,1.5,2,2.5c2.7,2.9,4.4,5.2,5.2,6.7c0.7,1.5,1.2,2.9,1.2,4.3c0,2.2-0.8,4-2.7,5.7
		c-1.8,1.7-4,2.4-6.8,2.4c-1.5,0-3.1-0.3-5.2-1c-0.7-0.2-1.2-0.3-1.6-0.3c-0.9,0-1.6,0.5-2.1,1.5h-1l2-10h1.2c0.1,3.1,0.7,5.3,2,6.7
		c1.2,1.4,2.8,2,4.8,2c1.6,0,2.8-0.5,3.7-1.4c0.9-0.8,1.4-2,1.4-3.2c0-0.8-0.1-1.6-0.5-2.3c-0.6-1.2-1.8-2.9-3.6-5.1
		c-1.8-2.2-3-3.8-3.5-5c-0.5-1-0.8-2.2-0.8-3.2c0-2.1,0.7-3.6,2.2-5.1s3.3-2.1,5.5-2.1c0.6,0,1.2,0,1.8,0.1c0.2,0.1,0.9,0.3,2.1,0.7
		c1,0.3,1.8,0.6,2.2,0.6c0.8,0,1.6-0.5,2.2-1.5h1v0H468.6z"/>
	<path class="st1" d="M496.1,1106.3l-4.2,14c3.8-5.8,6.8-9.6,8.8-11.3c2.1-1.8,4-2.8,5.9-2.8c0.9,0,1.8,0.3,2.5,1
		c0.6,0.7,0.9,1.6,0.9,2.7c0,1.2-0.2,2.9-0.8,5l-3.7,13c-0.5,1.5-0.6,2.4-0.6,2.8c0,0.2,0.1,0.5,0.2,0.7c0.1,0.2,0.3,0.2,0.5,0.2
		c0.2,0,0.5-0.1,0.8-0.3c1-0.8,2.3-2.2,3.6-4l0.9,0.6c-2,2.8-3.7,4.7-5.4,5.9c-1.2,0.8-2.3,1.2-3.2,1.2c-0.7,0-1.4-0.2-1.8-0.7
		c-0.5-0.5-0.7-1-0.7-1.8c0-0.9,0.3-2.7,1-5.1l3.6-12.5c0.5-1.6,0.6-2.8,0.6-3.6c0-0.3-0.1-0.7-0.3-0.9c-0.2-0.2-0.6-0.3-0.9-0.3
		c-0.6,0-1.2,0.2-2.1,0.7c-1.5,0.9-3.1,2.4-4.7,4.6c-1.7,2.2-3.3,4.8-5.2,8.1c-0.9,1.8-1.8,3.6-2.4,5.8l-1.6,5.1h-4.6l5.7-19.3
		c0.6-2.3,0.9-3.7,0.9-4.3c0-0.5-0.2-0.8-0.6-1.2c-0.3-0.3-0.8-0.5-1.4-0.5c-0.2,0-0.7,0-1.4,0.1l-1.2,0.1l-0.2-1L496.1,1106.3z"/>
	<path class="st1" d="M541.5,1107l-5.3,18.4c-0.8,2.8-1.2,4.5-1.2,5.2c0,0.3,0.1,0.6,0.2,0.8c0.1,0.1,0.3,0.2,0.5,0.2
		c0.3,0,0.7-0.1,1.2-0.5c0.3-0.3,1.5-1.6,3.1-3.8l0.9,0.7c-1.7,2.5-3.2,4.5-5.1,5.7c-1,0.7-2.2,1.2-3.2,1.2c-0.8,0-1.5-0.2-2-0.7
		s-0.7-1-0.7-1.7c0-0.7,0.1-1.7,0.3-2.8c0.3-1.5,1.4-4.8,2.8-9.9c-3.5,5.8-6.4,9.7-8.8,11.8c-2.3,2.2-4.6,3.2-6.5,3.2
		c-0.9,0-1.8-0.3-2.4-0.9c-0.7-0.6-0.9-1.5-0.9-2.5c0-1.6,0.5-3.8,1.4-7.2l2.8-9.6c0.6-2.3,0.9-3.7,0.9-4.3c0-0.2-0.1-0.5-0.2-0.6
		c-0.1-0.1-0.3-0.2-0.6-0.2c-0.5,0-0.8,0.1-1.4,0.5c-0.5,0.3-1.5,1.5-2.9,3.3l-0.9-0.6c1.6-2.4,3.1-4.2,5-5.3
		c1.4-0.8,2.5-1.4,3.6-1.4c0.7,0,1.5,0.2,2,0.7s0.7,1,0.7,2c0,1-0.3,3.1-1.2,5.9l-2.9,10c-0.8,2.8-1.2,4.5-1.2,5.2
		c0,0.3,0.1,0.7,0.3,0.9s0.6,0.3,1,0.3c0.7,0,1.6-0.3,2.7-0.9c1-0.7,2.5-2.2,4.4-4.5c1.8-2.3,3.2-4.6,4.5-6.5
		c1.2-2.1,2.4-5.3,3.7-9.8l0.7-2.3h4.7l0,0H541.5z"/>
	<path class="st1" d="M548.9,1122.6c-0.1,0.9-0.2,1.8-0.2,2.5c0,1.8,0.6,3.3,2,4.7c1.4,1.4,2.9,2,4.7,2c1.5,0,2.9-0.3,4.3-0.9
		c1.4-0.6,3.3-2,6-4l0.6,0.8c-4.8,4.8-9.6,7.3-14,7.3c-3,0-5.2-0.9-6.8-2.8c-1.6-2-2.3-4-2.3-6.2c0-3,0.9-6.1,2.8-9.5
		c2-3.2,4.3-5.7,7.2-7.5c2.9-1.8,5.8-2.7,8.8-2.7c2.2,0,3.7,0.5,4.8,1.4c1.2,0.9,1.6,2,1.6,3.1c0,1.7-0.7,3.3-2.1,5
		c-1.8,2.1-4.5,3.7-7.9,5C556.4,1121.6,553.1,1122.2,548.9,1122.6z M549.2,1121.2c3-0.3,5.5-0.9,7.5-1.8c2.5-1,4.5-2.4,5.7-4
		c1.2-1.6,2-3,2-4.5c0-0.8-0.2-1.6-0.8-2.1c-0.6-0.5-1.4-0.8-2.3-0.8c-2.1,0-4.4,1-6.7,3.3C552,1113.5,550.2,1116.7,549.2,1121.2z"
		/>
	<path class="st1" d="M590.4,1106.3l-2,9.6h-1.2c-0.1-2.8-0.7-4.7-1.8-6c-1-1.2-2.4-2-4-2c-1.2,0-2.3,0.3-3,1c-0.7,0.7-1,1.6-1,2.5
		c0,0.7,0.1,1.4,0.5,2c0.2,0.6,0.9,1.5,2,2.5c2.7,2.9,4.4,5.2,5.2,6.7c0.7,1.5,1.2,2.9,1.2,4.3c0,2.2-0.8,4-2.7,5.7
		c-1.8,1.7-4,2.4-6.8,2.4c-1.5,0-3.1-0.3-5.2-1c-0.7-0.2-1.2-0.3-1.6-0.3c-0.9,0-1.6,0.5-2.1,1.5h-1l2-10h1.2c0.1,3.1,0.7,5.3,2,6.7
		s2.8,2,4.8,2c1.6,0,2.8-0.5,3.7-1.4s1.4-2,1.4-3.2c0-0.8-0.1-1.6-0.5-2.3c-0.6-1.2-1.8-2.9-3.6-5.1c-1.8-2.2-3-3.8-3.5-5
		c-0.5-1-0.8-2.2-0.8-3.2c0-2.1,0.7-3.6,2.2-5.1c1.5-1.4,3.3-2.1,5.5-2.1c0.6,0,1.2,0,1.8,0.1c0.2,0.1,0.9,0.3,2.1,0.7
		c1,0.3,1.8,0.6,2.2,0.6c0.8,0,1.6-0.5,2.2-1.5h1v0H590.4z"/>
	<path class="st1" d="M606.5,1098.7l-2.4,8.4h4.8l-0.5,2h-4.8l-5.3,18.1c-0.6,2-0.8,3.2-0.8,3.7c0,0.3,0.1,0.6,0.2,0.8
		c0.1,0.2,0.3,0.2,0.6,0.2c0.5,0,1.2-0.3,2.1-1c0.5-0.3,1.6-1.7,3.3-3.7l0.9,0.8c-2,2.8-3.6,4.7-5.3,5.8c-1.2,0.7-2.3,1.2-3.5,1.2
		c-0.8,0-1.6-0.2-2.2-0.8c-0.6-0.6-0.8-1.4-0.8-2.2c0-1,0.3-2.8,0.9-5.1l5.2-17.9h-4.7l0.3-1.2c2.3-0.6,4.2-1.6,5.7-2.8
		c1.5-1.2,3.1-3.3,5.1-6.4L606.5,1098.7L606.5,1098.7z"/>
	<path class="st1" d="M609.1,1108.2l10.6-1.8l-4.5,15c3.6-6.1,6.9-10.5,9.8-12.9c1.7-1.5,3-2.1,4.2-2.1c0.7,0,1.2,0.2,1.6,0.6
		c0.3,0.3,0.6,0.9,0.6,1.8c0,1.4-0.3,2.7-1,3.8c-0.5,0.9-1.2,1.4-2.2,1.4c-0.5,0-0.8-0.1-1.2-0.5c-0.3-0.3-0.6-0.7-0.6-1.5
		c0-0.3-0.1-0.6-0.2-0.7c-0.1-0.1-0.3-0.2-0.6-0.2c-0.3,0-0.7,0.1-0.9,0.2c-0.5,0.2-1.4,1-2.4,2.4c-1.7,2.1-3.6,4.6-5.5,7.9
		c-0.8,1.4-1.6,2.9-2.2,4.6c-0.8,2.3-1.4,3.7-1.5,4.3l-0.9,3.8h-4.7l5.7-19.2c0.6-2.2,0.9-3.8,0.9-4.7c0-0.3-0.1-0.6-0.5-0.9
		c-0.3-0.3-0.9-0.5-1.6-0.5c-0.5,0-1.2,0.1-2.4,0.2L609.1,1108.2z"/>
	<path class="st1" d="M657.6,1116c0,3.1-0.8,6.1-2.4,9.1c-1.7,3-3.8,5.4-6.8,7.3c-2.9,1.8-5.8,2.7-8.4,2.7c-2.8,0-5.1-0.8-6.9-2.7
		c-1.8-1.8-2.7-4.2-2.7-7c0-3,0.8-6,2.7-9.1c1.7-3,4.2-5.4,7-7.3c2.9-1.8,5.7-2.7,8.4-2.7s5,0.8,6.8,2.7
		C656.8,1110.8,657.6,1113.2,657.6,1116z M652.5,1114c0-2-0.5-3.3-1.5-4.5c-0.9-0.9-2.2-1.6-3.6-1.6c-3,0-5.8,2.2-8.3,6.5
		c-2.5,4.4-3.8,8.7-3.8,12.9c0,2,0.5,3.5,1.5,4.5c0.9,1,2.3,1.6,3.7,1.6c2.9,0,5.7-2.2,8.2-6.4
		C651.2,1122.7,652.5,1118.2,652.5,1114z"/>
	<path class="st1" d="M685.8,1106.3l-4.2,14c3.8-5.8,6.8-9.6,8.8-11.3c2.1-1.8,4-2.8,5.9-2.8c0.9,0,1.8,0.3,2.5,1
		c0.6,0.7,0.9,1.6,0.9,2.7c0,1.2-0.2,2.9-0.8,5l-3.7,13c-0.5,1.5-0.6,2.4-0.6,2.8c0,0.2,0.1,0.5,0.2,0.7c0.1,0.2,0.3,0.2,0.5,0.2
		c0.2,0,0.5-0.1,0.8-0.3c1-0.8,2.3-2.2,3.6-4l0.9,0.6c-2,2.8-3.7,4.7-5.4,5.9c-1.2,0.8-2.3,1.2-3.2,1.2c-0.7,0-1.4-0.2-1.8-0.7
		c-0.5-0.5-0.7-1-0.7-1.8c0-0.9,0.3-2.7,1-5.1l3.6-12.5c0.5-1.6,0.6-2.8,0.6-3.6c0-0.3-0.1-0.7-0.3-0.9c-0.2-0.2-0.6-0.3-0.9-0.3
		c-0.6,0-1.2,0.2-2.1,0.7c-1.5,0.9-3.1,2.4-4.7,4.6c-1.7,2.2-3.3,4.8-5.2,8.1c-0.9,1.8-1.8,3.6-2.4,5.8l-1.6,5.1h-4.6l5.7-19.3
		c0.6-2.3,0.9-3.7,0.9-4.3c0-0.5-0.2-0.8-0.6-1.2c-0.3-0.3-0.8-0.5-1.4-0.5c-0.2,0-0.7,0-1.4,0.1l-1.2,0.1l-0.2-1L685.8,1106.3z"/>
	<path class="st1" d="M731.3,1107l-5.3,18.4c-0.8,2.8-1.2,4.5-1.2,5.2c0,0.3,0.1,0.6,0.2,0.8c0.1,0.1,0.3,0.2,0.5,0.2
		c0.3,0,0.7-0.1,1.2-0.5c0.3-0.3,1.5-1.6,3.1-3.8l0.9,0.7c-1.7,2.5-3.2,4.5-5.1,5.7c-1,0.7-2.2,1.2-3.2,1.2c-0.8,0-1.5-0.2-2-0.7
		s-0.7-1-0.7-1.7c0-0.7,0.1-1.7,0.3-2.8c0.3-1.5,1.4-4.8,2.8-9.9c-3.5,5.8-6.4,9.7-8.8,11.8c-2.3,2.2-4.6,3.2-6.5,3.2
		c-0.9,0-1.8-0.3-2.4-0.9c-0.7-0.6-0.9-1.5-0.9-2.5c0-1.6,0.5-3.8,1.4-7.2l2.8-9.6c0.6-2.3,0.9-3.7,0.9-4.3c0-0.2-0.1-0.5-0.2-0.6
		c-0.1-0.1-0.3-0.2-0.6-0.2c-0.5,0-0.8,0.1-1.4,0.5c-0.5,0.3-1.5,1.5-2.9,3.3l-0.9-0.6c1.6-2.4,3.1-4.2,5-5.3
		c1.4-0.8,2.5-1.4,3.6-1.4c0.7,0,1.5,0.2,2,0.7s0.7,1,0.7,2c0,1-0.3,3.1-1.2,5.9l-2.9,10c-0.8,2.8-1.2,4.5-1.2,5.2
		c0,0.3,0.1,0.7,0.3,0.9s0.6,0.3,1,0.3c0.7,0,1.6-0.3,2.7-0.9c1-0.7,2.5-2.2,4.4-4.5c1.8-2.3,3.2-4.6,4.5-6.5
		c1.2-2.1,2.4-5.3,3.7-9.8l0.7-2.3h4.7l0,0H731.3z M729.4,1091l-9,10.6h-1l3.1-10.6H729.4z"/>
	<path class="st1" d="M744.8,1106.3l-4,14c1.8-3.2,3.2-5.8,4.6-7.4c2-2.5,3.8-4.4,5.7-5.5c1-0.6,2.3-0.9,3.3-0.9
		c0.9,0,2,0.3,2.5,0.9c0.7,0.7,1,1.5,1,2.5c0,0.9-0.2,2.3-0.7,4l-2.2,7.9c3.3-6.2,6.5-10.7,9.6-13.3c1.7-1.5,3.2-2.1,5-2.1
		c0.9,0,1.7,0.3,2.3,0.9c0.6,0.6,0.9,1.7,0.9,3c0,1.2-0.2,2.4-0.6,3.7l-3.3,12c-0.7,2.7-1,4.2-1,4.4c0,0.2,0.1,0.5,0.2,0.7
		c0.1,0.1,0.2,0.2,0.5,0.2s0.6-0.2,1-0.6c1.2-0.9,2.3-2.2,3.2-3.6l1,0.6c-0.5,0.8-1.5,2-2.8,3.3c-1.4,1.5-2.4,2.4-3.3,2.9
		s-1.8,0.7-2.5,0.7s-1.4-0.2-1.8-0.7c-0.5-0.5-0.7-1-0.7-1.8c0-0.9,0.3-3,1.2-6l2.8-9.9c0.6-2.3,0.9-3.6,0.9-3.7
		c0.1-0.3,0.1-0.8,0.1-1.2c0-0.5-0.1-0.9-0.3-1.2c-0.2-0.3-0.5-0.5-0.8-0.5c-0.8,0-1.8,0.5-2.8,1.4c-2.9,2.7-5.5,6.2-8,11
		c-1.7,3.1-3.1,7.2-4.6,12h-4.7l5.3-18.7c0.6-2.1,0.8-3.3,0.8-4c0-0.7-0.1-0.9-0.3-1.2c-0.2-0.2-0.5-0.3-0.8-0.3
		c-0.7,0-1.5,0.2-2.2,0.7c-1.2,0.8-2.8,2.5-4.7,5.2c-2,2.7-3.5,5.2-4.5,7.6c-0.5,1-1.7,4.7-3.6,10.9h-4.6l5.7-20.1l0.7-2.5
		c0.1-0.3,0.2-0.7,0.2-0.8c0-0.5-0.2-0.8-0.6-1.2c-0.3-0.3-0.9-0.5-1.6-0.5c-0.2,0-0.9,0.1-2.2,0.3l-0.2-1.2L744.8,1106.3z"/>
	<path class="st1" d="M782.2,1122.6c-0.1,0.9-0.2,1.8-0.2,2.5c0,1.8,0.6,3.3,2,4.7c1.4,1.4,2.9,2,4.7,2c1.5,0,2.9-0.3,4.3-0.9
		c1.4-0.6,3.3-2,6-4l0.6,0.8c-4.8,4.8-9.6,7.3-14,7.3c-3,0-5.2-0.9-6.8-2.8c-1.6-2-2.3-4-2.3-6.2c0-3,0.9-6.1,2.8-9.5
		c2-3.2,4.3-5.7,7.2-7.5c2.9-1.8,5.8-2.7,8.8-2.7c2.2,0,3.7,0.5,4.8,1.4c1,0.8,1.6,2,1.6,3.1c0,1.7-0.7,3.3-2.1,5
		c-1.8,2.1-4.5,3.7-7.9,5C789.7,1121.6,786.4,1122.2,782.2,1122.6z M782.4,1121.2c3-0.3,5.5-0.9,7.5-1.8c2.5-1,4.5-2.4,5.7-4
		c1.2-1.6,2-3,2-4.5c0-0.8-0.2-1.6-0.8-2.1c-0.6-0.5-1.4-0.8-2.3-0.8c-2.1,0-4.4,1-6.7,3.3C785.3,1113.5,783.7,1116.7,782.4,1121.2z
		"/>
	<path class="st1" d="M804.2,1108.2l10.6-1.8l-4.5,15c3.6-6.1,6.9-10.5,9.8-12.9c1.7-1.5,3-2.1,4.2-2.1c0.7,0,1.2,0.2,1.6,0.6
		c0.3,0.3,0.6,0.9,0.6,1.8c0,1.4-0.3,2.7-1,3.8c-0.5,0.9-1.2,1.4-2.2,1.4c-0.5,0-0.8-0.1-1.2-0.5c-0.3-0.3-0.6-0.7-0.6-1.5
		c0-0.3-0.1-0.6-0.2-0.7s-0.3-0.2-0.6-0.2c-0.3,0-0.7,0.1-0.9,0.2c-0.5,0.2-1.4,1-2.4,2.4c-1.7,2.1-3.6,4.6-5.5,7.9
		c-0.8,1.4-1.6,2.9-2.2,4.6c-0.8,2.3-1.4,3.7-1.5,4.3l-0.9,3.8h-4.7l5.7-19.2c0.6-2.2,0.9-3.8,0.9-4.7c0-0.3-0.1-0.6-0.5-0.9
		c-0.3-0.3-0.9-0.5-1.6-0.5c-0.5,0-1.2,0.1-2.4,0.2L804.2,1108.2z"/>
	<path class="st1" d="M852.7,1116c0,3.1-0.8,6.1-2.4,9.1c-1.7,3-3.8,5.4-6.8,7.3c-2.9,1.8-5.8,2.7-8.4,2.7c-2.8,0-5.1-0.8-6.9-2.7
		c-1.8-1.8-2.7-4.2-2.7-7c0-3,0.8-6,2.7-9.1c1.7-3,4.2-5.4,7-7.3c2.9-1.8,5.7-2.7,8.4-2.7s5,0.8,6.8,2.7
		C851.8,1110.8,852.7,1113.2,852.7,1116z M847.5,1114c0-2-0.5-3.3-1.5-4.5c-0.9-0.9-2.2-1.6-3.6-1.6c-3,0-5.8,2.2-8.3,6.5
		c-2.5,4.3-3.8,8.7-3.8,12.9c0,2,0.5,3.5,1.5,4.5c0.9,1,2.3,1.6,3.7,1.6c2.9,0,5.7-2.2,8.2-6.4
		C846.4,1122.7,847.5,1118.2,847.5,1114z"/>
	<path class="st1" d="M901.1,1090.4l-10.6,36.5c-0.6,2-0.8,3.2-0.8,3.8c0,0.2,0.1,0.3,0.2,0.6c0.1,0.1,0.3,0.2,0.5,0.2
		c0.2,0,0.6-0.1,0.9-0.3c0.7-0.5,2-1.7,3.5-3.7l1,0.6c-1.5,2.1-3,3.7-4.5,5c-1.6,1.4-2.9,2-4.3,2c-0.7,0-1.4-0.2-1.7-0.7
		c-0.3-0.5-0.7-1.2-0.7-2.1c0-1.2,0.3-2.8,0.9-4.7l1.2-3.8c-3,4.6-5.7,7.9-8.1,9.6c-1.7,1.2-3.2,1.8-4.8,1.8c-1.6,0-2.9-0.7-4.2-2.1
		c-1.2-1.4-1.7-3.2-1.7-5.7c0-3,0.9-6.2,2.9-9.8c2-3.6,4.6-6.2,7.7-8.4c2.5-1.8,4.8-2.7,7-2.7c1,0,2.1,0.2,2.9,0.7
		c0.8,0.5,1.6,1.2,2.4,2.3l3-10.7c0.2-0.7,0.3-1.4,0.5-1.8c0.2-0.8,0.3-1.5,0.3-2.1c0-0.5-0.1-0.8-0.5-1c-0.5-0.3-0.9-0.5-1.7-0.5
		c-0.5,0-1.2,0.1-2.3,0.2v-1.2L901.1,1090.4z M889.7,1112.3c0-1.4-0.3-2.4-1-3.1c-0.7-0.8-1.7-1.2-2.9-1.2c-2.7,0-5.3,2.2-8.1,6.4
		c-2.8,4.3-4.3,8.3-4.3,12.4c0,1.6,0.3,2.8,0.9,3.5c0.7,0.8,1.5,1.2,2.4,1.2c2.2,0,4.8-2.3,8.1-6.9
		C887.9,1119.9,889.7,1115.7,889.7,1112.3z"/>
	<path class="st1" d="M904.1,1122.6c-0.1,0.9-0.2,1.8-0.2,2.5c0,1.8,0.6,3.3,2,4.7c1.4,1.4,2.9,2,4.7,2c1.5,0,2.9-0.3,4.3-0.9
		c1.4-0.6,3.3-2,6-4l0.6,0.8c-4.8,4.8-9.6,7.3-14,7.3c-3,0-5.2-0.9-6.8-2.8c-1.6-2-2.3-4-2.3-6.2c0-3,0.9-6.1,2.8-9.5
		c2-3.2,4.3-5.7,7.2-7.5c2.9-1.8,5.8-2.7,8.8-2.7c2.2,0,3.7,0.5,4.8,1.4s1.6,2,1.6,3.1c0,1.7-0.7,3.3-2.1,5c-1.8,2.1-4.5,3.7-7.9,5
		C911.5,1121.6,908.3,1122.2,904.1,1122.6z M904.3,1121.2c3-0.3,5.5-0.9,7.5-1.8c2.5-1,4.5-2.4,5.7-4c1.2-1.6,2-3,2-4.5
		c0-0.8-0.2-1.6-0.8-2.1c-0.6-0.5-1.4-0.8-2.3-0.8c-2.1,0-4.4,1-6.7,3.3C907.2,1113.5,905.4,1116.7,904.3,1121.2z"/>
	<path class="st1" d="M960.9,1127.6c-2.2,2.5-4.4,4.5-6.5,5.7c-2.2,1.2-4.5,1.8-6.9,1.8c-2.9,0-5.2-0.8-6.9-2.4
		c-1.7-1.7-2.4-3.8-2.4-6.7c0-3.1,0.8-6.2,2.7-9.4c1.8-3,4.2-5.5,7.2-7.5c3-2,5.9-2.9,8.7-2.9c2.3,0,4,0.5,5.1,1.5
		c1,1,1.7,2.1,1.7,3.5s-0.3,2.4-1.2,3.2c-0.6,0.7-1.2,1-2.1,1c-0.6,0-1.2-0.2-1.6-0.6c-0.3-0.3-0.6-0.9-0.6-1.6c0-0.3,0.1-0.7,0.2-1
		c0.1-0.3,0.5-0.7,0.9-1.2s0.7-0.8,0.8-0.9c0.1-0.2,0.1-0.3,0.1-0.6c0-0.5-0.2-0.8-0.6-1c-0.6-0.3-1.5-0.6-2.5-0.6
		c-2.1,0-4,0.7-6,2.2c-2,1.5-3.6,3.3-5.1,6c-1.7,3.1-2.5,6.2-2.5,9.6c0,2.1,0.6,3.7,1.8,5c1.2,1.2,2.8,1.8,4.8,1.8
		c1.6,0,3.1-0.3,4.7-1.2c1.6-0.8,3.2-2.2,5.2-4.4L960.9,1127.6z"/>
	<path class="st1" d="M992.3,1107l-5.3,18.4c-0.8,2.8-1.2,4.5-1.2,5.2c0,0.3,0.1,0.6,0.2,0.8c0.1,0.1,0.3,0.2,0.5,0.2
		c0.3,0,0.7-0.1,1.2-0.5c0.3-0.3,1.5-1.6,3.1-3.8l0.9,0.7c-1.7,2.5-3.2,4.5-5.1,5.7c-1,0.7-2.2,1.2-3.2,1.2c-0.8,0-1.5-0.2-2-0.7
		s-0.7-1-0.7-1.7c0-0.7,0.1-1.7,0.3-2.8c0.3-1.5,1.4-4.8,2.8-9.9c-3.5,5.8-6.4,9.7-8.8,11.8c-2.3,2.2-4.6,3.2-6.5,3.2
		c-0.9,0-1.8-0.3-2.4-0.9c-0.7-0.6-0.9-1.5-0.9-2.5c0-1.6,0.5-3.8,1.4-7.2l2.8-9.6c0.6-2.3,0.9-3.7,0.9-4.3c0-0.2-0.1-0.5-0.2-0.6
		c-0.1-0.1-0.3-0.2-0.6-0.2c-0.5,0-0.8,0.1-1.4,0.5c-0.5,0.3-1.5,1.5-2.9,3.3l-0.9-0.6c1.6-2.4,3.1-4.2,5-5.3
		c1.4-0.8,2.5-1.4,3.6-1.4c0.7,0,1.5,0.2,2,0.7s0.7,1,0.7,2c0,1-0.3,3.1-1.2,5.9l-2.9,10c-0.8,2.8-1.2,4.5-1.2,5.2
		c0,0.3,0.1,0.7,0.3,0.9s0.6,0.3,1,0.3c0.7,0,1.6-0.3,2.7-0.9c1-0.7,2.5-2.2,4.4-4.5s3.2-4.6,4.5-6.5c1.2-2.1,2.4-5.3,3.7-9.8
		l0.7-2.3h4.7l0,0H992.3z"/>
	<path class="st1" d="M999.7,1122.6c-0.1,0.9-0.2,1.8-0.2,2.5c0,1.8,0.6,3.3,2,4.7s2.9,2,4.7,2c1.5,0,2.9-0.3,4.3-0.9
		c1.4-0.6,3.3-2,6-4l0.6,0.8c-4.8,4.8-9.6,7.3-14,7.3c-3,0-5.2-0.9-6.8-2.8c-1.6-2-2.3-4-2.3-6.2c0-3,0.9-6.1,2.8-9.5
		c2-3.2,4.3-5.7,7.2-7.5c2.9-1.8,5.8-2.7,8.8-2.7c2.2,0,3.7,0.5,4.8,1.4c1,0.8,1.6,2,1.6,3.1c0,1.7-0.7,3.3-2.1,5
		c-1.8,2.1-4.5,3.7-7.9,5C1007.2,1121.6,1003.9,1122.2,999.7,1122.6z M1000,1121.2c3-0.3,5.5-0.9,7.5-1.8c2.5-1,4.5-2.4,5.7-4
		c1.2-1.6,2-3,2-4.5c0-0.8-0.2-1.6-0.8-2.1c-0.6-0.5-1.4-0.8-2.3-0.8c-2.1,0-4.4,1-6.7,3.3C1002.8,1113.5,1001,1116.7,1000,1121.2z"
		/>
	<path class="st1" d="M1032.2,1106.3l-4.2,14c3.8-5.8,6.8-9.6,8.8-11.3c2.1-1.8,4-2.8,5.9-2.8c0.9,0,1.8,0.3,2.5,1
		c0.6,0.7,0.9,1.6,0.9,2.7c0,1.2-0.2,2.9-0.8,5l-3.7,13c-0.5,1.5-0.6,2.4-0.6,2.8c0,0.2,0.1,0.5,0.2,0.7c0.1,0.2,0.3,0.2,0.5,0.2
		c0.2,0,0.5-0.1,0.8-0.3c1-0.8,2.3-2.2,3.6-4l0.9,0.6c-2,2.8-3.7,4.7-5.4,5.9c-1.2,0.8-2.3,1.2-3.2,1.2c-0.7,0-1.4-0.2-1.8-0.7
		c-0.5-0.5-0.7-1-0.7-1.8c0-0.9,0.3-2.7,1-5.1l3.6-12.5c0.5-1.6,0.6-2.8,0.6-3.6c0-0.3-0.1-0.7-0.3-0.9c-0.2-0.2-0.6-0.3-0.9-0.3
		c-0.6,0-1.2,0.2-2.1,0.7c-1.5,0.9-3.1,2.4-4.7,4.6c-1.7,2.2-3.3,4.8-5.2,8.1c-0.9,1.8-1.8,3.6-2.4,5.8l-1.6,5.1h-4.6l5.7-19.3
		c0.6-2.3,0.9-3.7,0.9-4.3c0-0.5-0.2-0.8-0.6-1.2c-0.3-0.3-0.8-0.5-1.4-0.5c-0.2,0-0.7,0-1.4,0.1l-1.2,0.1l-0.2-1L1032.2,1106.3z"/>
	<path class="st1" d="M1064.3,1098.7l-2.4,8.4h4.8l-0.5,2h-4.8l-5.3,18.1c-0.6,2-0.8,3.2-0.8,3.7c0,0.3,0.1,0.6,0.2,0.8
		c0.1,0.2,0.3,0.2,0.6,0.2c0.5,0,1.2-0.3,2.1-1c0.5-0.3,1.6-1.7,3.3-3.7l0.9,0.8c-2,2.8-3.6,4.7-5.3,5.8c-1.2,0.7-2.3,1.2-3.5,1.2
		c-0.8,0-1.6-0.2-2.2-0.8s-0.8-1.4-0.8-2.2c0-1,0.3-2.8,0.9-5.1l5.2-17.9h-4.7l0.3-1.2c2.3-0.6,4.2-1.6,5.7-2.8
		c1.5-1.2,3.1-3.3,5.1-6.4L1064.3,1098.7L1064.3,1098.7z"/>
	<path class="st1" d="M1093.1,1106.3l-6,20.9l-0.7,2.8c0,0.2-0.1,0.5-0.1,0.6c0,0.3,0.1,0.6,0.3,0.8c0.1,0.1,0.3,0.2,0.6,0.2
		c0.2,0,0.6-0.1,1-0.5c0.8-0.6,1.8-1.8,3.2-3.6l1,0.7c-1.5,2.2-2.9,3.7-4.4,4.8c-1.5,1.2-2.9,1.7-4.3,1.7c-0.8,0-1.6-0.2-2-0.6
		c-0.3-0.3-0.7-1-0.7-2c0-0.9,0.2-2.3,0.7-4l0.6-2.3c-2.7,3.5-5.2,6-7.5,7.4c-1.7,0.9-3.2,1.5-4.8,1.5c-1.5,0-2.8-0.6-3.8-1.8
		c-1-1.2-1.6-2.9-1.6-5.1c0-3.2,0.9-6.8,2.9-10.4c2-3.6,4.5-6.5,7.5-8.7c2.3-1.7,4.6-2.7,6.7-2.7c1.4,0,2.3,0.3,3.1,0.9
		c0.8,0.7,1.5,1.8,2,3.2l1-3.5L1093.1,1106.3z M1082.2,1107.8c-1.4,0-2.7,0.6-4.3,2c-2.2,1.7-4,4.4-5.7,7.7
		c-1.7,3.3-2.4,6.5-2.4,9.4c0,1.4,0.3,2.5,1,3.2c0.7,0.8,1.6,1.2,2.4,1.2c2.2,0,4.7-1.7,7.3-5c3.5-4.4,5.3-8.9,5.3-13.5
		c0-1.7-0.3-3-0.9-3.7C1084.3,1108.4,1083.4,1107.8,1082.2,1107.8z"/>
</g>
</svg>
